  0
SECTION
  2
HEADER
  9
$ACADVER
  1
AC1024
  9
$ACADMAINTVER
 70
6
  9
$DWGCODEPAGE
  3
ANSI_1252
  9
$LASTSAVEDBY
  1
ezdxf
  9
$INSBASE
 10
0.0
 20
0.0
 30
0.0
  9
$EXTMIN
 10
1e+20
 20
1e+20
 30
1e+20
  9
$EXTMAX
 10
-1e+20
 20
-1e+20
 30
-1e+20
  9
$LIMMIN
 10
0.0
 20
0.0
  9
$LIMMAX
 10
420.0
 20
297.0
  9
$ORTHOMODE
 70
0
  9
$REGENMODE
 70
1
  9
$FILLMODE
 70
1
  9
$QTEXTMODE
 70
0
  9
$MIRRTEXT
 70
1
  9
$LTSCALE
 40
1.0
  9
$ATTMODE
 70
1
  9
$TEXTSIZE
 40
2.5
  9
$TRACEWID
 40
1.0
  9
$TEXTSTYLE
  7
OpenSans
  9
$CLAYER
  8
0
  9
$CELTYPE
  6
ByLayer
  9
$CECOLOR
 62
256
  9
$CELTSCALE
 40
1.0
  9
$DISPSILH
 70
0
  9
$DIMSCALE
 40
1.0
  9
$DIMASZ
 40
0.175
  9
$DIMEXO
 40
0.125
  9
$DIMDLI
 40
3.75
  9
$DIMRND
 40
0.0
  9
$DIMDLE
 40
0.0
  9
$DIMEXE
 40
0.375
  9
$DIMTP
 40
0.0
  9
$DIMTM
 40
0.0
  9
$DIMTXT
 40
0.25
  9
$DIMCEN
 40
2.5
  9
$DIMTSZ
 40
0.0
  9
$DIMTOL
 70
0
  9
$DIMLIM
 70
0
  9
$DIMTIH
 70
0
  9
$DIMTOH
 70
0
  9
$DIMSE1
 70
0
  9
$DIMSE2
 70
0
  9
$DIMTAD
 70
1
  9
$DIMZIN
 70
12
  9
$DIMBLK
  1
ARCHTICK
  9
$DIMASO
 70
1
  9
$DIMSHO
 70
1
  9
$DIMPOST
  1

  9
$DIMAPOST
  1

  9
$DIMALT
 70
0
  9
$DIMALTD
 70
3
  9
$DIMALTF
 40
0.03937007874
  9
$DIMLFAC
 40
100.0
  9
$DIMTOFL
 70
1
  9
$DIMTVP
 40
0.0
  9
$DIMTIX
 70
0
  9
$DIMSOXD
 70
0
  9
$DIMSAH
 70
0
  9
$DIMBLK1
  1

  9
$DIMBLK2
  1

  9
$DIMSTYLE
  2
EZDXF
  9
$DIMCLRD
 70
0
  9
$DIMCLRE
 70
0
  9
$DIMCLRT
 70
0
  9
$DIMTFAC
 40
0.5
  9
$DIMGAP
 40
0.1
  9
$DIMJUST
 70
0
  9
$DIMSD1
 70
0
  9
$DIMSD2
 70
0
  9
$DIMTOLJ
 70
0
  9
$DIMTZIN
 70
8
  9
$DIMALTZ
 70
0
  9
$DIMALTTZ
 70
0
  9
$DIMUPT
 70
1
  9
$DIMDEC
 70
2
  9
$DIMTDEC
 70
2
  9
$DIMALTU
 70
2
  9
$DIMALTTD
 70
3
  9
$DIMTXSTY
  7
OpenSansCondensed-Light
  9
$DIMAUNIT
 70
0
  9
$DIMADEC
 70
2
  9
$DIMALTRND
 40
0.0
  9
$DIMAZIN
 70
3
  9
$DIMDSEP
 70
46
  9
$DIMATFIT
 70
3
  9
$DIMFRAC
 70
0
  9
$DIMLDRBLK
  1

  9
$DIMLUNIT
 70
2
  9
$DIMLWD
 70
-2
  9
$DIMLWE
 70
-2
  9
$DIMTMOVE
 70
2
  9
$DIMFXL
 40
1.0
  9
$DIMFXLON
 70
0
  9
$DIMJOGANG
 40
0.785398163397
  9
$DIMTFILL
 70
0
  9
$DIMTFILLCLR
 70
0
  9
$DIMARCSYM
 70
0
  9
$DIMLTYPE
  6

  9
$DIMLTEX1
  6

  9
$DIMLTEX2
  6

  9
$DIMTXTDIRECTION
 70
0
  9
$LUNITS
 70
2
  9
$LUPREC
 70
4
  9
$SKETCHINC
 40
1.0
  9
$FILLETRAD
 40
10.0
  9
$AUNITS
 70
0
  9
$AUPREC
 70
2
  9
$MENU
  1
.
  9
$ELEVATION
 40
0.0
  9
$PELEVATION
 40
0.0
  9
$THICKNESS
 40
0.0
  9
$LIMCHECK
 70
0
  9
$CHAMFERA
 40
0.0
  9
$CHAMFERB
 40
0.0
  9
$CHAMFERC
 40
0.0
  9
$CHAMFERD
 40
0.0
  9
$SKPOLY
 70
0
  9
$TDCREATE
 40
2461264.7128125
  9
$TDUCREATE
 40
2458532.153996898
  9
$TDUPDATE
 40
2461264.7128125
  9
$TDUUPDATE
 40
2458532.1544311
  9
$TDINDWG
 40
0.0
  9
$TDUSRTIMER
 40
0.0
  9
$USRTIMER
 70
1
  9
$ANGBASE
 50
0.0
  9
$ANGDIR
 70
0
  9
$PDMODE
 70
0
  9
$PDSIZE
 40
0.0
  9
$PLINEWID
 40
0.0
  9
$SPLFRAME
 70
0
  9
$SPLINETYPE
 70
6
  9
$SPLINESEGS
 70
8
  9
$HANDSEED
  5
11E
  9
$SURFTAB1
 70
6
  9
$SURFTAB2
 70
6
  9
$SURFTYPE
 70
6
  9
$SURFU
 70
6
  9
$SURFV
 70
6
  9
$UCSBASE
  2

  9
$UCSNAME
  2

  9
$UCSORG
 10
0.0
 20
0.0
 30
0.0
  9
$UCSXDIR
 10
1.0
 20
0.0
 30
0.0
  9
$UCSYDIR
 10
0.0
 20
1.0
 30
0.0
  9
$UCSORTHOREF
  2

  9
$UCSORTHOVIEW
 70
0
  9
$UCSORGTOP
 10
0.0
 20
0.0
 30
0.0
  9
$UCSORGBOTTOM
 10
0.0
 20
0.0
 30
0.0
  9
$UCSORGLEFT
 10
0.0
 20
0.0
 30
0.0
  9
$UCSORGRIGHT
 10
0.0
 20
0.0
 30
0.0
  9
$UCSORGFRONT
 10
0.0
 20
0.0
 30
0.0
  9
$UCSORGBACK
 10
0.0
 20
0.0
 30
0.0
  9
$PUCSBASE
  2

  9
$PUCSNAME
  2

  9
$PUCSORG
 10
0.0
 20
0.0
 30
0.0
  9
$PUCSXDIR
 10
1.0
 20
0.0
 30
0.0
  9
$PUCSYDIR
 10
0.0
 20
1.0
 30
0.0
  9
$PUCSORTHOREF
  2

  9
$PUCSORTHOVIEW
 70
0
  9
$PUCSORGTOP
 10
0.0
 20
0.0
 30
0.0
  9
$PUCSORGBOTTOM
 10
0.0
 20
0.0
 30
0.0
  9
$PUCSORGLEFT
 10
0.0
 20
0.0
 30
0.0
  9
$PUCSORGRIGHT
 10
0.0
 20
0.0
 30
0.0
  9
$PUCSORGFRONT
 10
0.0
 20
0.0
 30
0.0
  9
$PUCSORGBACK
 10
0.0
 20
0.0
 30
0.0
  9
$USERI1
 70
0
  9
$USERI2
 70
0
  9
$USERI3
 70
0
  9
$USERI4
 70
0
  9
$USERI5
 70
0
  9
$USERR1
 40
0.0
  9
$USERR2
 40
0.0
  9
$USERR3
 40
0.0
  9
$USERR4
 40
0.0
  9
$USERR5
 40
0.0
  9
$WORLDVIEW
 70
1
  9
$SHADEDGE
 70
3
  9
$SHADEDIF
 70
70
  9
$TILEMODE
 70
1
  9
$MAXACTVP
 70
64
  9
$PINSBASE
 10
0.0
 20
0.0
 30
0.0
  9
$PLIMCHECK
 70
0
  9
$PEXTMIN
 10
1e+20
 20
1e+20
 30
1e+20
  9
$PEXTMAX
 10
-1e+20
 20
-1e+20
 30
-1e+20
  9
$PLIMMIN
 10
0.0
 20
0.0
  9
$PLIMMAX
 10
420.0
 20
297.0
  9
$UNITMODE
 70
0
  9
$VISRETAIN
 70
1
  9
$PLINEGEN
 70
0
  9
$PSLTSCALE
 70
1
  9
$TREEDEPTH
 70
3020
  9
$CMLSTYLE
  2
Standard
  9
$CMLJUST
 70
0
  9
$CMLSCALE
 40
20.0
  9
$PROXYGRAPHICS
 70
1
  9
$MEASUREMENT
 70
1
  9
$CELWEIGHT
370
-1
  9
$ENDCAPS
280
0
  9
$JOINSTYLE
280
0
  9
$LWDISPLAY
290
0
  9
$INSUNITS
 70
4
  9
$HYPERLINKBASE
  1

  9
$STYLESHEET
  1

  9
$XEDIT
290
1
  9
$CEPSNTYPE
380
0
  9
$PSTYLEMODE
290
1
  9
$FINGERPRINTGUID
  2
{5529C01C-5E62-4A4D-8788-1CDCC79148BB}
  9
$VERSIONGUID
  2
{68723938-0AED-4AE9-9789-120C956A813D}
  9
$EXTNAMES
290
1
  9
$PSVPSCALE
 40
0.0
  9
$OLESTARTUP
290
0
  9
$SORTENTS
280
127
  9
$INDEXCTL
280
0
  9
$HIDETEXT
280
1
  9
$XCLIPFRAME
280
1
  9
$HALOGAP
280
0
  9
$OBSCOLOR
 70
257
  9
$OBSLTYPE
280
0
  9
$INTERSECTIONDISPLAY
280
0
  9
$INTERSECTIONCOLOR
 70
257
  9
$DIMASSOC
280
2
  9
$PROJECTNAME
  1

  9
$CAMERADISPLAY
290
0
  9
$LENSLENGTH
 40
50.0
  9
$CAMERAHEIGHT
 40
0.0
  9
$STEPSPERSEC
 40
24.0
  9
$STEPSIZE
 40
100.0
  9
$3DDWFPREC
 40
2.0
  9
$PSOLWIDTH
 40
0.005
  9
$PSOLHEIGHT
 40
0.08
  9
$LOFTANG1
 40
1.570796326795
  9
$LOFTANG2
 40
1.570796326795
  9
$LOFTMAG1
 40
0.0
  9
$LOFTMAG2
 40
0.0
  9
$LOFTPARAM
 70
7
  9
$LOFTNORMALS
280
1
  9
$LATITUDE
 40
37.795
  9
$LONGITUDE
 40
-122.394
  9
$NORTHDIRECTION
 40
0.0
  9
$TIMEZONE
 70
-8000
  9
$LIGHTGLYPHDISPLAY
280
1
  9
$TILEMODELIGHTSYNCH
280
1
  9
$CMATERIAL
347
20
  9
$SOLIDHIST
280
0
  9
$SHOWHIST
280
1
  9
$DWFFRAME
280
2
  9
$DGNFRAME
280
2
  9
$REALWORLDSCALE
290
1
  9
$INTERFERECOLOR
 62
256
  9
$CSHADOW
280
0
  9
$SHADOWPLANELOCATION
 40
0.0
  0
ENDSEC
  0
SECTION
  2
CLASSES
  0
CLASS
  1
ACDBDICTIONARYWDFLT
  2
AcDbDictionaryWithDefault
  3
ObjectDBX Classes
 90
0
 91
0
280
0
281
0
  0
CLASS
  1
SUN
  2
AcDbSun
  3
SCENEOE
 90
1153
 91
0
280
0
281
0
  0
CLASS
  1
VISUALSTYLE
  2
AcDbVisualStyle
  3
ObjectDBX Classes
 90
4095
 91
0
280
0
281
0
  0
CLASS
  1
MATERIAL
  2
AcDbMaterial
  3
ObjectDBX Classes
 90
1153
 91
0
280
0
281
0
  0
CLASS
  1
SCALE
  2
AcDbScale
  3
ObjectDBX Classes
 90
1153
 91
0
280
0
281
0
  0
CLASS
  1
TABLESTYLE
  2
AcDbTableStyle
  3
ObjectDBX Classes
 90
4095
 91
0
280
0
281
0
  0
CLASS
  1
MLEADERSTYLE
  2
AcDbMLeaderStyle
  3
ACDB_MLEADERSTYLE_CLASS
 90
4095
 91
0
280
0
281
0
  0
CLASS
  1
DICTIONARYVAR
  2
AcDbDictionaryVar
  3
ObjectDBX Classes
 90
0
 91
0
280
0
281
0
  0
CLASS
  1
CELLSTYLEMAP
  2
AcDbCellStyleMap
  3
ObjectDBX Classes
 90
1152
 91
0
280
0
281
0
  0
CLASS
  1
MENTALRAYRENDERSETTINGS
  2
AcDbMentalRayRenderSettings
  3
SCENEOE
 90
1024
 91
0
280
0
281
0
  0
CLASS
  1
ACDBDETAILVIEWSTYLE
  2
AcDbDetailViewStyle
  3
ObjectDBX Classes
 90
1025
 91
0
280
0
281
0
  0
CLASS
  1
ACDBSECTIONVIEWSTYLE
  2
AcDbSectionViewStyle
  3
ObjectDBX Classes
 90
1025
 91
0
280
0
281
0
  0
CLASS
  1
RASTERVARIABLES
  2
AcDbRasterVariables
  3
ISM
 90
0
 91
0
280
0
281
0
  0
CLASS
  1
ACDBPLACEHOLDER
  2
AcDbPlaceHolder
  3
ObjectDBX Classes
 90
0
 91
0
280
0
281
0
  0
CLASS
  1
LAYOUT
  2
AcDbLayout
  3
ObjectDBX Classes
 90
0
 91
0
280
0
281
0
  0
ENDSEC
  0
SECTION
  2
TABLES
  0
TABLE
  2
VPORT
  5
8
330
0
100
AcDbSymbolTable
 70
1
  0
VPORT
  5
23
330
8
100
AcDbSymbolTableRecord
100
AcDbViewportTableRecord
  2
*Active
 70
0
 10
0.0
 20
0.0
 11
1.0
 21
1.0
 12
0.0
 22
0.0
 13
0.0
 23
0.0
 14
0.5
 24
0.5
 15
0.5
 25
0.5
 16
0.0
 26
0.0
 36
1.0
 17
0.0
 27
0.0
 37
0.0
 40
1000.0
 41
1.34
 42
50.0
 43
0.0
 44
0.0
 50
0.0
 51
0.0
 71
0
 72
1000
 73
1
 74
3
 75
0
 76
0
 77
0
 78
0
281
0
 65
0
146
0.0
  0
ENDTAB
  0
TABLE
  2
LTYPE
  5
2
330
0
100
AcDbSymbolTable
 70
21
  0
LTYPE
  5
24
330
2
100
AcDbSymbolTableRecord
100
AcDbLinetypeTableRecord
  2
ByBlock
 70
0
  3

 72
65
 73
0
 40
0.0
  0
LTYPE
  5
25
330
2
100
AcDbSymbolTableRecord
100
AcDbLinetypeTableRecord
  2
ByLayer
 70
0
  3

 72
65
 73
0
 40
0.0
  0
LTYPE
  5
26
330
2
100
AcDbSymbolTableRecord
100
AcDbLinetypeTableRecord
  2
Continuous
 70
0
  3

 72
65
 73
0
 40
0.0
  0
LTYPE
  5
2F
330
2
100
AcDbSymbolTableRecord
100
AcDbLinetypeTableRecord
  2
CENTER
 70
0
  3
Center ____ _ ____ _ ____ _ ____ _ ____ _ ____
 72
65
 73
4
 40
5.08
 49
3.175
 74
0
 49
-0.635
 74
0
 49
0.635
 74
0
 49
-0.635
 74
0
  0
LTYPE
  5
30
330
2
100
AcDbSymbolTableRecord
100
AcDbLinetypeTableRecord
  2
CENTERX2
 70
0
  3
Center (2x) ________  __  ________  __  ________
 72
65
 73
4
 40
8.89
 49
6.35
 74
0
 49
-0.635
 74
0
 49
1.27
 74
0
 49
-0.635
 74
0
  0
LTYPE
  5
31
330
2
100
AcDbSymbolTableRecord
100
AcDbLinetypeTableRecord
  2
CENTER2
 70
0
  3
Center (.5x) ____ _ ____ _ ____ _ ____ _ ____
 72
65
 73
4
 40
2.54
 49
1.587
 74
0
 49
-0.318
 74
0
 49
0.318
 74
0
 49
-0.318
 74
0
  0
LTYPE
  5
32
330
2
100
AcDbSymbolTableRecord
100
AcDbLinetypeTableRecord
  2
DASHED
 70
0
  3
Dashed __ __ __ __ __ __ __ __ __ __ __ __ __ _
 72
65
 73
2
 40
1.524
 49
1.27
 74
0
 49
-0.254
 74
0
  0
LTYPE
  5
33
330
2
100
AcDbSymbolTableRecord
100
AcDbLinetypeTableRecord
  2
DASHEDX2
 70
0
  3
Dashed (2x) ____  ____  ____  ____  ____  ____
 72
65
 73
2
 40
3.048
 49
2.54
 74
0
 49
-0.508
 74
0
  0
LTYPE
  5
34
330
2
100
AcDbSymbolTableRecord
100
AcDbLinetypeTableRecord
  2
DASHED2
 70
0
  3
Dashed (.5x) _ _ _ _ _ _ _ _ _ _ _ _ _ _
 72
65
 73
2
 40
0.762
 49
0.635
 74
0
 49
-0.127
 74
0
  0
LTYPE
  5
35
330
2
100
AcDbSymbolTableRecord
100
AcDbLinetypeTableRecord
  2
PHANTOM
 70
0
  3
Phantom ______  __  __  ______  __  __  ______
 72
65
 73
6
 40
6.35
 49
3.175
 74
0
 49
-0.635
 74
0
 49
0.635
 74
0
 49
-0.635
 74
0
 49
0.635
 74
0
 49
-0.635
 74
0
  0
LTYPE
  5
36
330
2
100
AcDbSymbolTableRecord
100
AcDbLinetypeTableRecord
  2
PHANTOMX2
 70
0
  3
Phantom (2x)____________    ____    ____    ____________
 72
65
 73
6
 40
10.795
 49
6.35
 74
0
 49
-0.635
 74
0
 49
1.27
 74
0
 49
-0.635
 74
0
 49
1.27
 74
0
 49
-0.635
 74
0
  0
LTYPE
  5
37
330
2
100
AcDbSymbolTableRecord
100
AcDbLinetypeTableRecord
  2
PHANTOM2
 70
0
  3
Phantom (.5x) ___ _ _ ___ _ _ ___ _ _ ___ _ _ ___
 72
65
 73
6
 40
3.175
 49
1.587
 74
0
 49
-0.318
 74
0
 49
0.318
 74
0
 49
-0.318
 74
0
 49
0.318
 74
0
 49
-0.318
 74
0
  0
LTYPE
  5
38
330
2
100
AcDbSymbolTableRecord
100
AcDbLinetypeTableRecord
  2
DASHDOT
 70
0
  3
Dash dot __ . __ . __ . __ . __ . __ . __ . __
 72
65
 73
4
 40
3.556
 49
2.54
 74
0
 49
-0.508
 74
0
 49
0.0
 74
0
 49
-0.508
 74
0
  0
LTYPE
  5
39
330
2
100
AcDbSymbolTableRecord
100
AcDbLinetypeTableRecord
  2
DASHDOTX2
 70
0
  3
Dash dot (2x) ____  .  ____  .  ____  .  ____
 72
65
 73
4
 40
6.096
 49
5.08
 74
0
 49
-0.508
 74
0
 49
0.0
 74
0
 49
-0.508
 74
0
  0
LTYPE
  5
3A
330
2
100
AcDbSymbolTableRecord
100
AcDbLinetypeTableRecord
  2
DASHDOT2
 70
0
  3
Dash dot (.5x) _ . _ . _ . _ . _ . _ . _ . _
 72
65
 73
4
 40
1.778
 49
1.27
 74
0
 49
-0.254
 74
0
 49
0.0
 74
0
 49
-0.254
 74
0
  0
LTYPE
  5
3B
330
2
100
AcDbSymbolTableRecord
100
AcDbLinetypeTableRecord
  2
DOT
 70
0
  3
Dot .  .  .  .  .  .  .  .  .  .  .  .  .  .  .  .
 72
65
 73
2
 40
0.508
 49
0.0
 74
0
 49
-0.508
 74
0
  0
LTYPE
  5
3C
330
2
100
AcDbSymbolTableRecord
100
AcDbLinetypeTableRecord
  2
DOTX2
 70
0
  3
Dot (2x) .    .    .    .    .    .    .    . 
 72
65
 73
2
 40
1.016
 49
0.0
 74
0
 49
-1.016
 74
0
  0
LTYPE
  5
3D
330
2
100
AcDbSymbolTableRecord
100
AcDbLinetypeTableRecord
  2
DOT2
 70
0
  3
Dot (.5) . . . . . . . . . . . . . . . . . . . 
 72
65
 73
2
 40
0.254
 49
0.0
 74
0
 49
-0.254
 74
0
  0
LTYPE
  5
3E
330
2
100
AcDbSymbolTableRecord
100
AcDbLinetypeTableRecord
  2
DIVIDE
 70
0
  3
Divide __ . . __ . . __ . . __ . . __ . . __
 72
65
 73
6
 40
4.064
 49
2.54
 74
0
 49
-0.508
 74
0
 49
0.0
 74
0
 49
-0.508
 74
0
 49
0.0
 74
0
 49
-0.508
 74
0
  0
LTYPE
  5
3F
330
2
100
AcDbSymbolTableRecord
100
AcDbLinetypeTableRecord
  2
DIVIDEX2
 70
0
  3
Divide (2x) ____  . .  ____  . .  ____  . .  ____
 72
65
 73
6
 40
6.604
 49
5.08
 74
0
 49
-0.508
 74
0
 49
0.0
 74
0
 49
-0.508
 74
0
 49
0.0
 74
0
 49
-0.508
 74
0
  0
LTYPE
  5
40
330
2
100
AcDbSymbolTableRecord
100
AcDbLinetypeTableRecord
  2
DIVIDE2
 70
0
  3
Divide(.5x) _ . _ . _ . _ . _ . _ . _ . _
 72
65
 73
6
 40
2.032
 49
1.27
 74
0
 49
-0.254
 74
0
 49
0.0
 74
0
 49
-0.254
 74
0
 49
0.0
 74
0
 49
-0.254
 74
0
  0
ENDTAB
  0
TABLE
  2
LAYER
  5
1
330
0
100
AcDbSymbolTable
 70
26
  0
LAYER
  5
27
330
1
100
AcDbSymbolTableRecord
100
AcDbLayerTableRecord
  2
0
 70
0
 62
7
  6
Continuous
370
-3
390
13
347
21
  0
LAYER
  5
28
330
1
100
AcDbSymbolTableRecord
100
AcDbLayerTableRecord
  2
Defpoints
 70
0
 62
7
  6
Continuous
290
0
370
-3
390
13
347
21
  0
LAYER
  5
8D
330
1
100
AcDbSymbolTableRecord
100
AcDbLayerTableRecord
  2
Okvir
 70
0
 62
3
  6
Continuous
370
-3
390
13
347
21
  0
LAYER
  5
8E
330
1
100
AcDbSymbolTableRecord
100
AcDbLayerTableRecord
  2
Tekst
 70
0
 62
253
  6
Continuous
370
-3
390
13
347
21
  0
LAYER
  5
8F
330
1
100
AcDbSymbolTableRecord
100
AcDbLayerTableRecord
  2
Kote
 70
0
 62
7
  6
Continuous
370
-3
390
13
347
21
  0
LAYER
  5
90
330
1
100
AcDbSymbolTableRecord
100
AcDbLayerTableRecord
  2
Kote blok
 70
0
 62
7
  6
Continuous
370
-3
390
13
347
21
  0
LAYER
  5
91
330
1
100
AcDbSymbolTableRecord
100
AcDbLayerTableRecord
  2
Objekat
 70
0
 62
6
  6
Continuous
370
-3
390
13
347
21
  0
LAYER
  5
92
330
1
100
AcDbSymbolTableRecord
100
AcDbLayerTableRecord
  2
Konstrukcija
 70
0
 62
5
  6
Continuous
370
-3
390
13
347
21
  0
LAYER
  5
93
330
1
100
AcDbSymbolTableRecord
100
AcDbLayerTableRecord
  2
Panel
 70
0
 62
110
  6
Continuous
370
-3
390
13
347
21
  0
LAYER
  5
94
330
1
100
AcDbSymbolTableRecord
100
AcDbLayerTableRecord
  2
Kabal
 70
0
 62
7
  6
Continuous
370
-3
390
13
347
21
  0
LAYER
  5
95
330
1
100
AcDbSymbolTableRecord
100
AcDbLayerTableRecord
  2
Osovina
 70
0
 62
6
  6
CENTER
370
-3
390
13
347
21
  0
LAYER
  5
96
330
1
100
AcDbSymbolTableRecord
100
AcDbLayerTableRecord
  2
Orijentacija
 70
0
 62
1
  6
Continuous
370
-3
390
13
347
21
  0
LAYER
  5
97
330
1
100
AcDbSymbolTableRecord
100
AcDbLayerTableRecord
  2
DEBELA
 70
0
 62
7
  6
Continuous
370
-3
390
13
347
21
  0
LAYER
  5
98
330
1
100
AcDbSymbolTableRecord
100
AcDbLayerTableRecord
  2
pozicije
 70
0
 62
7
  6
Continuous
370
-3
390
13
347
21
  0
LAYER
  5
99
330
1
100
AcDbSymbolTableRecord
100
AcDbLayerTableRecord
  2
Novi1
 70
0
 62
30
  6
Continuous
370
-3
390
13
347
21
  0
LAYER
  5
9A
330
1
100
AcDbSymbolTableRecord
100
AcDbLayerTableRecord
  2
plavi
 70
0
 62
5
  6
Continuous
370
-3
390
13
347
21
  0
LAYER
  5
9B
330
1
100
AcDbSymbolTableRecord
100
AcDbLayerTableRecord
  2
Temelj
 70
0
 62
32
  6
Continuous
370
-3
390
13
347
21
  0
LAYER
  5
9C
330
1
100
AcDbSymbolTableRecord
100
AcDbLayerTableRecord
  2
Uzemljenje
 70
0
 62
2
  6
DASHED
370
-3
390
13
347
21
  0
LAYER
  5
9D
330
1
100
AcDbSymbolTableRecord
100
AcDbLayerTableRecord
  2
Ograda
 70
0
 62
8
  6
Continuous
370
-3
390
13
347
21
  0
LAYER
  5
9E
330
1
100
AcDbSymbolTableRecord
100
AcDbLayerTableRecord
  2
Agregat
 70
0
 62
30
  6
Continuous
370
-3
390
13
347
21
  0
LAYER
  5
9F
330
1
100
AcDbSymbolTableRecord
100
AcDbLayerTableRecord
  2
Ventilacija
 70
0
 62
4
  6
Continuous
370
-3
390
13
347
21
  0
LAYER
  5
A0
330
1
100
AcDbSymbolTableRecord
100
AcDbLayerTableRecord
  2
Sema
 70
0
 62
7
  6
Continuous
370
-3
390
13
347
21
  0
LAYER
  5
A1
330
1
100
AcDbSymbolTableRecord
100
AcDbLayerTableRecord
  2
Legenda
 70
0
 62
7
  6
Continuous
370
-3
390
13
347
21
  0
LAYER
  5
A2
330
1
100
AcDbSymbolTableRecord
100
AcDbLayerTableRecord
  2
Izvod
 70
0
 62
253
  6
Continuous
370
-3
390
13
347
21
  0
LAYER
  5
A3
330
1
100
AcDbSymbolTableRecord
100
AcDbLayerTableRecord
  2
Kota_tekst
 70
0
 62
7
  6
Continuous
370
-3
390
13
347
21
  0
LAYER
  5
A4
330
1
100
AcDbSymbolTableRecord
100
AcDbLayerTableRecord
  2
Sakriveno
 70
0
 62
15
  6
Continuous
370
-3
390
13
347
21
  0
ENDTAB
  0
TABLE
  2
STYLE
  5
5
330
0
100
AcDbSymbolTable
 70
29
  0
STYLE
  5
29
330
5
100
AcDbSymbolTableRecord
100
AcDbTextStyleTableRecord
  2
Standard
 70
0
 40
0.0
 41
1.0
 50
0.0
 71
0
 42
2.5
  3
times.ttf
  4

  0
STYLE
  5
41
330
5
100
AcDbSymbolTableRecord
100
AcDbTextStyleTableRecord
  2
OpenSans-Light
 70
0
 40
0.0
 41
1.0
 50
0.0
 71
0
 42
2.5
  3
OpenSans-Light.ttf
  4

  0
STYLE
  5
42
330
5
100
AcDbSymbolTableRecord
100
AcDbTextStyleTableRecord
  2
OpenSans-Light-Italic
 70
0
 40
0.0
 41
1.0
 50
0.0
 71
0
 42
2.5
  3
OpenSans-LightItalic.ttf
  4

  0
STYLE
  5
43
330
5
100
AcDbSymbolTableRecord
100
AcDbTextStyleTableRecord
  2
OpenSans
 70
0
 40
0.0
 41
1.0
 50
0.0
 71
0
 42
2.5
  3
OpenSans-Regular.ttf
  4

  0
STYLE
  5
44
330
5
100
AcDbSymbolTableRecord
100
AcDbTextStyleTableRecord
  2
OpenSans-Italic
 70
0
 40
0.0
 41
1.0
 50
0.0
 71
0
 42
2.5
  3
OpenSans-Italic.ttf
  4

  0
STYLE
  5
45
330
5
100
AcDbSymbolTableRecord
100
AcDbTextStyleTableRecord
  2
OpenSans-SemiBold
 70
0
 40
0.0
 41
1.0
 50
0.0
 71
0
 42
2.5
  3
OpenSans-SemiBold.ttf
  4

  0
STYLE
  5
46
330
5
100
AcDbSymbolTableRecord
100
AcDbTextStyleTableRecord
  2
OpenSans-SemiBoldItalic
 70
0
 40
0.0
 41
1.0
 50
0.0
 71
0
 42
2.5
  3
OpenSans-SemiBoldItalic.ttf
  4

  0
STYLE
  5
47
330
5
100
AcDbSymbolTableRecord
100
AcDbTextStyleTableRecord
  2
OpenSans-Bold
 70
0
 40
0.0
 41
1.0
 50
0.0
 71
0
 42
2.5
  3
OpenSans-Bold.ttf
  4

  0
STYLE
  5
48
330
5
100
AcDbSymbolTableRecord
100
AcDbTextStyleTableRecord
  2
OpenSans-BoldItalic
 70
0
 40
0.0
 41
1.0
 50
0.0
 71
0
 42
2.5
  3
OpenSans-BoldItalic.ttf
  4

  0
STYLE
  5
49
330
5
100
AcDbSymbolTableRecord
100
AcDbTextStyleTableRecord
  2
OpenSans-ExtraBold
 70
0
 40
0.0
 41
1.0
 50
0.0
 71
0
 42
2.5
  3
OpenSans-ExtraBold.ttf
  4

  0
STYLE
  5
4A
330
5
100
AcDbSymbolTableRecord
100
AcDbTextStyleTableRecord
  2
OpenSans-ExtraBoldItalic
 70
0
 40
0.0
 41
1.0
 50
0.0
 71
0
 42
2.5
  3
OpenSans-ExtraBoldItalic.ttf
  4

  0
STYLE
  5
4B
330
5
100
AcDbSymbolTableRecord
100
AcDbTextStyleTableRecord
  2
OpenSansCondensed-Bold
 70
0
 40
0.0
 41
1.0
 50
0.0
 71
0
 42
2.5
  3
OpenSansCondensed-Bold.ttf
  4

  0
STYLE
  5
4C
330
5
100
AcDbSymbolTableRecord
100
AcDbTextStyleTableRecord
  2
OpenSansCondensed-Light
 70
0
 40
0.0
 41
1.0
 50
0.0
 71
0
 42
2.5
  3
OpenSansCondensed-Light.ttf
  4

  0
STYLE
  5
4D
330
5
100
AcDbSymbolTableRecord
100
AcDbTextStyleTableRecord
  2
OpenSansCondensed-Italic
 70
0
 40
0.0
 41
1.0
 50
0.0
 71
0
 42
2.5
  3
OpenSansCondensed-LightItalic.ttf
  4

  0
STYLE
  5
4E
330
5
100
AcDbSymbolTableRecord
100
AcDbTextStyleTableRecord
  2
LiberationSans
 70
0
 40
0.0
 41
1.0
 50
0.0
 71
0
 42
2.5
  3
LiberationSans-Regular.ttf
  4

  0
STYLE
  5
4F
330
5
100
AcDbSymbolTableRecord
100
AcDbTextStyleTableRecord
  2
LiberationSans-Bold
 70
0
 40
0.0
 41
1.0
 50
0.0
 71
0
 42
2.5
  3
LiberationSans-Bold.ttf
  4

  0
STYLE
  5
50
330
5
100
AcDbSymbolTableRecord
100
AcDbTextStyleTableRecord
  2
LiberationSans-BoldItalic
 70
0
 40
0.0
 41
1.0
 50
0.0
 71
0
 42
2.5
  3
LiberationSans-BoldItalic.ttf
  4

  0
STYLE
  5
51
330
5
100
AcDbSymbolTableRecord
100
AcDbTextStyleTableRecord
  2
LiberationSans-Italic
 70
0
 40
0.0
 41
1.0
 50
0.0
 71
0
 42
2.5
  3
LiberationSans-Italic.ttf
  4

  0
STYLE
  5
52
330
5
100
AcDbSymbolTableRecord
100
AcDbTextStyleTableRecord
  2
LiberationSerif
 70
0
 40
0.0
 41
1.0
 50
0.0
 71
0
 42
2.5
  3
LiberationSerif-Regular.ttf
  4

  0
STYLE
  5
53
330
5
100
AcDbSymbolTableRecord
100
AcDbTextStyleTableRecord
  2
LiberationSerif-Bold
 70
0
 40
0.0
 41
1.0
 50
0.0
 71
0
 42
2.5
  3
LiberationSerif-Bold.ttf
  4

  0
STYLE
  5
54
330
5
100
AcDbSymbolTableRecord
100
AcDbTextStyleTableRecord
  2
LiberationSerif-BoldItalic
 70
0
 40
0.0
 41
1.0
 50
0.0
 71
0
 42
2.5
  3
LiberationSerif-BoldItalic.ttf
  4

  0
STYLE
  5
55
330
5
100
AcDbSymbolTableRecord
100
AcDbTextStyleTableRecord
  2
LiberationSerif-Italic
 70
0
 40
0.0
 41
1.0
 50
0.0
 71
0
 42
2.5
  3
LiberationSerif-Italic.ttf
  4

  0
STYLE
  5
56
330
5
100
AcDbSymbolTableRecord
100
AcDbTextStyleTableRecord
  2
LiberationMono
 70
0
 40
0.0
 41
1.0
 50
0.0
 71
0
 42
2.5
  3
LiberationMono-Regular.ttf
  4

  0
STYLE
  5
57
330
5
100
AcDbSymbolTableRecord
100
AcDbTextStyleTableRecord
  2
LiberationMono-Bold
 70
0
 40
0.0
 41
1.0
 50
0.0
 71
0
 42
2.5
  3
LiberationMono-Bold.ttf
  4

  0
STYLE
  5
58
330
5
100
AcDbSymbolTableRecord
100
AcDbTextStyleTableRecord
  2
LiberationMono-BoldItalic
 70
0
 40
0.0
 41
1.0
 50
0.0
 71
0
 42
2.5
  3
LiberationMono-BoldItalic.ttf
  4

  0
STYLE
  5
59
330
5
100
AcDbSymbolTableRecord
100
AcDbTextStyleTableRecord
  2
LiberationMono-Italic
 70
0
 40
0.0
 41
1.0
 50
0.0
 71
0
 42
2.5
  3
LiberationMono-Italic.ttf
  4

  0
STYLE
  5
8A
330
5
100
AcDbSymbolTableRecord
100
AcDbTextStyleTableRecord
  2
20
 70
0
 40
0.0
 41
1.0
 50
0.0
 71
0
 42
2.5
  3
arial.ttf
  4

  0
STYLE
  5
8B
330
5
100
AcDbSymbolTableRecord
100
AcDbTextStyleTableRecord
  2
50
 70
0
 40
0.0
 41
1.0
 50
0.0
 71
0
 42
2.5
  3
ARIALN.TTF
  4

  0
STYLE
  5
8C
330
5
100
AcDbSymbolTableRecord
100
AcDbTextStyleTableRecord
  2
RomanS
 70
0
 40
0.0
 41
1.0
 50
0.0
 71
0
 42
2.5
  3
arial.ttf
  4

  0
ENDTAB
  0
TABLE
  2
VIEW
  5
7
330
0
100
AcDbSymbolTable
 70
0
  0
ENDTAB
  0
TABLE
  2
UCS
  5
6
330
0
100
AcDbSymbolTable
 70
0
  0
ENDTAB
  0
TABLE
  2
APPID
  5
3
330
0
100
AcDbSymbolTable
 70
3
  0
APPID
  5
2A
330
3
100
AcDbSymbolTableRecord
100
AcDbRegAppTableRecord
  2
ACAD
 70
0
  0
APPID
  5
11B
330
3
100
AcDbSymbolTableRecord
100
AcDbRegAppTableRecord
  2
HATCHBACKGROUNDCOLOR
 70
0
  0
APPID
  5
11C
330
3
100
AcDbSymbolTableRecord
100
AcDbRegAppTableRecord
  2
EZDXF
 70
0
  0
ENDTAB
  0
TABLE
  2
DIMSTYLE
  5
4
330
0
100
AcDbSymbolTable
 70
17
100
AcDbDimStyleTable
  0
DIMSTYLE
105
2B
330
4
100
AcDbSymbolTableRecord
100
AcDbDimStyleTableRecord
  2
Standard
 70
0
 40
1.0
 41
2.5
 42
0.625
 43
3.75
 44
1.25
 45
0.0
 46
0.0
 47
0.0
 48
0.0
 49
2.5
140
2.5
141
2.5
142
0.0
143
0.03937007874
144
1.0
145
0.0
146
1.0
147
0.625
148
0.0
 69
0
 70
0
 71
0
 72
0
 73
0
 74
0
 75
0
 76
0
 77
1
 78
8
 79
3
170
0
171
3
172
1
173
0
174
0
175
0
176
0
177
0
178
0
179
2
271
2
272
2
273
2
274
3
275
0
276
0
277
2
278
44
279
0
280
0
281
0
282
0
283
0
284
8
285
0
286
0
288
0
289
3
290
0
371
-2
372
-2
  0
DIMSTYLE
105
73
330
4
100
AcDbSymbolTableRecord
100
AcDbDimStyleTableRecord
  2
EZDXF
 70
0
 40
1.0
 41
0.175
 42
0.125
 43
3.75
 44
0.375
 45
0.0
 46
0.0
 47
0.0
 48
0.0
 49
2.5
140
0.25
141
2.5
142
0.0
143
0.03937007874
144
100.0
145
0.0
146
0.5
147
0.1
148
0.0
 69
0
 70
0
 71
0
 72
0
 73
0
 74
0
 75
0
 76
0
 77
1
 78
12
 79
3
170
0
171
3
172
1
173
0
174
0
175
0
176
0
177
0
178
0
179
2
271
2
272
2
273
2
274
3
275
0
276
0
277
2
278
46
279
2
280
0
281
0
282
0
283
0
284
8
285
0
286
0
288
1
289
3
290
0
340
4C
342
74
371
-2
372
-2
  0
DIMSTYLE
105
7C
330
4
100
AcDbSymbolTableRecord
100
AcDbDimStyleTableRecord
  2
EZ_M_100_H25_CM
 70
0
 40
1.0
 41
0.25
 42
0.125
 43
3.75
 44
0.375
 45
0.0
 46
0.0
 47
0.0
 48
0.0
 49
2.5
140
0.25
141
2.5
142
0.125
143
0.03937007874
144
100.0
145
0.0
146
0.5
147
0.1
148
0.0
 69
0
 70
0
 71
0
 72
0
 73
0
 74
0
 75
0
 76
0
 77
1
 78
12
 79
3
170
0
171
3
172
1
173
0
174
0
175
0
176
0
177
0
178
0
179
2
271
2
272
2
273
2
274
3
275
0
276
0
277
2
278
46
279
2
280
0
281
0
282
0
283
0
284
8
285
0
286
0
288
1
289
3
290
0
340
4C
371
-2
372
-2
  0
DIMSTYLE
105
7D
330
4
100
AcDbSymbolTableRecord
100
AcDbDimStyleTableRecord
  2
EZ_M_50_H25_CM
 70
0
 40
1.0
 41
0.125
 42
0.0625
 43
3.75
 44
0.1875
 45
0.0
 46
0.0
 47
0.0
 48
0.0
 49
2.5
140
0.125
141
2.5
142
0.0625
143
0.03937007874
144
100.0
145
0.0
146
0.5
147
0.05
148
0.0
 69
0
 70
0
 71
0
 72
0
 73
0
 74
0
 75
0
 76
0
 77
1
 78
12
 79
3
170
0
171
3
172
1
173
0
174
0
175
0
176
0
177
0
178
0
179
2
271
2
272
2
273
2
274
3
275
0
276
0
277
2
278
46
279
2
280
0
281
0
282
0
283
0
284
8
285
0
286
0
288
1
289
3
290
0
340
4C
371
-2
372
-2
  0
DIMSTYLE
105
7E
330
4
100
AcDbSymbolTableRecord
100
AcDbDimStyleTableRecord
  2
EZ_M_25_H25_CM
 70
0
 40
1.0
 41
0.0625
 42
0.03125
 43
3.75
 44
0.09375
 45
0.0
 46
0.0
 47
0.0
 48
0.0
 49
2.5
140
0.0625
141
2.5
142
0.03125
143
0.03937007874
144
100.0
145
0.0
146
0.5
147
0.025
148
0.0
 69
0
 70
0
 71
0
 72
0
 73
0
 74
0
 75
0
 76
0
 77
1
 78
12
 79
3
170
0
171
3
172
1
173
0
174
0
175
0
176
0
177
0
178
0
179
2
271
2
272
2
273
2
274
3
275
0
276
0
277
2
278
46
279
2
280
0
281
0
282
0
283
0
284
8
285
0
286
0
288
1
289
3
290
0
340
4C
371
-2
372
-2
  0
DIMSTYLE
105
7F
330
4
100
AcDbSymbolTableRecord
100
AcDbDimStyleTableRecord
  2
EZ_M_20_H25_CM
 70
0
 40
1.0
 41
0.05
 42
0.025
 43
3.75
 44
0.07500000000000001
 45
0.0
 46
0.0
 47
0.0
 48
0.0
 49
2.5
140
0.05
141
2.5
142
0.025
143
0.03937007874
144
100.0
145
0.0
146
0.5
147
0.020000000000000004
148
0.0
 69
0
 70
0
 71
0
 72
0
 73
0
 74
0
 75
0
 76
0
 77
1
 78
12
 79
3
170
0
171
3
172
1
173
0
174
0
175
0
176
0
177
0
178
0
179
2
271
2
272
2
273
2
274
3
275
0
276
0
277
2
278
46
279
2
280
0
281
0
282
0
283
0
284
8
285
0
286
0
288
1
289
3
290
0
340
4C
371
-2
372
-2
  0
DIMSTYLE
105
80
330
4
100
AcDbSymbolTableRecord
100
AcDbDimStyleTableRecord
  2
EZ_M_10_H25_CM
 70
0
 40
1.0
 41
0.025
 42
0.0125
 43
3.75
 44
0.037500000000000006
 45
0.0
 46
0.0
 47
0.0
 48
0.0
 49
2.5
140
0.025
141
2.5
142
0.0125
143
0.03937007874
144
100.0
145
0.0
146
0.5
147
0.010000000000000002
148
0.0
 69
0
 70
0
 71
0
 72
0
 73
0
 74
0
 75
0
 76
0
 77
1
 78
12
 79
3
170
0
171
3
172
1
173
0
174
0
175
0
176
0
177
0
178
0
179
2
271
2
272
2
273
2
274
3
275
0
276
0
277
2
278
46
279
2
280
0
281
0
282
0
283
0
284
8
285
0
286
0
288
1
289
3
290
0
340
4C
371
-2
372
-2
  0
DIMSTYLE
105
81
330
4
100
AcDbSymbolTableRecord
100
AcDbDimStyleTableRecord
  2
EZ_M_5_H25_CM
 70
0
 40
1.0
 41
0.0125
 42
0.00625
 43
3.75
 44
0.018750000000000003
 45
0.0
 46
0.0
 47
0.0
 48
0.0
 49
2.5
140
0.0125
141
2.5
142
0.00625
143
0.03937007874
144
100.0
145
0.0
146
0.5
147
0.005000000000000001
148
0.0
 69
0
 70
0
 71
0
 72
0
 73
0
 74
0
 75
0
 76
0
 77
1
 78
12
 79
3
170
0
171
3
172
1
173
0
174
0
175
0
176
0
177
0
178
0
179
2
271
2
272
2
273
2
274
3
275
0
276
0
277
2
278
46
279
2
280
0
281
0
282
0
283
0
284
8
285
0
286
0
288
1
289
3
290
0
340
4C
371
-2
372
-2
  0
DIMSTYLE
105
82
330
4
100
AcDbSymbolTableRecord
100
AcDbDimStyleTableRecord
  2
EZ_M_1_H25_CM
 70
0
 40
1.0
 41
0.0025
 42
0.00125
 43
3.75
 44
0.00375
 45
0.0
 46
0.0
 47
0.0
 48
0.0
 49
2.5
140
0.0025
141
2.5
142
0.00125
143
0.03937007874
144
100.0
145
0.0
146
0.5
147
0.001
148
0.0
 69
0
 70
0
 71
0
 72
0
 73
0
 74
0
 75
0
 76
0
 77
1
 78
12
 79
3
170
0
171
3
172
1
173
0
174
0
175
0
176
0
177
0
178
0
179
2
271
2
272
2
273
2
274
3
275
0
276
0
277
2
278
46
279
2
280
0
281
0
282
0
283
0
284
8
285
0
286
0
288
1
289
3
290
0
340
4C
371
-2
372
-2
  0
DIMSTYLE
105
83
330
4
100
AcDbSymbolTableRecord
100
AcDbDimStyleTableRecord
  2
EZ_RADIUS
 70
0
 40
1.0
 41
0.25
 42
0.125
 43
3.75
 44
0.375
 45
0.0
 46
0.0
 47
0.0
 48
0.0
 49
2.5
140
0.25
141
0.0
142
0.0
143
0.03937007874
144
100.0
145
0.0
146
0.5
147
0.1
148
0.0
 69
0
 70
0
 71
0
 72
0
 73
0
 74
0
 75
0
 76
0
 77
1
 78
12
 79
3
170
0
171
3
172
0
173
0
174
0
175
0
176
0
177
0
178
0
179
2
271
2
272
2
273
2
274
3
275
0
276
0
277
2
278
46
279
1
280
0
281
0
282
0
283
0
284
8
285
0
286
0
288
1
289
3
290
0
340
4C
342
84
371
-2
372
-2
  0
DIMSTYLE
105
88
330
4
100
AcDbSymbolTableRecord
100
AcDbDimStyleTableRecord
  2
EZ_RADIUS_INSIDE
 70
0
 40
1.0
 41
0.25
 42
0.125
 43
3.75
 44
0.375
 45
0.0
 46
0.0
 47
0.0
 48
0.0
 49
2.5
140
0.25
141
0.0
142
0.0
143
0.03937007874
144
100.0
145
0.0
146
0.5
147
0.1
148
0.0
 69
0
 70
0
 71
0
 72
0
 73
0
 74
0
 75
0
 76
0
 77
0
 78
12
 79
3
170
0
171
3
172
0
173
0
174
1
175
0
176
0
177
0
178
0
179
2
271
2
272
2
273
2
274
3
275
0
276
0
277
2
278
46
279
0
280
0
281
0
282
0
283
0
284
8
285
0
286
0
288
1
289
0
290
0
340
4C
342
84
371
-2
372
-2
  0
DIMSTYLE
105
89
330
4
100
AcDbSymbolTableRecord
100
AcDbDimStyleTableRecord
  2
EZ_CURVED
 70
0
 40
1.0
 41
0.25
 42
0.125
 43
3.75
 44
0.375
 45
0.0
 46
0.0
 47
0.0
 48
0.0
 49
2.5
140
0.25
141
2.5
142
0.0
143
0.03937007874
144
100.0
145
0.0
146
0.5
147
0.1
148
0.0
 69
0
 70
0
 71
0
 72
0
 73
0
 74
0
 75
0
 76
0
 77
1
 78
12
 79
2
 90
2
170
0
171
3
172
1
173
0
174
0
175
0
176
0
177
0
178
0
179
2
271
2
272
2
273
2
274
3
275
0
276
0
277
2
278
46
279
2
280
0
281
0
282
0
283
0
284
8
285
0
286
0
288
1
289
3
290
0
340
4C
371
-2
372
-2
  0
DIMSTYLE
105
A5
330
4
100
AcDbSymbolTableRecord
100
AcDbDimStyleTableRecord
  2
M 20
 70
0
 40
20.0
 41
1.0
 42
0.0
 43
3.75
 44
2.0
 45
0.0
 46
0.0
 47
0.0
 48
0.0
 49
2.5
140
2.5
141
2.5
142
0.0
143
0.03937007874
144
1.0
145
0.0
146
1.0
147
0.625
148
0.0
 69
0
 70
0
 71
0
 72
0
 73
0
 74
0
 75
0
 76
0
 77
1
 78
8
 79
3
170
0
171
3
172
1
173
0
174
0
175
0
176
0
177
0
178
0
179
2
271
0
272
2
273
2
274
3
275
0
276
0
277
2
278
44
279
0
280
0
281
0
282
0
283
0
284
8
285
0
286
0
288
0
289
3
290
0
340
29
342
74
371
-2
372
-2
  0
DIMSTYLE
105
A6
330
4
100
AcDbSymbolTableRecord
100
AcDbDimStyleTableRecord
  2
M 30
 70
0
 40
30.0
 41
1.0
 42
0.0
 43
3.75
 44
2.0
 45
0.0
 46
0.0
 47
0.0
 48
0.0
 49
2.5
140
2.5
141
2.5
142
0.0
143
0.03937007874
144
1.0
145
0.0
146
1.0
147
0.625
148
0.0
 69
0
 70
0
 71
0
 72
0
 73
0
 74
0
 75
0
 76
0
 77
1
 78
8
 79
3
170
0
171
3
172
1
173
0
174
0
175
0
176
0
177
0
178
0
179
2
271
0
272
2
273
2
274
3
275
0
276
0
277
2
278
44
279
0
280
0
281
0
282
0
283
0
284
8
285
0
286
0
288
0
289
3
290
0
340
29
342
74
371
-2
372
-2
  0
DIMSTYLE
105
A7
330
4
100
AcDbSymbolTableRecord
100
AcDbDimStyleTableRecord
  2
M 50
 70
0
 40
50.0
 41
1.0
 42
0.0
 43
3.75
 44
2.0
 45
0.0
 46
0.0
 47
0.0
 48
0.0
 49
2.5
140
2.5
141
2.5
142
0.0
143
0.03937007874
144
1.0
145
0.0
146
1.0
147
0.625
148
0.0
 69
0
 70
0
 71
0
 72
0
 73
0
 74
0
 75
0
 76
0
 77
1
 78
8
 79
3
170
0
171
3
172
1
173
0
174
0
175
0
176
0
177
0
178
0
179
2
271
0
272
2
273
2
274
3
275
0
276
0
277
2
278
44
279
0
280
0
281
0
282
0
283
0
284
8
285
0
286
0
288
0
289
3
290
0
340
29
342
74
371
-2
372
-2
  0
DIMSTYLE
105
A8
330
4
100
AcDbSymbolTableRecord
100
AcDbDimStyleTableRecord
  2
M 100
 70
0
 40
100.0
 41
1.0
 42
0.0
 43
3.75
 44
2.0
 45
0.0
 46
0.0
 47
0.0
 48
0.0
 49
2.5
140
2.5
141
2.5
142
0.0
143
0.03937007874
144
1.0
145
0.0
146
1.0
147
0.625
148
0.0
 69
0
 70
0
 71
0
 72
0
 73
0
 74
0
 75
0
 76
0
 77
1
 78
8
 79
3
170
0
171
3
172
1
173
0
174
0
175
0
176
0
177
0
178
0
179
2
271
0
272
2
273
2
274
3
275
0
276
0
277
2
278
44
279
0
280
0
281
0
282
0
283
0
284
8
285
0
286
0
288
0
289
3
290
0
340
29
342
74
371
-2
372
-2
  0
DIMSTYLE
105
A9
330
4
100
AcDbSymbolTableRecord
100
AcDbDimStyleTableRecord
  2
M 200
 70
0
 40
200.0
 41
1.0
 42
0.0
 43
3.75
 44
2.0
 45
0.0
 46
0.0
 47
0.0
 48
0.0
 49
2.5
140
2.5
141
2.5
142
0.0
143
0.03937007874
144
1.0
145
0.0
146
1.0
147
0.625
148
0.0
 69
0
 70
0
 71
0
 72
0
 73
0
 74
0
 75
0
 76
0
 77
1
 78
8
 79
3
170
0
171
3
172
1
173
0
174
0
175
0
176
0
177
0
178
0
179
2
271
0
272
2
273
2
274
3
275
0
276
0
277
2
278
44
279
0
280
0
281
0
282
0
283
0
284
8
285
0
286
0
288
0
289
3
290
0
340
29
342
74
371
-2
372
-2
  0
ENDTAB
  0
TABLE
  2
BLOCK_RECORD
  5
9
330
0
100
AcDbSymbolTable
 70
5
  0
BLOCK_RECORD
  5
17
330
9
100
AcDbSymbolTableRecord
100
AcDbBlockTableRecord
  2
*Model_Space
340
1A
 70
0
280
1
281
0
  0
BLOCK_RECORD
  5
1B
330
9
100
AcDbSymbolTableRecord
100
AcDbBlockTableRecord
  2
*Paper_Space
340
1E
 70
0
280
1
281
0
  0
BLOCK_RECORD
  5
74
330
9
100
AcDbSymbolTableRecord
100
AcDbBlockTableRecord
  2
_ARCHTICK
340
0
 70
0
280
1
281
0
  0
BLOCK_RECORD
  5
78
330
9
100
AcDbSymbolTableRecord
100
AcDbBlockTableRecord
  2
_CLOSEDFILLED
340
0
 70
0
280
1
281
0
  0
BLOCK_RECORD
  5
84
330
9
100
AcDbSymbolTableRecord
100
AcDbBlockTableRecord
  2
_CLOSEDBLANK
340
0
 70
0
280
1
281
0
  0
ENDTAB
  0
ENDSEC
  0
SECTION
  2
BLOCKS
  0
BLOCK
  5
18
330
17
100
AcDbEntity
  8
0
100
AcDbBlockBegin
  2
*Model_Space
 70
0
 10
0.0
 20
0.0
 30
0.0
  3
*Model_Space
  1

  0
ENDBLK
  5
19
330
17
100
AcDbEntity
  8
0
100
AcDbBlockEnd
  0
BLOCK
  5
1C
330
1B
100
AcDbEntity
  8
0
100
AcDbBlockBegin
  2
*Paper_Space
 70
0
 10
0.0
 20
0.0
 30
0.0
  3
*Paper_Space
  1

  0
ENDBLK
  5
1D
330
1B
100
AcDbEntity
  8
0
100
AcDbBlockEnd
  0
BLOCK
  5
75
330
74
100
AcDbEntity
  8
0
100
AcDbBlockBegin
  2
_ARCHTICK
 70
0
 10
0.0
 20
0.0
 30
0.0
  3
_ARCHTICK
  1

  0
LWPOLYLINE
  5
77
330
74
100
AcDbEntity
  8
0
  6
BYBLOCK
 62
0
100
AcDbPolyline
 90
2
 70
0
 43
0.15
 10
-0.5
 20
-0.5
 10
0.5
 20
0.5
  0
ENDBLK
  5
76
330
74
100
AcDbEntity
  8
0
100
AcDbBlockEnd
  0
BLOCK
  5
79
330
78
100
AcDbEntity
  8
0
100
AcDbBlockBegin
  2
_CLOSEDFILLED
 70
0
 10
0.0
 20
0.0
 30
0.0
  3
_CLOSEDFILLED
  1

  0
SOLID
  5
7B
330
78
100
AcDbEntity
  8
0
  6
BYBLOCK
 62
0
100
AcDbTrace
 10
-1.0
 20
0.16439898372402537
 30
0.0
 11
0.0
 21
0.0
 31
0.0
 12
-1.0
 22
-0.16439898372402537
 32
0.0
 13
-1.0
 23
-0.16439898372402537
 33
0.0
  0
ENDBLK
  5
7A
330
78
100
AcDbEntity
  8
0
100
AcDbBlockEnd
  0
BLOCK
  5
85
330
84
100
AcDbEntity
  8
0
100
AcDbBlockBegin
  2
_CLOSEDBLANK
 70
0
 10
0.0
 20
0.0
 30
0.0
  3
_CLOSEDBLANK
  1

  0
LWPOLYLINE
  5
87
330
84
100
AcDbEntity
  8
0
  6
BYBLOCK
 62
0
100
AcDbPolyline
 90
3
 70
1
 10
-1.0
 20
0.16439898372402537
 10
0.0
 20
0.0
 10
-1.0
 20
-0.16439898372402537
  0
ENDBLK
  5
86
330
84
100
AcDbEntity
  8
0
100
AcDbBlockEnd
  0
ENDSEC
  0
SECTION
  2
ENTITIES
  0
LWPOLYLINE
  5
AA
330
17
100
AcDbEntity
  8
Okvir
 62
8
100
AcDbPolyline
 90
4
 70
1
 10
0.0
 20
0.0
 10
21000.0
 20
0.0
 10
21000.0
 20
14850.0
 10
0.0
 20
14850.0
  0
LWPOLYLINE
  5
AB
330
17
100
AcDbEntity
  8
Okvir
370
50
100
AcDbPolyline
 90
4
 70
1
 10
1000.0
 20
500.0
 10
20500.0
 20
500.0
 10
20500.0
 20
14350.0
 10
1000.0
 20
14350.0
  0
LWPOLYLINE
  5
AC
330
17
100
AcDbEntity
  8
Okvir
370
50
100
AcDbPolyline
 90
4
 70
1
 10
11500.0
 20
500.0
 10
20500.0
 20
500.0
 10
20500.0
 20
2900.0
 10
11500.0
 20
2900.0
  0
LINE
  5
AD
330
17
100
AcDbEntity
  8
Okvir
100
AcDbLine
 10
11500.0
 20
800.0
 30
0.0
 11
20500.0
 21
800.0
 31
0.0
  0
LINE
  5
AE
330
17
100
AcDbEntity
  8
Okvir
100
AcDbLine
 10
11500.0
 20
1200.0
 30
0.0
 11
20500.0
 21
1200.0
 31
0.0
  0
LINE
  5
AF
330
17
100
AcDbEntity
  8
Okvir
100
AcDbLine
 10
11500.0
 20
1600.0
 30
0.0
 11
20500.0
 21
1600.0
 31
0.0
  0
LINE
  5
B0
330
17
100
AcDbEntity
  8
Okvir
100
AcDbLine
 10
11500.0
 20
2000.0
 30
0.0
 11
20500.0
 21
2000.0
 31
0.0
  0
LINE
  5
B1
330
17
100
AcDbEntity
  8
Okvir
100
AcDbLine
 10
11500.0
 20
2400.0
 30
0.0
 11
20500.0
 21
2400.0
 31
0.0
  0
LINE
  5
B2
330
17
100
AcDbEntity
  8
Okvir
100
AcDbLine
 10
17400.0
 20
800.0
 30
0.0
 11
17400.0
 21
1600.0
 31
0.0
  0
LINE
  5
B3
330
17
100
AcDbEntity
  8
Okvir
100
AcDbLine
 10
14600.0
 20
500.0
 30
0.0
 11
14600.0
 21
800.0
 31
0.0
  0
LINE
  5
B4
330
17
100
AcDbEntity
  8
Okvir
100
AcDbLine
 10
17400.0
 20
500.0
 30
0.0
 11
17400.0
 21
800.0
 31
0.0
  0
HATCH
  5
B5
330
17
100
AcDbEntity
  8
Okvir
 62
30
100
AcDbHatch
 10
0.0
 20
0.0
 30
0.0
210
0.0
220
0.0
230
1.0
  2
SOLID
 70
1
 71
0
 91
1
 92
3
 72
0
 73
1
 93
53
 10
11723.340338291047
 20
2420.000030026666
 10
12976.658792559218
 20
2420.000030026666
 10
12983.194916932138
 20
2420.481835971057
 10
12989.470973274969
 20
2421.8846949769463
 10
12995.42819901268
 20
2424.1447688033945
 10
13001.00783157024
 20
2427.1982192094697
 10
13006.151108372613
 20
2430.9812079542385
 10
13010.799266844771
 20
2435.42989679677
 10
13014.893544411687
 20
2440.4804474961275
 10
13018.375178498321
 20
2446.0690218113764
 10
13021.18540652965
 20
2452.131781501586
 10
13023.265465930635
 20
2458.604888325821
 10
13024.556594126252
 20
2465.424504043147
 10
13025.000028541464
 20
2472.526790412632
 10
13025.000028541464
 20
3024.022866004854
 10
13024.55659412625
 20
3031.1251523743385
 10
13023.265465930637
 20
3037.9447680916655
 10
13021.18540652965
 20
3044.4178749159
 10
13018.375178498323
 20
3050.4806346061105
 10
13014.893544411685
 20
3056.069208921357
 10
13010.799266844771
 20
3061.119759620715
 10
13006.151108372613
 20
3065.568448463247
 10
13001.007831570238
 20
3069.3514372080163
 10
12995.42819901268
 20
3072.4048876140923
 10
12989.470973274969
 20
3074.664961440541
 10
12983.194916932138
 20
3076.067820446428
 10
12976.658792559218
 20
3076.54962639082
 10
11723.340338291047
 20
3076.54962639082
 10
11716.80386442949
 20
3076.06777044733
 10
11710.527616170933
 20
3074.664779625643
 10
11704.570331848423
 20
3072.4045194389237
 10
11698.990749795003
 20
3069.350855400342
 10
11693.847608343718
 20
3065.567653023067
 10
11689.199645827615
 20
3061.118777820266
 10
11685.105600579738
 20
3056.0680953051096
 10
11681.62421093313
 20
3050.4794709907605
 10
11678.81421522084
 20
3044.416770390395
 10
11676.73435177591
 20
3037.943859017176
 10
11675.443358931387
 20
3031.1246023842723
 10
11674.999975020311
 20
3024.022866004854
 10
11674.999975020311
 20
2472.526790412632
 10
11675.443308932288
 20
2465.425054033213
 10
11676.734169961013
 20
2458.605797400311
 10
11678.813847045672
 20
2452.1328860270924
 10
11681.623629125457
 20
2446.070185426724
 10
11685.10480513956
 20
2440.4815611123754
 10
11689.198664027166
 20
2435.430878597219
 10
11693.846494727468
 20
2430.9820033944193
 10
11698.989586179656
 20
2427.198801017143
 10
11704.569227322916
 20
2424.1451369785636
 10
11710.526707096444
 20
2421.8848767918444
 10
11716.803314439423
 20
2420.4818859701554
 10
11723.340338291047
 20
2420.000030026666
 97
0
 75
0
 76
1
 98
0
  0
LWPOLYLINE
  5
B6
330
17
100
AcDbEntity
  8
Okvir
 62
30
100
AcDbPolyline
 90
53
 70
1
 10
11723.340338291047
 20
2420.000030026666
 10
12976.658792559218
 20
2420.000030026666
 10
12983.194916932138
 20
2420.481835971057
 10
12989.470973274969
 20
2421.8846949769463
 10
12995.42819901268
 20
2424.1447688033945
 10
13001.00783157024
 20
2427.1982192094697
 10
13006.151108372613
 20
2430.9812079542385
 10
13010.799266844771
 20
2435.42989679677
 10
13014.893544411687
 20
2440.4804474961275
 10
13018.375178498321
 20
2446.0690218113764
 10
13021.18540652965
 20
2452.131781501586
 10
13023.265465930635
 20
2458.604888325821
 10
13024.556594126252
 20
2465.424504043147
 10
13025.000028541464
 20
2472.526790412632
 10
13025.000028541464
 20
3024.022866004854
 10
13024.55659412625
 20
3031.1251523743385
 10
13023.265465930637
 20
3037.9447680916655
 10
13021.18540652965
 20
3044.4178749159
 10
13018.375178498323
 20
3050.4806346061105
 10
13014.893544411685
 20
3056.069208921357
 10
13010.799266844771
 20
3061.119759620715
 10
13006.151108372613
 20
3065.568448463247
 10
13001.007831570238
 20
3069.3514372080163
 10
12995.42819901268
 20
3072.4048876140923
 10
12989.470973274969
 20
3074.664961440541
 10
12983.194916932138
 20
3076.067820446428
 10
12976.658792559218
 20
3076.54962639082
 10
11723.340338291047
 20
3076.54962639082
 10
11716.80386442949
 20
3076.06777044733
 10
11710.527616170933
 20
3074.664779625643
 10
11704.570331848423
 20
3072.4045194389237
 10
11698.990749795003
 20
3069.350855400342
 10
11693.847608343718
 20
3065.567653023067
 10
11689.199645827615
 20
3061.118777820266
 10
11685.105600579738
 20
3056.0680953051096
 10
11681.62421093313
 20
3050.4794709907605
 10
11678.81421522084
 20
3044.416770390395
 10
11676.73435177591
 20
3037.943859017176
 10
11675.443358931387
 20
3031.1246023842723
 10
11674.999975020311
 20
3024.022866004854
 10
11674.999975020311
 20
2472.526790412632
 10
11675.443308932288
 20
2465.425054033213
 10
11676.734169961013
 20
2458.605797400311
 10
11678.813847045672
 20
2452.1328860270924
 10
11681.623629125457
 20
2446.070185426724
 10
11685.10480513956
 20
2440.4815611123754
 10
11689.198664027166
 20
2435.430878597219
 10
11693.846494727468
 20
2430.9820033944193
 10
11698.989586179656
 20
2427.198801017143
 10
11704.569227322916
 20
2424.1451369785636
 10
11710.526707096444
 20
2421.8848767918444
 10
11716.803314439423
 20
2420.4818859701554
 10
11723.340338291047
 20
2420.000030026666
  0
HATCH
  5
B7
330
17
100
AcDbEntity
  8
Okvir
 62
7
100
AcDbHatch
 10
0.0
 20
0.0
 30
0.0
210
0.0
220
0.0
230
1.0
  2
SOLID
 70
1
 71
0
 91
1
 92
3
 72
0
 73
1
 93
49
 10
12493.326722195716
 20
2916.267430396827
 10
12503.257445863603
 20
2915.572268204929
 10
12512.333748599862
 20
2913.548990606669
 10
12520.498213259705
 20
2910.290911068192
 10
12527.693422698347
 20
2905.8913430556445
 10
12533.861959771
 20
2900.443600035171
 10
12538.946407332882
 20
2894.0409954729253
 10
12542.889348239203
 20
2886.776842835047
 10
12545.633365345178
 20
2878.744455587684
 10
12547.12104150602
 20
2870.037147196985
 10
12547.294959576944
 20
2860.748231129097
 10
12546.097702413163
 20
2850.971020850164
 10
12543.47185286989
 20
2840.798829826335
 10
12539.47453819816
 20
2830.637806782615
 10
12534.285578382498
 20
2820.8895368900708
 10
12528.027013642937
 20
2811.643760952103
 10
12520.820884199506
 20
2802.9902197721153
 10
12512.78923027223
 20
2795.018654153502
 10
12504.054092081147
 20
2787.818804899672
 10
12494.73750984628
 20
2781.4804128140245
 10
12484.96152378766
 20
2776.093218699957
 10
12474.848174125318
 20
2771.7469633608725
 10
12464.519501079283
 20
2768.5313876001737
 10
12454.097544869586
 20
2766.5362322212595
 10
12443.704345716253
 20
2765.851238027533
 10
12433.764309085256
 20
2766.5362322212586
 10
12424.662378529043
 20
2768.5313876001737
 10
12416.461401397351
 20
2771.746963360872
 10
12409.224225039921
 20
2776.093218699957
 10
12403.013696806493
 20
2781.4804128140227
 10
12397.892664046805
 20
2787.818804899673
 10
12393.923974110598
 20
2795.018654153503
 10
12391.17047434761
 20
2802.9902197721135
 10
12389.69501210758
 20
2811.643760952103
 10
12389.560434740251
 20
2820.8895368900708
 10
12390.829589595363
 20
2830.637806782616
 10
12393.565324022651
 20
2840.798829826335
 10
12397.561285183474
 20
2850.9710208501633
 10
12402.749206634051
 20
2860.748231129097
 10
12409.006999670379
 20
2870.037147196985
 10
12416.212575588455
 20
2878.7444555876855
 10
12424.243845684276
 20
2886.7768428350446
 10
12432.978721253843
 20
2894.0409954729253
 10
12442.295113593149
 20
2900.4436000351734
 10
12452.070933998195
 20
2905.891343055643
 10
12462.184093764976
 20
2910.2909110681912
 10
12472.512504189492
 20
2913.548990606669
 10
12482.93407656774
 20
2915.572268204929
 10
12493.326722195716
 20
2916.267430396827
 97
0
 75
0
 76
1
 98
0
  0
LWPOLYLINE
  5
B8
330
17
100
AcDbEntity
  8
Okvir
 62
7
100
AcDbPolyline
 90
49
 70
1
 10
12493.326722195716
 20
2916.267430396827
 10
12503.257445863603
 20
2915.572268204929
 10
12512.333748599862
 20
2913.548990606669
 10
12520.498213259705
 20
2910.290911068192
 10
12527.693422698347
 20
2905.8913430556445
 10
12533.861959771
 20
2900.443600035171
 10
12538.946407332882
 20
2894.0409954729253
 10
12542.889348239203
 20
2886.776842835047
 10
12545.633365345178
 20
2878.744455587684
 10
12547.12104150602
 20
2870.037147196985
 10
12547.294959576944
 20
2860.748231129097
 10
12546.097702413163
 20
2850.971020850164
 10
12543.47185286989
 20
2840.798829826335
 10
12539.47453819816
 20
2830.637806782615
 10
12534.285578382498
 20
2820.8895368900708
 10
12528.027013642937
 20
2811.643760952103
 10
12520.820884199506
 20
2802.9902197721153
 10
12512.78923027223
 20
2795.018654153502
 10
12504.054092081147
 20
2787.818804899672
 10
12494.73750984628
 20
2781.4804128140245
 10
12484.96152378766
 20
2776.093218699957
 10
12474.848174125318
 20
2771.7469633608725
 10
12464.519501079283
 20
2768.5313876001737
 10
12454.097544869586
 20
2766.5362322212595
 10
12443.704345716253
 20
2765.851238027533
 10
12433.764309085256
 20
2766.5362322212586
 10
12424.662378529043
 20
2768.5313876001737
 10
12416.461401397351
 20
2771.746963360872
 10
12409.224225039921
 20
2776.093218699957
 10
12403.013696806493
 20
2781.4804128140227
 10
12397.892664046805
 20
2787.818804899673
 10
12393.923974110598
 20
2795.018654153503
 10
12391.17047434761
 20
2802.9902197721135
 10
12389.69501210758
 20
2811.643760952103
 10
12389.560434740251
 20
2820.8895368900708
 10
12390.829589595363
 20
2830.637806782616
 10
12393.565324022651
 20
2840.798829826335
 10
12397.561285183474
 20
2850.9710208501633
 10
12402.749206634051
 20
2860.748231129097
 10
12409.006999670379
 20
2870.037147196985
 10
12416.212575588455
 20
2878.7444555876855
 10
12424.243845684276
 20
2886.7768428350446
 10
12432.978721253843
 20
2894.0409954729253
 10
12442.295113593149
 20
2900.4436000351734
 10
12452.070933998195
 20
2905.891343055643
 10
12462.184093764976
 20
2910.2909110681912
 10
12472.512504189492
 20
2913.548990606669
 10
12482.93407656774
 20
2915.572268204929
 10
12493.326722195716
 20
2916.267430396827
  0
HATCH
  5
B9
330
17
100
AcDbEntity
  8
Okvir
 62
7
100
AcDbHatch
 10
0.0
 20
0.0
 30
0.0
210
0.0
220
0.0
230
1.0
  2
SOLID
 70
1
 71
0
 91
1
 92
3
 72
0
 73
1
 93
49
 10
12678.384325257515
 20
2916.267430396827
 10
12688.43319275116
 20
2915.572268204929
 10
12697.608079060401
 20
2913.548990606669
 10
12705.853315493718
 20
2910.290911068192
 10
12713.113233359598
 20
2905.8913430556445
 10
12719.33216396652
 20
2900.443600035171
 10
12724.45443862297
 20
2894.0409954729253
 10
12728.42438863743
 20
2886.776842835047
 10
12731.18634531838
 20
2878.744455587684
 10
12732.684639974308
 20
2870.037147196985
 10
12732.86360391369
 20
2860.748231129097
 10
12731.667568445017
 20
2850.971020850164
 10
12729.040864876764
 20
2840.798829826335
 10
12725.04475321361
 20
2830.637806782615
 10
12719.856796410135
 20
2820.8895368900708
 10
12713.599052867863
 20
2811.643760952103
 10
12706.393580988311
 20
2802.9902197721153
 10
12698.362439173
 20
2795.018654153502
 10
12689.62768582345
 20
2787.818804899672
 10
12680.31137934118
 20
2781.4804128140245
 10
12670.535578127707
 20
2776.093218699957
 10
12660.422340584551
 20
2771.7469633608725
 10
12650.093725113235
 20
2768.5313876001737
 10
12639.671790115273
 20
2766.5362322212595
 10
12629.278593992189
 20
2765.851238027533
 10
12619.337706366461
 20
2766.5362322212586
 10
12610.233309693174
 20
2768.5313876001737
 10
12602.026418021844
 20
2771.746963360872
 10
12594.778045401987
 20
2776.093218699957
 10
12588.549205883122
 20
2781.4804128140227
 10
12583.40091351477
 20
2787.818804899673
 10
12579.394182346447
 20
2795.018654153503
 10
12576.590026427672
 20
2802.9902197721135
 10
12575.049459807962
 20
2811.643760952103
 10
12574.833496536836
 20
2820.8895368900708
 10
12576.003150663812
 20
2830.637806782616
 10
12578.619436238409
 20
2840.798829826335
 10
12582.724680778962
 20
2850.9710208501633
 10
12587.983998414773
 20
2860.748231129097
 10
12594.28072155605
 20
2870.037147196985
 10
12601.498182613
 20
2878.7444555876855
 10
12609.519713995827
 20
2886.7768428350446
 10
12618.228648114738
 20
2894.0409954729253
 10
12627.508317379941
 20
2900.4436000351734
 10
12637.242054201639
 20
2905.891343055643
 10
12647.313190990038
 20
2910.2909110681912
 10
12657.605060155347
 20
2913.548990606669
 10
12668.000994107771
 20
2915.572268204929
 10
12678.384325257515
 20
2916.267430396827
 97
0
 75
0
 76
1
 98
0
  0
LWPOLYLINE
  5
BA
330
17
100
AcDbEntity
  8
Okvir
 62
7
100
AcDbPolyline
 90
49
 70
1
 10
12678.384325257515
 20
2916.267430396827
 10
12688.43319275116
 20
2915.572268204929
 10
12697.608079060401
 20
2913.548990606669
 10
12705.853315493718
 20
2910.290911068192
 10
12713.113233359598
 20
2905.8913430556445
 10
12719.33216396652
 20
2900.443600035171
 10
12724.45443862297
 20
2894.0409954729253
 10
12728.42438863743
 20
2886.776842835047
 10
12731.18634531838
 20
2878.744455587684
 10
12732.684639974308
 20
2870.037147196985
 10
12732.86360391369
 20
2860.748231129097
 10
12731.667568445017
 20
2850.971020850164
 10
12729.040864876764
 20
2840.798829826335
 10
12725.04475321361
 20
2830.637806782615
 10
12719.856796410135
 20
2820.8895368900708
 10
12713.599052867863
 20
2811.643760952103
 10
12706.393580988311
 20
2802.9902197721153
 10
12698.362439173
 20
2795.018654153502
 10
12689.62768582345
 20
2787.818804899672
 10
12680.31137934118
 20
2781.4804128140245
 10
12670.535578127707
 20
2776.093218699957
 10
12660.422340584551
 20
2771.7469633608725
 10
12650.093725113235
 20
2768.5313876001737
 10
12639.671790115273
 20
2766.5362322212595
 10
12629.278593992189
 20
2765.851238027533
 10
12619.337706366461
 20
2766.5362322212586
 10
12610.233309693174
 20
2768.5313876001737
 10
12602.026418021844
 20
2771.746963360872
 10
12594.778045401987
 20
2776.093218699957
 10
12588.549205883122
 20
2781.4804128140227
 10
12583.40091351477
 20
2787.818804899673
 10
12579.394182346447
 20
2795.018654153503
 10
12576.590026427672
 20
2802.9902197721135
 10
12575.049459807962
 20
2811.643760952103
 10
12574.833496536836
 20
2820.8895368900708
 10
12576.003150663812
 20
2830.637806782616
 10
12578.619436238409
 20
2840.798829826335
 10
12582.724680778962
 20
2850.9710208501633
 10
12587.983998414773
 20
2860.748231129097
 10
12594.28072155605
 20
2870.037147196985
 10
12601.498182613
 20
2878.7444555876855
 10
12609.519713995827
 20
2886.7768428350446
 10
12618.228648114738
 20
2894.0409954729253
 10
12627.508317379941
 20
2900.4436000351734
 10
12637.242054201639
 20
2905.891343055643
 10
12647.313190990038
 20
2910.2909110681912
 10
12657.605060155347
 20
2913.548990606669
 10
12668.000994107771
 20
2915.572268204929
 10
12678.384325257515
 20
2916.267430396827
  0
HATCH
  5
BB
330
17
100
AcDbEntity
  8
Okvir
 62
7
100
AcDbHatch
 10
0.0
 20
0.0
 30
0.0
210
0.0
220
0.0
230
1.0
  2
SOLID
 70
1
 71
0
 91
1
 92
3
 72
0
 73
1
 93
49
 10
12861.370983905214
 20
2916.267430396827
 10
12871.301522222913
 20
2915.572268204929
 10
12880.377691123205
 20
2913.548990606669
 10
12888.542052249566
 20
2910.290911068192
 10
12895.737167245468
 20
2905.8913430556445
 10
12901.90559775439
 20
2900.443600035171
 10
12906.989905419809
 20
2894.0409954729253
 10
12910.932651885198
 20
2886.776842835047
 10
12913.676398794032
 20
2878.744455587684
 10
12915.163707789789
 20
2870.037147196985
 10
12915.337140515941
 20
2860.748231129097
 10
12914.13925861597
 20
2850.971020850164
 10
12911.512623733346
 20
2840.798829826335
 10
12907.516144400062
 20
2830.637806782615
 10
12902.327941136395
 20
2820.8895368900708
 10
12896.070048101874
 20
2811.643760952103
 10
12888.864499456033
 20
2802.9902197721153
 10
12880.833329358404
 20
2795.018654153502
 10
12872.098571968521
 20
2787.818804899672
 10
12862.78226144592
 20
2781.4804128140245
 10
12853.006431950129
 20
2776.093218699957
 10
12842.893117640684
 20
2771.7469633608725
 10
12832.564352677118
 20
2768.5313876001737
 10
12822.142171218962
 20
2766.5362322212595
 10
12811.74860742575
 20
2765.851238027533
 10
12801.80892028339
 20
2766.5362322212586
 10
12792.707181642905
 20
2768.5313876001737
 10
12784.506263096013
 20
2771.746963360872
 10
12777.269036234446
 20
2776.093218699957
 10
12771.058372649924
 20
2781.4804128140227
 10
12765.937143934181
 20
2787.818804899673
 10
12761.968221678937
 20
2795.018654153503
 10
12759.21447747592
 20
2802.9902197721135
 10
12757.738782916855
 20
2811.643760952103
 10
12757.60400959347
 20
2820.8895368900708
 10
12758.873029097489
 20
2830.637806782616
 10
12761.608713020638
 20
2840.798829826335
 10
12765.604874682891
 20
2850.9710208501633
 10
12770.792963302167
 20
2860.748231129097
 10
12777.050893204709
 20
2870.037147196985
 10
12784.256578716766
 20
2878.7444555876855
 10
12792.287934164578
 20
2886.7768428350446
 10
12801.022873874403
 20
2894.0409954729253
 10
12810.339312172473
 20
2900.4436000351734
 10
12820.115163385044
 20
2905.891343055643
 10
12830.228341838356
 20
2910.2909110681912
 10
12840.55676185866
 20
2913.548990606669
 10
12850.978337772196
 20
2915.572268204929
 10
12861.370983905215
 20
2916.267430396827
 97
0
 75
0
 76
1
 98
0
  0
LWPOLYLINE
  5
BC
330
17
100
AcDbEntity
  8
Okvir
 62
7
100
AcDbPolyline
 90
49
 70
1
 10
12861.370983905214
 20
2916.267430396827
 10
12871.301522222913
 20
2915.572268204929
 10
12880.377691123205
 20
2913.548990606669
 10
12888.542052249566
 20
2910.290911068192
 10
12895.737167245468
 20
2905.8913430556445
 10
12901.90559775439
 20
2900.443600035171
 10
12906.989905419809
 20
2894.0409954729253
 10
12910.932651885198
 20
2886.776842835047
 10
12913.676398794032
 20
2878.744455587684
 10
12915.163707789789
 20
2870.037147196985
 10
12915.337140515941
 20
2860.748231129097
 10
12914.13925861597
 20
2850.971020850164
 10
12911.512623733346
 20
2840.798829826335
 10
12907.516144400062
 20
2830.637806782615
 10
12902.327941136395
 20
2820.8895368900708
 10
12896.070048101874
 20
2811.643760952103
 10
12888.864499456033
 20
2802.9902197721153
 10
12880.833329358404
 20
2795.018654153502
 10
12872.098571968521
 20
2787.818804899672
 10
12862.78226144592
 20
2781.4804128140245
 10
12853.006431950129
 20
2776.093218699957
 10
12842.893117640684
 20
2771.7469633608725
 10
12832.564352677118
 20
2768.5313876001737
 10
12822.142171218962
 20
2766.5362322212595
 10
12811.74860742575
 20
2765.851238027533
 10
12801.80892028339
 20
2766.5362322212586
 10
12792.707181642905
 20
2768.5313876001737
 10
12784.506263096013
 20
2771.746963360872
 10
12777.269036234446
 20
2776.093218699957
 10
12771.058372649924
 20
2781.4804128140227
 10
12765.937143934181
 20
2787.818804899673
 10
12761.968221678937
 20
2795.018654153503
 10
12759.21447747592
 20
2802.9902197721135
 10
12757.738782916855
 20
2811.643760952103
 10
12757.60400959347
 20
2820.8895368900708
 10
12758.873029097489
 20
2830.637806782616
 10
12761.608713020638
 20
2840.798829826335
 10
12765.604874682891
 20
2850.9710208501633
 10
12770.792963302167
 20
2860.748231129097
 10
12777.050893204709
 20
2870.037147196985
 10
12784.256578716766
 20
2878.7444555876855
 10
12792.287934164578
 20
2886.7768428350446
 10
12801.022873874403
 20
2894.0409954729253
 10
12810.339312172473
 20
2900.4436000351734
 10
12820.115163385044
 20
2905.891343055643
 10
12830.228341838356
 20
2910.2909110681912
 10
12840.55676185866
 20
2913.548990606669
 10
12850.978337772196
 20
2915.572268204929
 10
12861.370983905215
 20
2916.267430396827
  0
HATCH
  5
BD
330
17
100
AcDbEntity
  8
Okvir
 62
7
100
AcDbHatch
 10
0.0
 20
0.0
 30
0.0
210
0.0
220
0.0
230
1.0
  2
SOLID
 70
1
 71
0
 91
1
 92
3
 72
0
 73
1
 93
49
 10
12617.38964508646
 20
2730.1809004643046
 10
12627.329897875166
 20
2729.4959734410813
 10
12636.43370516516
 20
2727.500997351859
 10
12644.640061997667
 20
2724.2856796673063
 10
12651.887963413914
 20
2719.9397278580946
 10
12658.116404455124
 20
2714.55284939489
 10
12663.26438016253
 20
2708.2147517483695
 10
12667.270885577354
 20
2701.015142389196
 10
12670.074915740826
 20
2693.043728788041
 10
12671.61546569417
 20
2684.3902184155754
 10
12671.831530478614
 20
2675.1443187424693
 10
12670.662105135385
 20
2665.395737239392
 10
12668.046184705709
 20
2655.2341813770126
 10
12664.049521537363
 20
2645.071972496124
 10
12658.861195043595
 20
2635.3227470652832
 10
12652.603227262949
 20
2626.076221645903
 10
12645.397640233963
 20
2617.422112799399
 10
12637.366455995176
 20
2609.450137087183
 10
12628.63169658513
 20
2602.250011070676
 10
12619.315384042362
 20
2595.9114513112872
 10
12609.539540405412
 20
2590.5241743704332
 10
12599.426187712823
 20
2586.1778968095286
 10
12589.09734800313
 20
2582.962335189988
 10
12578.675043314877
 20
2580.967206073227
 10
12568.281295686602
 20
2580.282226020658
 10
12558.341008050038
 20
2580.967206073226
 10
12549.237102276977
 20
2582.962335189988
 10
12541.03059241693
 20
2586.1778968095296
 10
12533.78249251942
 20
2590.5241743704332
 10
12527.553816633963
 20
2595.911451311286
 10
12522.405578810081
 20
2602.250011070676
 10
12518.398793097289
 20
2609.4501370871853
 10
12515.594473545105
 20
2617.422112799398
 10
12514.053634203048
 20
2626.076221645903
 10
12513.837289120636
 20
2635.3227470652832
 10
12515.006452347388
 20
2645.071972496125
 10
12517.622137932822
 20
2655.2341813770126
 10
12521.61885261539
 20
2665.395737239391
 10
12526.807321530827
 20
2675.14431874247
 10
12533.0655044591
 20
2684.390218415577
 10
12540.271361180186
 20
2693.043728788041
 10
12548.30285147405
 20
2701.015142389193
 10
12557.037935120667
 20
2708.2147517483677
 10
12566.354571900003
 20
2714.5528493948914
 10
12576.13072159203
 20
2719.9397278580946
 10
12586.24434397672
 20
2724.2856796673063
 10
12596.57339883404
 20
2727.500997351859
 10
12606.995845943964
 20
2729.4959734410813
 10
12617.38964508646
 20
2730.1809004643046
 97
0
 75
0
 76
1
 98
0
  0
LWPOLYLINE
  5
BE
330
17
100
AcDbEntity
  8
Okvir
 62
7
100
AcDbPolyline
 90
49
 70
1
 10
12617.38964508646
 20
2730.1809004643046
 10
12627.329897875166
 20
2729.4959734410813
 10
12636.43370516516
 20
2727.500997351859
 10
12644.640061997667
 20
2724.2856796673063
 10
12651.887963413914
 20
2719.9397278580946
 10
12658.116404455124
 20
2714.55284939489
 10
12663.26438016253
 20
2708.2147517483695
 10
12667.270885577354
 20
2701.015142389196
 10
12670.074915740826
 20
2693.043728788041
 10
12671.61546569417
 20
2684.3902184155754
 10
12671.831530478614
 20
2675.1443187424693
 10
12670.662105135385
 20
2665.395737239392
 10
12668.046184705709
 20
2655.2341813770126
 10
12664.049521537363
 20
2645.071972496124
 10
12658.861195043595
 20
2635.3227470652832
 10
12652.603227262949
 20
2626.076221645903
 10
12645.397640233963
 20
2617.422112799399
 10
12637.366455995176
 20
2609.450137087183
 10
12628.63169658513
 20
2602.250011070676
 10
12619.315384042362
 20
2595.9114513112872
 10
12609.539540405412
 20
2590.5241743704332
 10
12599.426187712823
 20
2586.1778968095286
 10
12589.09734800313
 20
2582.962335189988
 10
12578.675043314877
 20
2580.967206073227
 10
12568.281295686602
 20
2580.282226020658
 10
12558.341008050038
 20
2580.967206073226
 10
12549.237102276977
 20
2582.962335189988
 10
12541.03059241693
 20
2586.1778968095296
 10
12533.78249251942
 20
2590.5241743704332
 10
12527.553816633963
 20
2595.911451311286
 10
12522.405578810081
 20
2602.250011070676
 10
12518.398793097289
 20
2609.4501370871853
 10
12515.594473545105
 20
2617.422112799398
 10
12514.053634203048
 20
2626.076221645903
 10
12513.837289120636
 20
2635.3227470652832
 10
12515.006452347388
 20
2645.071972496125
 10
12517.622137932822
 20
2655.2341813770126
 10
12521.61885261539
 20
2665.395737239391
 10
12526.807321530827
 20
2675.14431874247
 10
12533.0655044591
 20
2684.390218415577
 10
12540.271361180186
 20
2693.043728788041
 10
12548.30285147405
 20
2701.015142389193
 10
12557.037935120667
 20
2708.2147517483677
 10
12566.354571900003
 20
2714.5528493948914
 10
12576.13072159203
 20
2719.9397278580946
 10
12586.24434397672
 20
2724.2856796673063
 10
12596.57339883404
 20
2727.500997351859
 10
12606.995845943964
 20
2729.4959734410813
 10
12617.38964508646
 20
2730.1809004643046
  0
HATCH
  5
BF
330
17
100
AcDbEntity
  8
Okvir
 62
7
100
AcDbHatch
 10
0.0
 20
0.0
 30
0.0
210
0.0
220
0.0
230
1.0
  2
SOLID
 70
1
 71
0
 91
1
 92
3
 72
0
 73
1
 93
138
 10
12035.85920286496
 20
2702.786486153886
 10
12028.051653980952
 20
2685.499786759095
 10
12018.673630431558
 20
2669.123146684969
 10
12007.856154092764
 20
2653.769621465325
 10
11995.730246840563
 20
2639.5522666339866
 10
11982.426930550946
 20
2626.5841377247693
 10
11968.077227099902
 20
2614.9782902714987
 10
11952.812158363422
 20
2604.8477798079953
 10
11936.762746217495
 20
2596.305661868075
 10
11920.060012538115
 20
2589.4649919855606
 10
11902.834979201269
 20
2584.438825694273
 10
11885.218668082949
 20
2581.3402185280324
 10
11867.342101059145
 20
2580.282226020658
 10
11858.306804147922
 20
2580.5292311553667
 10
11849.804409732966
 20
2581.2678849859903
 10
11841.829539123542
 20
2582.4946451522596
 10
11834.37681362892
 20
2584.205969293916
 10
11827.440854558368
 20
2586.3983150506965
 10
11821.016283221152
 20
2589.0681400623384
 10
11815.097720926542
 20
2592.2119019685792
 10
11809.679788983804
 20
2595.826058409155
 10
11804.757108702206
 20
2599.9070670238057
 10
11800.324301391014
 20
2604.4513854522665
 10
11796.3759883595
 20
2609.455471334274
 10
11792.906790916928
 20
2614.9157823095697
 10
11789.43742378045
 20
2622.583941286906
 10
11786.989350319229
 20
2630.3493015389586
 10
11785.485374957823
 20
2638.2225931749545
 10
11784.848302120794
 20
2646.214546304128
 10
11785.0009362327
 20
2654.3358910357033
 10
11785.866081718103
 20
2662.5973574789173
 10
11787.366543001564
 20
2671.009675742994
 10
11789.425124507643
 20
2679.5835759371657
 10
11791.9646306609
 20
2688.3297881706626
 10
11794.907865885894
 20
2697.2590425527146
 10
11798.17763460719
 20
2706.3820691925503
 10
11801.696741249343
 20
2715.7095981993994
 10
11801.697040233843
 20
2715.7200631619025
 10
11801.699133125336
 20
2715.750264131584
 10
11801.704813830815
 20
2715.7984102316964
 10
11801.715876257274
 20
2715.8627105854976
 10
11801.734114311708
 20
2715.941374316236
 10
11801.761321901111
 20
2716.032610547174
 10
11801.799292932474
 20
2716.1346284015626
 10
11801.849821312791
 20
2716.245637002656
 10
11801.914700949057
 20
2716.3638454737106
 10
11801.995725748266
 20
2716.4874629379806
 10
11802.094689617408
 20
2716.61469851872
 10
11802.21338646348
 20
2716.743761339185
 10
11806.347420888089
 20
2727.601165239659
 10
11861.659876415146
 20
2866.6450539173625
 10
11867.861364407814
 20
2883.704818522015
 10
11868.927781510502
 20
2885.977358284928
 10
11870.062415562918
 20
2888.147857466591
 10
11871.26886650004
 20
2890.2216553645058
 10
11872.550734256853
 20
2892.2040912761818
 10
11873.91161876833
 20
2894.1005044991184
 10
11875.355119969456
 20
2895.916234330825
 10
11876.88483779521
 20
2897.6566200688017
 10
11878.504372180574
 20
2899.3270010105534
 10
11880.217323060528
 20
2900.932716453588
 10
11882.027290370048
 20
2902.479105695405
 10
11883.937874044119
 20
2903.9715080335122
 10
11885.95267401772
 20
2905.4152627654134
 10
11887.653973087918
 20
2906.5345965891206
 10
11889.394668416262
 20
2907.5660562423827
 10
11891.171175219015
 20
2908.507838727456
 10
11892.979908712437
 20
2909.3581410466045
 10
11894.817284112789
 20
2910.1151602020855
 10
11896.679716636334
 20
2910.7770931961695
 10
11898.563621499332
 20
2911.3421370311116
 10
11900.465413918042
 20
2911.8084887091736
 10
11902.381509108729
 20
2912.174345232619
 10
11904.308322287654
 20
2912.437903603708
 10
11906.242268671074
 20
2912.597360824703
 10
11908.179763475255
 20
2912.650913897866
 10
11910.084883611642
 20
2912.5970628502864
 10
11911.92005955677
 20
2912.4355198083795
 10
11913.67989140817
 20
2912.1662999233827
 10
11915.35897926337
 20
2911.78941834654
 10
11916.951923219902
 20
2911.3048902290907
 10
11918.453323375295
 20
2910.7127307222795
 10
11919.857779827078
 20
2910.0129549773465
 10
11921.15989267278
 20
2909.205578145532
 10
11922.35426200993
 20
2908.2906153780777
 10
11923.435487936062
 20
2907.268081826227
 10
11924.3981705487
 20
2906.1379926412196
 10
11925.236909945377
 20
2904.9003629742974
 10
11926.066594455093
 20
2903.57490408561
 10
11926.747278625655
 20
2902.18113127925
 10
11927.280759394305
 20
2900.7154931042105
 10
11927.668833698284
 20
2899.174438109484
 10
11927.913298474836
 20
2897.55441484406
 10
11928.015950661202
 20
2895.851871856936
 10
11927.978587194622
 20
2894.0632576971
 10
11927.803005012342
 20
2892.1850209135478
 10
11927.4910010516
 20
2890.2136100552707
 10
11927.044372249637
 20
2888.1454736712617
 10
11926.464915543698
 20
2885.9770603105117
 10
11925.754427871025
 20
2883.704818522015
 10
11919.035421952709
 20
2867.1616991314995
 10
11919.035421952709
 20
2867.161400147
 10
11919.03542195271
 20
2867.159307255509
 10
11919.03542195271
 20
2867.1536265500295
 10
11919.03542195271
 20
2867.14256412357
 10
11919.035421952709
 20
2867.1243260691335
 10
11919.035421952709
 20
2867.0971184797318
 10
11919.03542195271
 20
2867.05914744837
 10
11919.03542195271
 20
2867.0086190680518
 10
11919.03542195271
 20
2866.943739431786
 10
11919.035421952709
 20
2866.862714632577
 10
11919.035421952709
 20
2866.7637507634345
 10
11919.035421952709
 20
2866.6450539173625
 10
11895.256651429741
 20
2807.721318160407
 10
11900.834686541404
 20
2810.346807609172
 10
11906.454045149132
 20
2812.7911942682967
 10
11912.112924255189
 20
2815.0454813305755
 10
11917.809520861832
 20
2817.1006719888073
 10
11923.542031971327
 20
2818.9477694357856
 10
11929.308654585933
 20
2820.577776864316
 10
11935.107585707912
 20
2821.9816974671917
 10
11940.937022339527
 20
2823.150534437209
 10
11946.795161483038
 20
2824.075290967169
 10
11952.680200140707
 20
2824.7469702498656
 10
11958.590335314795
 20
2825.1565754780986
 10
11964.523764007565
 20
2825.295109844666
 10
11981.109597273075
 20
2824.197615525495
 10
11995.94018648311
 20
2820.9948561999827
 10
12008.96167503464
 20
2815.8214173161123
 10
12020.120206324626
 20
2808.811884321881
 10
12029.361923750037
 20
2800.1008426652743
 10
12036.632970707838
 20
2789.822877794292
 10
12041.879490594998
 20
2778.112575156917
 10
12045.047626808479
 20
2765.104520201143
 10
12046.08352274525
 20
2750.933298374962
 10
12044.933321802277
 20
2735.7334951263665
 10
12041.543167376523
 20
2719.6396959033427
 10
12035.85920286496
 20
2702.786486153886
 97
0
 75
0
 76
1
 98
0
  0
LWPOLYLINE
  5
C0
330
17
100
AcDbEntity
  8
Okvir
 62
7
100
AcDbPolyline
 90
138
 70
1
 10
12035.85920286496
 20
2702.786486153886
 10
12028.051653980952
 20
2685.499786759095
 10
12018.673630431558
 20
2669.123146684969
 10
12007.856154092764
 20
2653.769621465325
 10
11995.730246840563
 20
2639.5522666339866
 10
11982.426930550946
 20
2626.5841377247693
 10
11968.077227099902
 20
2614.9782902714987
 10
11952.812158363422
 20
2604.8477798079953
 10
11936.762746217495
 20
2596.305661868075
 10
11920.060012538115
 20
2589.4649919855606
 10
11902.834979201269
 20
2584.438825694273
 10
11885.218668082949
 20
2581.3402185280324
 10
11867.342101059145
 20
2580.282226020658
 10
11858.306804147922
 20
2580.5292311553667
 10
11849.804409732966
 20
2581.2678849859903
 10
11841.829539123542
 20
2582.4946451522596
 10
11834.37681362892
 20
2584.205969293916
 10
11827.440854558368
 20
2586.3983150506965
 10
11821.016283221152
 20
2589.0681400623384
 10
11815.097720926542
 20
2592.2119019685792
 10
11809.679788983804
 20
2595.826058409155
 10
11804.757108702206
 20
2599.9070670238057
 10
11800.324301391014
 20
2604.4513854522665
 10
11796.3759883595
 20
2609.455471334274
 10
11792.906790916928
 20
2614.9157823095697
 10
11789.43742378045
 20
2622.583941286906
 10
11786.989350319229
 20
2630.3493015389586
 10
11785.485374957823
 20
2638.2225931749545
 10
11784.848302120794
 20
2646.214546304128
 10
11785.0009362327
 20
2654.3358910357033
 10
11785.866081718103
 20
2662.5973574789173
 10
11787.366543001564
 20
2671.009675742994
 10
11789.425124507643
 20
2679.5835759371657
 10
11791.9646306609
 20
2688.3297881706626
 10
11794.907865885894
 20
2697.2590425527146
 10
11798.17763460719
 20
2706.3820691925503
 10
11801.696741249343
 20
2715.7095981993994
 10
11801.697040233843
 20
2715.7200631619025
 10
11801.699133125336
 20
2715.750264131584
 10
11801.704813830815
 20
2715.7984102316964
 10
11801.715876257274
 20
2715.8627105854976
 10
11801.734114311708
 20
2715.941374316236
 10
11801.761321901111
 20
2716.032610547174
 10
11801.799292932474
 20
2716.1346284015626
 10
11801.849821312791
 20
2716.245637002656
 10
11801.914700949057
 20
2716.3638454737106
 10
11801.995725748266
 20
2716.4874629379806
 10
11802.094689617408
 20
2716.61469851872
 10
11802.21338646348
 20
2716.743761339185
 10
11806.347420888089
 20
2727.601165239659
 10
11861.659876415146
 20
2866.6450539173625
 10
11867.861364407814
 20
2883.704818522015
 10
11868.927781510502
 20
2885.977358284928
 10
11870.062415562918
 20
2888.147857466591
 10
11871.26886650004
 20
2890.2216553645058
 10
11872.550734256853
 20
2892.2040912761818
 10
11873.91161876833
 20
2894.1005044991184
 10
11875.355119969456
 20
2895.916234330825
 10
11876.88483779521
 20
2897.6566200688017
 10
11878.504372180574
 20
2899.3270010105534
 10
11880.217323060528
 20
2900.932716453588
 10
11882.027290370048
 20
2902.479105695405
 10
11883.937874044119
 20
2903.9715080335122
 10
11885.95267401772
 20
2905.4152627654134
 10
11887.653973087918
 20
2906.5345965891206
 10
11889.394668416262
 20
2907.5660562423827
 10
11891.171175219015
 20
2908.507838727456
 10
11892.979908712437
 20
2909.3581410466045
 10
11894.817284112789
 20
2910.1151602020855
 10
11896.679716636334
 20
2910.7770931961695
 10
11898.563621499332
 20
2911.3421370311116
 10
11900.465413918042
 20
2911.8084887091736
 10
11902.381509108729
 20
2912.174345232619
 10
11904.308322287654
 20
2912.437903603708
 10
11906.242268671074
 20
2912.597360824703
 10
11908.179763475255
 20
2912.650913897866
 10
11910.084883611642
 20
2912.5970628502864
 10
11911.92005955677
 20
2912.4355198083795
 10
11913.67989140817
 20
2912.1662999233827
 10
11915.35897926337
 20
2911.78941834654
 10
11916.951923219902
 20
2911.3048902290907
 10
11918.453323375295
 20
2910.7127307222795
 10
11919.857779827078
 20
2910.0129549773465
 10
11921.15989267278
 20
2909.205578145532
 10
11922.35426200993
 20
2908.2906153780777
 10
11923.435487936062
 20
2907.268081826227
 10
11924.3981705487
 20
2906.1379926412196
 10
11925.236909945377
 20
2904.9003629742974
 10
11926.066594455093
 20
2903.57490408561
 10
11926.747278625655
 20
2902.18113127925
 10
11927.280759394305
 20
2900.7154931042105
 10
11927.668833698284
 20
2899.174438109484
 10
11927.913298474836
 20
2897.55441484406
 10
11928.015950661202
 20
2895.851871856936
 10
11927.978587194622
 20
2894.0632576971
 10
11927.803005012342
 20
2892.1850209135478
 10
11927.4910010516
 20
2890.2136100552707
 10
11927.044372249637
 20
2888.1454736712617
 10
11926.464915543698
 20
2885.9770603105117
 10
11925.754427871025
 20
2883.704818522015
 10
11919.035421952709
 20
2867.1616991314995
 10
11919.035421952709
 20
2867.161400147
 10
11919.03542195271
 20
2867.159307255509
 10
11919.03542195271
 20
2867.1536265500295
 10
11919.03542195271
 20
2867.14256412357
 10
11919.035421952709
 20
2867.1243260691335
 10
11919.035421952709
 20
2867.0971184797318
 10
11919.03542195271
 20
2867.05914744837
 10
11919.03542195271
 20
2867.0086190680518
 10
11919.03542195271
 20
2866.943739431786
 10
11919.035421952709
 20
2866.862714632577
 10
11919.035421952709
 20
2866.7637507634345
 10
11919.035421952709
 20
2866.6450539173625
 10
11895.256651429741
 20
2807.721318160407
 10
11900.834686541404
 20
2810.346807609172
 10
11906.454045149132
 20
2812.7911942682967
 10
11912.112924255189
 20
2815.0454813305755
 10
11917.809520861832
 20
2817.1006719888073
 10
11923.542031971327
 20
2818.9477694357856
 10
11929.308654585933
 20
2820.577776864316
 10
11935.107585707912
 20
2821.9816974671917
 10
11940.937022339527
 20
2823.150534437209
 10
11946.795161483038
 20
2824.075290967169
 10
11952.680200140707
 20
2824.7469702498656
 10
11958.590335314795
 20
2825.1565754780986
 10
11964.523764007565
 20
2825.295109844666
 10
11981.109597273075
 20
2824.197615525495
 10
11995.94018648311
 20
2820.9948561999827
 10
12008.96167503464
 20
2815.8214173161123
 10
12020.120206324626
 20
2808.811884321881
 10
12029.361923750037
 20
2800.1008426652743
 10
12036.632970707838
 20
2789.822877794292
 10
12041.879490594998
 20
2778.112575156917
 10
12045.047626808479
 20
2765.104520201143
 10
12046.08352274525
 20
2750.933298374962
 10
12044.933321802277
 20
2735.7334951263665
 10
12041.543167376523
 20
2719.6396959033427
 10
12035.85920286496
 20
2702.786486153886
  0
HATCH
  5
C1
330
17
100
AcDbEntity
  8
Okvir
 62
7
100
AcDbHatch
 10
0.0
 20
0.0
 30
0.0
210
0.0
220
0.0
230
1.0
  2
SOLID
 70
1
 71
0
 91
1
 92
3
 72
0
 73
1
 93
49
 10
11978.481039192864
 20
2702.786486153886
 10
11981.628192957034
 20
2711.887013705136
 10
11983.587213635055
 20
2720.5349736728
 10
11984.376055448101
 20
2728.665791465603
 10
11984.012672617353
 20
2736.2148924922794
 10
11982.515019363982
 20
2743.1177021615526
 10
11979.90104990917
 20
2749.3096458821597
 10
11976.188718474092
 20
2754.7261490628252
 10
11971.395979279923
 20
2759.302637112279
 10
11965.540786547843
 20
2762.9745354392503
 10
11958.641094499026
 20
2765.677269452471
 10
11950.71485735465
 20
2767.346264560668
 10
11941.780029335892
 20
2767.916946172571
 10
11932.400775505688
 20
2767.326414919178
 10
11923.173997709437
 20
2765.605088937968
 10
11914.166100808383
 20
2762.828369897382
 10
11905.44348966377
 20
2759.071659465868
 10
11897.07256913684
 20
2754.4103593118716
 10
11889.11974408884
 20
2748.9198711038425
 10
11881.651419381013
 20
2742.675596510221
 10
11874.733999874601
 20
2735.752937199457
 10
11868.433890430848
 20
2728.2272948399955
 10
11862.817495910998
 20
2720.1740711002826
 10
11857.951221176296
 20
2711.6686676487648
 10
11853.901471087984
 20
2702.786486153886
 10
11850.329792163033
 20
2692.0480073781882
 10
11848.328642447941
 20
2682.3112196014945
 10
11847.788508769148
 20
2673.565323018861
 10
11848.599877953098
 20
2665.7995178253523
 10
11850.653236826232
 20
2659.0030042160206
 10
11853.839072214992
 20
2653.1649823859325
 10
11858.04787094582
 20
2648.2746525301427
 10
11863.17011984516
 20
2644.3212148437115
 10
11869.096305739451
 20
2641.293869521696
 10
11875.716915455137
 20
2639.1818167591605
 10
11882.922435818662
 20
2637.9742567511585
 10
11890.603353656465
 20
2637.660389692753
 10
11898.531749852753
 20
2638.1323872284393
 10
11906.73312293689
 20
2639.541204207527
 10
11915.092565893341
 20
2641.87607718805
 10
11923.495171706576
 20
2645.1262427280517
 10
11931.826033361061
 20
2649.2809373855666
 10
11939.97024384127
 20
2654.3293977186395
 10
11947.812896131665
 20
2660.2608602853047
 10
11955.239083216717
 20
2667.064561643601
 10
11962.133898080894
 20
2674.729738351569
 10
11968.382433708666
 20
2683.2456269672466
 10
11973.8697830845
 20
2692.6014640486733
 10
11978.481039192864
 20
2702.786486153886
 97
0
 75
0
 76
1
 98
0
  0
LWPOLYLINE
  5
C2
330
17
100
AcDbEntity
  8
Okvir
 62
7
100
AcDbPolyline
 90
49
 70
1
 10
11978.481039192864
 20
2702.786486153886
 10
11981.628192957034
 20
2711.887013705136
 10
11983.587213635055
 20
2720.5349736728
 10
11984.376055448101
 20
2728.665791465603
 10
11984.012672617353
 20
2736.2148924922794
 10
11982.515019363982
 20
2743.1177021615526
 10
11979.90104990917
 20
2749.3096458821597
 10
11976.188718474092
 20
2754.7261490628252
 10
11971.395979279923
 20
2759.302637112279
 10
11965.540786547843
 20
2762.9745354392503
 10
11958.641094499026
 20
2765.677269452471
 10
11950.71485735465
 20
2767.346264560668
 10
11941.780029335892
 20
2767.916946172571
 10
11932.400775505688
 20
2767.326414919178
 10
11923.173997709437
 20
2765.605088937968
 10
11914.166100808383
 20
2762.828369897382
 10
11905.44348966377
 20
2759.071659465868
 10
11897.07256913684
 20
2754.4103593118716
 10
11889.11974408884
 20
2748.9198711038425
 10
11881.651419381013
 20
2742.675596510221
 10
11874.733999874601
 20
2735.752937199457
 10
11868.433890430848
 20
2728.2272948399955
 10
11862.817495910998
 20
2720.1740711002826
 10
11857.951221176296
 20
2711.6686676487648
 10
11853.901471087984
 20
2702.786486153886
 10
11850.329792163033
 20
2692.0480073781882
 10
11848.328642447941
 20
2682.3112196014945
 10
11847.788508769148
 20
2673.565323018861
 10
11848.599877953098
 20
2665.7995178253523
 10
11850.653236826232
 20
2659.0030042160206
 10
11853.839072214992
 20
2653.1649823859325
 10
11858.04787094582
 20
2648.2746525301427
 10
11863.17011984516
 20
2644.3212148437115
 10
11869.096305739451
 20
2641.293869521696
 10
11875.716915455137
 20
2639.1818167591605
 10
11882.922435818662
 20
2637.9742567511585
 10
11890.603353656465
 20
2637.660389692753
 10
11898.531749852753
 20
2638.1323872284393
 10
11906.73312293689
 20
2639.541204207527
 10
11915.092565893341
 20
2641.87607718805
 10
11923.495171706576
 20
2645.1262427280517
 10
11931.826033361061
 20
2649.2809373855666
 10
11939.97024384127
 20
2654.3293977186395
 10
11947.812896131665
 20
2660.2608602853047
 10
11955.239083216717
 20
2667.064561643601
 10
11962.133898080894
 20
2674.729738351569
 10
11968.382433708666
 20
2683.2456269672466
 10
11973.8697830845
 20
2692.6014640486733
 10
11978.481039192864
 20
2702.786486153886
  0
HATCH
  5
C3
330
17
100
AcDbEntity
  8
Okvir
 62
7
100
AcDbHatch
 10
0.0
 20
0.0
 30
0.0
210
0.0
220
0.0
230
1.0
  2
SOLID
 70
1
 71
0
 91
1
 92
3
 72
0
 73
1
 93
201
 10
12240.558923890587
 20
2825.295109844666
 10
12234.744490018305
 20
2825.1565754780972
 10
12228.935404534273
 20
2824.746970249866
 10
12223.137052189719
 20
2824.0752909671673
 10
12217.354817735872
 20
2823.15053443721
 10
12211.59408592396
 20
2821.9816974671894
 10
12205.860241505214
 20
2820.577776864316
 10
12200.158669230863
 20
2818.947769435787
 10
12194.494753852132
 20
2817.100671988805
 10
12188.873880120253
 20
2815.0454813305746
 10
12183.301432786457
 20
2812.791194268296
 10
12177.782796601967
 20
2810.346807609173
 10
12172.323356318017
 20
2807.721318160407
 10
12178.527462445216
 20
2824.263564839412
 10
12203.854423187575
 20
2887.3239531555073
 10
12204.68350922325
 20
2889.48803023094
 10
12205.360004075537
 20
2891.5858236550607
 10
12205.882113837442
 20
2893.6155213393863
 10
12206.24804460197
 20
2895.5753111954327
 10
12206.45600246213
 20
2897.4633811347167
 10
12206.504193510926
 20
2899.2779190687575
 10
12206.390823841364
 20
2901.017112909071
 10
12206.114099546454
 20
2902.6791505671713
 10
12205.6722267192
 20
2904.2622199545767
 10
12205.063411452607
 20
2905.7645089828043
 10
12204.285859839685
 20
2907.1842055633692
 10
12203.337777973436
 20
2908.519497607789
 10
12202.499073424617
 20
2909.7570757604885
 10
12201.536489295047
 20
2910.887022523828
 10
12200.455416396457
 20
2911.909340928049
 10
12199.261245540569
 20
2912.8240340034054
 10
12197.959367539108
 20
2913.631104780139
 10
12196.555173203804
 20
2914.3305562885066
 10
12195.054053346379
 20
2914.9223915587513
 10
12193.46139877856
 20
2915.4066136211195
 10
12191.782600312072
 20
2915.783225505865
 10
12190.02304875864
 20
2916.0522302432314
 10
12188.18813492999
 20
2916.2136308634695
 10
12186.283249637847
 20
2916.267430396827
 10
12184.35483598278
 20
2916.213929847967
 10
12182.446276514573
 20
2916.054622119223
 10
12180.555753084247
 20
2915.7912980873352
 10
12178.681447542824
 20
2915.425748629051
 10
12176.821541741318
 20
2914.959764621114
 10
12174.974217530757
 20
2914.3951369402735
 10
12173.137656762156
 20
2913.7336564632706
 10
12171.310041286535
 20
2912.977114066852
 10
12169.489552954916
 20
2912.1273006277634
 10
12167.67437361832
 20
2911.186007022749
 10
12165.862685127764
 20
2910.155024128555
 10
12164.052669334269
 20
2909.036142821926
 10
12162.038218849306
 20
2907.582153931433
 10
12160.129863417818
 20
2906.0634934817253
 10
12158.325772769833
 20
2904.480179654289
 10
12156.624116635378
 20
2902.832230630618
 10
12155.023064744477
 20
2901.119664592199
 10
12153.520786827161
 20
2899.3424997205257
 10
12152.115452613454
 20
2897.5007541970826
 10
12150.805231833385
 20
2895.5944462033626
 10
12149.58829421698
 20
2893.6235939208564
 10
12148.462809494262
 20
2891.588215531052
 10
12147.426947395265
 20
2889.488329215438
 10
12146.47887765001
 20
2887.3239531555073
 10
12036.376720790606
 20
2608.7090580478407
 10
12035.557317913372
 20
2606.544381993327
 10
12034.906715017683
 20
2604.4464683693595
 10
12034.421315198808
 20
2602.4170262359717
 10
12034.097521552014
 20
2600.457764653213
 10
12033.931737172568
 20
2598.570392681117
 10
12033.92036515574
 20
2596.7566193797325
 10
12034.059808596798
 20
2595.0181538090947
 10
12034.346470591008
 20
2593.3567050292477
 10
12034.776754233639
 20
2591.773982100232
 10
12035.347062619961
 20
2590.2716940820874
 10
12036.05379884524
 20
2588.851550034856
 10
12036.893366004744
 20
2587.5152590185794
 10
12037.841138280623
 20
2586.395976709091
 10
12038.874918093998
 20
2585.3646594775023
 10
12039.994750898593
 20
2584.4230921400585
 10
12041.200682148134
 20
2583.57305951301
 10
12042.49275729634
 20
2582.816346412602
 10
12043.871021796944
 20
2582.154737655089
 10
12045.335521103665
 20
2581.5900180567173
 10
12046.886300670227
 20
2581.123972433731
 10
12048.523405950358
 20
2580.758385602385
 10
12050.24688239778
 20
2580.4950423789246
 10
12052.056775466219
 20
2580.3357275796
 10
12053.953130609396
 20
2580.282226020658
 10
12055.782392014884
 20
2580.335727579598
 10
12057.647564892975
 20
2580.495042378926
 10
12059.541470585445
 20
2580.7583856023844
 10
12061.456930434071
 20
2581.123972433731
 10
12063.386765780633
 20
2581.590018056715
 10
12065.323797966907
 20
2582.154737655089
 10
12067.26084833467
 20
2582.8163464126033
 10
12069.190738225701
 20
2583.5730595130094
 10
12071.106288981777
 20
2584.4230921400585
 10
12073.000321944675
 20
2585.3646594775023
 10
12074.865658456174
 20
2586.395976709092
 10
12076.695119858048
 20
2587.5152590185794
 10
12078.590722994608
 20
2588.851550034855
 10
12080.400079204055
 20
2590.2716940820865
 10
12082.123194546888
 20
2591.7739821002306
 10
12083.760075083603
 20
2593.3567050292477
 10
12085.310726874695
 20
2595.018153809094
 10
12086.775155980666
 20
2596.756619379733
 10
12088.153368462004
 20
2598.570392681119
 10
12089.445370379213
 20
2600.457764653212
 10
12090.651167792787
 20
2602.417026235973
 10
12091.77076676322
 20
2604.446468369358
 10
12092.804173351014
 20
2606.5443819933284
 10
12093.75139361666
 20
2608.7090580478407
 10
12134.072410818633
 20
2711.056300426123
 10
12138.435027983413
 20
2719.016046056199
 10
12143.470608751128
 20
2726.5755716420686
 10
12149.119948130494
 20
2733.679232734197
 10
12155.323841130228
 20
2740.271384883059
 10
12162.023082759048
 20
2746.296383639118
 10
12169.158468025671
 20
2751.6985845528498
 10
12176.670791938814
 20
2756.4223431747205
 10
12184.500849507192
 20
2760.412015055197
 10
12192.589435739523
 20
2763.611955744752
 10
12200.877345644525
 20
2765.9665207938524
 10
12209.305374230913
 20
2767.420065752969
 10
12217.814316507403
 20
2767.916946172571
 10
12226.85822386917
 20
2767.346264560667
 10
12234.857701609913
 20
2765.677269452471
 10
12241.801937803697
 20
2762.9745354392503
 10
12247.680120524588
 20
2759.302637112278
 10
12252.48143784665
 20
2754.726149062823
 10
12256.195077843953
 20
2749.3096458821597
 10
12258.810228590562
 20
2743.1177021615545
 10
12260.316078160542
 20
2736.214892492278
 10
12260.701814627959
 20
2728.665791465603
 10
12259.956626066878
 20
2720.534973672799
 10
12258.069700551367
 20
2711.8870137051363
 10
12255.030226155492
 20
2702.786486153886
 10
12255.030226155492
 20
2702.786486153886
 10
12218.845861512658
 20
2609.2257032619777
 10
12218.027191955513
 20
2606.9426328811815
 10
12217.377067839056
 20
2604.7478730265902
 10
12216.891928621533
 20
2602.6431539699784
 10
12216.568213761195
 20
2600.6302059831323
 10
12216.402362716286
 20
2598.710759337823
 10
12216.390814945056
 20
2596.8865443058385
 10
12216.530009905753
 20
2595.1592911589532
 10
12216.816387056624
 20
2593.530730168945
 10
12217.246385855915
 20
2592.002591607596
 10
12217.816445761875
 20
2590.576605746684
 10
12218.523006232754
 20
2589.254502857988
 10
12219.362506726795
 20
2588.0380132132887
 10
12220.310562330891
 20
2586.798630547724
 10
12221.344725470675
 20
2585.667179266108
 10
12222.46499614615
 20
2584.6436290659517
 10
12223.671374357313
 20
2583.7279496447745
 10
12224.963860104166
 20
2582.9201107000945
 10
12226.34245338671
 20
2582.2200819294276
 10
12227.807154204942
 20
2581.627833030292
 10
12229.357962558865
 20
2581.1433337002018
 10
12230.994878448477
 20
2580.7665536366762
 10
12232.717901873777
 20
2580.4974625372333
 10
12234.527032834767
 20
2580.3360300993886
 10
12236.422271331448
 20
2580.282226020658
 10
12238.360564606055
 20
2580.3360300993877
 10
12240.29886394116
 20
2580.497462537234
 10
12242.237175397257
 20
2580.7665536366762
 10
12244.175505034846
 20
2581.1433337002027
 10
12246.113858914418
 20
2581.6278330302907
 10
12248.052243096476
 20
2582.2200819294276
 10
12249.99066364151
 20
2582.920110700095
 10
12251.929126610024
 20
2583.7279496447745
 10
12253.86763806251
 20
2584.6436290659517
 10
12255.806204059463
 20
2585.6671792661077
 10
12257.744830661384
 20
2586.798630547725
 10
12259.683523928768
 20
2588.0380132132887
 10
12261.578478592191
 20
2589.254502857988
 10
12263.38554999442
 20
2590.576605746684
 10
12265.102926046973
 20
2592.0025916075947
 10
12266.728794661367
 20
2593.530730168945
 10
12268.261343749115
 20
2595.1592911589505
 10
12269.698761221738
 20
2596.8865443058376
 10
12271.039234990752
 20
2598.710759337824
 10
12272.280952967672
 20
2600.6302059831305
 10
12273.422103064015
 20
2602.64315396998
 10
12274.4608731913
 20
2604.7478730265893
 10
12275.395451261038
 20
2606.9426328811815
 10
12276.224025184752
 20
2609.2257032619777
 10
12312.411007962119
 20
2702.786486153886
 10
12312.411007962119
 20
2702.786486153886
 10
12317.985958786052
 20
2719.6396959033427
 10
12321.30304129926
 20
2735.7334951263665
 10
12322.408927386055
 20
2750.9332983749628
 10
12321.350288930751
 20
2765.104520201145
 10
12318.173797817664
 20
2778.1125751569157
 10
12312.926125931112
 20
2789.822877794291
 10
12305.653945155405
 20
2800.1008426652775
 10
12296.403927374859
 20
2808.811884321881
 10
12285.22274447379
 20
2815.8214173161136
 10
12272.15706833651
 20
2820.994856199982
 10
12257.253570847339
 20
2824.197615525496
 10
12240.558923890587
 20
2825.295109844666
 97
0
 75
0
 76
1
 98
0
  0
LWPOLYLINE
  5
C4
330
17
100
AcDbEntity
  8
Okvir
 62
7
100
AcDbPolyline
 90
201
 70
1
 10
12240.558923890587
 20
2825.295109844666
 10
12234.744490018305
 20
2825.1565754780972
 10
12228.935404534273
 20
2824.746970249866
 10
12223.137052189719
 20
2824.0752909671673
 10
12217.354817735872
 20
2823.15053443721
 10
12211.59408592396
 20
2821.9816974671894
 10
12205.860241505214
 20
2820.577776864316
 10
12200.158669230863
 20
2818.947769435787
 10
12194.494753852132
 20
2817.100671988805
 10
12188.873880120253
 20
2815.0454813305746
 10
12183.301432786457
 20
2812.791194268296
 10
12177.782796601967
 20
2810.346807609173
 10
12172.323356318017
 20
2807.721318160407
 10
12178.527462445216
 20
2824.263564839412
 10
12203.854423187575
 20
2887.3239531555073
 10
12204.68350922325
 20
2889.48803023094
 10
12205.360004075537
 20
2891.5858236550607
 10
12205.882113837442
 20
2893.6155213393863
 10
12206.24804460197
 20
2895.5753111954327
 10
12206.45600246213
 20
2897.4633811347167
 10
12206.504193510926
 20
2899.2779190687575
 10
12206.390823841364
 20
2901.017112909071
 10
12206.114099546454
 20
2902.6791505671713
 10
12205.6722267192
 20
2904.2622199545767
 10
12205.063411452607
 20
2905.7645089828043
 10
12204.285859839685
 20
2907.1842055633692
 10
12203.337777973436
 20
2908.519497607789
 10
12202.499073424617
 20
2909.7570757604885
 10
12201.536489295047
 20
2910.887022523828
 10
12200.455416396457
 20
2911.909340928049
 10
12199.261245540569
 20
2912.8240340034054
 10
12197.959367539108
 20
2913.631104780139
 10
12196.555173203804
 20
2914.3305562885066
 10
12195.054053346379
 20
2914.9223915587513
 10
12193.46139877856
 20
2915.4066136211195
 10
12191.782600312072
 20
2915.783225505865
 10
12190.02304875864
 20
2916.0522302432314
 10
12188.18813492999
 20
2916.2136308634695
 10
12186.283249637847
 20
2916.267430396827
 10
12184.35483598278
 20
2916.213929847967
 10
12182.446276514573
 20
2916.054622119223
 10
12180.555753084247
 20
2915.7912980873352
 10
12178.681447542824
 20
2915.425748629051
 10
12176.821541741318
 20
2914.959764621114
 10
12174.974217530757
 20
2914.3951369402735
 10
12173.137656762156
 20
2913.7336564632706
 10
12171.310041286535
 20
2912.977114066852
 10
12169.489552954916
 20
2912.1273006277634
 10
12167.67437361832
 20
2911.186007022749
 10
12165.862685127764
 20
2910.155024128555
 10
12164.052669334269
 20
2909.036142821926
 10
12162.038218849306
 20
2907.582153931433
 10
12160.129863417818
 20
2906.0634934817253
 10
12158.325772769833
 20
2904.480179654289
 10
12156.624116635378
 20
2902.832230630618
 10
12155.023064744477
 20
2901.119664592199
 10
12153.520786827161
 20
2899.3424997205257
 10
12152.115452613454
 20
2897.5007541970826
 10
12150.805231833385
 20
2895.5944462033626
 10
12149.58829421698
 20
2893.6235939208564
 10
12148.462809494262
 20
2891.588215531052
 10
12147.426947395265
 20
2889.488329215438
 10
12146.47887765001
 20
2887.3239531555073
 10
12036.376720790606
 20
2608.7090580478407
 10
12035.557317913372
 20
2606.544381993327
 10
12034.906715017683
 20
2604.4464683693595
 10
12034.421315198808
 20
2602.4170262359717
 10
12034.097521552014
 20
2600.457764653213
 10
12033.931737172568
 20
2598.570392681117
 10
12033.92036515574
 20
2596.7566193797325
 10
12034.059808596798
 20
2595.0181538090947
 10
12034.346470591008
 20
2593.3567050292477
 10
12034.776754233639
 20
2591.773982100232
 10
12035.347062619961
 20
2590.2716940820874
 10
12036.05379884524
 20
2588.851550034856
 10
12036.893366004744
 20
2587.5152590185794
 10
12037.841138280623
 20
2586.395976709091
 10
12038.874918093998
 20
2585.3646594775023
 10
12039.994750898593
 20
2584.4230921400585
 10
12041.200682148134
 20
2583.57305951301
 10
12042.49275729634
 20
2582.816346412602
 10
12043.871021796944
 20
2582.154737655089
 10
12045.335521103665
 20
2581.5900180567173
 10
12046.886300670227
 20
2581.123972433731
 10
12048.523405950358
 20
2580.758385602385
 10
12050.24688239778
 20
2580.4950423789246
 10
12052.056775466219
 20
2580.3357275796
 10
12053.953130609396
 20
2580.282226020658
 10
12055.782392014884
 20
2580.335727579598
 10
12057.647564892975
 20
2580.495042378926
 10
12059.541470585445
 20
2580.7583856023844
 10
12061.456930434071
 20
2581.123972433731
 10
12063.386765780633
 20
2581.590018056715
 10
12065.323797966907
 20
2582.154737655089
 10
12067.26084833467
 20
2582.8163464126033
 10
12069.190738225701
 20
2583.5730595130094
 10
12071.106288981777
 20
2584.4230921400585
 10
12073.000321944675
 20
2585.3646594775023
 10
12074.865658456174
 20
2586.395976709092
 10
12076.695119858048
 20
2587.5152590185794
 10
12078.590722994608
 20
2588.851550034855
 10
12080.400079204055
 20
2590.2716940820865
 10
12082.123194546888
 20
2591.7739821002306
 10
12083.760075083603
 20
2593.3567050292477
 10
12085.310726874695
 20
2595.018153809094
 10
12086.775155980666
 20
2596.756619379733
 10
12088.153368462004
 20
2598.570392681119
 10
12089.445370379213
 20
2600.457764653212
 10
12090.651167792787
 20
2602.417026235973
 10
12091.77076676322
 20
2604.446468369358
 10
12092.804173351014
 20
2606.5443819933284
 10
12093.75139361666
 20
2608.7090580478407
 10
12134.072410818633
 20
2711.056300426123
 10
12138.435027983413
 20
2719.016046056199
 10
12143.470608751128
 20
2726.5755716420686
 10
12149.119948130494
 20
2733.679232734197
 10
12155.323841130228
 20
2740.271384883059
 10
12162.023082759048
 20
2746.296383639118
 10
12169.158468025671
 20
2751.6985845528498
 10
12176.670791938814
 20
2756.4223431747205
 10
12184.500849507192
 20
2760.412015055197
 10
12192.589435739523
 20
2763.611955744752
 10
12200.877345644525
 20
2765.9665207938524
 10
12209.305374230913
 20
2767.420065752969
 10
12217.814316507403
 20
2767.916946172571
 10
12226.85822386917
 20
2767.346264560667
 10
12234.857701609913
 20
2765.677269452471
 10
12241.801937803697
 20
2762.9745354392503
 10
12247.680120524588
 20
2759.302637112278
 10
12252.48143784665
 20
2754.726149062823
 10
12256.195077843953
 20
2749.3096458821597
 10
12258.810228590562
 20
2743.1177021615545
 10
12260.316078160542
 20
2736.214892492278
 10
12260.701814627959
 20
2728.665791465603
 10
12259.956626066878
 20
2720.534973672799
 10
12258.069700551367
 20
2711.8870137051363
 10
12255.030226155492
 20
2702.786486153886
 10
12255.030226155492
 20
2702.786486153886
 10
12218.845861512658
 20
2609.2257032619777
 10
12218.027191955513
 20
2606.9426328811815
 10
12217.377067839056
 20
2604.7478730265902
 10
12216.891928621533
 20
2602.6431539699784
 10
12216.568213761195
 20
2600.6302059831323
 10
12216.402362716286
 20
2598.710759337823
 10
12216.390814945056
 20
2596.8865443058385
 10
12216.530009905753
 20
2595.1592911589532
 10
12216.816387056624
 20
2593.530730168945
 10
12217.246385855915
 20
2592.002591607596
 10
12217.816445761875
 20
2590.576605746684
 10
12218.523006232754
 20
2589.254502857988
 10
12219.362506726795
 20
2588.0380132132887
 10
12220.310562330891
 20
2586.798630547724
 10
12221.344725470675
 20
2585.667179266108
 10
12222.46499614615
 20
2584.6436290659517
 10
12223.671374357313
 20
2583.7279496447745
 10
12224.963860104166
 20
2582.9201107000945
 10
12226.34245338671
 20
2582.2200819294276
 10
12227.807154204942
 20
2581.627833030292
 10
12229.357962558865
 20
2581.1433337002018
 10
12230.994878448477
 20
2580.7665536366762
 10
12232.717901873777
 20
2580.4974625372333
 10
12234.527032834767
 20
2580.3360300993886
 10
12236.422271331448
 20
2580.282226020658
 10
12238.360564606055
 20
2580.3360300993877
 10
12240.29886394116
 20
2580.497462537234
 10
12242.237175397257
 20
2580.7665536366762
 10
12244.175505034846
 20
2581.1433337002027
 10
12246.113858914418
 20
2581.6278330302907
 10
12248.052243096476
 20
2582.2200819294276
 10
12249.99066364151
 20
2582.920110700095
 10
12251.929126610024
 20
2583.7279496447745
 10
12253.86763806251
 20
2584.6436290659517
 10
12255.806204059463
 20
2585.6671792661077
 10
12257.744830661384
 20
2586.798630547725
 10
12259.683523928768
 20
2588.0380132132887
 10
12261.578478592191
 20
2589.254502857988
 10
12263.38554999442
 20
2590.576605746684
 10
12265.102926046973
 20
2592.0025916075947
 10
12266.728794661367
 20
2593.530730168945
 10
12268.261343749115
 20
2595.1592911589505
 10
12269.698761221738
 20
2596.8865443058376
 10
12271.039234990752
 20
2598.710759337824
 10
12272.280952967672
 20
2600.6302059831305
 10
12273.422103064015
 20
2602.64315396998
 10
12274.4608731913
 20
2604.7478730265893
 10
12275.395451261038
 20
2606.9426328811815
 10
12276.224025184752
 20
2609.2257032619777
 10
12312.411007962119
 20
2702.786486153886
 10
12312.411007962119
 20
2702.786486153886
 10
12317.985958786052
 20
2719.6396959033427
 10
12321.30304129926
 20
2735.7334951263665
 10
12322.408927386055
 20
2750.9332983749628
 10
12321.350288930751
 20
2765.104520201145
 10
12318.173797817664
 20
2778.1125751569157
 10
12312.926125931112
 20
2789.822877794291
 10
12305.653945155405
 20
2800.1008426652775
 10
12296.403927374859
 20
2808.811884321881
 10
12285.22274447379
 20
2815.8214173161136
 10
12272.15706833651
 20
2820.994856199982
 10
12257.253570847339
 20
2824.197615525496
 10
12240.558923890587
 20
2825.295109844666
  0
TEXT
  5
C5
330
17
100
AcDbEntity
  8
Tekst
 62
7
100
AcDbText
 10
13200.0
 20
2670.0
 30
0.0
 40
150.0
  1
BH TELECOM d.d. SARAJEVO
  7
20
 11
13200.0
 21
2670.0
 31
0.0
100
AcDbText
  0
TEXT
  5
C6
330
17
100
AcDbEntity
  8
Okvir
 62
8
100
AcDbText
 10
13200.0
 20
2480.0
 30
0.0
 40
110.00000000000001
  1
Izvršna direkcija za tehnologiju i razvoj servisa
  7
20
 11
13200.0
 21
2480.0
 31
0.0
100
AcDbText
  0
TEXT
  5
C7
330
17
100
AcDbEntity
  8
Okvir
 62
8
100
AcDbText
 10
11650.0
 20
2270.0
 30
0.0
 40
95.0
  1
Investitor:
  7
20
 11
11650.0
 21
2270.0
 31
0.0
100
AcDbText
  0
TEXT
  5
C8
330
17
100
AcDbEntity
  8
Tekst
 62
7
100
AcDbText
 10
11650.0
 20
2080.0
 30
0.0
 40
130.0
  1
BH Telecom d.d. Sarajevo, Franca Lehara 7, Sarajevo
  7
20
 11
11650.0
 21
2080.0
 31
0.0
100
AcDbText
  0
TEXT
  5
C9
330
17
100
AcDbEntity
  8
Okvir
 62
8
100
AcDbText
 10
11650.0
 20
1870.0
 30
0.0
 40
95.0
  1
Objekat:
  7
20
 11
11650.0
 21
1870.0
 31
0.0
100
AcDbText
  0
TEXT
  5
CA
330
17
100
AcDbEntity
  8
Tekst
 62
7
100
AcDbText
 10
11650.0
 20
1680.0
 30
0.0
 40
130.0
  1
BS SJEDNICA (Bileća) — autonomni hibridni sistem napajanja
  7
20
 11
11650.0
 21
1680.0
 31
0.0
100
AcDbText
  0
TEXT
  5
CB
330
17
100
AcDbEntity
  8
Okvir
 62
8
100
AcDbText
 10
11650.0
 20
1470.0
 30
0.0
 40
95.0
  1
Faza:
  7
20
 11
11650.0
 21
1470.0
 31
0.0
100
AcDbText
  0
TEXT
  5
CC
330
17
100
AcDbEntity
  8
Tekst
 62
7
100
AcDbText
 10
11650.0
 20
1280.0
 30
0.0
 40
130.0
  1
Tenderska dokumentacija — Prilog III
  7
20
 11
11650.0
 21
1280.0
 31
0.0
100
AcDbText
  0
TEXT
  5
CD
330
17
100
AcDbEntity
  8
Okvir
 62
8
100
AcDbText
 10
17550.0
 20
1470.0
 30
0.0
 40
95.0
  1
šifra projekta:
  7
20
 11
17550.0
 21
1470.0
 31
0.0
100
AcDbText
  0
TEXT
  5
CE
330
17
100
AcDbEntity
  8
Tekst
 62
7
100
AcDbText
 10
17550.0
 20
1280.0
 30
0.0
 40
130.0
  1
BHT-SJEDNICA-2026
  7
20
 11
17550.0
 21
1280.0
 31
0.0
100
AcDbText
  0
TEXT
  5
CF
330
17
100
AcDbEntity
  8
Okvir
 62
8
100
AcDbText
 10
11650.0
 20
1070.0
 30
0.0
 40
95.0
  1
Naziv crteža:
  7
20
 11
11650.0
 21
1070.0
 31
0.0
100
AcDbText
  0
TEXT
  5
D0
330
17
100
AcDbEntity
  8
Tekst
 62
7
100
AcDbText
 10
11650.0
 20
870.0
 30
0.0
 40
170.0
  1
Jednopolna shema — hibridni sistem napajanja
  7
20
 11
11650.0
 21
870.0
 31
0.0
100
AcDbText
  0
TEXT
  5
D1
330
17
100
AcDbEntity
  8
Okvir
 62
8
100
AcDbText
 10
17550.0
 20
1070.0
 30
0.0
 40
95.0
  1
razmjera:
  7
20
 11
17550.0
 21
1070.0
 31
0.0
100
AcDbText
  0
TEXT
  5
D2
330
17
100
AcDbEntity
  8
Tekst
 62
7
100
AcDbText
 10
17550.0
 20
870.0
 30
0.0
 40
170.0
  1
—
  7
20
 11
17550.0
 21
870.0
 31
0.0
100
AcDbText
  0
TEXT
  5
D3
330
17
100
AcDbEntity
  8
Okvir
 62
8
100
AcDbText
 10
11650.0
 20
710.0
 30
0.0
 40
95.0
  1
Projektant:
  7
20
 11
11650.0
 21
710.0
 31
0.0
100
AcDbText
  0
TEXT
  5
D4
330
17
100
AcDbEntity
  8
Tekst
 62
7
100
AcDbText
 10
11650.0
 20
550.0
 30
0.0
 40
114.99999999999999
  1
Rusmir Skopljak, dipl. ing. el.
  7
20
 11
11650.0
 21
550.0
 31
0.0
100
AcDbText
  0
TEXT
  5
D5
330
17
100
AcDbEntity
  8
Okvir
 62
8
100
AcDbText
 10
14750.0
 20
710.0
 30
0.0
 40
95.0
  1
ovjerio:
  7
20
 11
14750.0
 21
710.0
 31
0.0
100
AcDbText
  0
TEXT
  5
D6
330
17
100
AcDbEntity
  8
Tekst
 62
7
100
AcDbText
 10
14750.0
 20
550.0
 30
0.0
 40
114.99999999999999
  1
Rusmir Skopljak, dipl. ing. el.
  7
20
 11
14750.0
 21
550.0
 31
0.0
100
AcDbText
  0
TEXT
  5
D7
330
17
100
AcDbEntity
  8
Okvir
 62
8
100
AcDbText
 10
17550.0
 20
710.0
 30
0.0
 40
95.0
  1
godina / broj crteža:
  7
20
 11
17550.0
 21
710.0
 31
0.0
100
AcDbText
  0
TEXT
  5
D8
330
17
100
AcDbEntity
  8
Tekst
 62
7
100
AcDbText
 10
17550.0
 20
550.0
 30
0.0
 40
140.0
  1
2026.    E-01
  7
20
 11
17550.0
 21
550.0
 31
0.0
100
AcDbText
  0
LWPOLYLINE
  5
D9
330
17
100
AcDbEntity
  8
Sema
 62
5
370
50
100
AcDbPolyline
 90
4
 70
1
 10
1600.0
 20
9500.0
 10
4500.0
 20
9500.0
 10
4500.0
 20
10800.0
 10
1600.0
 20
10800.0
  0
TEXT
  5
DA
330
17
100
AcDbEntity
  8
Tekst
 62
7
100
AcDbText
 10
3050.0
 20
10300.0
 30
0.0
 40
110.00000000000001
  1
STRING 1
  7
20
 72
1
 11
3050.0
 21
10300.0
 31
0.0
100
AcDbText
 73
2
  0
TEXT
  5
DB
330
17
100
AcDbEntity
  8
Tekst
 62
8
100
AcDbText
 10
3050.0
 20
9820.0
 30
0.0
 40
90.0
  1
6 × 585 Wp = 3,51 kWp
  7
20
 72
1
 11
3050.0
 21
9820.0
 31
0.0
100
AcDbText
 73
2
  0
LWPOLYLINE
  5
DC
330
17
100
AcDbEntity
  8
Sema
 62
5
370
50
100
AcDbPolyline
 90
4
 70
1
 10
1600.0
 20
6700.0
 10
4500.0
 20
6700.0
 10
4500.0
 20
8000.0
 10
1600.0
 20
8000.0
  0
TEXT
  5
DD
330
17
100
AcDbEntity
  8
Tekst
 62
7
100
AcDbText
 10
3050.0
 20
7500.0
 30
0.0
 40
110.00000000000001
  1
STRING 2
  7
20
 72
1
 11
3050.0
 21
7500.0
 31
0.0
100
AcDbText
 73
2
  0
TEXT
  5
DE
330
17
100
AcDbEntity
  8
Tekst
 62
8
100
AcDbText
 10
3050.0
 20
7020.0
 30
0.0
 40
90.0
  1
6 × 585 Wp = 3,51 kWp
  7
20
 72
1
 11
3050.0
 21
7020.0
 31
0.0
100
AcDbText
 73
2
  0
TEXT
  5
DF
330
17
100
AcDbEntity
  8
Tekst
 62
8
100
AcDbText
 10
1600.0
 20
9300.0
 30
0.0
 40
90.0
  1
nosači PV-1 + PV-2
  7
20
 11
1600.0
 21
9300.0
 31
0.0
100
AcDbText
  0
TEXT
  5
E0
330
17
100
AcDbEntity
  8
Tekst
 62
8
100
AcDbText
 10
1600.0
 20
6500.0
 30
0.0
 40
90.0
  1
nosači PV-2 + PV-3
  7
20
 11
1600.0
 21
6500.0
 31
0.0
100
AcDbText
  0
LWPOLYLINE
  5
E1
330
17
100
AcDbEntity
  8
Sema
 62
1
370
50
100
AcDbPolyline
 90
4
 70
1
 10
5500.0
 20
9500.0
 10
7400.0
 20
9500.0
 10
7400.0
 20
10800.0
 10
5500.0
 20
10800.0
  0
TEXT
  5
E2
330
17
100
AcDbEntity
  8
Tekst
 62
7
100
AcDbText
 10
6450.0
 20
10300.0
 30
0.0
 40
110.00000000000001
  1
SPD DC
  7
20
 72
1
 11
6450.0
 21
10300.0
 31
0.0
100
AcDbText
 73
2
  0
TEXT
  5
E3
330
17
100
AcDbEntity
  8
Tekst
 62
8
100
AcDbText
 10
6450.0
 20
9820.0
 30
0.0
 40
90.0
  1
tip 2 · string 1
  7
20
 72
1
 11
6450.0
 21
9820.0
 31
0.0
100
AcDbText
 73
2
  0
LWPOLYLINE
  5
E4
330
17
100
AcDbEntity
  8
Sema
 62
1
370
50
100
AcDbPolyline
 90
4
 70
1
 10
5500.0
 20
6700.0
 10
7400.0
 20
6700.0
 10
7400.0
 20
8000.0
 10
5500.0
 20
8000.0
  0
TEXT
  5
E5
330
17
100
AcDbEntity
  8
Tekst
 62
7
100
AcDbText
 10
6450.0
 20
7500.0
 30
0.0
 40
110.00000000000001
  1
SPD DC
  7
20
 72
1
 11
6450.0
 21
7500.0
 31
0.0
100
AcDbText
 73
2
  0
TEXT
  5
E6
330
17
100
AcDbEntity
  8
Tekst
 62
8
100
AcDbText
 10
6450.0
 20
7020.0
 30
0.0
 40
90.0
  1
tip 2 · string 2
  7
20
 72
1
 11
6450.0
 21
7020.0
 31
0.0
100
AcDbText
 73
2
  0
LWPOLYLINE
  5
E7
330
17
100
AcDbEntity
  8
Sema
 62
5
370
50
100
AcDbPolyline
 90
4
 70
1
 10
8400.0
 20
8100.0
 10
10900.0
 20
8100.0
 10
10900.0
 20
9400.0
 10
8400.0
 20
9400.0
  0
TEXT
  5
E8
330
17
100
AcDbEntity
  8
Tekst
 62
7
100
AcDbText
 10
9650.0
 20
8900.0
 30
0.0
 40
110.00000000000001
  1
PVDB
  7
20
 72
1
 11
9650.0
 21
8900.0
 31
0.0
100
AcDbText
 73
2
  0
TEXT
  5
E9
330
17
100
AcDbEntity
  8
Tekst
 62
8
100
AcDbText
 10
9650.0
 20
8420.0
 30
0.0
 40
90.0
  1
500-15-2B · IP55 · 2 rute
  7
20
 72
1
 11
9650.0
 21
8420.0
 31
0.0
100
AcDbText
 73
2
  0
LWPOLYLINE
  5
EA
330
17
100
AcDbEntity
  8
Sema
 62
30
370
50
100
AcDbPolyline
 90
4
 70
1
 10
11900.0
 20
8100.0
 10
14500.0
 20
8100.0
 10
14500.0
 20
9400.0
 10
11900.0
 20
9400.0
  0
TEXT
  5
EB
330
17
100
AcDbEntity
  8
Tekst
 62
7
100
AcDbText
 10
13200.0
 20
8900.0
 30
0.0
 40
110.00000000000001
  1
iSSU
  7
20
 72
1
 11
13200.0
 21
8900.0
 31
0.0
100
AcDbText
 73
2
  0
TEXT
  5
EC
330
17
100
AcDbEntity
  8
Tekst
 62
8
100
AcDbText
 10
13200.0
 20
8420.0
 30
0.0
 40
90.0
  1
S4875G2 · MPPT
  7
20
 72
1
 11
13200.0
 21
8420.0
 31
0.0
100
AcDbText
 73
2
  0
LWPOLYLINE
  5
ED
330
17
100
AcDbEntity
  8
Sema
 62
5
370
35
100
AcDbPolyline
 90
2
 70
0
 10
4500.0
 20
10150.0
 10
5500.0
 20
10150.0
  0
LWPOLYLINE
  5
EE
330
17
100
AcDbEntity
  8
Sema
 62
5
370
35
100
AcDbPolyline
 90
2
 70
0
 10
4500.0
 20
7350.0
 10
5500.0
 20
7350.0
  0
LWPOLYLINE
  5
EF
330
17
100
AcDbEntity
  8
Sema
 62
5
370
35
100
AcDbPolyline
 90
3
 70
0
 10
7400.0
 20
10150.0
 10
8400.0
 20
10150.0
 10
8400.0
 20
9050.0
  0
LWPOLYLINE
  5
F0
330
17
100
AcDbEntity
  8
Sema
 62
5
370
35
100
AcDbPolyline
 90
3
 70
0
 10
7400.0
 20
7350.0
 10
8400.0
 20
7350.0
 10
8400.0
 20
8450.0
  0
LWPOLYLINE
  5
F1
330
17
100
AcDbEntity
  8
Sema
 62
5
370
35
100
AcDbPolyline
 90
2
 70
0
 10
10900.0
 20
8750.0
 10
11900.0
 20
8750.0
  0
LWPOLYLINE
  5
F2
330
17
100
AcDbEntity
  8
Sema
 62
30
370
50
100
AcDbPolyline
 90
4
 70
1
 10
1600.0
 20
4000.0
 10
4500.0
 20
4000.0
 10
4500.0
 20
5300.0
 10
1600.0
 20
5300.0
  0
TEXT
  5
F3
330
17
100
AcDbEntity
  8
Tekst
 62
7
100
AcDbText
 10
3050.0
 20
4800.0
 30
0.0
 40
110.00000000000001
  1
DEA 22 kVA
  7
20
 72
1
 11
3050.0
 21
4800.0
 31
0.0
100
AcDbText
 73
2
  0
TEXT
  5
F4
330
17
100
AcDbEntity
  8
Tekst
 62
8
100
AcDbText
 10
3050.0
 20
4320.0
 30
0.0
 40
90.0
  1
17,6 kW · skid
  7
20
 72
1
 11
3050.0
 21
4320.0
 31
0.0
100
AcDbText
 73
2
  0
LWPOLYLINE
  5
F5
330
17
100
AcDbEntity
  8
Sema
 62
30
370
50
100
AcDbPolyline
 90
4
 70
1
 10
5500.0
 20
4000.0
 10
7400.0
 20
4000.0
 10
7400.0
 20
5300.0
 10
5500.0
 20
5300.0
  0
TEXT
  5
F6
330
17
100
AcDbEntity
  8
Tekst
 62
7
100
AcDbText
 10
6450.0
 20
4800.0
 30
0.0
 40
110.00000000000001
  1
KOA / ATS
  7
20
 72
1
 11
6450.0
 21
4800.0
 31
0.0
100
AcDbText
 73
2
  0
TEXT
  5
F7
330
17
100
AcDbEntity
  8
Tekst
 62
8
100
AcDbText
 10
6450.0
 20
4320.0
 30
0.0
 40
90.0
  1
sklopka izvora
  7
20
 72
1
 11
6450.0
 21
4320.0
 31
0.0
100
AcDbText
 73
2
  0
LWPOLYLINE
  5
F8
330
17
100
AcDbEntity
  8
Sema
 62
30
370
50
100
AcDbPolyline
 90
4
 70
1
 10
8400.0
 20
4000.0
 10
10900.0
 20
4000.0
 10
10900.0
 20
5300.0
 10
8400.0
 20
5300.0
  0
TEXT
  5
F9
330
17
100
AcDbEntity
  8
Tekst
 62
7
100
AcDbText
 10
9650.0
 20
4800.0
 30
0.0
 40
110.00000000000001
  1
GRO
  7
20
 72
1
 11
9650.0
 21
4800.0
 31
0.0
100
AcDbText
 73
2
  0
TEXT
  5
FA
330
17
100
AcDbEntity
  8
Tekst
 62
8
100
AcDbText
 10
9650.0
 20
4320.0
 30
0.0
 40
90.0
  1
sekcije AGREGAT / SOLAR
  7
20
 72
1
 11
9650.0
 21
4320.0
 31
0.0
100
AcDbText
 73
2
  0
LWPOLYLINE
  5
FB
330
17
100
AcDbEntity
  8
Sema
 62
30
370
35
100
AcDbPolyline
 90
2
 70
0
 10
4500.0
 20
4650.0
 10
5500.0
 20
4650.0
  0
LWPOLYLINE
  5
FC
330
17
100
AcDbEntity
  8
Sema
 62
30
370
35
100
AcDbPolyline
 90
2
 70
0
 10
7400.0
 20
4650.0
 10
8400.0
 20
4650.0
  0
LWPOLYLINE
  5
FD
330
17
100
AcDbEntity
  8
Sema
 62
1
370
50
100
AcDbPolyline
 90
4
 70
1
 10
8400.0
 20
5900.0
 10
10900.0
 20
5900.0
 10
10900.0
 20
6700.0
 10
8400.0
 20
6700.0
  0
TEXT
  5
FE
330
17
100
AcDbEntity
  8
Tekst
 62
7
100
AcDbText
 10
9650.0
 20
6220.0
 30
0.0
 40
110.00000000000001
  1
SPD AC  tip 1+2
  7
20
 72
1
 11
9650.0
 21
6220.0
 31
0.0
100
AcDbText
 73
2
  0
LWPOLYLINE
  5
FF
330
17
100
AcDbEntity
  8
Sema
 62
1
370
35
100
AcDbPolyline
 90
2
 70
0
 10
9650.0
 20
5300.0
 10
9650.0
 20
5900.0
  0
LWPOLYLINE
  5
100
330
17
100
AcDbEntity
  8
Sema
 62
30
370
50
100
AcDbPolyline
 90
4
 70
1
 10
11900.0
 20
4000.0
 10
14500.0
 20
4000.0
 10
14500.0
 20
5300.0
 10
11900.0
 20
5300.0
  0
TEXT
  5
101
330
17
100
AcDbEntity
  8
Tekst
 62
7
100
AcDbText
 10
13200.0
 20
4800.0
 30
0.0
 40
110.00000000000001
  1
ISPRAVLJAČI
  7
20
 72
1
 11
13200.0
 21
4800.0
 31
0.0
100
AcDbText
 73
2
  0
TEXT
  5
102
330
17
100
AcDbEntity
  8
Tekst
 62
8
100
AcDbText
 10
13200.0
 20
4320.0
 30
0.0
 40
90.0
  1
R4875 · −48 V DC
  7
20
 72
1
 11
13200.0
 21
4320.0
 31
0.0
100
AcDbText
 73
2
  0
LWPOLYLINE
  5
103
330
17
100
AcDbEntity
  8
Sema
 62
30
370
35
100
AcDbPolyline
 90
2
 70
0
 10
10900.0
 20
4650.0
 10
11900.0
 20
4650.0
  0
LWPOLYLINE
  5
104
330
17
100
AcDbEntity
  8
Sema
 62
5
370
50
100
AcDbPolyline
 90
4
 70
1
 10
15900.0
 20
4000.0
 10
18400.0
 20
4000.0
 10
18400.0
 20
5300.0
 10
15900.0
 20
5300.0
  0
TEXT
  5
105
330
17
100
AcDbEntity
  8
Tekst
 62
7
100
AcDbText
 10
17150.0
 20
4800.0
 30
0.0
 40
110.00000000000001
  1
BATERIJA
  7
20
 72
1
 11
17150.0
 21
4800.0
 31
0.0
100
AcDbText
 73
2
  0
TEXT
  5
106
330
17
100
AcDbEntity
  8
Tekst
 62
8
100
AcDbText
 10
17150.0
 20
4320.0
 30
0.0
 40
90.0
  1
LFP  −48 V
  7
20
 72
1
 11
17150.0
 21
4320.0
 31
0.0
100
AcDbText
 73
2
  0
LWPOLYLINE
  5
107
330
17
100
AcDbEntity
  8
Sema
 62
7
370
50
100
AcDbPolyline
 90
4
 70
1
 10
15900.0
 20
9100.0
 10
18400.0
 20
9100.0
 10
18400.0
 20
10400.0
 10
15900.0
 20
10400.0
  0
TEXT
  5
108
330
17
100
AcDbEntity
  8
Tekst
 62
7
100
AcDbText
 10
17150.0
 20
9900.0
 30
0.0
 40
110.00000000000001
  1
DC RAZVOD
  7
20
 72
1
 11
17150.0
 21
9900.0
 31
0.0
100
AcDbText
 73
2
  0
TEXT
  5
109
330
17
100
AcDbEntity
  8
Tekst
 62
8
100
AcDbText
 10
17150.0
 20
9420.0
 30
0.0
 40
90.0
  1
potrošači 1,18 kW
  7
20
 72
1
 11
17150.0
 21
9420.0
 31
0.0
100
AcDbText
 73
2
  0
LWPOLYLINE
  5
10A
330
17
100
AcDbEntity
  8
Sema
 62
30
370
35
100
AcDbPolyline
 90
3
 70
0
 10
14500.0
 20
8750.0
 10
15900.0
 20
8750.0
 10
15900.0
 20
9750.0
  0
LWPOLYLINE
  5
10B
330
17
100
AcDbEntity
  8
Sema
 62
30
370
35
100
AcDbPolyline
 90
2
 70
0
 10
14500.0
 20
4650.0
 10
15900.0
 20
4650.0
  0
LWPOLYLINE
  5
10C
330
17
100
AcDbEntity
  8
Sema
 62
7
370
50
100
AcDbPolyline
 90
2
 70
0
 10
17150.0
 20
5300.0
 10
17150.0
 20
9100.0
  0
LWPOLYLINE
  5
10D
330
17
100
AcDbEntity
  8
Uzemljenje
 62
2
370
70
100
AcDbPolyline
 90
2
 70
0
 10
1600.0
 20
3200.0
 10
18400.0
 20
3200.0
  0
LWPOLYLINE
  5
10E
330
17
100
AcDbEntity
  8
Uzemljenje
 62
3
370
70
100
AcDbPolyline
 90
2
 70
0
 10
1600.0
 20
3110.0
 10
18400.0
 20
3110.0
  0
LWPOLYLINE
  5
10F
330
17
100
AcDbEntity
  8
Uzemljenje
 62
2
370
50
100
AcDbPolyline
 90
2
 70
0
 10
3050.0
 20
3200.0
 10
3050.0
 20
4000.0
  0
LWPOLYLINE
  5
110
330
17
100
AcDbEntity
  8
Uzemljenje
 62
2
370
50
100
AcDbPolyline
 90
2
 70
0
 10
9650.0
 20
3200.0
 10
9650.0
 20
4000.0
  0
LWPOLYLINE
  5
111
330
17
100
AcDbEntity
  8
Uzemljenje
 62
2
370
50
100
AcDbPolyline
 90
2
 70
0
 10
13200.0
 20
3200.0
 10
13200.0
 20
4000.0
  0
LWPOLYLINE
  5
112
330
17
100
AcDbEntity
  8
Uzemljenje
 62
2
370
50
100
AcDbPolyline
 90
2
 70
0
 10
17150.0
 20
3200.0
 10
17150.0
 20
4000.0
  0
TEXT
  5
113
330
17
100
AcDbEntity
  8
Tekst
 62
7
100
AcDbText
 10
1600.0
 20
2580.0
 30
0.0
 40
114.99999999999999
  1
postojeći prstenasti uzemljivač Fe/Zn 25×4 · R ≤ 10 Ω · nosači FN vezani bakrenim užetom 50 mm² preko bimetalnih spojeva
  7
20
 11
1600.0
 21
2580.0
 31
0.0
100
AcDbText
  0
TEXT
  5
114
330
17
100
AcDbEntity
  8
Tekst
 62
7
100
AcDbText
 10
1600.0
 20
2100.0
 30
0.0
 40
130.0
  1
NAPOMENE:
  7
20
 11
1600.0
 21
2100.0
 31
0.0
100
AcDbText
  0
TEXT
  5
115
330
17
100
AcDbEntity
  8
Tekst
 62
7
100
AcDbText
 10
1600.0
 20
1980.0
 30
0.0
 40
114.99999999999999
  1
1  Lokacija NIJE na mreži — DEA je jedini AC izvor; KOA/ATS je sklopka izvora, ne prebacivanje sa mreže.
  7
20
 11
1600.0
 21
1980.0
 31
0.0
100
AcDbText
  0
TEXT
  5
116
330
17
100
AcDbEntity
  8
Tekst
 62
7
100
AcDbText
 10
1600.0
 20
1813.25
 30
0.0
 40
114.99999999999999
  1
2  Uzemljenje otočnog izvora TN-S: tačka spajanja N-PE u novom GRO, ne u postojećem PMO.
  7
20
 11
1600.0
 21
1813.25
 31
0.0
100
AcDbText
  0
TEXT
  5
117
330
17
100
AcDbEntity
  8
Tekst
 62
7
100
AcDbText
 10
1600.0
 20
1646.5
 30
0.0
 40
114.99999999999999
  1
3  Prenaponska zaštita: AC tip 1+2 (objekat ima LPS), DC tip 2 po stringu, signalni vodovi EN 61643-21.
  7
20
 11
1600.0
 21
1646.5
 31
0.0
100
AcDbText
  0
TEXT
  5
118
330
17
100
AcDbEntity
  8
Tekst
 62
7
100
AcDbText
 10
1600.0
 20
1479.75
 30
0.0
 40
114.99999999999999
  1
4  Zaštita u GRO mora isključiti prema IEC 60364-4-41 pri struji kvara ograničenoj pobudom generatora.
  7
20
 11
1600.0
 21
1479.75
 31
0.0
100
AcDbText
  0
TEXT
  5
119
330
17
100
AcDbEntity
  8
Tekst
 62
7
100
AcDbText
 10
1600.0
 20
1313.0
 30
0.0
 40
114.99999999999999
  1
5  FN polja su unutar zone zaštite antenskog stuba h=38 m (EN 62305).
  7
20
 11
1600.0
 21
1313.0
 31
0.0
100
AcDbText
  0
TEXT
  5
11A
330
17
100
AcDbEntity
  8
Tekst
 62
7
100
AcDbText
 10
1600.0
 20
1146.25
 30
0.0
 40
114.99999999999999
  1
6  12 modula = 2 stringa × 6 (na 3 nosača × 4); PVDB ima 2 rute, po jedan DC odvodnik po stringu.
  7
20
 11
1600.0
 21
1146.25
 31
0.0
100
AcDbText
  0
ENDSEC
  0
SECTION
  2
OBJECTS
  0
DICTIONARY
  5
A
330
0
100
AcDbDictionary
281
1
  3
ACAD_COLOR
350
B
  3
ACAD_GROUP
350
C
  3
ACAD_LAYOUT
350
D
  3
ACAD_MATERIAL
350
E
  3
ACAD_MLEADERSTYLE
350
F
  3
ACAD_MLINESTYLE
350
10
  3
ACAD_PLOTSETTINGS
350
11
  3
ACAD_PLOTSTYLENAME
350
12
  3
ACAD_SCALELIST
350
14
  3
ACAD_TABLESTYLE
350
15
  3
ACAD_VISUALSTYLE
350
16
  3
EZDXF_META
350
2D
  0
DICTIONARY
  5
B
330
A
100
AcDbDictionary
281
1
  0
DICTIONARY
  5
C
330
A
100
AcDbDictionary
281
1
  0
DICTIONARY
  5
D
330
A
100
AcDbDictionary
281
1
  3
Model
350
1A
  3
Layout1
350
1E
  0
DICTIONARY
  5
E
330
A
100
AcDbDictionary
281
1
  3
ByBlock
350
1F
  3
ByLayer
350
20
  3
Global
350
21
  0
DICTIONARY
  5
F
330
A
100
AcDbDictionary
281
1
  3
Standard
350
2C
  0
DICTIONARY
  5
10
330
A
100
AcDbDictionary
281
1
  3
Standard
350
22
  0
DICTIONARY
  5
11
330
A
100
AcDbDictionary
281
1
  0
ACDBDICTIONARYWDFLT
  5
12
330
A
100
AcDbDictionary
281
1
  3
Normal
350
13
100
AcDbDictionaryWithDefault
340
13
  0
ACDBPLACEHOLDER
  5
13
330
12
  0
DICTIONARY
  5
14
330
A
100
AcDbDictionary
281
1
  0
DICTIONARY
  5
15
330
A
100
AcDbDictionary
281
1
  0
DICTIONARY
  5
16
330
A
100
AcDbDictionary
281
1
  3
2dWireframe
350
5A
  3
Basic
350
5B
  3
Brighten
350
5C
  3
ColorChange
350
5D
  3
Conceptual
350
5E
  3
Dim
350
5F
  3
EdgeColorOff
350
60
  3
Facepattern
350
61
  3
Flat
350
62
  3
FlatWithEdges
350
63
  3
Gouraud
350
64
  3
GouraudWithEdges
350
65
  3
Hidden
350
66
  3
JitterOff
350
67
  3
Linepattern
350
68
  3
Modeling
350
69
  3
OverhangOff
350
6A
  3
Realistic
350
6B
  3
Shaded
350
6C
  3
Shaded with edges
350
6D
  3
Shades of Gray
350
6E
  3
Sketchy
350
6F
  3
Thicken
350
70
  3
Wireframe
350
71
  3
X-Ray
350
72
  0
LAYOUT
  5
1A
330
D
100
AcDbPlotSettings
  1

  4
A3
  6

 40
7.5
 41
20.0
 42
7.5
 43
20.0
 44
420.0
 45
297.0
 46
0.0
 47
0.0
 48
0.0
 49
0.0
140
0.0
141
0.0
142
1.0
143
1.0
 70
1024
 72
1
 73
0
 74
5
  7

 75
16
 76
0
 77
2
 78
300
147
1.0
148
0.0
149
0.0
100
AcDbLayout
  1
Model
 70
1
 71
0
 10
0.0
 20
0.0
 11
420.0
 21
297.0
 12
0.0
 22
0.0
 32
0.0
 14
1e+20
 24
1e+20
 34
1e+20
 15
-1e+20
 25
-1e+20
 35
-1e+20
146
0.0
 13
0.0
 23
0.0
 33
0.0
 16
1.0
 26
0.0
 36
0.0
 17
0.0
 27
1.0
 37
0.0
 76
1
330
17
  0
LAYOUT
  5
1E
330
D
100
AcDbPlotSettings
  1

  4
A3
  6

 40
7.5
 41
20.0
 42
7.5
 43
20.0
 44
420.0
 45
297.0
 46
0.0
 47
0.0
 48
0.0
 49
0.0
140
0.0
141
0.0
142
1.0
143
1.0
 70
0
 72
1
 73
0
 74
5
  7

 75
16
 76
0
 77
2
 78
300
147
1.0
148
0.0
149
0.0
100
AcDbLayout
  1
Layout1
 70
1
 71
1
 10
0.0
 20
0.0
 11
420.0
 21
297.0
 12
0.0
 22
0.0
 32
0.0
 14
1e+20
 24
1e+20
 34
1e+20
 15
-1e+20
 25
-1e+20
 35
-1e+20
146
0.0
 13
0.0
 23
0.0
 33
0.0
 16
1.0
 26
0.0
 36
0.0
 17
0.0
 27
1.0
 37
0.0
 76
1
330
1B
  0
MATERIAL
  5
1F
102
{ACAD_REACTORS
330
E
102
}
330
E
100
AcDbMaterial
  1
ByBlock
  2

 70
0
 40
1.0
 71
1
 41
1.0
 91
-1023410177
 42
1.0
 72
1
  3

 73
1
 74
1
 75
1
 44
0.5
 73
0
 45
1.0
 46
1.0
 77
1
  4

 78
1
 79
1
170
1
 48
1.0
171
1
  6

172
1
173
1
174
1
140
1.0
141
1.0
175
1
  7

176
1
177
1
178
1
143
1.0
179
1
  8

270
1
271
1
272
1
145
1.0
146
1.0
273
1
  9

274
1
275
1
276
1
 42
1.0
 72
1
  3

 73
1
 74
1
 75
1
 94
63
  0
MATERIAL
  5
20
102
{ACAD_REACTORS
330
E
102
}
330
E
100
AcDbMaterial
  1
ByLayer
  2

 70
0
 40
1.0
 71
1
 41
1.0
 91
-1023410177
 42
1.0
 72
1
  3

 73
1
 74
1
 75
1
 44
0.5
 73
0
 45
1.0
 46
1.0
 77
1
  4

 78
1
 79
1
170
1
 48
1.0
171
1
  6

172
1
173
1
174
1
140
1.0
141
1.0
175
1
  7

176
1
177
1
178
1
143
1.0
179
1
  8

270
1
271
1
272
1
145
1.0
146
1.0
273
1
  9

274
1
275
1
276
1
 42
1.0
 72
1
  3

 73
1
 74
1
 75
1
 94
63
  0
MATERIAL
  5
21
102
{ACAD_REACTORS
330
E
102
}
330
E
100
AcDbMaterial
  1
Global
  2

 70
0
 40
1.0
 71
1
 41
1.0
 91
-1023410177
 42
1.0
 72
1
  3

 73
1
 74
1
 75
1
 44
0.5
 73
0
 45
1.0
 46
1.0
 77
1
  4

 78
1
 79
1
170
1
 48
1.0
171
1
  6

172
1
173
1
174
1
140
1.0
141
1.0
175
1
  7

176
1
177
1
178
1
143
1.0
179
1
  8

270
1
271
1
272
1
145
1.0
146
1.0
273
1
  9

274
1
275
1
276
1
 42
1.0
 72
1
  3

 73
1
 74
1
 75
1
 94
63
  0
MLINESTYLE
  5
22
102
{ACAD_REACTORS
330
10
102
}
330
10
100
AcDbMlineStyle
  2
Standard
 70
0
  3

 62
256
 51
90.0
 52
90.0
 71
2
 49
0.5
 62
256
  6
BYLAYER
 49
-0.5
 62
256
  6
BYLAYER
  0
MLEADERSTYLE
  5
2C
102
{ACAD_REACTORS
330
F
102
}
330
F
100
AcDbMLeaderStyle
179
2
170
2
171
1
172
0
 90
2
 40
0.0
 41
0.0
173
1
 91
-1056964608
 92
-2
290
1
 42
2.0
291
1
 43
8.0
  3
Standard
 44
4.0
300

342
29
174
1
175
1
176
0
178
1
 93
-1056964608
 45
4.0
292
0
297
0
 46
4.0
 94
-1056964608
 47
1.0
 49
1.0
140
1.0
294
1
141
0.0
177
0
142
1.0
295
0
296
0
143
3.75
271
0
272
9
273
9
  0
DICTIONARY
  5
2D
330
A
100
AcDbDictionary
280
1
281
1
  3
CREATED_BY_EZDXF
350
2E
  3
WRITTEN_BY_EZDXF
350
11D
  0
DICTIONARYVAR
  5
2E
330
2D
100
DictionaryVariables
280
0
  1
1.4.4 @ 2026-08-11T15:06:27.111938+00:00
  0
VISUALSTYLE
  5
5A
102
{ACAD_REACTORS
330
16
102
}
330
16
100
AcDbVisualStyle
  2
2dWireframe
 70
4
 90
0
 40
0.6
 62
7
290
0
291
0
  0
VISUALSTYLE
  5
5B
102
{ACAD_REACTORS
330
16
102
}
330
16
100
AcDbVisualStyle
  2
Basic
 70
7
 90
1
 40
0.6
 62
7
290
0
291
1
  0
VISUALSTYLE
  5
5C
102
{ACAD_REACTORS
330
16
102
}
330
16
100
AcDbVisualStyle
  2
Brighten
 70
12
 90
2
 40
0.6
 62
7
290
0
291
1
  0
VISUALSTYLE
  5
5D
102
{ACAD_REACTORS
330
16
102
}
330
16
100
AcDbVisualStyle
  2
ColorChange
 70
16
 90
2
 40
0.6
 62
8
290
0
291
1
  0
VISUALSTYLE
  5
5E
102
{ACAD_REACTORS
330
16
102
}
330
16
100
AcDbVisualStyle
  2
Conceptual
 70
9
 90
3
 40
0.6
 62
7
290
0
291
0
  0
VISUALSTYLE
  5
5F
102
{ACAD_REACTORS
330
16
102
}
330
16
100
AcDbVisualStyle
  2
Dim
 70
11
 90
2
 40
0.6
 62
7
290
0
291
1
  0
VISUALSTYLE
  5
60
102
{ACAD_REACTORS
330
16
102
}
330
16
100
AcDbVisualStyle
  2
EdgeColorOff
 70
22
 90
2
 40
0.6
 62
7
290
0
291
1
  0
VISUALSTYLE
  5
61
102
{ACAD_REACTORS
330
16
102
}
330
16
100
AcDbVisualStyle
  2
Facepattern
 70
15
 90
2
 40
0.6
 62
7
290
0
291
1
  0
VISUALSTYLE
  5
62
102
{ACAD_REACTORS
330
16
102
}
330
16
100
AcDbVisualStyle
  2
Flat
 70
0
 90
2
 40
0.6
 62
7
290
0
291
1
  0
VISUALSTYLE
  5
63
102
{ACAD_REACTORS
330
16
102
}
330
16
100
AcDbVisualStyle
  2
FlatWithEdges
 70
1
 90
2
 40
0.6
 62
7
290
0
291
1
  0
VISUALSTYLE
  5
64
102
{ACAD_REACTORS
330
16
102
}
330
16
100
AcDbVisualStyle
  2
Gouraud
 70
2
 90
2
 40
0.6
 62
7
290
0
291
1
  0
VISUALSTYLE
  5
65
102
{ACAD_REACTORS
330
16
102
}
330
16
100
AcDbVisualStyle
  2
GouraudWithEdges
 70
3
 90
2
 40
0.6
 62
7
290
0
291
1
  0
VISUALSTYLE
  5
66
102
{ACAD_REACTORS
330
16
102
}
330
16
100
AcDbVisualStyle
  2
Hidden
 70
6
 90
1
 40
0.6
 62
7
290
0
291
0
  0
VISUALSTYLE
  5
67
102
{ACAD_REACTORS
330
16
102
}
330
16
100
AcDbVisualStyle
  2
JitterOff
 70
20
 90
2
 40
0.6
 62
7
290
0
291
1
  0
VISUALSTYLE
  5
68
102
{ACAD_REACTORS
330
16
102
}
330
16
100
AcDbVisualStyle
  2
Linepattern
 70
14
 90
2
 40
0.6
 62
7
290
0
291
1
  0
VISUALSTYLE
  5
69
102
{ACAD_REACTORS
330
16
102
}
330
16
100
AcDbVisualStyle
  2
Modeling
 70
10
 90
2
 40
0.6
 62
7
290
0
291
0
  0
VISUALSTYLE
  5
6A
102
{ACAD_REACTORS
330
16
102
}
330
16
100
AcDbVisualStyle
  2
OverhangOff
 70
21
 90
2
 40
0.6
 62
7
290
0
291
1
  0
VISUALSTYLE
  5
6B
102
{ACAD_REACTORS
330
16
102
}
330
16
100
AcDbVisualStyle
  2
Realistic
 70
8
 90
2
 40
0.6
 62
7
290
0
291
0
  0
VISUALSTYLE
  5
6C
102
{ACAD_REACTORS
330
16
102
}
330
16
100
AcDbVisualStyle
  2
Shaded
 70
27
 90
2
 40
0.6
 62
7
290
0
291
0
  0
VISUALSTYLE
  5
6D
102
{ACAD_REACTORS
330
16
102
}
330
16
100
AcDbVisualStyle
  2
Shaded with edges
 70
26
 90
2
 40
0.6
 62
7
290
0
291
0
  0
VISUALSTYLE
  5
6E
102
{ACAD_REACTORS
330
16
102
}
330
16
100
AcDbVisualStyle
  2
Shades of Gray
 70
23
 90
2
 40
0.6
 62
7
290
0
291
0
  0
VISUALSTYLE
  5
6F
102
{ACAD_REACTORS
330
16
102
}
330
16
100
AcDbVisualStyle
  2
Sketchy
 70
24
 90
1
 40
0.6
 62
7
290
0
291
0
  0
VISUALSTYLE
  5
70
102
{ACAD_REACTORS
330
16
102
}
330
16
100
AcDbVisualStyle
  2
Thicken
 70
13
 90
2
 40
0.6
 62
7
290
0
291
1
  0
VISUALSTYLE
  5
71
102
{ACAD_REACTORS
330
16
102
}
330
16
100
AcDbVisualStyle
  2
Wireframe
 70
5
 90
0
 40
0.6
 62
7
290
0
291
0
  0
VISUALSTYLE
  5
72
102
{ACAD_REACTORS
330
16
102
}
330
16
100
AcDbVisualStyle
  2
X-Ray
 70
25
 90
2
 40
0.5
 62
7
290
0
291
0
  0
DICTIONARYVAR
  5
11D
330
2D
100
DictionaryVariables
280
0
  1
1.4.4 @ 2026-08-11T15:06:27.137024+00:00
  0
ENDSEC
  0
EOF
