  0
SECTION
  2
HEADER
  9
$ACADVER
  1
AC1024
  9
$ACADMAINTVER
 70
6
  9
$DWGCODEPAGE
  3
ANSI_1252
  9
$LASTSAVEDBY
  1
ezdxf
  9
$INSBASE
 10
0.0
 20
0.0
 30
0.0
  9
$EXTMIN
 10
1e+20
 20
1e+20
 30
1e+20
  9
$EXTMAX
 10
-1e+20
 20
-1e+20
 30
-1e+20
  9
$LIMMIN
 10
0.0
 20
0.0
  9
$LIMMAX
 10
420.0
 20
297.0
  9
$ORTHOMODE
 70
0
  9
$REGENMODE
 70
1
  9
$FILLMODE
 70
1
  9
$QTEXTMODE
 70
0
  9
$MIRRTEXT
 70
1
  9
$LTSCALE
 40
1.0
  9
$ATTMODE
 70
1
  9
$TEXTSIZE
 40
2.5
  9
$TRACEWID
 40
1.0
  9
$TEXTSTYLE
  7
OpenSans
  9
$CLAYER
  8
0
  9
$CELTYPE
  6
ByLayer
  9
$CECOLOR
 62
256
  9
$CELTSCALE
 40
1.0
  9
$DISPSILH
 70
0
  9
$DIMSCALE
 40
1.0
  9
$DIMASZ
 40
0.175
  9
$DIMEXO
 40
0.125
  9
$DIMDLI
 40
3.75
  9
$DIMRND
 40
0.0
  9
$DIMDLE
 40
0.0
  9
$DIMEXE
 40
0.375
  9
$DIMTP
 40
0.0
  9
$DIMTM
 40
0.0
  9
$DIMTXT
 40
0.25
  9
$DIMCEN
 40
2.5
  9
$DIMTSZ
 40
0.0
  9
$DIMTOL
 70
0
  9
$DIMLIM
 70
0
  9
$DIMTIH
 70
0
  9
$DIMTOH
 70
0
  9
$DIMSE1
 70
0
  9
$DIMSE2
 70
0
  9
$DIMTAD
 70
1
  9
$DIMZIN
 70
12
  9
$DIMBLK
  1
ARCHTICK
  9
$DIMASO
 70
1
  9
$DIMSHO
 70
1
  9
$DIMPOST
  1

  9
$DIMAPOST
  1

  9
$DIMALT
 70
0
  9
$DIMALTD
 70
3
  9
$DIMALTF
 40
0.03937007874
  9
$DIMLFAC
 40
100.0
  9
$DIMTOFL
 70
1
  9
$DIMTVP
 40
0.0
  9
$DIMTIX
 70
0
  9
$DIMSOXD
 70
0
  9
$DIMSAH
 70
0
  9
$DIMBLK1
  1

  9
$DIMBLK2
  1

  9
$DIMSTYLE
  2
EZDXF
  9
$DIMCLRD
 70
0
  9
$DIMCLRE
 70
0
  9
$DIMCLRT
 70
0
  9
$DIMTFAC
 40
0.5
  9
$DIMGAP
 40
0.1
  9
$DIMJUST
 70
0
  9
$DIMSD1
 70
0
  9
$DIMSD2
 70
0
  9
$DIMTOLJ
 70
0
  9
$DIMTZIN
 70
8
  9
$DIMALTZ
 70
0
  9
$DIMALTTZ
 70
0
  9
$DIMUPT
 70
1
  9
$DIMDEC
 70
2
  9
$DIMTDEC
 70
2
  9
$DIMALTU
 70
2
  9
$DIMALTTD
 70
3
  9
$DIMTXSTY
  7
OpenSansCondensed-Light
  9
$DIMAUNIT
 70
0
  9
$DIMADEC
 70
2
  9
$DIMALTRND
 40
0.0
  9
$DIMAZIN
 70
3
  9
$DIMDSEP
 70
46
  9
$DIMATFIT
 70
3
  9
$DIMFRAC
 70
0
  9
$DIMLDRBLK
  1

  9
$DIMLUNIT
 70
2
  9
$DIMLWD
 70
-2
  9
$DIMLWE
 70
-2
  9
$DIMTMOVE
 70
2
  9
$DIMFXL
 40
1.0
  9
$DIMFXLON
 70
0
  9
$DIMJOGANG
 40
0.785398163397
  9
$DIMTFILL
 70
0
  9
$DIMTFILLCLR
 70
0
  9
$DIMARCSYM
 70
0
  9
$DIMLTYPE
  6

  9
$DIMLTEX1
  6

  9
$DIMLTEX2
  6

  9
$DIMTXTDIRECTION
 70
0
  9
$LUNITS
 70
2
  9
$LUPREC
 70
4
  9
$SKETCHINC
 40
1.0
  9
$FILLETRAD
 40
10.0
  9
$AUNITS
 70
0
  9
$AUPREC
 70
2
  9
$MENU
  1
.
  9
$ELEVATION
 40
0.0
  9
$PELEVATION
 40
0.0
  9
$THICKNESS
 40
0.0
  9
$LIMCHECK
 70
0
  9
$CHAMFERA
 40
0.0
  9
$CHAMFERB
 40
0.0
  9
$CHAMFERC
 40
0.0
  9
$CHAMFERD
 40
0.0
  9
$SKPOLY
 70
0
  9
$TDCREATE
 40
2461264.7128125
  9
$TDUCREATE
 40
2458532.153996898
  9
$TDUPDATE
 40
2461264.7128125
  9
$TDUUPDATE
 40
2458532.1544311
  9
$TDINDWG
 40
0.0
  9
$TDUSRTIMER
 40
0.0
  9
$USRTIMER
 70
1
  9
$ANGBASE
 50
0.0
  9
$ANGDIR
 70
0
  9
$PDMODE
 70
0
  9
$PDSIZE
 40
0.0
  9
$PLINEWID
 40
0.0
  9
$SPLFRAME
 70
0
  9
$SPLINETYPE
 70
6
  9
$SPLINESEGS
 70
8
  9
$HANDSEED
  5
178
  9
$SURFTAB1
 70
6
  9
$SURFTAB2
 70
6
  9
$SURFTYPE
 70
6
  9
$SURFU
 70
6
  9
$SURFV
 70
6
  9
$UCSBASE
  2

  9
$UCSNAME
  2

  9
$UCSORG
 10
0.0
 20
0.0
 30
0.0
  9
$UCSXDIR
 10
1.0
 20
0.0
 30
0.0
  9
$UCSYDIR
 10
0.0
 20
1.0
 30
0.0
  9
$UCSORTHOREF
  2

  9
$UCSORTHOVIEW
 70
0
  9
$UCSORGTOP
 10
0.0
 20
0.0
 30
0.0
  9
$UCSORGBOTTOM
 10
0.0
 20
0.0
 30
0.0
  9
$UCSORGLEFT
 10
0.0
 20
0.0
 30
0.0
  9
$UCSORGRIGHT
 10
0.0
 20
0.0
 30
0.0
  9
$UCSORGFRONT
 10
0.0
 20
0.0
 30
0.0
  9
$UCSORGBACK
 10
0.0
 20
0.0
 30
0.0
  9
$PUCSBASE
  2

  9
$PUCSNAME
  2

  9
$PUCSORG
 10
0.0
 20
0.0
 30
0.0
  9
$PUCSXDIR
 10
1.0
 20
0.0
 30
0.0
  9
$PUCSYDIR
 10
0.0
 20
1.0
 30
0.0
  9
$PUCSORTHOREF
  2

  9
$PUCSORTHOVIEW
 70
0
  9
$PUCSORGTOP
 10
0.0
 20
0.0
 30
0.0
  9
$PUCSORGBOTTOM
 10
0.0
 20
0.0
 30
0.0
  9
$PUCSORGLEFT
 10
0.0
 20
0.0
 30
0.0
  9
$PUCSORGRIGHT
 10
0.0
 20
0.0
 30
0.0
  9
$PUCSORGFRONT
 10
0.0
 20
0.0
 30
0.0
  9
$PUCSORGBACK
 10
0.0
 20
0.0
 30
0.0
  9
$USERI1
 70
0
  9
$USERI2
 70
0
  9
$USERI3
 70
0
  9
$USERI4
 70
0
  9
$USERI5
 70
0
  9
$USERR1
 40
0.0
  9
$USERR2
 40
0.0
  9
$USERR3
 40
0.0
  9
$USERR4
 40
0.0
  9
$USERR5
 40
0.0
  9
$WORLDVIEW
 70
1
  9
$SHADEDGE
 70
3
  9
$SHADEDIF
 70
70
  9
$TILEMODE
 70
1
  9
$MAXACTVP
 70
64
  9
$PINSBASE
 10
0.0
 20
0.0
 30
0.0
  9
$PLIMCHECK
 70
0
  9
$PEXTMIN
 10
1e+20
 20
1e+20
 30
1e+20
  9
$PEXTMAX
 10
-1e+20
 20
-1e+20
 30
-1e+20
  9
$PLIMMIN
 10
0.0
 20
0.0
  9
$PLIMMAX
 10
420.0
 20
297.0
  9
$UNITMODE
 70
0
  9
$VISRETAIN
 70
1
  9
$PLINEGEN
 70
0
  9
$PSLTSCALE
 70
1
  9
$TREEDEPTH
 70
3020
  9
$CMLSTYLE
  2
Standard
  9
$CMLJUST
 70
0
  9
$CMLSCALE
 40
20.0
  9
$PROXYGRAPHICS
 70
1
  9
$MEASUREMENT
 70
1
  9
$CELWEIGHT
370
-1
  9
$ENDCAPS
280
0
  9
$JOINSTYLE
280
0
  9
$LWDISPLAY
290
0
  9
$INSUNITS
 70
4
  9
$HYPERLINKBASE
  1

  9
$STYLESHEET
  1

  9
$XEDIT
290
1
  9
$CEPSNTYPE
380
0
  9
$PSTYLEMODE
290
1
  9
$FINGERPRINTGUID
  2
{C0BA96CA-6037-4B02-94C8-27B6A298438B}
  9
$VERSIONGUID
  2
{4687A8CC-2036-46F6-A6FB-C83D9ED37101}
  9
$EXTNAMES
290
1
  9
$PSVPSCALE
 40
0.0
  9
$OLESTARTUP
290
0
  9
$SORTENTS
280
127
  9
$INDEXCTL
280
0
  9
$HIDETEXT
280
1
  9
$XCLIPFRAME
280
1
  9
$HALOGAP
280
0
  9
$OBSCOLOR
 70
257
  9
$OBSLTYPE
280
0
  9
$INTERSECTIONDISPLAY
280
0
  9
$INTERSECTIONCOLOR
 70
257
  9
$DIMASSOC
280
2
  9
$PROJECTNAME
  1

  9
$CAMERADISPLAY
290
0
  9
$LENSLENGTH
 40
50.0
  9
$CAMERAHEIGHT
 40
0.0
  9
$STEPSPERSEC
 40
24.0
  9
$STEPSIZE
 40
100.0
  9
$3DDWFPREC
 40
2.0
  9
$PSOLWIDTH
 40
0.005
  9
$PSOLHEIGHT
 40
0.08
  9
$LOFTANG1
 40
1.570796326795
  9
$LOFTANG2
 40
1.570796326795
  9
$LOFTMAG1
 40
0.0
  9
$LOFTMAG2
 40
0.0
  9
$LOFTPARAM
 70
7
  9
$LOFTNORMALS
280
1
  9
$LATITUDE
 40
37.795
  9
$LONGITUDE
 40
-122.394
  9
$NORTHDIRECTION
 40
0.0
  9
$TIMEZONE
 70
-8000
  9
$LIGHTGLYPHDISPLAY
280
1
  9
$TILEMODELIGHTSYNCH
280
1
  9
$CMATERIAL
347
20
  9
$SOLIDHIST
280
0
  9
$SHOWHIST
280
1
  9
$DWFFRAME
280
2
  9
$DGNFRAME
280
2
  9
$REALWORLDSCALE
290
1
  9
$INTERFERECOLOR
 62
256
  9
$CSHADOW
280
0
  9
$SHADOWPLANELOCATION
 40
0.0
  0
ENDSEC
  0
SECTION
  2
CLASSES
  0
CLASS
  1
ACDBDICTIONARYWDFLT
  2
AcDbDictionaryWithDefault
  3
ObjectDBX Classes
 90
0
 91
0
280
0
281
0
  0
CLASS
  1
SUN
  2
AcDbSun
  3
SCENEOE
 90
1153
 91
0
280
0
281
0
  0
CLASS
  1
VISUALSTYLE
  2
AcDbVisualStyle
  3
ObjectDBX Classes
 90
4095
 91
0
280
0
281
0
  0
CLASS
  1
MATERIAL
  2
AcDbMaterial
  3
ObjectDBX Classes
 90
1153
 91
0
280
0
281
0
  0
CLASS
  1
SCALE
  2
AcDbScale
  3
ObjectDBX Classes
 90
1153
 91
0
280
0
281
0
  0
CLASS
  1
TABLESTYLE
  2
AcDbTableStyle
  3
ObjectDBX Classes
 90
4095
 91
0
280
0
281
0
  0
CLASS
  1
MLEADERSTYLE
  2
AcDbMLeaderStyle
  3
ACDB_MLEADERSTYLE_CLASS
 90
4095
 91
0
280
0
281
0
  0
CLASS
  1
DICTIONARYVAR
  2
AcDbDictionaryVar
  3
ObjectDBX Classes
 90
0
 91
0
280
0
281
0
  0
CLASS
  1
CELLSTYLEMAP
  2
AcDbCellStyleMap
  3
ObjectDBX Classes
 90
1152
 91
0
280
0
281
0
  0
CLASS
  1
MENTALRAYRENDERSETTINGS
  2
AcDbMentalRayRenderSettings
  3
SCENEOE
 90
1024
 91
0
280
0
281
0
  0
CLASS
  1
ACDBDETAILVIEWSTYLE
  2
AcDbDetailViewStyle
  3
ObjectDBX Classes
 90
1025
 91
0
280
0
281
0
  0
CLASS
  1
ACDBSECTIONVIEWSTYLE
  2
AcDbSectionViewStyle
  3
ObjectDBX Classes
 90
1025
 91
0
280
0
281
0
  0
CLASS
  1
RASTERVARIABLES
  2
AcDbRasterVariables
  3
ISM
 90
0
 91
0
280
0
281
0
  0
CLASS
  1
ACDBPLACEHOLDER
  2
AcDbPlaceHolder
  3
ObjectDBX Classes
 90
0
 91
0
280
0
281
0
  0
CLASS
  1
LAYOUT
  2
AcDbLayout
  3
ObjectDBX Classes
 90
0
 91
0
280
0
281
0
  0
ENDSEC
  0
SECTION
  2
TABLES
  0
TABLE
  2
VPORT
  5
8
330
0
100
AcDbSymbolTable
 70
1
  0
VPORT
  5
23
330
8
100
AcDbSymbolTableRecord
100
AcDbViewportTableRecord
  2
*Active
 70
0
 10
0.0
 20
0.0
 11
1.0
 21
1.0
 12
0.0
 22
0.0
 13
0.0
 23
0.0
 14
0.5
 24
0.5
 15
0.5
 25
0.5
 16
0.0
 26
0.0
 36
1.0
 17
0.0
 27
0.0
 37
0.0
 40
1000.0
 41
1.34
 42
50.0
 43
0.0
 44
0.0
 50
0.0
 51
0.0
 71
0
 72
1000
 73
1
 74
3
 75
0
 76
0
 77
0
 78
0
281
0
 65
0
146
0.0
  0
ENDTAB
  0
TABLE
  2
LTYPE
  5
2
330
0
100
AcDbSymbolTable
 70
21
  0
LTYPE
  5
24
330
2
100
AcDbSymbolTableRecord
100
AcDbLinetypeTableRecord
  2
ByBlock
 70
0
  3

 72
65
 73
0
 40
0.0
  0
LTYPE
  5
25
330
2
100
AcDbSymbolTableRecord
100
AcDbLinetypeTableRecord
  2
ByLayer
 70
0
  3

 72
65
 73
0
 40
0.0
  0
LTYPE
  5
26
330
2
100
AcDbSymbolTableRecord
100
AcDbLinetypeTableRecord
  2
Continuous
 70
0
  3

 72
65
 73
0
 40
0.0
  0
LTYPE
  5
2F
330
2
100
AcDbSymbolTableRecord
100
AcDbLinetypeTableRecord
  2
CENTER
 70
0
  3
Center ____ _ ____ _ ____ _ ____ _ ____ _ ____
 72
65
 73
4
 40
5.08
 49
3.175
 74
0
 49
-0.635
 74
0
 49
0.635
 74
0
 49
-0.635
 74
0
  0
LTYPE
  5
30
330
2
100
AcDbSymbolTableRecord
100
AcDbLinetypeTableRecord
  2
CENTERX2
 70
0
  3
Center (2x) ________  __  ________  __  ________
 72
65
 73
4
 40
8.89
 49
6.35
 74
0
 49
-0.635
 74
0
 49
1.27
 74
0
 49
-0.635
 74
0
  0
LTYPE
  5
31
330
2
100
AcDbSymbolTableRecord
100
AcDbLinetypeTableRecord
  2
CENTER2
 70
0
  3
Center (.5x) ____ _ ____ _ ____ _ ____ _ ____
 72
65
 73
4
 40
2.54
 49
1.587
 74
0
 49
-0.318
 74
0
 49
0.318
 74
0
 49
-0.318
 74
0
  0
LTYPE
  5
32
330
2
100
AcDbSymbolTableRecord
100
AcDbLinetypeTableRecord
  2
DASHED
 70
0
  3
Dashed __ __ __ __ __ __ __ __ __ __ __ __ __ _
 72
65
 73
2
 40
1.524
 49
1.27
 74
0
 49
-0.254
 74
0
  0
LTYPE
  5
33
330
2
100
AcDbSymbolTableRecord
100
AcDbLinetypeTableRecord
  2
DASHEDX2
 70
0
  3
Dashed (2x) ____  ____  ____  ____  ____  ____
 72
65
 73
2
 40
3.048
 49
2.54
 74
0
 49
-0.508
 74
0
  0
LTYPE
  5
34
330
2
100
AcDbSymbolTableRecord
100
AcDbLinetypeTableRecord
  2
DASHED2
 70
0
  3
Dashed (.5x) _ _ _ _ _ _ _ _ _ _ _ _ _ _
 72
65
 73
2
 40
0.762
 49
0.635
 74
0
 49
-0.127
 74
0
  0
LTYPE
  5
35
330
2
100
AcDbSymbolTableRecord
100
AcDbLinetypeTableRecord
  2
PHANTOM
 70
0
  3
Phantom ______  __  __  ______  __  __  ______
 72
65
 73
6
 40
6.35
 49
3.175
 74
0
 49
-0.635
 74
0
 49
0.635
 74
0
 49
-0.635
 74
0
 49
0.635
 74
0
 49
-0.635
 74
0
  0
LTYPE
  5
36
330
2
100
AcDbSymbolTableRecord
100
AcDbLinetypeTableRecord
  2
PHANTOMX2
 70
0
  3
Phantom (2x)____________    ____    ____    ____________
 72
65
 73
6
 40
10.795
 49
6.35
 74
0
 49
-0.635
 74
0
 49
1.27
 74
0
 49
-0.635
 74
0
 49
1.27
 74
0
 49
-0.635
 74
0
  0
LTYPE
  5
37
330
2
100
AcDbSymbolTableRecord
100
AcDbLinetypeTableRecord
  2
PHANTOM2
 70
0
  3
Phantom (.5x) ___ _ _ ___ _ _ ___ _ _ ___ _ _ ___
 72
65
 73
6
 40
3.175
 49
1.587
 74
0
 49
-0.318
 74
0
 49
0.318
 74
0
 49
-0.318
 74
0
 49
0.318
 74
0
 49
-0.318
 74
0
  0
LTYPE
  5
38
330
2
100
AcDbSymbolTableRecord
100
AcDbLinetypeTableRecord
  2
DASHDOT
 70
0
  3
Dash dot __ . __ . __ . __ . __ . __ . __ . __
 72
65
 73
4
 40
3.556
 49
2.54
 74
0
 49
-0.508
 74
0
 49
0.0
 74
0
 49
-0.508
 74
0
  0
LTYPE
  5
39
330
2
100
AcDbSymbolTableRecord
100
AcDbLinetypeTableRecord
  2
DASHDOTX2
 70
0
  3
Dash dot (2x) ____  .  ____  .  ____  .  ____
 72
65
 73
4
 40
6.096
 49
5.08
 74
0
 49
-0.508
 74
0
 49
0.0
 74
0
 49
-0.508
 74
0
  0
LTYPE
  5
3A
330
2
100
AcDbSymbolTableRecord
100
AcDbLinetypeTableRecord
  2
DASHDOT2
 70
0
  3
Dash dot (.5x) _ . _ . _ . _ . _ . _ . _ . _
 72
65
 73
4
 40
1.778
 49
1.27
 74
0
 49
-0.254
 74
0
 49
0.0
 74
0
 49
-0.254
 74
0
  0
LTYPE
  5
3B
330
2
100
AcDbSymbolTableRecord
100
AcDbLinetypeTableRecord
  2
DOT
 70
0
  3
Dot .  .  .  .  .  .  .  .  .  .  .  .  .  .  .  .
 72
65
 73
2
 40
0.508
 49
0.0
 74
0
 49
-0.508
 74
0
  0
LTYPE
  5
3C
330
2
100
AcDbSymbolTableRecord
100
AcDbLinetypeTableRecord
  2
DOTX2
 70
0
  3
Dot (2x) .    .    .    .    .    .    .    . 
 72
65
 73
2
 40
1.016
 49
0.0
 74
0
 49
-1.016
 74
0
  0
LTYPE
  5
3D
330
2
100
AcDbSymbolTableRecord
100
AcDbLinetypeTableRecord
  2
DOT2
 70
0
  3
Dot (.5) . . . . . . . . . . . . . . . . . . . 
 72
65
 73
2
 40
0.254
 49
0.0
 74
0
 49
-0.254
 74
0
  0
LTYPE
  5
3E
330
2
100
AcDbSymbolTableRecord
100
AcDbLinetypeTableRecord
  2
DIVIDE
 70
0
  3
Divide __ . . __ . . __ . . __ . . __ . . __
 72
65
 73
6
 40
4.064
 49
2.54
 74
0
 49
-0.508
 74
0
 49
0.0
 74
0
 49
-0.508
 74
0
 49
0.0
 74
0
 49
-0.508
 74
0
  0
LTYPE
  5
3F
330
2
100
AcDbSymbolTableRecord
100
AcDbLinetypeTableRecord
  2
DIVIDEX2
 70
0
  3
Divide (2x) ____  . .  ____  . .  ____  . .  ____
 72
65
 73
6
 40
6.604
 49
5.08
 74
0
 49
-0.508
 74
0
 49
0.0
 74
0
 49
-0.508
 74
0
 49
0.0
 74
0
 49
-0.508
 74
0
  0
LTYPE
  5
40
330
2
100
AcDbSymbolTableRecord
100
AcDbLinetypeTableRecord
  2
DIVIDE2
 70
0
  3
Divide(.5x) _ . _ . _ . _ . _ . _ . _ . _
 72
65
 73
6
 40
2.032
 49
1.27
 74
0
 49
-0.254
 74
0
 49
0.0
 74
0
 49
-0.254
 74
0
 49
0.0
 74
0
 49
-0.254
 74
0
  0
ENDTAB
  0
TABLE
  2
LAYER
  5
1
330
0
100
AcDbSymbolTable
 70
26
  0
LAYER
  5
27
330
1
100
AcDbSymbolTableRecord
100
AcDbLayerTableRecord
  2
0
 70
0
 62
7
  6
Continuous
370
-3
390
13
347
21
  0
LAYER
  5
28
330
1
100
AcDbSymbolTableRecord
100
AcDbLayerTableRecord
  2
Defpoints
 70
0
 62
7
  6
Continuous
290
0
370
-3
390
13
347
21
  0
LAYER
  5
8D
330
1
100
AcDbSymbolTableRecord
100
AcDbLayerTableRecord
  2
Okvir
 70
0
 62
3
  6
Continuous
370
-3
390
13
347
21
  0
LAYER
  5
8E
330
1
100
AcDbSymbolTableRecord
100
AcDbLayerTableRecord
  2
Tekst
 70
0
 62
253
  6
Continuous
370
-3
390
13
347
21
  0
LAYER
  5
8F
330
1
100
AcDbSymbolTableRecord
100
AcDbLayerTableRecord
  2
Kote
 70
0
 62
7
  6
Continuous
370
-3
390
13
347
21
  0
LAYER
  5
90
330
1
100
AcDbSymbolTableRecord
100
AcDbLayerTableRecord
  2
Kote blok
 70
0
 62
7
  6
Continuous
370
-3
390
13
347
21
  0
LAYER
  5
91
330
1
100
AcDbSymbolTableRecord
100
AcDbLayerTableRecord
  2
Objekat
 70
0
 62
6
  6
Continuous
370
-3
390
13
347
21
  0
LAYER
  5
92
330
1
100
AcDbSymbolTableRecord
100
AcDbLayerTableRecord
  2
Konstrukcija
 70
0
 62
5
  6
Continuous
370
-3
390
13
347
21
  0
LAYER
  5
93
330
1
100
AcDbSymbolTableRecord
100
AcDbLayerTableRecord
  2
Panel
 70
0
 62
110
  6
Continuous
370
-3
390
13
347
21
  0
LAYER
  5
94
330
1
100
AcDbSymbolTableRecord
100
AcDbLayerTableRecord
  2
Kabal
 70
0
 62
7
  6
Continuous
370
-3
390
13
347
21
  0
LAYER
  5
95
330
1
100
AcDbSymbolTableRecord
100
AcDbLayerTableRecord
  2
Osovina
 70
0
 62
6
  6
CENTER
370
-3
390
13
347
21
  0
LAYER
  5
96
330
1
100
AcDbSymbolTableRecord
100
AcDbLayerTableRecord
  2
Orijentacija
 70
0
 62
1
  6
Continuous
370
-3
390
13
347
21
  0
LAYER
  5
97
330
1
100
AcDbSymbolTableRecord
100
AcDbLayerTableRecord
  2
DEBELA
 70
0
 62
7
  6
Continuous
370
-3
390
13
347
21
  0
LAYER
  5
98
330
1
100
AcDbSymbolTableRecord
100
AcDbLayerTableRecord
  2
pozicije
 70
0
 62
7
  6
Continuous
370
-3
390
13
347
21
  0
LAYER
  5
99
330
1
100
AcDbSymbolTableRecord
100
AcDbLayerTableRecord
  2
Novi1
 70
0
 62
30
  6
Continuous
370
-3
390
13
347
21
  0
LAYER
  5
9A
330
1
100
AcDbSymbolTableRecord
100
AcDbLayerTableRecord
  2
plavi
 70
0
 62
5
  6
Continuous
370
-3
390
13
347
21
  0
LAYER
  5
9B
330
1
100
AcDbSymbolTableRecord
100
AcDbLayerTableRecord
  2
Temelj
 70
0
 62
32
  6
Continuous
370
-3
390
13
347
21
  0
LAYER
  5
9C
330
1
100
AcDbSymbolTableRecord
100
AcDbLayerTableRecord
  2
Uzemljenje
 70
0
 62
2
  6
DASHED
370
-3
390
13
347
21
  0
LAYER
  5
9D
330
1
100
AcDbSymbolTableRecord
100
AcDbLayerTableRecord
  2
Ograda
 70
0
 62
8
  6
Continuous
370
-3
390
13
347
21
  0
LAYER
  5
9E
330
1
100
AcDbSymbolTableRecord
100
AcDbLayerTableRecord
  2
Agregat
 70
0
 62
30
  6
Continuous
370
-3
390
13
347
21
  0
LAYER
  5
9F
330
1
100
AcDbSymbolTableRecord
100
AcDbLayerTableRecord
  2
Ventilacija
 70
0
 62
4
  6
Continuous
370
-3
390
13
347
21
  0
LAYER
  5
A0
330
1
100
AcDbSymbolTableRecord
100
AcDbLayerTableRecord
  2
Sema
 70
0
 62
7
  6
Continuous
370
-3
390
13
347
21
  0
LAYER
  5
A1
330
1
100
AcDbSymbolTableRecord
100
AcDbLayerTableRecord
  2
Legenda
 70
0
 62
7
  6
Continuous
370
-3
390
13
347
21
  0
LAYER
  5
A2
330
1
100
AcDbSymbolTableRecord
100
AcDbLayerTableRecord
  2
Izvod
 70
0
 62
253
  6
Continuous
370
-3
390
13
347
21
  0
LAYER
  5
A3
330
1
100
AcDbSymbolTableRecord
100
AcDbLayerTableRecord
  2
Kota_tekst
 70
0
 62
7
  6
Continuous
370
-3
390
13
347
21
  0
LAYER
  5
A4
330
1
100
AcDbSymbolTableRecord
100
AcDbLayerTableRecord
  2
Sakriveno
 70
0
 62
15
  6
Continuous
370
-3
390
13
347
21
  0
ENDTAB
  0
TABLE
  2
STYLE
  5
5
330
0
100
AcDbSymbolTable
 70
29
  0
STYLE
  5
29
330
5
100
AcDbSymbolTableRecord
100
AcDbTextStyleTableRecord
  2
Standard
 70
0
 40
0.0
 41
1.0
 50
0.0
 71
0
 42
2.5
  3
times.ttf
  4

  0
STYLE
  5
41
330
5
100
AcDbSymbolTableRecord
100
AcDbTextStyleTableRecord
  2
OpenSans-Light
 70
0
 40
0.0
 41
1.0
 50
0.0
 71
0
 42
2.5
  3
OpenSans-Light.ttf
  4

  0
STYLE
  5
42
330
5
100
AcDbSymbolTableRecord
100
AcDbTextStyleTableRecord
  2
OpenSans-Light-Italic
 70
0
 40
0.0
 41
1.0
 50
0.0
 71
0
 42
2.5
  3
OpenSans-LightItalic.ttf
  4

  0
STYLE
  5
43
330
5
100
AcDbSymbolTableRecord
100
AcDbTextStyleTableRecord
  2
OpenSans
 70
0
 40
0.0
 41
1.0
 50
0.0
 71
0
 42
2.5
  3
OpenSans-Regular.ttf
  4

  0
STYLE
  5
44
330
5
100
AcDbSymbolTableRecord
100
AcDbTextStyleTableRecord
  2
OpenSans-Italic
 70
0
 40
0.0
 41
1.0
 50
0.0
 71
0
 42
2.5
  3
OpenSans-Italic.ttf
  4

  0
STYLE
  5
45
330
5
100
AcDbSymbolTableRecord
100
AcDbTextStyleTableRecord
  2
OpenSans-SemiBold
 70
0
 40
0.0
 41
1.0
 50
0.0
 71
0
 42
2.5
  3
OpenSans-SemiBold.ttf
  4

  0
STYLE
  5
46
330
5
100
AcDbSymbolTableRecord
100
AcDbTextStyleTableRecord
  2
OpenSans-SemiBoldItalic
 70
0
 40
0.0
 41
1.0
 50
0.0
 71
0
 42
2.5
  3
OpenSans-SemiBoldItalic.ttf
  4

  0
STYLE
  5
47
330
5
100
AcDbSymbolTableRecord
100
AcDbTextStyleTableRecord
  2
OpenSans-Bold
 70
0
 40
0.0
 41
1.0
 50
0.0
 71
0
 42
2.5
  3
OpenSans-Bold.ttf
  4

  0
STYLE
  5
48
330
5
100
AcDbSymbolTableRecord
100
AcDbTextStyleTableRecord
  2
OpenSans-BoldItalic
 70
0
 40
0.0
 41
1.0
 50
0.0
 71
0
 42
2.5
  3
OpenSans-BoldItalic.ttf
  4

  0
STYLE
  5
49
330
5
100
AcDbSymbolTableRecord
100
AcDbTextStyleTableRecord
  2
OpenSans-ExtraBold
 70
0
 40
0.0
 41
1.0
 50
0.0
 71
0
 42
2.5
  3
OpenSans-ExtraBold.ttf
  4

  0
STYLE
  5
4A
330
5
100
AcDbSymbolTableRecord
100
AcDbTextStyleTableRecord
  2
OpenSans-ExtraBoldItalic
 70
0
 40
0.0
 41
1.0
 50
0.0
 71
0
 42
2.5
  3
OpenSans-ExtraBoldItalic.ttf
  4

  0
STYLE
  5
4B
330
5
100
AcDbSymbolTableRecord
100
AcDbTextStyleTableRecord
  2
OpenSansCondensed-Bold
 70
0
 40
0.0
 41
1.0
 50
0.0
 71
0
 42
2.5
  3
OpenSansCondensed-Bold.ttf
  4

  0
STYLE
  5
4C
330
5
100
AcDbSymbolTableRecord
100
AcDbTextStyleTableRecord
  2
OpenSansCondensed-Light
 70
0
 40
0.0
 41
1.0
 50
0.0
 71
0
 42
2.5
  3
OpenSansCondensed-Light.ttf
  4

  0
STYLE
  5
4D
330
5
100
AcDbSymbolTableRecord
100
AcDbTextStyleTableRecord
  2
OpenSansCondensed-Italic
 70
0
 40
0.0
 41
1.0
 50
0.0
 71
0
 42
2.5
  3
OpenSansCondensed-LightItalic.ttf
  4

  0
STYLE
  5
4E
330
5
100
AcDbSymbolTableRecord
100
AcDbTextStyleTableRecord
  2
LiberationSans
 70
0
 40
0.0
 41
1.0
 50
0.0
 71
0
 42
2.5
  3
LiberationSans-Regular.ttf
  4

  0
STYLE
  5
4F
330
5
100
AcDbSymbolTableRecord
100
AcDbTextStyleTableRecord
  2
LiberationSans-Bold
 70
0
 40
0.0
 41
1.0
 50
0.0
 71
0
 42
2.5
  3
LiberationSans-Bold.ttf
  4

  0
STYLE
  5
50
330
5
100
AcDbSymbolTableRecord
100
AcDbTextStyleTableRecord
  2
LiberationSans-BoldItalic
 70
0
 40
0.0
 41
1.0
 50
0.0
 71
0
 42
2.5
  3
LiberationSans-BoldItalic.ttf
  4

  0
STYLE
  5
51
330
5
100
AcDbSymbolTableRecord
100
AcDbTextStyleTableRecord
  2
LiberationSans-Italic
 70
0
 40
0.0
 41
1.0
 50
0.0
 71
0
 42
2.5
  3
LiberationSans-Italic.ttf
  4

  0
STYLE
  5
52
330
5
100
AcDbSymbolTableRecord
100
AcDbTextStyleTableRecord
  2
LiberationSerif
 70
0
 40
0.0
 41
1.0
 50
0.0
 71
0
 42
2.5
  3
LiberationSerif-Regular.ttf
  4

  0
STYLE
  5
53
330
5
100
AcDbSymbolTableRecord
100
AcDbTextStyleTableRecord
  2
LiberationSerif-Bold
 70
0
 40
0.0
 41
1.0
 50
0.0
 71
0
 42
2.5
  3
LiberationSerif-Bold.ttf
  4

  0
STYLE
  5
54
330
5
100
AcDbSymbolTableRecord
100
AcDbTextStyleTableRecord
  2
LiberationSerif-BoldItalic
 70
0
 40
0.0
 41
1.0
 50
0.0
 71
0
 42
2.5
  3
LiberationSerif-BoldItalic.ttf
  4

  0
STYLE
  5
55
330
5
100
AcDbSymbolTableRecord
100
AcDbTextStyleTableRecord
  2
LiberationSerif-Italic
 70
0
 40
0.0
 41
1.0
 50
0.0
 71
0
 42
2.5
  3
LiberationSerif-Italic.ttf
  4

  0
STYLE
  5
56
330
5
100
AcDbSymbolTableRecord
100
AcDbTextStyleTableRecord
  2
LiberationMono
 70
0
 40
0.0
 41
1.0
 50
0.0
 71
0
 42
2.5
  3
LiberationMono-Regular.ttf
  4

  0
STYLE
  5
57
330
5
100
AcDbSymbolTableRecord
100
AcDbTextStyleTableRecord
  2
LiberationMono-Bold
 70
0
 40
0.0
 41
1.0
 50
0.0
 71
0
 42
2.5
  3
LiberationMono-Bold.ttf
  4

  0
STYLE
  5
58
330
5
100
AcDbSymbolTableRecord
100
AcDbTextStyleTableRecord
  2
LiberationMono-BoldItalic
 70
0
 40
0.0
 41
1.0
 50
0.0
 71
0
 42
2.5
  3
LiberationMono-BoldItalic.ttf
  4

  0
STYLE
  5
59
330
5
100
AcDbSymbolTableRecord
100
AcDbTextStyleTableRecord
  2
LiberationMono-Italic
 70
0
 40
0.0
 41
1.0
 50
0.0
 71
0
 42
2.5
  3
LiberationMono-Italic.ttf
  4

  0
STYLE
  5
8A
330
5
100
AcDbSymbolTableRecord
100
AcDbTextStyleTableRecord
  2
20
 70
0
 40
0.0
 41
1.0
 50
0.0
 71
0
 42
2.5
  3
arial.ttf
  4

  0
STYLE
  5
8B
330
5
100
AcDbSymbolTableRecord
100
AcDbTextStyleTableRecord
  2
50
 70
0
 40
0.0
 41
1.0
 50
0.0
 71
0
 42
2.5
  3
ARIALN.TTF
  4

  0
STYLE
  5
8C
330
5
100
AcDbSymbolTableRecord
100
AcDbTextStyleTableRecord
  2
RomanS
 70
0
 40
0.0
 41
1.0
 50
0.0
 71
0
 42
2.5
  3
arial.ttf
  4

  0
ENDTAB
  0
TABLE
  2
VIEW
  5
7
330
0
100
AcDbSymbolTable
 70
0
  0
ENDTAB
  0
TABLE
  2
UCS
  5
6
330
0
100
AcDbSymbolTable
 70
0
  0
ENDTAB
  0
TABLE
  2
APPID
  5
3
330
0
100
AcDbSymbolTable
 70
3
  0
APPID
  5
2A
330
3
100
AcDbSymbolTableRecord
100
AcDbRegAppTableRecord
  2
ACAD
 70
0
  0
APPID
  5
175
330
3
100
AcDbSymbolTableRecord
100
AcDbRegAppTableRecord
  2
HATCHBACKGROUNDCOLOR
 70
0
  0
APPID
  5
176
330
3
100
AcDbSymbolTableRecord
100
AcDbRegAppTableRecord
  2
EZDXF
 70
0
  0
ENDTAB
  0
TABLE
  2
DIMSTYLE
  5
4
330
0
100
AcDbSymbolTable
 70
17
100
AcDbDimStyleTable
  0
DIMSTYLE
105
2B
330
4
100
AcDbSymbolTableRecord
100
AcDbDimStyleTableRecord
  2
Standard
 70
0
 40
1.0
 41
2.5
 42
0.625
 43
3.75
 44
1.25
 45
0.0
 46
0.0
 47
0.0
 48
0.0
 49
2.5
140
2.5
141
2.5
142
0.0
143
0.03937007874
144
1.0
145
0.0
146
1.0
147
0.625
148
0.0
 69
0
 70
0
 71
0
 72
0
 73
0
 74
0
 75
0
 76
0
 77
1
 78
8
 79
3
170
0
171
3
172
1
173
0
174
0
175
0
176
0
177
0
178
0
179
2
271
2
272
2
273
2
274
3
275
0
276
0
277
2
278
44
279
0
280
0
281
0
282
0
283
0
284
8
285
0
286
0
288
0
289
3
290
0
371
-2
372
-2
  0
DIMSTYLE
105
73
330
4
100
AcDbSymbolTableRecord
100
AcDbDimStyleTableRecord
  2
EZDXF
 70
0
 40
1.0
 41
0.175
 42
0.125
 43
3.75
 44
0.375
 45
0.0
 46
0.0
 47
0.0
 48
0.0
 49
2.5
140
0.25
141
2.5
142
0.0
143
0.03937007874
144
100.0
145
0.0
146
0.5
147
0.1
148
0.0
 69
0
 70
0
 71
0
 72
0
 73
0
 74
0
 75
0
 76
0
 77
1
 78
12
 79
3
170
0
171
3
172
1
173
0
174
0
175
0
176
0
177
0
178
0
179
2
271
2
272
2
273
2
274
3
275
0
276
0
277
2
278
46
279
2
280
0
281
0
282
0
283
0
284
8
285
0
286
0
288
1
289
3
290
0
340
4C
342
74
371
-2
372
-2
  0
DIMSTYLE
105
7C
330
4
100
AcDbSymbolTableRecord
100
AcDbDimStyleTableRecord
  2
EZ_M_100_H25_CM
 70
0
 40
1.0
 41
0.25
 42
0.125
 43
3.75
 44
0.375
 45
0.0
 46
0.0
 47
0.0
 48
0.0
 49
2.5
140
0.25
141
2.5
142
0.125
143
0.03937007874
144
100.0
145
0.0
146
0.5
147
0.1
148
0.0
 69
0
 70
0
 71
0
 72
0
 73
0
 74
0
 75
0
 76
0
 77
1
 78
12
 79
3
170
0
171
3
172
1
173
0
174
0
175
0
176
0
177
0
178
0
179
2
271
2
272
2
273
2
274
3
275
0
276
0
277
2
278
46
279
2
280
0
281
0
282
0
283
0
284
8
285
0
286
0
288
1
289
3
290
0
340
4C
371
-2
372
-2
  0
DIMSTYLE
105
7D
330
4
100
AcDbSymbolTableRecord
100
AcDbDimStyleTableRecord
  2
EZ_M_50_H25_CM
 70
0
 40
1.0
 41
0.125
 42
0.0625
 43
3.75
 44
0.1875
 45
0.0
 46
0.0
 47
0.0
 48
0.0
 49
2.5
140
0.125
141
2.5
142
0.0625
143
0.03937007874
144
100.0
145
0.0
146
0.5
147
0.05
148
0.0
 69
0
 70
0
 71
0
 72
0
 73
0
 74
0
 75
0
 76
0
 77
1
 78
12
 79
3
170
0
171
3
172
1
173
0
174
0
175
0
176
0
177
0
178
0
179
2
271
2
272
2
273
2
274
3
275
0
276
0
277
2
278
46
279
2
280
0
281
0
282
0
283
0
284
8
285
0
286
0
288
1
289
3
290
0
340
4C
371
-2
372
-2
  0
DIMSTYLE
105
7E
330
4
100
AcDbSymbolTableRecord
100
AcDbDimStyleTableRecord
  2
EZ_M_25_H25_CM
 70
0
 40
1.0
 41
0.0625
 42
0.03125
 43
3.75
 44
0.09375
 45
0.0
 46
0.0
 47
0.0
 48
0.0
 49
2.5
140
0.0625
141
2.5
142
0.03125
143
0.03937007874
144
100.0
145
0.0
146
0.5
147
0.025
148
0.0
 69
0
 70
0
 71
0
 72
0
 73
0
 74
0
 75
0
 76
0
 77
1
 78
12
 79
3
170
0
171
3
172
1
173
0
174
0
175
0
176
0
177
0
178
0
179
2
271
2
272
2
273
2
274
3
275
0
276
0
277
2
278
46
279
2
280
0
281
0
282
0
283
0
284
8
285
0
286
0
288
1
289
3
290
0
340
4C
371
-2
372
-2
  0
DIMSTYLE
105
7F
330
4
100
AcDbSymbolTableRecord
100
AcDbDimStyleTableRecord
  2
EZ_M_20_H25_CM
 70
0
 40
1.0
 41
0.05
 42
0.025
 43
3.75
 44
0.07500000000000001
 45
0.0
 46
0.0
 47
0.0
 48
0.0
 49
2.5
140
0.05
141
2.5
142
0.025
143
0.03937007874
144
100.0
145
0.0
146
0.5
147
0.020000000000000004
148
0.0
 69
0
 70
0
 71
0
 72
0
 73
0
 74
0
 75
0
 76
0
 77
1
 78
12
 79
3
170
0
171
3
172
1
173
0
174
0
175
0
176
0
177
0
178
0
179
2
271
2
272
2
273
2
274
3
275
0
276
0
277
2
278
46
279
2
280
0
281
0
282
0
283
0
284
8
285
0
286
0
288
1
289
3
290
0
340
4C
371
-2
372
-2
  0
DIMSTYLE
105
80
330
4
100
AcDbSymbolTableRecord
100
AcDbDimStyleTableRecord
  2
EZ_M_10_H25_CM
 70
0
 40
1.0
 41
0.025
 42
0.0125
 43
3.75
 44
0.037500000000000006
 45
0.0
 46
0.0
 47
0.0
 48
0.0
 49
2.5
140
0.025
141
2.5
142
0.0125
143
0.03937007874
144
100.0
145
0.0
146
0.5
147
0.010000000000000002
148
0.0
 69
0
 70
0
 71
0
 72
0
 73
0
 74
0
 75
0
 76
0
 77
1
 78
12
 79
3
170
0
171
3
172
1
173
0
174
0
175
0
176
0
177
0
178
0
179
2
271
2
272
2
273
2
274
3
275
0
276
0
277
2
278
46
279
2
280
0
281
0
282
0
283
0
284
8
285
0
286
0
288
1
289
3
290
0
340
4C
371
-2
372
-2
  0
DIMSTYLE
105
81
330
4
100
AcDbSymbolTableRecord
100
AcDbDimStyleTableRecord
  2
EZ_M_5_H25_CM
 70
0
 40
1.0
 41
0.0125
 42
0.00625
 43
3.75
 44
0.018750000000000003
 45
0.0
 46
0.0
 47
0.0
 48
0.0
 49
2.5
140
0.0125
141
2.5
142
0.00625
143
0.03937007874
144
100.0
145
0.0
146
0.5
147
0.005000000000000001
148
0.0
 69
0
 70
0
 71
0
 72
0
 73
0
 74
0
 75
0
 76
0
 77
1
 78
12
 79
3
170
0
171
3
172
1
173
0
174
0
175
0
176
0
177
0
178
0
179
2
271
2
272
2
273
2
274
3
275
0
276
0
277
2
278
46
279
2
280
0
281
0
282
0
283
0
284
8
285
0
286
0
288
1
289
3
290
0
340
4C
371
-2
372
-2
  0
DIMSTYLE
105
82
330
4
100
AcDbSymbolTableRecord
100
AcDbDimStyleTableRecord
  2
EZ_M_1_H25_CM
 70
0
 40
1.0
 41
0.0025
 42
0.00125
 43
3.75
 44
0.00375
 45
0.0
 46
0.0
 47
0.0
 48
0.0
 49
2.5
140
0.0025
141
2.5
142
0.00125
143
0.03937007874
144
100.0
145
0.0
146
0.5
147
0.001
148
0.0
 69
0
 70
0
 71
0
 72
0
 73
0
 74
0
 75
0
 76
0
 77
1
 78
12
 79
3
170
0
171
3
172
1
173
0
174
0
175
0
176
0
177
0
178
0
179
2
271
2
272
2
273
2
274
3
275
0
276
0
277
2
278
46
279
2
280
0
281
0
282
0
283
0
284
8
285
0
286
0
288
1
289
3
290
0
340
4C
371
-2
372
-2
  0
DIMSTYLE
105
83
330
4
100
AcDbSymbolTableRecord
100
AcDbDimStyleTableRecord
  2
EZ_RADIUS
 70
0
 40
1.0
 41
0.25
 42
0.125
 43
3.75
 44
0.375
 45
0.0
 46
0.0
 47
0.0
 48
0.0
 49
2.5
140
0.25
141
0.0
142
0.0
143
0.03937007874
144
100.0
145
0.0
146
0.5
147
0.1
148
0.0
 69
0
 70
0
 71
0
 72
0
 73
0
 74
0
 75
0
 76
0
 77
1
 78
12
 79
3
170
0
171
3
172
0
173
0
174
0
175
0
176
0
177
0
178
0
179
2
271
2
272
2
273
2
274
3
275
0
276
0
277
2
278
46
279
1
280
0
281
0
282
0
283
0
284
8
285
0
286
0
288
1
289
3
290
0
340
4C
342
84
371
-2
372
-2
  0
DIMSTYLE
105
88
330
4
100
AcDbSymbolTableRecord
100
AcDbDimStyleTableRecord
  2
EZ_RADIUS_INSIDE
 70
0
 40
1.0
 41
0.25
 42
0.125
 43
3.75
 44
0.375
 45
0.0
 46
0.0
 47
0.0
 48
0.0
 49
2.5
140
0.25
141
0.0
142
0.0
143
0.03937007874
144
100.0
145
0.0
146
0.5
147
0.1
148
0.0
 69
0
 70
0
 71
0
 72
0
 73
0
 74
0
 75
0
 76
0
 77
0
 78
12
 79
3
170
0
171
3
172
0
173
0
174
1
175
0
176
0
177
0
178
0
179
2
271
2
272
2
273
2
274
3
275
0
276
0
277
2
278
46
279
0
280
0
281
0
282
0
283
0
284
8
285
0
286
0
288
1
289
0
290
0
340
4C
342
84
371
-2
372
-2
  0
DIMSTYLE
105
89
330
4
100
AcDbSymbolTableRecord
100
AcDbDimStyleTableRecord
  2
EZ_CURVED
 70
0
 40
1.0
 41
0.25
 42
0.125
 43
3.75
 44
0.375
 45
0.0
 46
0.0
 47
0.0
 48
0.0
 49
2.5
140
0.25
141
2.5
142
0.0
143
0.03937007874
144
100.0
145
0.0
146
0.5
147
0.1
148
0.0
 69
0
 70
0
 71
0
 72
0
 73
0
 74
0
 75
0
 76
0
 77
1
 78
12
 79
2
 90
2
170
0
171
3
172
1
173
0
174
0
175
0
176
0
177
0
178
0
179
2
271
2
272
2
273
2
274
3
275
0
276
0
277
2
278
46
279
2
280
0
281
0
282
0
283
0
284
8
285
0
286
0
288
1
289
3
290
0
340
4C
371
-2
372
-2
  0
DIMSTYLE
105
A5
330
4
100
AcDbSymbolTableRecord
100
AcDbDimStyleTableRecord
  2
M 20
 70
0
 40
20.0
 41
1.0
 42
0.0
 43
3.75
 44
2.0
 45
0.0
 46
0.0
 47
0.0
 48
0.0
 49
2.5
140
2.5
141
2.5
142
0.0
143
0.03937007874
144
1.0
145
0.0
146
1.0
147
0.625
148
0.0
 69
0
 70
0
 71
0
 72
0
 73
0
 74
0
 75
0
 76
0
 77
1
 78
8
 79
3
170
0
171
3
172
1
173
0
174
0
175
0
176
0
177
0
178
0
179
2
271
0
272
2
273
2
274
3
275
0
276
0
277
2
278
44
279
0
280
0
281
0
282
0
283
0
284
8
285
0
286
0
288
0
289
3
290
0
340
29
342
74
371
-2
372
-2
  0
DIMSTYLE
105
A6
330
4
100
AcDbSymbolTableRecord
100
AcDbDimStyleTableRecord
  2
M 30
 70
0
 40
30.0
 41
1.0
 42
0.0
 43
3.75
 44
2.0
 45
0.0
 46
0.0
 47
0.0
 48
0.0
 49
2.5
140
2.5
141
2.5
142
0.0
143
0.03937007874
144
1.0
145
0.0
146
1.0
147
0.625
148
0.0
 69
0
 70
0
 71
0
 72
0
 73
0
 74
0
 75
0
 76
0
 77
1
 78
8
 79
3
170
0
171
3
172
1
173
0
174
0
175
0
176
0
177
0
178
0
179
2
271
0
272
2
273
2
274
3
275
0
276
0
277
2
278
44
279
0
280
0
281
0
282
0
283
0
284
8
285
0
286
0
288
0
289
3
290
0
340
29
342
74
371
-2
372
-2
  0
DIMSTYLE
105
A7
330
4
100
AcDbSymbolTableRecord
100
AcDbDimStyleTableRecord
  2
M 50
 70
0
 40
50.0
 41
1.0
 42
0.0
 43
3.75
 44
2.0
 45
0.0
 46
0.0
 47
0.0
 48
0.0
 49
2.5
140
2.5
141
2.5
142
0.0
143
0.03937007874
144
1.0
145
0.0
146
1.0
147
0.625
148
0.0
 69
0
 70
0
 71
0
 72
0
 73
0
 74
0
 75
0
 76
0
 77
1
 78
8
 79
3
170
0
171
3
172
1
173
0
174
0
175
0
176
0
177
0
178
0
179
2
271
0
272
2
273
2
274
3
275
0
276
0
277
2
278
44
279
0
280
0
281
0
282
0
283
0
284
8
285
0
286
0
288
0
289
3
290
0
340
29
342
74
371
-2
372
-2
  0
DIMSTYLE
105
A8
330
4
100
AcDbSymbolTableRecord
100
AcDbDimStyleTableRecord
  2
M 100
 70
0
 40
100.0
 41
1.0
 42
0.0
 43
3.75
 44
2.0
 45
0.0
 46
0.0
 47
0.0
 48
0.0
 49
2.5
140
2.5
141
2.5
142
0.0
143
0.03937007874
144
1.0
145
0.0
146
1.0
147
0.625
148
0.0
 69
0
 70
0
 71
0
 72
0
 73
0
 74
0
 75
0
 76
0
 77
1
 78
8
 79
3
170
0
171
3
172
1
173
0
174
0
175
0
176
0
177
0
178
0
179
2
271
0
272
2
273
2
274
3
275
0
276
0
277
2
278
44
279
0
280
0
281
0
282
0
283
0
284
8
285
0
286
0
288
0
289
3
290
0
340
29
342
74
371
-2
372
-2
  0
DIMSTYLE
105
A9
330
4
100
AcDbSymbolTableRecord
100
AcDbDimStyleTableRecord
  2
M 200
 70
0
 40
200.0
 41
1.0
 42
0.0
 43
3.75
 44
2.0
 45
0.0
 46
0.0
 47
0.0
 48
0.0
 49
2.5
140
2.5
141
2.5
142
0.0
143
0.03937007874
144
1.0
145
0.0
146
1.0
147
0.625
148
0.0
 69
0
 70
0
 71
0
 72
0
 73
0
 74
0
 75
0
 76
0
 77
1
 78
8
 79
3
170
0
171
3
172
1
173
0
174
0
175
0
176
0
177
0
178
0
179
2
271
0
272
2
273
2
274
3
275
0
276
0
277
2
278
44
279
0
280
0
281
0
282
0
283
0
284
8
285
0
286
0
288
0
289
3
290
0
340
29
342
74
371
-2
372
-2
  0
ENDTAB
  0
TABLE
  2
BLOCK_RECORD
  5
9
330
0
100
AcDbSymbolTable
 70
9
  0
BLOCK_RECORD
  5
17
330
9
100
AcDbSymbolTableRecord
100
AcDbBlockTableRecord
  2
*Model_Space
340
1A
 70
0
280
1
281
0
  0
BLOCK_RECORD
  5
1B
330
9
100
AcDbSymbolTableRecord
100
AcDbBlockTableRecord
  2
*Paper_Space
340
1E
 70
0
280
1
281
0
  0
BLOCK_RECORD
  5
74
330
9
100
AcDbSymbolTableRecord
100
AcDbBlockTableRecord
  2
_ARCHTICK
340
0
 70
0
280
1
281
0
  0
BLOCK_RECORD
  5
78
330
9
100
AcDbSymbolTableRecord
100
AcDbBlockTableRecord
  2
_CLOSEDFILLED
340
0
 70
0
280
1
281
0
  0
BLOCK_RECORD
  5
84
330
9
100
AcDbSymbolTableRecord
100
AcDbBlockTableRecord
  2
_CLOSEDBLANK
340
0
 70
0
280
1
281
0
  0
BLOCK_RECORD
  5
FB
330
9
100
AcDbSymbolTableRecord
100
AcDbBlockTableRecord
  2
*D1
340
0
 70
0
280
1
281
0
  0
BLOCK_RECORD
  5
10B
330
9
100
AcDbSymbolTableRecord
100
AcDbBlockTableRecord
  2
*D2
340
0
 70
0
280
1
281
0
  0
BLOCK_RECORD
  5
11B
330
9
100
AcDbSymbolTableRecord
100
AcDbBlockTableRecord
  2
*D3
340
0
 70
0
280
1
281
0
  0
BLOCK_RECORD
  5
159
330
9
100
AcDbSymbolTableRecord
100
AcDbBlockTableRecord
  2
*D4
340
0
 70
0
280
1
281
0
  0
ENDTAB
  0
ENDSEC
  0
SECTION
  2
BLOCKS
  0
BLOCK
  5
18
330
17
100
AcDbEntity
  8
0
100
AcDbBlockBegin
  2
*Model_Space
 70
0
 10
0.0
 20
0.0
 30
0.0
  3
*Model_Space
  1

  0
ENDBLK
  5
19
330
17
100
AcDbEntity
  8
0
100
AcDbBlockEnd
  0
BLOCK
  5
1C
330
1B
100
AcDbEntity
  8
0
100
AcDbBlockBegin
  2
*Paper_Space
 70
0
 10
0.0
 20
0.0
 30
0.0
  3
*Paper_Space
  1

  0
ENDBLK
  5
1D
330
1B
100
AcDbEntity
  8
0
100
AcDbBlockEnd
  0
BLOCK
  5
75
330
74
100
AcDbEntity
  8
0
100
AcDbBlockBegin
  2
_ARCHTICK
 70
0
 10
0.0
 20
0.0
 30
0.0
  3
_ARCHTICK
  1

  0
LWPOLYLINE
  5
77
330
74
100
AcDbEntity
  8
0
  6
BYBLOCK
 62
0
100
AcDbPolyline
 90
2
 70
0
 43
0.15
 10
-0.5
 20
-0.5
 10
0.5
 20
0.5
  0
ENDBLK
  5
76
330
74
100
AcDbEntity
  8
0
100
AcDbBlockEnd
  0
BLOCK
  5
79
330
78
100
AcDbEntity
  8
0
100
AcDbBlockBegin
  2
_CLOSEDFILLED
 70
0
 10
0.0
 20
0.0
 30
0.0
  3
_CLOSEDFILLED
  1

  0
SOLID
  5
7B
330
78
100
AcDbEntity
  8
0
  6
BYBLOCK
 62
0
100
AcDbTrace
 10
-1.0
 20
0.16439898372402537
 30
0.0
 11
0.0
 21
0.0
 31
0.0
 12
-1.0
 22
-0.16439898372402537
 32
0.0
 13
-1.0
 23
-0.16439898372402537
 33
0.0
  0
ENDBLK
  5
7A
330
78
100
AcDbEntity
  8
0
100
AcDbBlockEnd
  0
BLOCK
  5
85
330
84
100
AcDbEntity
  8
0
100
AcDbBlockBegin
  2
_CLOSEDBLANK
 70
0
 10
0.0
 20
0.0
 30
0.0
  3
_CLOSEDBLANK
  1

  0
LWPOLYLINE
  5
87
330
84
100
AcDbEntity
  8
0
  6
BYBLOCK
 62
0
100
AcDbPolyline
 90
3
 70
1
 10
-1.0
 20
0.16439898372402537
 10
0.0
 20
0.0
 10
-1.0
 20
-0.16439898372402537
  0
ENDBLK
  5
86
330
84
100
AcDbEntity
  8
0
100
AcDbBlockEnd
  0
BLOCK
  5
FC
330
FB
100
AcDbEntity
  8
0
100
AcDbBlockBegin
  2
*D1
 70
1
 10
0.0
 20
0.0
 30
0.0
  3
*D1
  1

  0
LINE
  5
FE
330
FB
100
AcDbEntity
  8
0
100
AcDbLine
 10
1900.0
 20
4300.0
 30
0.0
 11
1900.0
 21
3500.0
 31
0.0
  0
LINE
  5
FF
330
FB
100
AcDbEntity
  8
0
100
AcDbLine
 10
4905.0
 20
4300.0
 30
0.0
 11
4905.0
 21
3500.0
 31
0.0
  0
INSERT
  5
100
330
FB
100
AcDbEntity
  8
Kote
100
AcDbBlockReference
  2
_CLOSEDFILLED
 10
1900.0
 20
3500.0
 30
0.0
 41
0.25
 42
0.25
 50
180.0
  0
INSERT
  5
102
330
FB
100
AcDbEntity
  8
Kote
100
AcDbBlockReference
  2
_CLOSEDFILLED
 10
4905.0
 20
3500.0
 30
0.0
 41
0.25
 42
0.25
  0
LINE
  5
104
330
FB
100
AcDbEntity
  8
0
100
AcDbLine
 10
1900.25
 20
3500.0
 30
0.0
 11
3400.5
 21
3500.0
 31
0.0
  0
LINE
  5
105
330
FB
100
AcDbEntity
  8
0
100
AcDbLine
 10
3404.5
 20
3500.0
 30
0.0
 11
4904.75
 21
3500.0
 31
0.0
  0
MTEXT
  5
106
330
FB
100
AcDbEntity
  8
Kote
100
AcDbMText
 10
3402.5
 20
3500.0
 30
0.0
 40
1.0
 71
5
  1
3005
  7
OpenSansCondensed-Light
  0
POINT
  5
107
330
FB
100
AcDbEntity
  8
Defpoints
100
AcDbPoint
 10
1900.0
 20
3500.0
 30
0.0
  0
POINT
  5
108
330
FB
100
AcDbEntity
  8
Defpoints
100
AcDbPoint
 10
1900.0
 20
4300.0
 30
0.0
  0
POINT
  5
109
330
FB
100
AcDbEntity
  8
Defpoints
100
AcDbPoint
 10
4905.0
 20
4300.0
 30
0.0
  0
ENDBLK
  5
FD
330
FB
100
AcDbEntity
  8
0
100
AcDbBlockEnd
  0
BLOCK
  5
10C
330
10B
100
AcDbEntity
  8
0
100
AcDbBlockBegin
  2
*D2
 70
1
 10
0.0
 20
0.0
 30
0.0
  3
*D2
  1

  0
LINE
  5
10E
330
10B
100
AcDbEntity
  8
0
100
AcDbLine
 10
1900.0
 20
4300.0
 30
0.0
 11
1100.0
 21
4300.0
 31
0.0
  0
LINE
  5
10F
330
10B
100
AcDbEntity
  8
0
100
AcDbLine
 10
1900.0
 20
6600.0
 30
0.0
 11
1100.0
 21
6600.0
 31
0.0
  0
INSERT
  5
110
330
10B
100
AcDbEntity
  8
Kote
100
AcDbBlockReference
  2
_CLOSEDFILLED
 10
1100.0
 20
4300.0
 30
0.0
 41
0.25
 42
0.25
 50
270.0
  0
INSERT
  5
112
330
10B
100
AcDbEntity
  8
Kote
100
AcDbBlockReference
  2
_CLOSEDFILLED
 10
1100.0
 20
6600.0
 30
0.0
 41
0.25
 42
0.25
 50
90.0
  0
LINE
  5
114
330
10B
100
AcDbEntity
  8
0
100
AcDbLine
 10
1100.0
 20
4300.25
 30
0.0
 11
1100.0
 21
5448.0
 31
0.0
  0
LINE
  5
115
330
10B
100
AcDbEntity
  8
0
100
AcDbLine
 10
1100.0
 20
5452.0
 30
0.0
 11
1100.0
 21
6599.75
 31
0.0
  0
MTEXT
  5
116
330
10B
100
AcDbEntity
  8
Kote
100
AcDbMText
 10
1100.0
 20
5450.0
 30
0.0
 40
1.0
 71
5
  1
2300
  7
OpenSansCondensed-Light
 50
90.0
  0
POINT
  5
117
330
10B
100
AcDbEntity
  8
Defpoints
100
AcDbPoint
 10
1100.0
 20
4300.0
 30
0.0
  0
POINT
  5
118
330
10B
100
AcDbEntity
  8
Defpoints
100
AcDbPoint
 10
1900.0
 20
4300.0
 30
0.0
  0
POINT
  5
119
330
10B
100
AcDbEntity
  8
Defpoints
100
AcDbPoint
 10
1900.0
 20
6600.0
 30
0.0
  0
ENDBLK
  5
10D
330
10B
100
AcDbEntity
  8
0
100
AcDbBlockEnd
  0
BLOCK
  5
11C
330
11B
100
AcDbEntity
  8
0
100
AcDbBlockBegin
  2
*D3
 70
1
 10
0.0
 20
0.0
 30
0.0
  3
*D3
  1

  0
LINE
  5
11E
330
11B
100
AcDbEntity
  8
0
100
AcDbLine
 10
4050.0
 20
6600.0
 30
0.0
 11
4050.0
 21
6950.0
 31
0.0
  0
LINE
  5
11F
330
11B
100
AcDbEntity
  8
0
100
AcDbLine
 10
4550.0
 20
6600.0
 30
0.0
 11
4550.0
 21
6950.0
 31
0.0
  0
INSERT
  5
120
330
11B
100
AcDbEntity
  8
Kote
100
AcDbBlockReference
  2
_CLOSEDFILLED
 10
4050.0
 20
6950.0
 30
0.0
 41
0.25
 42
0.25
 50
180.0
  0
INSERT
  5
122
330
11B
100
AcDbEntity
  8
Kote
100
AcDbBlockReference
  2
_CLOSEDFILLED
 10
4550.0
 20
6950.0
 30
0.0
 41
0.25
 42
0.25
  0
LINE
  5
124
330
11B
100
AcDbEntity
  8
0
100
AcDbLine
 10
4050.25
 20
6950.0
 30
0.0
 11
4298.5
 21
6950.0
 31
0.0
  0
LINE
  5
125
330
11B
100
AcDbEntity
  8
0
100
AcDbLine
 10
4301.5
 20
6950.0
 30
0.0
 11
4549.75
 21
6950.0
 31
0.0
  0
MTEXT
  5
126
330
11B
100
AcDbEntity
  8
Kote
100
AcDbMText
 10
4300.0
 20
6950.0
 30
0.0
 40
1.0
 71
5
  1
500
  7
OpenSansCondensed-Light
  0
POINT
  5
127
330
11B
100
AcDbEntity
  8
Defpoints
100
AcDbPoint
 10
4050.0
 20
6950.0
 30
0.0
  0
POINT
  5
128
330
11B
100
AcDbEntity
  8
Defpoints
100
AcDbPoint
 10
4050.0
 20
6600.0
 30
0.0
  0
POINT
  5
129
330
11B
100
AcDbEntity
  8
Defpoints
100
AcDbPoint
 10
4550.0
 20
6600.0
 30
0.0
  0
ENDBLK
  5
11D
330
11B
100
AcDbEntity
  8
0
100
AcDbBlockEnd
  0
BLOCK
  5
15A
330
159
100
AcDbEntity
  8
0
100
AcDbBlockBegin
  2
*D4
 70
1
 10
0.0
 20
0.0
 30
0.0
  3
*D4
  1

  0
LINE
  5
15C
330
159
100
AcDbEntity
  8
0
100
AcDbLine
 10
6600.0
 20
4000.0
 30
0.0
 11
5900.0
 21
4000.0
 31
0.0
  0
LINE
  5
15D
330
159
100
AcDbEntity
  8
0
100
AcDbLine
 10
6600.0
 20
6630.0
 30
0.0
 11
5900.0
 21
6630.0
 31
0.0
  0
INSERT
  5
15E
330
159
100
AcDbEntity
  8
Kote
100
AcDbBlockReference
  2
_CLOSEDFILLED
 10
5900.0
 20
4000.0
 30
0.0
 41
0.25
 42
0.25
 50
270.0
  0
INSERT
  5
160
330
159
100
AcDbEntity
  8
Kote
100
AcDbBlockReference
  2
_CLOSEDFILLED
 10
5900.0
 20
6630.0
 30
0.0
 41
0.25
 42
0.25
 50
90.0
  0
LINE
  5
162
330
159
100
AcDbEntity
  8
0
100
AcDbLine
 10
5900.0
 20
4000.25
 30
0.0
 11
5900.0
 21
5313.0
 31
0.0
  0
LINE
  5
163
330
159
100
AcDbEntity
  8
0
100
AcDbLine
 10
5900.0
 20
5317.0
 30
0.0
 11
5900.0
 21
6629.75
 31
0.0
  0
MTEXT
  5
164
330
159
100
AcDbEntity
  8
Kote
100
AcDbMText
 10
5900.0
 20
5315.0
 30
0.0
 40
1.0
 71
5
  1
2630
  7
OpenSansCondensed-Light
 50
90.0
  0
POINT
  5
165
330
159
100
AcDbEntity
  8
Defpoints
100
AcDbPoint
 10
5900.0
 20
4000.0
 30
0.0
  0
POINT
  5
166
330
159
100
AcDbEntity
  8
Defpoints
100
AcDbPoint
 10
6600.0
 20
4000.0
 30
0.0
  0
POINT
  5
167
330
159
100
AcDbEntity
  8
Defpoints
100
AcDbPoint
 10
6600.0
 20
6630.0
 30
0.0
  0
ENDBLK
  5
15B
330
159
100
AcDbEntity
  8
0
100
AcDbBlockEnd
  0
ENDSEC
  0
SECTION
  2
ENTITIES
  0
LWPOLYLINE
  5
AA
330
17
100
AcDbEntity
  8
Okvir
 62
8
100
AcDbPolyline
 90
4
 70
1
 10
0.0
 20
0.0
 10
10500.0
 20
0.0
 10
10500.0
 20
7425.0
 10
0.0
 20
7425.0
  0
LWPOLYLINE
  5
AB
330
17
100
AcDbEntity
  8
Okvir
370
50
100
AcDbPolyline
 90
4
 70
1
 10
500.0
 20
250.0
 10
10250.0
 20
250.0
 10
10250.0
 20
7175.0
 10
500.0
 20
7175.0
  0
LWPOLYLINE
  5
AC
330
17
100
AcDbEntity
  8
Okvir
370
50
100
AcDbPolyline
 90
4
 70
1
 10
5750.0
 20
250.0
 10
10250.0
 20
250.0
 10
10250.0
 20
1450.0
 10
5750.0
 20
1450.0
  0
LINE
  5
AD
330
17
100
AcDbEntity
  8
Okvir
100
AcDbLine
 10
5750.0
 20
400.0
 30
0.0
 11
10250.0
 21
400.0
 31
0.0
  0
LINE
  5
AE
330
17
100
AcDbEntity
  8
Okvir
100
AcDbLine
 10
5750.0
 20
600.0
 30
0.0
 11
10250.0
 21
600.0
 31
0.0
  0
LINE
  5
AF
330
17
100
AcDbEntity
  8
Okvir
100
AcDbLine
 10
5750.0
 20
800.0
 30
0.0
 11
10250.0
 21
800.0
 31
0.0
  0
LINE
  5
B0
330
17
100
AcDbEntity
  8
Okvir
100
AcDbLine
 10
5750.0
 20
1000.0
 30
0.0
 11
10250.0
 21
1000.0
 31
0.0
  0
LINE
  5
B1
330
17
100
AcDbEntity
  8
Okvir
100
AcDbLine
 10
5750.0
 20
1200.0
 30
0.0
 11
10250.0
 21
1200.0
 31
0.0
  0
LINE
  5
B2
330
17
100
AcDbEntity
  8
Okvir
100
AcDbLine
 10
8700.0
 20
400.0
 30
0.0
 11
8700.0
 21
800.0
 31
0.0
  0
LINE
  5
B3
330
17
100
AcDbEntity
  8
Okvir
100
AcDbLine
 10
7300.0
 20
250.0
 30
0.0
 11
7300.0
 21
400.0
 31
0.0
  0
LINE
  5
B4
330
17
100
AcDbEntity
  8
Okvir
100
AcDbLine
 10
8700.0
 20
250.0
 30
0.0
 11
8700.0
 21
400.0
 31
0.0
  0
HATCH
  5
B5
330
17
100
AcDbEntity
  8
Okvir
 62
30
100
AcDbHatch
 10
0.0
 20
0.0
 30
0.0
210
0.0
220
0.0
230
1.0
  2
SOLID
 70
1
 71
0
 91
1
 92
3
 72
0
 73
1
 93
53
 10
5861.670169145524
 20
1210.000015013333
 10
6488.329396279609
 20
1210.000015013333
 10
6491.597458466069
 20
1210.2409179855285
 10
6494.735486637484
 20
1210.9423474884732
 10
6497.71409950634
 20
1212.0723844016973
 10
6500.50391578512
 20
1213.5991096047348
 10
6503.075554186306
 20
1215.4906039771192
 10
6505.399633422386
 20
1217.714948398385
 10
6507.446772205843
 20
1220.2402237480637
 10
6509.187589249161
 20
1223.0345109056882
 10
6510.592703264825
 20
1226.065890750793
 10
6511.632732965318
 20
1229.3024441629104
 10
6512.278297063126
 20
1232.7122520215735
 10
6512.500014270732
 20
1236.263395206316
 10
6512.500014270732
 20
1512.011433002427
 10
6512.278297063125
 20
1515.5625761871693
 10
6511.632732965319
 20
1518.9723840458328
 10
6510.592703264825
 20
1522.20893745795
 10
6509.187589249162
 20
1525.2403173030552
 10
6507.4467722058425
 20
1528.0346044606786
 10
6505.399633422386
 20
1530.5598798103574
 10
6503.075554186306
 20
1532.7842242316235
 10
6500.503915785119
 20
1534.6757186040081
 10
6497.71409950634
 20
1536.2024438070462
 10
6494.735486637484
 20
1537.3324807202705
 10
6491.597458466069
 20
1538.033910223214
 10
6488.329396279609
 20
1538.27481319541
 10
5861.670169145524
 20
1538.27481319541
 10
5858.401932214745
 20
1538.033885223665
 10
5855.263808085467
 20
1537.3323898128215
 10
5852.2851659242115
 20
1536.2022597194618
 10
5849.495374897501
 20
1534.675427700171
 10
5846.923804171859
 20
1532.7838265115336
 10
5844.599822913808
 20
1530.559388910133
 10
5842.552800289869
 20
1528.0340476525548
 10
5840.812105466565
 20
1525.2397354953803
 10
5839.40710761042
 20
1522.2083851951975
 10
5838.367175887955
 20
1518.971929508588
 10
5837.721679465693
 20
1515.5623011921361
 10
5837.499987510156
 20
1512.011433002427
 10
5837.499987510156
 20
1236.263395206316
 10
5837.721654466144
 20
1232.7125270166066
 10
5838.367084980507
 20
1229.3028987001555
 10
5839.406923522836
 20
1226.0664430135462
 10
5840.811814562729
 20
1223.035092713362
 10
5842.55240256978
 20
1220.2407805561877
 10
5844.599332013583
 20
1217.7154392986095
 10
5846.923247363734
 20
1215.4910016972096
 10
5849.494793089828
 20
1213.5994005085715
 10
5852.284613661458
 20
1212.0725684892818
 10
5855.263353548222
 20
1210.9424383959222
 10
5858.4016572197115
 20
1210.2409429850777
 10
5861.670169145524
 20
1210.000015013333
 97
0
 75
0
 76
1
 98
0
  0
LWPOLYLINE
  5
B6
330
17
100
AcDbEntity
  8
Okvir
 62
30
100
AcDbPolyline
 90
53
 70
1
 10
5861.670169145524
 20
1210.000015013333
 10
6488.329396279609
 20
1210.000015013333
 10
6491.597458466069
 20
1210.2409179855285
 10
6494.735486637484
 20
1210.9423474884732
 10
6497.71409950634
 20
1212.0723844016973
 10
6500.50391578512
 20
1213.5991096047348
 10
6503.075554186306
 20
1215.4906039771192
 10
6505.399633422386
 20
1217.714948398385
 10
6507.446772205843
 20
1220.2402237480637
 10
6509.187589249161
 20
1223.0345109056882
 10
6510.592703264825
 20
1226.065890750793
 10
6511.632732965318
 20
1229.3024441629104
 10
6512.278297063126
 20
1232.7122520215735
 10
6512.500014270732
 20
1236.263395206316
 10
6512.500014270732
 20
1512.011433002427
 10
6512.278297063125
 20
1515.5625761871693
 10
6511.632732965319
 20
1518.9723840458328
 10
6510.592703264825
 20
1522.20893745795
 10
6509.187589249162
 20
1525.2403173030552
 10
6507.4467722058425
 20
1528.0346044606786
 10
6505.399633422386
 20
1530.5598798103574
 10
6503.075554186306
 20
1532.7842242316235
 10
6500.503915785119
 20
1534.6757186040081
 10
6497.71409950634
 20
1536.2024438070462
 10
6494.735486637484
 20
1537.3324807202705
 10
6491.597458466069
 20
1538.033910223214
 10
6488.329396279609
 20
1538.27481319541
 10
5861.670169145524
 20
1538.27481319541
 10
5858.401932214745
 20
1538.033885223665
 10
5855.263808085467
 20
1537.3323898128215
 10
5852.2851659242115
 20
1536.2022597194618
 10
5849.495374897501
 20
1534.675427700171
 10
5846.923804171859
 20
1532.7838265115336
 10
5844.599822913808
 20
1530.559388910133
 10
5842.552800289869
 20
1528.0340476525548
 10
5840.812105466565
 20
1525.2397354953803
 10
5839.40710761042
 20
1522.2083851951975
 10
5838.367175887955
 20
1518.971929508588
 10
5837.721679465693
 20
1515.5623011921361
 10
5837.499987510156
 20
1512.011433002427
 10
5837.499987510156
 20
1236.263395206316
 10
5837.721654466144
 20
1232.7125270166066
 10
5838.367084980507
 20
1229.3028987001555
 10
5839.406923522836
 20
1226.0664430135462
 10
5840.811814562729
 20
1223.035092713362
 10
5842.55240256978
 20
1220.2407805561877
 10
5844.599332013583
 20
1217.7154392986095
 10
5846.923247363734
 20
1215.4910016972096
 10
5849.494793089828
 20
1213.5994005085715
 10
5852.284613661458
 20
1212.0725684892818
 10
5855.263353548222
 20
1210.9424383959222
 10
5858.4016572197115
 20
1210.2409429850777
 10
5861.670169145524
 20
1210.000015013333
  0
HATCH
  5
B7
330
17
100
AcDbEntity
  8
Okvir
 62
7
100
AcDbHatch
 10
0.0
 20
0.0
 30
0.0
210
0.0
220
0.0
230
1.0
  2
SOLID
 70
1
 71
0
 91
1
 92
3
 72
0
 73
1
 93
49
 10
6246.663361097858
 20
1458.1337151984135
 10
6251.628722931801
 20
1457.7861341024645
 10
6256.166874299931
 20
1456.7744953033346
 10
6260.249106629853
 20
1455.145455534096
 10
6263.846711349173
 20
1452.9456715278222
 10
6266.9309798855
 20
1450.2218000175856
 10
6269.473203666441
 20
1447.0204977364626
 10
6271.444674119602
 20
1443.3884214175234
 10
6272.816682672589
 20
1439.372227793842
 10
6273.56052075301
 20
1435.0185735984926
 10
6273.647479788472
 20
1430.3741155645484
 10
6273.048851206581
 20
1425.485510425082
 10
6271.735926434945
 20
1420.3994149131674
 10
6269.73726909908
 20
1415.3189033913075
 10
6267.142789191249
 20
1410.4447684450354
 10
6264.013506821469
 20
1405.8218804760515
 10
6260.410442099753
 20
1401.4951098860577
 10
6256.394615136115
 20
1397.509327076751
 10
6252.027046040574
 20
1393.909402449836
 10
6247.36875492314
 20
1390.7402064070122
 10
6242.48076189383
 20
1388.0466093499786
 10
6237.424087062659
 20
1385.8734816804363
 10
6232.259750539642
 20
1384.2656938000869
 10
6227.048772434793
 20
1383.2681161106298
 10
6221.852172858126
 20
1382.9256190137664
 10
6216.882154542628
 20
1383.2681161106293
 10
6212.3311892645215
 20
1384.2656938000869
 10
6208.230700698676
 20
1385.873481680436
 10
6204.612112519961
 20
1388.0466093499786
 10
6201.506848403246
 20
1390.7402064070113
 10
6198.946332023403
 20
1393.9094024498365
 10
6196.961987055299
 20
1397.5093270767516
 10
6195.585237173805
 20
1401.4951098860568
 10
6194.84750605379
 20
1405.8218804760515
 10
6194.780217370126
 20
1410.4447684450354
 10
6195.414794797682
 20
1415.318903391308
 10
6196.782662011326
 20
1420.3994149131674
 10
6198.780642591737
 20
1425.4855104250817
 10
6201.3746033170255
 20
1430.3741155645484
 10
6204.503499835189
 20
1435.0185735984926
 10
6208.106287794228
 20
1439.3722277938427
 10
6212.121922842138
 20
1443.3884214175223
 10
6216.489360626922
 20
1447.0204977364626
 10
6221.1475567965745
 20
1450.2218000175867
 10
6226.0354669990975
 20
1452.9456715278216
 10
6231.092046882488
 20
1455.1454555340956
 10
6236.256252094746
 20
1456.7744953033346
 10
6241.46703828387
 20
1457.7861341024645
 10
6246.663361097858
 20
1458.1337151984135
 97
0
 75
0
 76
1
 98
0
  0
LWPOLYLINE
  5
B8
330
17
100
AcDbEntity
  8
Okvir
 62
7
100
AcDbPolyline
 90
49
 70
1
 10
6246.663361097858
 20
1458.1337151984135
 10
6251.628722931801
 20
1457.7861341024645
 10
6256.166874299931
 20
1456.7744953033346
 10
6260.249106629853
 20
1455.145455534096
 10
6263.846711349173
 20
1452.9456715278222
 10
6266.9309798855
 20
1450.2218000175856
 10
6269.473203666441
 20
1447.0204977364626
 10
6271.444674119602
 20
1443.3884214175234
 10
6272.816682672589
 20
1439.372227793842
 10
6273.56052075301
 20
1435.0185735984926
 10
6273.647479788472
 20
1430.3741155645484
 10
6273.048851206581
 20
1425.485510425082
 10
6271.735926434945
 20
1420.3994149131674
 10
6269.73726909908
 20
1415.3189033913075
 10
6267.142789191249
 20
1410.4447684450354
 10
6264.013506821469
 20
1405.8218804760515
 10
6260.410442099753
 20
1401.4951098860577
 10
6256.394615136115
 20
1397.509327076751
 10
6252.027046040574
 20
1393.909402449836
 10
6247.36875492314
 20
1390.7402064070122
 10
6242.48076189383
 20
1388.0466093499786
 10
6237.424087062659
 20
1385.8734816804363
 10
6232.259750539642
 20
1384.2656938000869
 10
6227.048772434793
 20
1383.2681161106298
 10
6221.852172858126
 20
1382.9256190137664
 10
6216.882154542628
 20
1383.2681161106293
 10
6212.3311892645215
 20
1384.2656938000869
 10
6208.230700698676
 20
1385.873481680436
 10
6204.612112519961
 20
1388.0466093499786
 10
6201.506848403246
 20
1390.7402064070113
 10
6198.946332023403
 20
1393.9094024498365
 10
6196.961987055299
 20
1397.5093270767516
 10
6195.585237173805
 20
1401.4951098860568
 10
6194.84750605379
 20
1405.8218804760515
 10
6194.780217370126
 20
1410.4447684450354
 10
6195.414794797682
 20
1415.318903391308
 10
6196.782662011326
 20
1420.3994149131674
 10
6198.780642591737
 20
1425.4855104250817
 10
6201.3746033170255
 20
1430.3741155645484
 10
6204.503499835189
 20
1435.0185735984926
 10
6208.106287794228
 20
1439.3722277938427
 10
6212.121922842138
 20
1443.3884214175223
 10
6216.489360626922
 20
1447.0204977364626
 10
6221.1475567965745
 20
1450.2218000175867
 10
6226.0354669990975
 20
1452.9456715278216
 10
6231.092046882488
 20
1455.1454555340956
 10
6236.256252094746
 20
1456.7744953033346
 10
6241.46703828387
 20
1457.7861341024645
 10
6246.663361097858
 20
1458.1337151984135
  0
HATCH
  5
B9
330
17
100
AcDbEntity
  8
Okvir
 62
7
100
AcDbHatch
 10
0.0
 20
0.0
 30
0.0
210
0.0
220
0.0
230
1.0
  2
SOLID
 70
1
 71
0
 91
1
 92
3
 72
0
 73
1
 93
49
 10
6339.192162628758
 20
1458.1337151984135
 10
6344.21659637558
 20
1457.7861341024645
 10
6348.8040395302005
 20
1456.7744953033346
 10
6352.926657746859
 20
1455.145455534096
 10
6356.556616679799
 20
1452.9456715278222
 10
6359.66608198326
 20
1450.2218000175856
 10
6362.227219311485
 20
1447.0204977364626
 10
6364.212194318715
 20
1443.3884214175234
 10
6365.59317265919
 20
1439.372227793842
 10
6366.342319987154
 20
1435.0185735984926
 10
6366.431801956845
 20
1430.3741155645484
 10
6365.833784222508
 20
1425.485510425082
 10
6364.520432438382
 20
1420.3994149131674
 10
6362.522376606805
 20
1415.3189033913075
 10
6359.928398205067
 20
1410.4447684450354
 10
6356.7995264339315
 20
1405.8218804760515
 10
6353.196790494156
 20
1401.4951098860577
 10
6349.1812195865
 20
1397.509327076751
 10
6344.813842911725
 20
1393.909402449836
 10
6340.15568967059
 20
1390.7402064070122
 10
6335.267789063853
 20
1388.0466093499786
 10
6330.211170292276
 20
1385.8734816804363
 10
6325.046862556617
 20
1384.2656938000869
 10
6319.835895057637
 20
1383.2681161106298
 10
6314.639296996094
 20
1382.9256190137664
 10
6309.668853183231
 20
1383.2681161106293
 10
6305.116654846587
 20
1384.2656938000869
 10
6301.013209010922
 20
1385.873481680436
 10
6297.389022700993
 20
1388.0466093499786
 10
6294.274602941561
 20
1390.7402064070113
 10
6291.700456757385
 20
1393.9094024498365
 10
6289.697091173223
 20
1397.5093270767516
 10
6288.295013213836
 20
1401.4951098860568
 10
6287.524729903981
 20
1405.8218804760515
 10
6287.416748268418
 20
1410.4447684450354
 10
6288.001575331906
 20
1415.318903391308
 10
6289.309718119204
 20
1420.3994149131674
 10
6291.362340389481
 20
1425.4855104250817
 10
6293.9919992073865
 20
1430.3741155645484
 10
6297.140360778025
 20
1435.0185735984926
 10
6300.7490913065
 20
1439.3722277938427
 10
6304.759856997914
 20
1443.3884214175223
 10
6309.114324057369
 20
1447.0204977364626
 10
6313.754158689971
 20
1450.2218000175867
 10
6318.621027100819
 20
1452.9456715278216
 10
6323.656595495019
 20
1455.1454555340956
 10
6328.8025300776735
 20
1456.7744953033346
 10
6334.000497053886
 20
1457.7861341024645
 10
6339.192162628758
 20
1458.1337151984135
 97
0
 75
0
 76
1
 98
0
  0
LWPOLYLINE
  5
BA
330
17
100
AcDbEntity
  8
Okvir
 62
7
100
AcDbPolyline
 90
49
 70
1
 10
6339.192162628758
 20
1458.1337151984135
 10
6344.21659637558
 20
1457.7861341024645
 10
6348.8040395302005
 20
1456.7744953033346
 10
6352.926657746859
 20
1455.145455534096
 10
6356.556616679799
 20
1452.9456715278222
 10
6359.66608198326
 20
1450.2218000175856
 10
6362.227219311485
 20
1447.0204977364626
 10
6364.212194318715
 20
1443.3884214175234
 10
6365.59317265919
 20
1439.372227793842
 10
6366.342319987154
 20
1435.0185735984926
 10
6366.431801956845
 20
1430.3741155645484
 10
6365.833784222508
 20
1425.485510425082
 10
6364.520432438382
 20
1420.3994149131674
 10
6362.522376606805
 20
1415.3189033913075
 10
6359.928398205067
 20
1410.4447684450354
 10
6356.7995264339315
 20
1405.8218804760515
 10
6353.196790494156
 20
1401.4951098860577
 10
6349.1812195865
 20
1397.509327076751
 10
6344.813842911725
 20
1393.909402449836
 10
6340.15568967059
 20
1390.7402064070122
 10
6335.267789063853
 20
1388.0466093499786
 10
6330.211170292276
 20
1385.8734816804363
 10
6325.046862556617
 20
1384.2656938000869
 10
6319.835895057637
 20
1383.2681161106298
 10
6314.639296996094
 20
1382.9256190137664
 10
6309.668853183231
 20
1383.2681161106293
 10
6305.116654846587
 20
1384.2656938000869
 10
6301.013209010922
 20
1385.873481680436
 10
6297.389022700993
 20
1388.0466093499786
 10
6294.274602941561
 20
1390.7402064070113
 10
6291.700456757385
 20
1393.9094024498365
 10
6289.697091173223
 20
1397.5093270767516
 10
6288.295013213836
 20
1401.4951098860568
 10
6287.524729903981
 20
1405.8218804760515
 10
6287.416748268418
 20
1410.4447684450354
 10
6288.001575331906
 20
1415.318903391308
 10
6289.309718119204
 20
1420.3994149131674
 10
6291.362340389481
 20
1425.4855104250817
 10
6293.9919992073865
 20
1430.3741155645484
 10
6297.140360778025
 20
1435.0185735984926
 10
6300.7490913065
 20
1439.3722277938427
 10
6304.759856997914
 20
1443.3884214175223
 10
6309.114324057369
 20
1447.0204977364626
 10
6313.754158689971
 20
1450.2218000175867
 10
6318.621027100819
 20
1452.9456715278216
 10
6323.656595495019
 20
1455.1454555340956
 10
6328.8025300776735
 20
1456.7744953033346
 10
6334.000497053886
 20
1457.7861341024645
 10
6339.192162628758
 20
1458.1337151984135
  0
HATCH
  5
BB
330
17
100
AcDbEntity
  8
Okvir
 62
7
100
AcDbHatch
 10
0.0
 20
0.0
 30
0.0
210
0.0
220
0.0
230
1.0
  2
SOLID
 70
1
 71
0
 91
1
 92
3
 72
0
 73
1
 93
49
 10
6430.685491952607
 20
1458.1337151984135
 10
6435.650761111457
 20
1457.7861341024645
 10
6440.188845561603
 20
1456.7744953033346
 10
6444.271026124783
 20
1455.145455534096
 10
6447.868583622734
 20
1452.9456715278222
 10
6450.952798877195
 20
1450.2218000175856
 10
6453.494952709904
 20
1447.0204977364626
 10
6455.466325942599
 20
1443.3884214175234
 10
6456.838199397016
 20
1439.372227793842
 10
6457.581853894894
 20
1435.0185735984926
 10
6457.668570257971
 20
1430.3741155645484
 10
6457.069629307985
 20
1425.485510425082
 10
6455.756311866673
 20
1420.3994149131674
 10
6453.758072200031
 20
1415.3189033913075
 10
6451.163970568197
 20
1410.4447684450354
 10
6448.035024050937
 20
1405.8218804760515
 10
6444.432249728016
 20
1401.4951098860577
 10
6440.416664679202
 20
1397.509327076751
 10
6436.049285984261
 20
1393.909402449836
 10
6431.39113072296
 20
1390.7402064070122
 10
6426.503215975064
 20
1388.0466093499786
 10
6421.446558820342
 20
1385.8734816804363
 10
6416.282176338559
 20
1384.2656938000869
 10
6411.071085609481
 20
1383.2681161106298
 10
6405.874303712875
 20
1382.9256190137664
 10
6400.904460141695
 20
1383.2681161106293
 10
6396.353590821453
 20
1384.2656938000869
 10
6392.253131548006
 20
1385.873481680436
 10
6388.634518117223
 20
1388.0466093499786
 10
6385.529186324962
 20
1390.7402064070113
 10
6382.968571967091
 20
1393.9094024498365
 10
6380.9841108394685
 20
1397.5093270767516
 10
6379.60723873796
 20
1401.4951098860568
 10
6378.869391458427
 20
1405.8218804760515
 10
6378.802004796735
 20
1410.4447684450354
 10
6379.4365145487445
 20
1415.318903391308
 10
6380.804356510319
 20
1420.3994149131674
 10
6382.8024373414455
 20
1425.4855104250817
 10
6385.396481651083
 20
1430.3741155645484
 10
6388.525446602354
 20
1435.0185735984926
 10
6392.128289358383
 20
1439.3722277938427
 10
6396.143967082289
 20
1443.3884214175223
 10
6400.511436937201
 20
1447.0204977364626
 10
6405.1696560862365
 20
1450.2218000175867
 10
6410.057581692522
 20
1452.9456715278216
 10
6415.114170919178
 20
1455.1454555340956
 10
6420.27838092933
 20
1456.7744953033346
 10
6425.489168886098
 20
1457.7861341024645
 10
6430.685491952608
 20
1458.1337151984135
 97
0
 75
0
 76
1
 98
0
  0
LWPOLYLINE
  5
BC
330
17
100
AcDbEntity
  8
Okvir
 62
7
100
AcDbPolyline
 90
49
 70
1
 10
6430.685491952607
 20
1458.1337151984135
 10
6435.650761111457
 20
1457.7861341024645
 10
6440.188845561603
 20
1456.7744953033346
 10
6444.271026124783
 20
1455.145455534096
 10
6447.868583622734
 20
1452.9456715278222
 10
6450.952798877195
 20
1450.2218000175856
 10
6453.494952709904
 20
1447.0204977364626
 10
6455.466325942599
 20
1443.3884214175234
 10
6456.838199397016
 20
1439.372227793842
 10
6457.581853894894
 20
1435.0185735984926
 10
6457.668570257971
 20
1430.3741155645484
 10
6457.069629307985
 20
1425.485510425082
 10
6455.756311866673
 20
1420.3994149131674
 10
6453.758072200031
 20
1415.3189033913075
 10
6451.163970568197
 20
1410.4447684450354
 10
6448.035024050937
 20
1405.8218804760515
 10
6444.432249728016
 20
1401.4951098860577
 10
6440.416664679202
 20
1397.509327076751
 10
6436.049285984261
 20
1393.909402449836
 10
6431.39113072296
 20
1390.7402064070122
 10
6426.503215975064
 20
1388.0466093499786
 10
6421.446558820342
 20
1385.8734816804363
 10
6416.282176338559
 20
1384.2656938000869
 10
6411.071085609481
 20
1383.2681161106298
 10
6405.874303712875
 20
1382.9256190137664
 10
6400.904460141695
 20
1383.2681161106293
 10
6396.353590821453
 20
1384.2656938000869
 10
6392.253131548006
 20
1385.873481680436
 10
6388.634518117223
 20
1388.0466093499786
 10
6385.529186324962
 20
1390.7402064070113
 10
6382.968571967091
 20
1393.9094024498365
 10
6380.9841108394685
 20
1397.5093270767516
 10
6379.60723873796
 20
1401.4951098860568
 10
6378.869391458427
 20
1405.8218804760515
 10
6378.802004796735
 20
1410.4447684450354
 10
6379.4365145487445
 20
1415.318903391308
 10
6380.804356510319
 20
1420.3994149131674
 10
6382.8024373414455
 20
1425.4855104250817
 10
6385.396481651083
 20
1430.3741155645484
 10
6388.525446602354
 20
1435.0185735984926
 10
6392.128289358383
 20
1439.3722277938427
 10
6396.143967082289
 20
1443.3884214175223
 10
6400.511436937201
 20
1447.0204977364626
 10
6405.1696560862365
 20
1450.2218000175867
 10
6410.057581692522
 20
1452.9456715278216
 10
6415.114170919178
 20
1455.1454555340956
 10
6420.27838092933
 20
1456.7744953033346
 10
6425.489168886098
 20
1457.7861341024645
 10
6430.685491952608
 20
1458.1337151984135
  0
HATCH
  5
BD
330
17
100
AcDbEntity
  8
Okvir
 62
7
100
AcDbHatch
 10
0.0
 20
0.0
 30
0.0
210
0.0
220
0.0
230
1.0
  2
SOLID
 70
1
 71
0
 91
1
 92
3
 72
0
 73
1
 93
49
 10
6308.69482254323
 20
1365.0904502321523
 10
6313.664948937583
 20
1364.7479867205407
 10
6318.21685258258
 20
1363.7504986759295
 10
6322.320030998833
 20
1362.1428398336532
 10
6325.943981706957
 20
1359.9698639290473
 10
6329.058202227562
 20
1357.276424697445
 10
6331.632190081265
 20
1354.1073758741848
 10
6333.635442788677
 20
1350.507571194598
 10
6335.037457870413
 20
1346.5218643940204
 10
6335.807732847085
 20
1342.1951092077877
 10
6335.915765239307
 20
1337.5721593712346
 10
6335.3310525676925
 20
1332.697868619696
 10
6334.023092352854
 20
1327.6170906885063
 10
6332.0247607686815
 20
1322.535986248062
 10
6329.430597521798
 20
1317.6613735326416
 10
6326.3016136314745
 20
1313.0381108229515
 10
6322.698820116982
 20
1308.7110563996996
 10
6318.683227997588
 20
1304.7250685435915
 10
6314.315848292565
 20
1301.125005535338
 10
6309.657692021181
 20
1297.9557256556436
 10
6304.769770202706
 20
1295.2620871852166
 10
6299.713093856411
 20
1293.0889484047643
 10
6294.548674001565
 20
1291.481167594994
 10
6289.337521657439
 20
1290.4836030366134
 10
6284.140647843301
 20
1290.141113010329
 10
6279.170504025019
 20
1290.483603036613
 10
6274.618551138488
 20
1291.481167594994
 10
6270.515296208465
 20
1293.0889484047648
 10
6266.89124625971
 20
1295.2620871852166
 10
6263.7769083169815
 20
1297.955725655643
 10
6261.202789405041
 20
1301.125005535338
 10
6259.1993965486445
 20
1304.7250685435927
 10
6257.797236772552
 20
1308.711056399699
 10
6257.026817101524
 20
1313.0381108229515
 10
6256.918644560318
 20
1317.6613735326416
 10
6257.503226173694
 20
1322.5359862480625
 10
6258.811068966411
 20
1327.6170906885063
 10
6260.809426307695
 20
1332.6978686196956
 10
6263.403660765413
 20
1337.572159371235
 10
6266.53275222955
 20
1342.1951092077884
 10
6270.135680590093
 20
1346.5218643940204
 10
6274.151425737025
 20
1350.5075711945965
 10
6278.518967560333
 20
1354.1073758741838
 10
6283.1772859500015
 20
1357.2764246974457
 10
6288.065360796015
 20
1359.9698639290473
 10
6293.12217198836
 20
1362.1428398336532
 10
6298.28669941702
 20
1363.7504986759295
 10
6303.497922971982
 20
1364.7479867205407
 10
6308.69482254323
 20
1365.0904502321523
 97
0
 75
0
 76
1
 98
0
  0
LWPOLYLINE
  5
BE
330
17
100
AcDbEntity
  8
Okvir
 62
7
100
AcDbPolyline
 90
49
 70
1
 10
6308.69482254323
 20
1365.0904502321523
 10
6313.664948937583
 20
1364.7479867205407
 10
6318.21685258258
 20
1363.7504986759295
 10
6322.320030998833
 20
1362.1428398336532
 10
6325.943981706957
 20
1359.9698639290473
 10
6329.058202227562
 20
1357.276424697445
 10
6331.632190081265
 20
1354.1073758741848
 10
6333.635442788677
 20
1350.507571194598
 10
6335.037457870413
 20
1346.5218643940204
 10
6335.807732847085
 20
1342.1951092077877
 10
6335.915765239307
 20
1337.5721593712346
 10
6335.3310525676925
 20
1332.697868619696
 10
6334.023092352854
 20
1327.6170906885063
 10
6332.0247607686815
 20
1322.535986248062
 10
6329.430597521798
 20
1317.6613735326416
 10
6326.3016136314745
 20
1313.0381108229515
 10
6322.698820116982
 20
1308.7110563996996
 10
6318.683227997588
 20
1304.7250685435915
 10
6314.315848292565
 20
1301.125005535338
 10
6309.657692021181
 20
1297.9557256556436
 10
6304.769770202706
 20
1295.2620871852166
 10
6299.713093856411
 20
1293.0889484047643
 10
6294.548674001565
 20
1291.481167594994
 10
6289.337521657439
 20
1290.4836030366134
 10
6284.140647843301
 20
1290.141113010329
 10
6279.170504025019
 20
1290.483603036613
 10
6274.618551138488
 20
1291.481167594994
 10
6270.515296208465
 20
1293.0889484047648
 10
6266.89124625971
 20
1295.2620871852166
 10
6263.7769083169815
 20
1297.955725655643
 10
6261.202789405041
 20
1301.125005535338
 10
6259.1993965486445
 20
1304.7250685435927
 10
6257.797236772552
 20
1308.711056399699
 10
6257.026817101524
 20
1313.0381108229515
 10
6256.918644560318
 20
1317.6613735326416
 10
6257.503226173694
 20
1322.5359862480625
 10
6258.811068966411
 20
1327.6170906885063
 10
6260.809426307695
 20
1332.6978686196956
 10
6263.403660765413
 20
1337.572159371235
 10
6266.53275222955
 20
1342.1951092077884
 10
6270.135680590093
 20
1346.5218643940204
 10
6274.151425737025
 20
1350.5075711945965
 10
6278.518967560333
 20
1354.1073758741838
 10
6283.1772859500015
 20
1357.2764246974457
 10
6288.065360796015
 20
1359.9698639290473
 10
6293.12217198836
 20
1362.1428398336532
 10
6298.28669941702
 20
1363.7504986759295
 10
6303.497922971982
 20
1364.7479867205407
 10
6308.69482254323
 20
1365.0904502321523
  0
HATCH
  5
BF
330
17
100
AcDbEntity
  8
Okvir
 62
7
100
AcDbHatch
 10
0.0
 20
0.0
 30
0.0
210
0.0
220
0.0
230
1.0
  2
SOLID
 70
1
 71
0
 91
1
 92
3
 72
0
 73
1
 93
138
 10
6017.92960143248
 20
1351.393243076943
 10
6014.025826990476
 20
1342.7498933795475
 10
6009.336815215779
 20
1334.5615733424845
 10
6003.928077046382
 20
1326.8848107326626
 10
5997.865123420282
 20
1319.7761333169933
 10
5991.213465275473
 20
1313.2920688623847
 10
5984.038613549951
 20
1307.4891451357494
 10
5976.406079181711
 20
1302.4238899039976
 10
5968.3813731087475
 20
1298.1528309340374
 10
5960.030006269058
 20
1294.7324959927803
 10
5951.417489600634
 20
1292.2194128471365
 10
5942.6093340414745
 20
1290.6701092640162
 10
5933.671050529572
 20
1290.141113010329
 10
5929.153402073961
 20
1290.2646155776833
 10
5924.902204866483
 20
1290.6339424929952
 10
5920.914769561771
 20
1291.2473225761298
 10
5917.18840681446
 20
1292.102984646958
 10
5913.720427279184
 20
1293.1991575253483
 10
5910.508141610576
 20
1294.5340700311692
 10
5907.548860463271
 20
1296.1059509842896
 10
5904.839894491902
 20
1297.9130292045775
 10
5902.378554351103
 20
1299.9535335119028
 10
5900.162150695507
 20
1302.2256927261333
 10
5898.18799417975
 20
1304.727735667137
 10
5896.453395458464
 20
1307.4578911547849
 10
5894.718711890225
 20
1311.291970643453
 10
5893.494675159614
 20
1315.1746507694793
 10
5892.742687478912
 20
1319.1112965874772
 10
5892.424151060397
 20
1323.107273152064
 10
5892.50046811635
 20
1327.1679455178516
 10
5892.933040859051
 20
1331.2986787394586
 10
5893.683271500782
 20
1335.504837871497
 10
5894.7125622538215
 20
1339.7917879685829
 10
5895.98231533045
 20
1344.1648940853313
 10
5897.453932942947
 20
1348.6295212763573
 10
5899.088817303595
 20
1353.1910345962751
 10
5900.848370624672
 20
1357.8547990996997
 10
5900.8485201169215
 20
1357.8600315809513
 10
5900.849566562668
 20
1357.875132065792
 10
5900.852406915407
 20
1357.8992051158482
 10
5900.857938128637
 20
1357.9313552927488
 10
5900.867057155854
 20
1357.970687158118
 10
5900.8806609505555
 20
1358.016305273587
 10
5900.899646466237
 20
1358.0673142007813
 10
5900.924910656396
 20
1358.122818501328
 10
5900.9573504745285
 20
1358.1819227368553
 10
5900.997862874133
 20
1358.2437314689903
 10
5901.047344808704
 20
1358.30734925936
 10
5901.10669323174
 20
1358.3718806695924
 10
5903.173710444044
 20
1363.8005826198296
 10
5930.829938207573
 20
1433.3225269586812
 10
5933.930682203907
 20
1441.8524092610076
 10
5934.463890755251
 20
1442.988679142464
 10
5935.031207781459
 20
1444.0739287332956
 10
5935.63443325002
 20
1445.1108276822529
 10
5936.275367128426
 20
1446.1020456380909
 10
5936.955809384165
 20
1447.0502522495592
 10
5937.677559984728
 20
1447.9581171654124
 10
5938.442418897605
 20
1448.8283100344008
 10
5939.252186090287
 20
1449.6635005052767
 10
5940.108661530264
 20
1450.466358226794
 10
5941.013645185024
 20
1451.2395528477025
 10
5941.968937022059
 20
1451.9857540167561
 10
5942.97633700886
 20
1452.7076313827067
 10
5943.826986543959
 20
1453.2672982945603
 10
5944.697334208131
 20
1453.7830281211914
 10
5945.5855876095075
 20
1454.253919363728
 10
5946.489954356219
 20
1454.6790705233022
 10
5947.4086420563945
 20
1455.0575801010427
 10
5948.339858318167
 20
1455.3885465980848
 10
5949.281810749666
 20
1455.6710685155558
 10
5950.232706959021
 20
1455.9042443545868
 10
5951.1907545543645
 20
1456.0871726163095
 10
5952.154161143827
 20
1456.218951801854
 10
5953.121134335537
 20
1456.2986804123516
 10
5954.089881737627
 20
1456.325456948933
 10
5955.042441805821
 20
1456.2985314251432
 10
5955.960029778385
 20
1456.2177599041897
 10
5956.839945704085
 20
1456.0831499616913
 10
5957.679489631685
 20
1455.89470917327
 10
5958.475961609951
 20
1455.6524451145453
 10
5959.226661687648
 20
1455.3563653611398
 10
5959.928889913539
 20
1455.0064774886732
 10
5960.57994633639
 20
1454.602789072766
 10
5961.177131004965
 20
1454.1453076890389
 10
5961.717743968031
 20
1453.6340409131135
 10
5962.19908527435
 20
1453.0689963206098
 10
5962.618454972689
 20
1452.4501814871487
 10
5963.033297227546
 20
1451.787452042805
 10
5963.373639312827
 20
1451.090565639625
 10
5963.640379697153
 20
1450.3577465521053
 10
5963.834416849142
 20
1449.587219054742
 10
5963.956649237418
 20
1448.77720742203
 10
5964.007975330601
 20
1447.925935928468
 10
5963.989293597311
 20
1447.03162884855
 10
5963.901502506171
 20
1446.0925104567739
 10
5963.7455005258
 20
1445.1068050276353
 10
5963.522186124818
 20
1444.0727368356308
 10
5963.232457771849
 20
1442.9885301552558
 10
5962.877213935512
 20
1441.8524092610076
 10
5959.5177109763545
 20
1433.5808495657498
 10
5959.5177109763545
 20
1433.5807000735
 10
5959.517710976355
 20
1433.5796536277544
 10
5959.517710976355
 20
1433.5768132750147
 10
5959.517710976355
 20
1433.571282061785
 10
5959.5177109763545
 20
1433.5621630345668
 10
5959.5177109763545
 20
1433.5485592398659
 10
5959.517710976355
 20
1433.529573724185
 10
5959.517710976355
 20
1433.5043095340259
 10
5959.517710976355
 20
1433.471869715893
 10
5959.5177109763545
 20
1433.4313573162885
 10
5959.5177109763545
 20
1433.3818753817172
 10
5959.5177109763545
 20
1433.3225269586812
 10
5947.628325714871
 20
1403.8606590802035
 10
5950.417343270702
 20
1405.173403804586
 10
5953.227022574566
 20
1406.3955971341484
 10
5956.056462127594
 20
1407.5227406652878
 10
5958.904760430916
 20
1408.5503359944037
 10
5961.771015985663
 20
1409.4738847178928
 10
5964.654327292967
 20
1410.288888432158
 10
5967.553792853956
 20
1410.9908487335958
 10
5970.468511169764
 20
1411.5752672186045
 10
5973.397580741519
 20
1412.0376454835846
 10
5976.340100070353
 20
1412.3734851249328
 10
5979.2951676573975
 20
1412.5782877390493
 10
5982.261882003782
 20
1412.647554922333
 10
5990.554798636537
 20
1412.0988077627476
 10
5997.970093241555
 20
1410.4974280999913
 10
6004.48083751732
 20
1407.9107086580561
 10
6010.060103162313
 20
1404.4059421609404
 10
6014.6809618750185
 20
1400.0504213326371
 10
6018.316485353919
 20
1394.911438897146
 10
6020.939745297499
 20
1389.0562875784585
 10
6022.523813404239
 20
1382.5522601005714
 10
6023.041761372625
 20
1375.466649187481
 10
6022.466660901138
 20
1367.8667475631833
 10
6020.771583688262
 20
1359.8198479516714
 10
6017.92960143248
 20
1351.393243076943
 97
0
 75
0
 76
1
 98
0
  0
LWPOLYLINE
  5
C0
330
17
100
AcDbEntity
  8
Okvir
 62
7
100
AcDbPolyline
 90
138
 70
1
 10
6017.92960143248
 20
1351.393243076943
 10
6014.025826990476
 20
1342.7498933795475
 10
6009.336815215779
 20
1334.5615733424845
 10
6003.928077046382
 20
1326.8848107326626
 10
5997.865123420282
 20
1319.7761333169933
 10
5991.213465275473
 20
1313.2920688623847
 10
5984.038613549951
 20
1307.4891451357494
 10
5976.406079181711
 20
1302.4238899039976
 10
5968.3813731087475
 20
1298.1528309340374
 10
5960.030006269058
 20
1294.7324959927803
 10
5951.417489600634
 20
1292.2194128471365
 10
5942.6093340414745
 20
1290.6701092640162
 10
5933.671050529572
 20
1290.141113010329
 10
5929.153402073961
 20
1290.2646155776833
 10
5924.902204866483
 20
1290.6339424929952
 10
5920.914769561771
 20
1291.2473225761298
 10
5917.18840681446
 20
1292.102984646958
 10
5913.720427279184
 20
1293.1991575253483
 10
5910.508141610576
 20
1294.5340700311692
 10
5907.548860463271
 20
1296.1059509842896
 10
5904.839894491902
 20
1297.9130292045775
 10
5902.378554351103
 20
1299.9535335119028
 10
5900.162150695507
 20
1302.2256927261333
 10
5898.18799417975
 20
1304.727735667137
 10
5896.453395458464
 20
1307.4578911547849
 10
5894.718711890225
 20
1311.291970643453
 10
5893.494675159614
 20
1315.1746507694793
 10
5892.742687478912
 20
1319.1112965874772
 10
5892.424151060397
 20
1323.107273152064
 10
5892.50046811635
 20
1327.1679455178516
 10
5892.933040859051
 20
1331.2986787394586
 10
5893.683271500782
 20
1335.504837871497
 10
5894.7125622538215
 20
1339.7917879685829
 10
5895.98231533045
 20
1344.1648940853313
 10
5897.453932942947
 20
1348.6295212763573
 10
5899.088817303595
 20
1353.1910345962751
 10
5900.848370624672
 20
1357.8547990996997
 10
5900.8485201169215
 20
1357.8600315809513
 10
5900.849566562668
 20
1357.875132065792
 10
5900.852406915407
 20
1357.8992051158482
 10
5900.857938128637
 20
1357.9313552927488
 10
5900.867057155854
 20
1357.970687158118
 10
5900.8806609505555
 20
1358.016305273587
 10
5900.899646466237
 20
1358.0673142007813
 10
5900.924910656396
 20
1358.122818501328
 10
5900.9573504745285
 20
1358.1819227368553
 10
5900.997862874133
 20
1358.2437314689903
 10
5901.047344808704
 20
1358.30734925936
 10
5901.10669323174
 20
1358.3718806695924
 10
5903.173710444044
 20
1363.8005826198296
 10
5930.829938207573
 20
1433.3225269586812
 10
5933.930682203907
 20
1441.8524092610076
 10
5934.463890755251
 20
1442.988679142464
 10
5935.031207781459
 20
1444.0739287332956
 10
5935.63443325002
 20
1445.1108276822529
 10
5936.275367128426
 20
1446.1020456380909
 10
5936.955809384165
 20
1447.0502522495592
 10
5937.677559984728
 20
1447.9581171654124
 10
5938.442418897605
 20
1448.8283100344008
 10
5939.252186090287
 20
1449.6635005052767
 10
5940.108661530264
 20
1450.466358226794
 10
5941.013645185024
 20
1451.2395528477025
 10
5941.968937022059
 20
1451.9857540167561
 10
5942.97633700886
 20
1452.7076313827067
 10
5943.826986543959
 20
1453.2672982945603
 10
5944.697334208131
 20
1453.7830281211914
 10
5945.5855876095075
 20
1454.253919363728
 10
5946.489954356219
 20
1454.6790705233022
 10
5947.4086420563945
 20
1455.0575801010427
 10
5948.339858318167
 20
1455.3885465980848
 10
5949.281810749666
 20
1455.6710685155558
 10
5950.232706959021
 20
1455.9042443545868
 10
5951.1907545543645
 20
1456.0871726163095
 10
5952.154161143827
 20
1456.218951801854
 10
5953.121134335537
 20
1456.2986804123516
 10
5954.089881737627
 20
1456.325456948933
 10
5955.042441805821
 20
1456.2985314251432
 10
5955.960029778385
 20
1456.2177599041897
 10
5956.839945704085
 20
1456.0831499616913
 10
5957.679489631685
 20
1455.89470917327
 10
5958.475961609951
 20
1455.6524451145453
 10
5959.226661687648
 20
1455.3563653611398
 10
5959.928889913539
 20
1455.0064774886732
 10
5960.57994633639
 20
1454.602789072766
 10
5961.177131004965
 20
1454.1453076890389
 10
5961.717743968031
 20
1453.6340409131135
 10
5962.19908527435
 20
1453.0689963206098
 10
5962.618454972689
 20
1452.4501814871487
 10
5963.033297227546
 20
1451.787452042805
 10
5963.373639312827
 20
1451.090565639625
 10
5963.640379697153
 20
1450.3577465521053
 10
5963.834416849142
 20
1449.587219054742
 10
5963.956649237418
 20
1448.77720742203
 10
5964.007975330601
 20
1447.925935928468
 10
5963.989293597311
 20
1447.03162884855
 10
5963.901502506171
 20
1446.0925104567739
 10
5963.7455005258
 20
1445.1068050276353
 10
5963.522186124818
 20
1444.0727368356308
 10
5963.232457771849
 20
1442.9885301552558
 10
5962.877213935512
 20
1441.8524092610076
 10
5959.5177109763545
 20
1433.5808495657498
 10
5959.5177109763545
 20
1433.5807000735
 10
5959.517710976355
 20
1433.5796536277544
 10
5959.517710976355
 20
1433.5768132750147
 10
5959.517710976355
 20
1433.571282061785
 10
5959.5177109763545
 20
1433.5621630345668
 10
5959.5177109763545
 20
1433.5485592398659
 10
5959.517710976355
 20
1433.529573724185
 10
5959.517710976355
 20
1433.5043095340259
 10
5959.517710976355
 20
1433.471869715893
 10
5959.5177109763545
 20
1433.4313573162885
 10
5959.5177109763545
 20
1433.3818753817172
 10
5959.5177109763545
 20
1433.3225269586812
 10
5947.628325714871
 20
1403.8606590802035
 10
5950.417343270702
 20
1405.173403804586
 10
5953.227022574566
 20
1406.3955971341484
 10
5956.056462127594
 20
1407.5227406652878
 10
5958.904760430916
 20
1408.5503359944037
 10
5961.771015985663
 20
1409.4738847178928
 10
5964.654327292967
 20
1410.288888432158
 10
5967.553792853956
 20
1410.9908487335958
 10
5970.468511169764
 20
1411.5752672186045
 10
5973.397580741519
 20
1412.0376454835846
 10
5976.340100070353
 20
1412.3734851249328
 10
5979.2951676573975
 20
1412.5782877390493
 10
5982.261882003782
 20
1412.647554922333
 10
5990.554798636537
 20
1412.0988077627476
 10
5997.970093241555
 20
1410.4974280999913
 10
6004.48083751732
 20
1407.9107086580561
 10
6010.060103162313
 20
1404.4059421609404
 10
6014.6809618750185
 20
1400.0504213326371
 10
6018.316485353919
 20
1394.911438897146
 10
6020.939745297499
 20
1389.0562875784585
 10
6022.523813404239
 20
1382.5522601005714
 10
6023.041761372625
 20
1375.466649187481
 10
6022.466660901138
 20
1367.8667475631833
 10
6020.771583688262
 20
1359.8198479516714
 10
6017.92960143248
 20
1351.393243076943
  0
HATCH
  5
C1
330
17
100
AcDbEntity
  8
Okvir
 62
7
100
AcDbHatch
 10
0.0
 20
0.0
 30
0.0
210
0.0
220
0.0
230
1.0
  2
SOLID
 70
1
 71
0
 91
1
 92
3
 72
0
 73
1
 93
49
 10
5989.240519596432
 20
1351.393243076943
 10
5990.814096478517
 20
1355.943506852568
 10
5991.793606817528
 20
1360.2674868364
 10
5992.188027724051
 20
1364.3328957328015
 10
5992.0063363086765
 20
1368.1074462461397
 10
5991.257509681991
 20
1371.5588510807763
 10
5989.950524954585
 20
1374.6548229410798
 10
5988.094359237046
 20
1377.3630745314126
 10
5985.697989639962
 20
1379.6513185561396
 10
5982.770393273921
 20
1381.4872677196252
 10
5979.320547249513
 20
1382.8386347262356
 10
5975.357428677325
 20
1383.673132280334
 10
5970.890014667946
 20
1383.9584730862855
 10
5966.200387752844
 20
1383.663207459589
 10
5961.586998854718
 20
1382.802544468984
 10
5957.083050404191
 20
1381.414184948691
 10
5952.721744831885
 20
1379.535829732934
 10
5948.53628456842
 20
1377.2051796559358
 10
5944.55987204442
 20
1374.4599355519213
 10
5940.825709690506
 20
1371.3377982551106
 10
5937.3669999373005
 20
1367.8764685997285
 10
5934.216945215424
 20
1364.1136474199977
 10
5931.408747955499
 20
1360.0870355501413
 10
5928.975610588148
 20
1355.8343338243824
 10
5926.950735543992
 20
1351.393243076943
 10
5925.164896081516
 20
1346.0240036890941
 10
5924.164321223971
 20
1341.1556098007472
 10
5923.894254384574
 20
1336.7826615094305
 10
5924.299938976549
 20
1332.8997589126761
 10
5925.326618413116
 20
1329.5015021080103
 10
5926.919536107496
 20
1326.5824911929662
 10
5929.02393547291
 20
1324.1373262650714
 10
5931.58505992258
 20
1322.1606074218557
 10
5934.5481528697255
 20
1320.646934760848
 10
5937.858457727569
 20
1319.5909083795802
 10
5941.461217909331
 20
1318.9871283755792
 10
5945.301676828232
 20
1318.8301948463766
 10
5949.2658749263765
 20
1319.0661936142196
 10
5953.366561468445
 20
1319.7706021037634
 10
5957.5462829466705
 20
1320.938038594025
 10
5961.747585853288
 20
1322.5631213640258
 10
5965.913016680531
 20
1324.6404686927833
 10
5969.985121920635
 20
1327.1646988593197
 10
5973.906448065833
 20
1330.1304301426524
 10
5977.619541608358
 20
1333.5322808218004
 10
5981.066949040447
 20
1337.3648691757844
 10
5984.191216854333
 20
1341.6228134836233
 10
5986.93489154225
 20
1346.3007320243366
 10
5989.240519596432
 20
1351.393243076943
 97
0
 75
0
 76
1
 98
0
  0
LWPOLYLINE
  5
C2
330
17
100
AcDbEntity
  8
Okvir
 62
7
100
AcDbPolyline
 90
49
 70
1
 10
5989.240519596432
 20
1351.393243076943
 10
5990.814096478517
 20
1355.943506852568
 10
5991.793606817528
 20
1360.2674868364
 10
5992.188027724051
 20
1364.3328957328015
 10
5992.0063363086765
 20
1368.1074462461397
 10
5991.257509681991
 20
1371.5588510807763
 10
5989.950524954585
 20
1374.6548229410798
 10
5988.094359237046
 20
1377.3630745314126
 10
5985.697989639962
 20
1379.6513185561396
 10
5982.770393273921
 20
1381.4872677196252
 10
5979.320547249513
 20
1382.8386347262356
 10
5975.357428677325
 20
1383.673132280334
 10
5970.890014667946
 20
1383.9584730862855
 10
5966.200387752844
 20
1383.663207459589
 10
5961.586998854718
 20
1382.802544468984
 10
5957.083050404191
 20
1381.414184948691
 10
5952.721744831885
 20
1379.535829732934
 10
5948.53628456842
 20
1377.2051796559358
 10
5944.55987204442
 20
1374.4599355519213
 10
5940.825709690506
 20
1371.3377982551106
 10
5937.3669999373005
 20
1367.8764685997285
 10
5934.216945215424
 20
1364.1136474199977
 10
5931.408747955499
 20
1360.0870355501413
 10
5928.975610588148
 20
1355.8343338243824
 10
5926.950735543992
 20
1351.393243076943
 10
5925.164896081516
 20
1346.0240036890941
 10
5924.164321223971
 20
1341.1556098007472
 10
5923.894254384574
 20
1336.7826615094305
 10
5924.299938976549
 20
1332.8997589126761
 10
5925.326618413116
 20
1329.5015021080103
 10
5926.919536107496
 20
1326.5824911929662
 10
5929.02393547291
 20
1324.1373262650714
 10
5931.58505992258
 20
1322.1606074218557
 10
5934.5481528697255
 20
1320.646934760848
 10
5937.858457727569
 20
1319.5909083795802
 10
5941.461217909331
 20
1318.9871283755792
 10
5945.301676828232
 20
1318.8301948463766
 10
5949.2658749263765
 20
1319.0661936142196
 10
5953.366561468445
 20
1319.7706021037634
 10
5957.5462829466705
 20
1320.938038594025
 10
5961.747585853288
 20
1322.5631213640258
 10
5965.913016680531
 20
1324.6404686927833
 10
5969.985121920635
 20
1327.1646988593197
 10
5973.906448065833
 20
1330.1304301426524
 10
5977.619541608358
 20
1333.5322808218004
 10
5981.066949040447
 20
1337.3648691757844
 10
5984.191216854333
 20
1341.6228134836233
 10
5986.93489154225
 20
1346.3007320243366
 10
5989.240519596432
 20
1351.393243076943
  0
HATCH
  5
C3
330
17
100
AcDbEntity
  8
Okvir
 62
7
100
AcDbHatch
 10
0.0
 20
0.0
 30
0.0
210
0.0
220
0.0
230
1.0
  2
SOLID
 70
1
 71
0
 91
1
 92
3
 72
0
 73
1
 93
201
 10
6120.279461945293
 20
1412.647554922333
 10
6117.372245009153
 20
1412.5782877390486
 10
6114.467702267137
 20
1412.373485124933
 10
6111.568526094859
 20
1412.0376454835837
 10
6108.677408867936
 20
1411.575267218605
 10
6105.79704296198
 20
1410.9908487335947
 10
6102.930120752607
 20
1410.288888432158
 10
6100.079334615431
 20
1409.4738847178935
 10
6097.247376926066
 20
1408.5503359944025
 10
6094.436940060126
 20
1407.5227406652873
 10
6091.650716393228
 20
1406.395597134148
 10
6088.891398300983
 20
1405.1734038045865
 10
6086.161678159008
 20
1403.8606590802035
 10
6089.263731222608
 20
1412.131782419706
 10
6101.927211593787
 20
1443.6619765777536
 10
6102.341754611625
 20
1444.74401511547
 10
6102.680002037769
 20
1445.7929118275304
 10
6102.941056918721
 20
1446.8077606696932
 10
6103.124022300985
 20
1447.7876555977164
 10
6103.228001231065
 20
1448.7316905673583
 10
6103.252096755463
 20
1449.6389595343787
 10
6103.195411920682
 20
1450.5085564545354
 10
6103.057049773227
 20
1451.3395752835856
 10
6102.8361133596
 20
1452.1311099772884
 10
6102.531705726304
 20
1452.8822544914021
 10
6102.142929919843
 20
1453.5921027816846
 10
6101.668888986718
 20
1454.2597488038946
 10
6101.249536712308
 20
1454.8785378802443
 10
6100.768244647524
 20
1455.443511261914
 10
6100.227708198228
 20
1455.9546704640245
 10
6099.630622770284
 20
1456.4120170017027
 10
6098.979683769554
 20
1456.8155523900696
 10
6098.277586601902
 20
1457.1652781442533
 10
6097.5270266731895
 20
1457.4611957793757
 10
6096.73069938928
 20
1457.7033068105598
 10
6095.891300156036
 20
1457.8916127529326
 10
6095.01152437932
 20
1458.0261151216157
 10
6094.094067464995
 20
1458.1068154317347
 10
6093.141624818923
 20
1458.1337151984135
 10
6092.17741799139
 20
1458.1069649239835
 10
6091.223138257286
 20
1458.0273110596115
 10
6090.2778765421235
 20
1457.8956490436676
 10
6089.340723771412
 20
1457.7128743145256
 10
6088.410770870659
 20
1457.479882310557
 10
6087.487108765378
 20
1457.1975684701367
 10
6086.568828381078
 20
1456.8668282316353
 10
6085.655020643268
 20
1456.488557033426
 10
6084.744776477458
 20
1456.0636503138817
 10
6083.83718680916
 20
1455.5930035113745
 10
6082.931342563882
 20
1455.0775120642775
 10
6082.0263346671345
 20
1454.518071410963
 10
6081.019109424653
 20
1453.7910769657165
 10
6080.064931708909
 20
1453.0317467408627
 10
6079.162886384916
 20
1452.2400898271444
 10
6078.312058317689
 20
1451.416115315309
 10
6077.511532372238
 20
1450.5598322960996
 10
6076.7603934135805
 20
1449.6712498602628
 10
6076.057726306727
 20
1448.7503770985413
 10
6075.402615916692
 20
1447.7972231016813
 10
6074.79414710849
 20
1446.8117969604282
 10
6074.231404747131
 20
1445.794107765526
 10
6073.713473697632
 20
1444.744164607719
 10
6073.239438825005
 20
1443.6619765777536
 10
6018.188360395303
 20
1304.3545290239203
 10
6017.778658956686
 20
1303.2721909966635
 10
6017.453357508842
 20
1302.2232341846798
 10
6017.210657599404
 20
1301.2085131179858
 10
6017.048760776007
 20
1300.2288823266065
 10
6016.965868586284
 20
1299.2851963405585
 10
6016.96018257787
 20
1298.3783096898662
 10
6017.029904298399
 20
1297.5090769045473
 10
6017.173235295504
 20
1296.6783525146238
 10
6017.388377116819
 20
1295.886991050116
 10
6017.673531309981
 20
1295.1358470410437
 10
6018.02689942262
 20
1294.425775017428
 10
6018.446683002372
 20
1293.7576295092897
 10
6018.920569140311
 20
1293.1979883545455
 10
6019.437459046999
 20
1292.6823297387512
 10
6019.997375449297
 20
1292.2115460700293
 10
6020.600341074067
 20
1291.786529756505
 10
6021.24637864817
 20
1291.408173206301
 10
6021.935510898472
 20
1291.0773688275444
 10
6022.6677605518325
 20
1290.7950090283587
 10
6023.443150335113
 20
1290.5619862168655
 10
6024.261702975179
 20
1290.3791928011924
 10
6025.12344119889
 20
1290.2475211894623
 10
6026.028387733109
 20
1290.1678637898
 10
6026.976565304698
 20
1290.141113010329
 10
6027.891196007442
 20
1290.167863789799
 10
6028.823782446488
 20
1290.247521189463
 10
6029.770735292723
 20
1290.3791928011922
 10
6030.728465217036
 20
1290.5619862168655
 10
6031.693382890317
 20
1290.7950090283575
 10
6032.661898983453
 20
1291.0773688275444
 10
6033.630424167335
 20
1291.4081732063016
 10
6034.595369112851
 20
1291.7865297565047
 10
6035.553144490888
 20
1292.2115460700293
 10
6036.500160972338
 20
1292.6823297387512
 10
6037.432829228087
 20
1293.197988354546
 10
6038.347559929024
 20
1293.7576295092897
 10
6039.295361497304
 20
1294.4257750174274
 10
6040.200039602028
 20
1295.1358470410432
 10
6041.061597273444
 20
1295.8869910501153
 10
6041.880037541801
 20
1296.6783525146238
 10
6042.655363437348
 20
1297.509076904547
 10
6043.387577990333
 20
1298.3783096898665
 10
6044.076684231002
 20
1299.2851963405594
 10
6044.722685189607
 20
1300.228882326606
 10
6045.325583896393
 20
1301.2085131179865
 10
6045.88538338161
 20
1302.223234184679
 10
6046.402086675507
 20
1303.2721909966642
 10
6046.87569680833
 20
1304.3545290239203
 10
6067.036205409317
 20
1355.5281502130615
 10
6069.217513991706
 20
1359.5080230280994
 10
6071.735304375564
 20
1363.2877858210343
 10
6074.559974065247
 20
1366.8396163670984
 10
6077.661920565114
 20
1370.1356924415295
 10
6081.011541379524
 20
1373.148191819559
 10
6084.5792340128355
 20
1375.8492922764249
 10
6088.335395969407
 20
1378.2111715873602
 10
6092.250424753596
 20
1380.2060075275986
 10
6096.294717869761
 20
1381.805977872376
 10
6100.438672822263
 20
1382.9832603969262
 10
6104.6526871154565
 20
1383.7100328764845
 10
6108.907158253702
 20
1383.9584730862855
 10
6113.429111934585
 20
1383.6731322803334
 10
6117.428850804957
 20
1382.8386347262356
 10
6120.9009689018485
 20
1381.4872677196252
 10
6123.840060262294
 20
1379.651318556139
 10
6126.240718923325
 20
1377.3630745314115
 10
6128.097538921977
 20
1374.6548229410798
 10
6129.405114295281
 20
1371.5588510807772
 10
6130.158039080271
 20
1368.107446246139
 10
6130.350907313979
 20
1364.3328957328015
 10
6129.978313033439
 20
1360.2674868363995
 10
6129.034850275683
 20
1355.9435068525681
 10
6127.515113077746
 20
1351.393243076943
 10
6127.515113077746
 20
1351.393243076943
 10
6109.422930756329
 20
1304.6128516309889
 10
6109.013595977756
 20
1303.4713164405907
 10
6108.688533919528
 20
1302.3739365132951
 10
6108.445964310767
 20
1301.3215769849892
 10
6108.284106880597
 20
1300.3151029915662
 10
6108.201181358143
 20
1299.3553796689116
 10
6108.195407472528
 20
1298.4432721529192
 10
6108.265004952877
 20
1297.5796455794766
 10
6108.408193528312
 20
1296.7653650844725
 10
6108.6231929279575
 20
1296.001295803798
 10
6108.9082228809375
 20
1295.288302873342
 10
6109.261503116377
 20
1294.627251428994
 10
6109.681253363397
 20
1294.0190066066443
 10
6110.155281165446
 20
1293.399315273862
 10
6110.672362735338
 20
1292.833589633054
 10
6111.232498073075
 20
1292.3218145329758
 10
6111.835687178656
 20
1291.8639748223873
 10
6112.481930052083
 20
1291.4600553500472
 10
6113.171226693355
 20
1291.1100409647138
 10
6113.903577102471
 20
1290.813916515146
 10
6114.678981279432
 20
1290.5716668501009
 10
6115.497439224238
 20
1290.3832768183381
 10
6116.3589509368885
 20
1290.2487312686167
 10
6117.2635164173835
 20
1290.1680150496943
 10
6118.211135665724
 20
1290.141113010329
 10
6119.1802823030275
 20
1290.1680150496938
 10
6120.14943197058
 20
1290.248731268617
 10
6121.118587698628
 20
1290.3832768183381
 10
6122.087752517423
 20
1290.5716668501013
 10
6123.056929457209
 20
1290.8139165151454
 10
6124.026121548238
 20
1291.1100409647138
 10
6124.995331820755
 20
1291.4600553500475
 10
6125.964563305012
 20
1291.8639748223873
 10
6126.933819031255
 20
1292.3218145329758
 10
6127.903102029732
 20
1292.8335896330539
 10
6128.872415330692
 20
1293.3993152738626
 10
6129.841761964384
 20
1294.0190066066443
 10
6130.789239296096
 20
1294.627251428994
 10
6131.69277499721
 20
1295.288302873342
 10
6132.551463023487
 20
1296.0012958037973
 10
6133.3643973306835
 20
1296.7653650844725
 10
6134.130671874557
 20
1297.5796455794753
 10
6134.849380610869
 20
1298.4432721529188
 10
6135.519617495376
 20
1299.355379668912
 10
6136.140476483836
 20
1300.3151029915653
 10
6136.711051532007
 20
1301.32157698499
 10
6137.23043659565
 20
1302.3739365132947
 10
6137.697725630519
 20
1303.4713164405907
 10
6138.112012592376
 20
1304.6128516309889
 10
6156.205503981059
 20
1351.393243076943
 10
6156.205503981059
 20
1351.393243076943
 10
6158.992979393026
 20
1359.8198479516714
 10
6160.65152064963
 20
1367.8667475631833
 10
6161.204463693028
 20
1375.4666491874814
 10
6160.6751444653755
 20
1382.5522601005725
 10
6159.086898908832
 20
1389.0562875784578
 10
6156.463062965556
 20
1394.9114388971454
 10
6152.826972577703
 20
1400.0504213326387
 10
6148.201963687429
 20
1404.4059421609404
 10
6142.611372236895
 20
1407.9107086580568
 10
6136.078534168255
 20
1410.497428099991
 10
6128.626785423669
 20
1412.098807762748
 10
6120.279461945293
 20
1412.647554922333
 97
0
 75
0
 76
1
 98
0
  0
LWPOLYLINE
  5
C4
330
17
100
AcDbEntity
  8
Okvir
 62
7
100
AcDbPolyline
 90
201
 70
1
 10
6120.279461945293
 20
1412.647554922333
 10
6117.372245009153
 20
1412.5782877390486
 10
6114.467702267137
 20
1412.373485124933
 10
6111.568526094859
 20
1412.0376454835837
 10
6108.677408867936
 20
1411.575267218605
 10
6105.79704296198
 20
1410.9908487335947
 10
6102.930120752607
 20
1410.288888432158
 10
6100.079334615431
 20
1409.4738847178935
 10
6097.247376926066
 20
1408.5503359944025
 10
6094.436940060126
 20
1407.5227406652873
 10
6091.650716393228
 20
1406.395597134148
 10
6088.891398300983
 20
1405.1734038045865
 10
6086.161678159008
 20
1403.8606590802035
 10
6089.263731222608
 20
1412.131782419706
 10
6101.927211593787
 20
1443.6619765777536
 10
6102.341754611625
 20
1444.74401511547
 10
6102.680002037769
 20
1445.7929118275304
 10
6102.941056918721
 20
1446.8077606696932
 10
6103.124022300985
 20
1447.7876555977164
 10
6103.228001231065
 20
1448.7316905673583
 10
6103.252096755463
 20
1449.6389595343787
 10
6103.195411920682
 20
1450.5085564545354
 10
6103.057049773227
 20
1451.3395752835856
 10
6102.8361133596
 20
1452.1311099772884
 10
6102.531705726304
 20
1452.8822544914021
 10
6102.142929919843
 20
1453.5921027816846
 10
6101.668888986718
 20
1454.2597488038946
 10
6101.249536712308
 20
1454.8785378802443
 10
6100.768244647524
 20
1455.443511261914
 10
6100.227708198228
 20
1455.9546704640245
 10
6099.630622770284
 20
1456.4120170017027
 10
6098.979683769554
 20
1456.8155523900696
 10
6098.277586601902
 20
1457.1652781442533
 10
6097.5270266731895
 20
1457.4611957793757
 10
6096.73069938928
 20
1457.7033068105598
 10
6095.891300156036
 20
1457.8916127529326
 10
6095.01152437932
 20
1458.0261151216157
 10
6094.094067464995
 20
1458.1068154317347
 10
6093.141624818923
 20
1458.1337151984135
 10
6092.17741799139
 20
1458.1069649239835
 10
6091.223138257286
 20
1458.0273110596115
 10
6090.2778765421235
 20
1457.8956490436676
 10
6089.340723771412
 20
1457.7128743145256
 10
6088.410770870659
 20
1457.479882310557
 10
6087.487108765378
 20
1457.1975684701367
 10
6086.568828381078
 20
1456.8668282316353
 10
6085.655020643268
 20
1456.488557033426
 10
6084.744776477458
 20
1456.0636503138817
 10
6083.83718680916
 20
1455.5930035113745
 10
6082.931342563882
 20
1455.0775120642775
 10
6082.0263346671345
 20
1454.518071410963
 10
6081.019109424653
 20
1453.7910769657165
 10
6080.064931708909
 20
1453.0317467408627
 10
6079.162886384916
 20
1452.2400898271444
 10
6078.312058317689
 20
1451.416115315309
 10
6077.511532372238
 20
1450.5598322960996
 10
6076.7603934135805
 20
1449.6712498602628
 10
6076.057726306727
 20
1448.7503770985413
 10
6075.402615916692
 20
1447.7972231016813
 10
6074.79414710849
 20
1446.8117969604282
 10
6074.231404747131
 20
1445.794107765526
 10
6073.713473697632
 20
1444.744164607719
 10
6073.239438825005
 20
1443.6619765777536
 10
6018.188360395303
 20
1304.3545290239203
 10
6017.778658956686
 20
1303.2721909966635
 10
6017.453357508842
 20
1302.2232341846798
 10
6017.210657599404
 20
1301.2085131179858
 10
6017.048760776007
 20
1300.2288823266065
 10
6016.965868586284
 20
1299.2851963405585
 10
6016.96018257787
 20
1298.3783096898662
 10
6017.029904298399
 20
1297.5090769045473
 10
6017.173235295504
 20
1296.6783525146238
 10
6017.388377116819
 20
1295.886991050116
 10
6017.673531309981
 20
1295.1358470410437
 10
6018.02689942262
 20
1294.425775017428
 10
6018.446683002372
 20
1293.7576295092897
 10
6018.920569140311
 20
1293.1979883545455
 10
6019.437459046999
 20
1292.6823297387512
 10
6019.997375449297
 20
1292.2115460700293
 10
6020.600341074067
 20
1291.786529756505
 10
6021.24637864817
 20
1291.408173206301
 10
6021.935510898472
 20
1291.0773688275444
 10
6022.6677605518325
 20
1290.7950090283587
 10
6023.443150335113
 20
1290.5619862168655
 10
6024.261702975179
 20
1290.3791928011924
 10
6025.12344119889
 20
1290.2475211894623
 10
6026.028387733109
 20
1290.1678637898
 10
6026.976565304698
 20
1290.141113010329
 10
6027.891196007442
 20
1290.167863789799
 10
6028.823782446488
 20
1290.247521189463
 10
6029.770735292723
 20
1290.3791928011922
 10
6030.728465217036
 20
1290.5619862168655
 10
6031.693382890317
 20
1290.7950090283575
 10
6032.661898983453
 20
1291.0773688275444
 10
6033.630424167335
 20
1291.4081732063016
 10
6034.595369112851
 20
1291.7865297565047
 10
6035.553144490888
 20
1292.2115460700293
 10
6036.500160972338
 20
1292.6823297387512
 10
6037.432829228087
 20
1293.197988354546
 10
6038.347559929024
 20
1293.7576295092897
 10
6039.295361497304
 20
1294.4257750174274
 10
6040.200039602028
 20
1295.1358470410432
 10
6041.061597273444
 20
1295.8869910501153
 10
6041.880037541801
 20
1296.6783525146238
 10
6042.655363437348
 20
1297.509076904547
 10
6043.387577990333
 20
1298.3783096898665
 10
6044.076684231002
 20
1299.2851963405594
 10
6044.722685189607
 20
1300.228882326606
 10
6045.325583896393
 20
1301.2085131179865
 10
6045.88538338161
 20
1302.223234184679
 10
6046.402086675507
 20
1303.2721909966642
 10
6046.87569680833
 20
1304.3545290239203
 10
6067.036205409317
 20
1355.5281502130615
 10
6069.217513991706
 20
1359.5080230280994
 10
6071.735304375564
 20
1363.2877858210343
 10
6074.559974065247
 20
1366.8396163670984
 10
6077.661920565114
 20
1370.1356924415295
 10
6081.011541379524
 20
1373.148191819559
 10
6084.5792340128355
 20
1375.8492922764249
 10
6088.335395969407
 20
1378.2111715873602
 10
6092.250424753596
 20
1380.2060075275986
 10
6096.294717869761
 20
1381.805977872376
 10
6100.438672822263
 20
1382.9832603969262
 10
6104.6526871154565
 20
1383.7100328764845
 10
6108.907158253702
 20
1383.9584730862855
 10
6113.429111934585
 20
1383.6731322803334
 10
6117.428850804957
 20
1382.8386347262356
 10
6120.9009689018485
 20
1381.4872677196252
 10
6123.840060262294
 20
1379.651318556139
 10
6126.240718923325
 20
1377.3630745314115
 10
6128.097538921977
 20
1374.6548229410798
 10
6129.405114295281
 20
1371.5588510807772
 10
6130.158039080271
 20
1368.107446246139
 10
6130.350907313979
 20
1364.3328957328015
 10
6129.978313033439
 20
1360.2674868363995
 10
6129.034850275683
 20
1355.9435068525681
 10
6127.515113077746
 20
1351.393243076943
 10
6127.515113077746
 20
1351.393243076943
 10
6109.422930756329
 20
1304.6128516309889
 10
6109.013595977756
 20
1303.4713164405907
 10
6108.688533919528
 20
1302.3739365132951
 10
6108.445964310767
 20
1301.3215769849892
 10
6108.284106880597
 20
1300.3151029915662
 10
6108.201181358143
 20
1299.3553796689116
 10
6108.195407472528
 20
1298.4432721529192
 10
6108.265004952877
 20
1297.5796455794766
 10
6108.408193528312
 20
1296.7653650844725
 10
6108.6231929279575
 20
1296.001295803798
 10
6108.9082228809375
 20
1295.288302873342
 10
6109.261503116377
 20
1294.627251428994
 10
6109.681253363397
 20
1294.0190066066443
 10
6110.155281165446
 20
1293.399315273862
 10
6110.672362735338
 20
1292.833589633054
 10
6111.232498073075
 20
1292.3218145329758
 10
6111.835687178656
 20
1291.8639748223873
 10
6112.481930052083
 20
1291.4600553500472
 10
6113.171226693355
 20
1291.1100409647138
 10
6113.903577102471
 20
1290.813916515146
 10
6114.678981279432
 20
1290.5716668501009
 10
6115.497439224238
 20
1290.3832768183381
 10
6116.3589509368885
 20
1290.2487312686167
 10
6117.2635164173835
 20
1290.1680150496943
 10
6118.211135665724
 20
1290.141113010329
 10
6119.1802823030275
 20
1290.1680150496938
 10
6120.14943197058
 20
1290.248731268617
 10
6121.118587698628
 20
1290.3832768183381
 10
6122.087752517423
 20
1290.5716668501013
 10
6123.056929457209
 20
1290.8139165151454
 10
6124.026121548238
 20
1291.1100409647138
 10
6124.995331820755
 20
1291.4600553500475
 10
6125.964563305012
 20
1291.8639748223873
 10
6126.933819031255
 20
1292.3218145329758
 10
6127.903102029732
 20
1292.8335896330539
 10
6128.872415330692
 20
1293.3993152738626
 10
6129.841761964384
 20
1294.0190066066443
 10
6130.789239296096
 20
1294.627251428994
 10
6131.69277499721
 20
1295.288302873342
 10
6132.551463023487
 20
1296.0012958037973
 10
6133.3643973306835
 20
1296.7653650844725
 10
6134.130671874557
 20
1297.5796455794753
 10
6134.849380610869
 20
1298.4432721529188
 10
6135.519617495376
 20
1299.355379668912
 10
6136.140476483836
 20
1300.3151029915653
 10
6136.711051532007
 20
1301.32157698499
 10
6137.23043659565
 20
1302.3739365132947
 10
6137.697725630519
 20
1303.4713164405907
 10
6138.112012592376
 20
1304.6128516309889
 10
6156.205503981059
 20
1351.393243076943
 10
6156.205503981059
 20
1351.393243076943
 10
6158.992979393026
 20
1359.8198479516714
 10
6160.65152064963
 20
1367.8667475631833
 10
6161.204463693028
 20
1375.4666491874814
 10
6160.6751444653755
 20
1382.5522601005725
 10
6159.086898908832
 20
1389.0562875784578
 10
6156.463062965556
 20
1394.9114388971454
 10
6152.826972577703
 20
1400.0504213326387
 10
6148.201963687429
 20
1404.4059421609404
 10
6142.611372236895
 20
1407.9107086580568
 10
6136.078534168255
 20
1410.497428099991
 10
6128.626785423669
 20
1412.098807762748
 10
6120.279461945293
 20
1412.647554922333
  0
TEXT
  5
C5
330
17
100
AcDbEntity
  8
Tekst
 62
7
100
AcDbText
 10
6600.0
 20
1335.0
 30
0.0
 40
75.0
  1
BH TELECOM d.d. SARAJEVO
  7
20
 11
6600.0
 21
1335.0
 31
0.0
100
AcDbText
  0
TEXT
  5
C6
330
17
100
AcDbEntity
  8
Okvir
 62
8
100
AcDbText
 10
6600.0
 20
1240.0
 30
0.0
 40
55.00000000000001
  1
Izvršna direkcija za tehnologiju i razvoj servisa
  7
20
 11
6600.0
 21
1240.0
 31
0.0
100
AcDbText
  0
TEXT
  5
C7
330
17
100
AcDbEntity
  8
Okvir
 62
8
100
AcDbText
 10
5825.0
 20
1135.0
 30
0.0
 40
47.5
  1
Investitor:
  7
20
 11
5825.0
 21
1135.0
 31
0.0
100
AcDbText
  0
TEXT
  5
C8
330
17
100
AcDbEntity
  8
Tekst
 62
7
100
AcDbText
 10
5825.0
 20
1040.0
 30
0.0
 40
65.0
  1
BH Telecom d.d. Sarajevo, Franca Lehara 7, Sarajevo
  7
20
 11
5825.0
 21
1040.0
 31
0.0
100
AcDbText
  0
TEXT
  5
C9
330
17
100
AcDbEntity
  8
Okvir
 62
8
100
AcDbText
 10
5825.0
 20
935.0
 30
0.0
 40
47.5
  1
Objekat:
  7
20
 11
5825.0
 21
935.0
 31
0.0
100
AcDbText
  0
TEXT
  5
CA
330
17
100
AcDbEntity
  8
Tekst
 62
7
100
AcDbText
 10
5825.0
 20
840.0
 30
0.0
 40
65.0
  1
BS SJEDNICA (Bileća) — autonomni hibridni sistem napajanja
  7
20
 11
5825.0
 21
840.0
 31
0.0
100
AcDbText
  0
TEXT
  5
CB
330
17
100
AcDbEntity
  8
Okvir
 62
8
100
AcDbText
 10
5825.0
 20
735.0
 30
0.0
 40
47.5
  1
Faza:
  7
20
 11
5825.0
 21
735.0
 31
0.0
100
AcDbText
  0
TEXT
  5
CC
330
17
100
AcDbEntity
  8
Tekst
 62
7
100
AcDbText
 10
5825.0
 20
640.0
 30
0.0
 40
65.0
  1
Tenderska dokumentacija — Prilog III
  7
20
 11
5825.0
 21
640.0
 31
0.0
100
AcDbText
  0
TEXT
  5
CD
330
17
100
AcDbEntity
  8
Okvir
 62
8
100
AcDbText
 10
8775.0
 20
735.0
 30
0.0
 40
47.5
  1
šifra projekta:
  7
20
 11
8775.0
 21
735.0
 31
0.0
100
AcDbText
  0
TEXT
  5
CE
330
17
100
AcDbEntity
  8
Tekst
 62
7
100
AcDbText
 10
8775.0
 20
640.0
 30
0.0
 40
65.0
  1
BHT-SJEDNICA-2026
  7
20
 11
8775.0
 21
640.0
 31
0.0
100
AcDbText
  0
TEXT
  5
CF
330
17
100
AcDbEntity
  8
Okvir
 62
8
100
AcDbText
 10
5825.0
 20
535.0
 30
0.0
 40
47.5
  1
Naziv crteža:
  7
20
 11
5825.0
 21
535.0
 31
0.0
100
AcDbText
  0
TEXT
  5
D0
330
17
100
AcDbEntity
  8
Tekst
 62
7
100
AcDbText
 10
5825.0
 20
435.0
 30
0.0
 40
85.0
  1
DEA u postojećem kontejneru — osnova i presjek
  7
20
 11
5825.0
 21
435.0
 31
0.0
100
AcDbText
  0
TEXT
  5
D1
330
17
100
AcDbEntity
  8
Okvir
 62
8
100
AcDbText
 10
8775.0
 20
535.0
 30
0.0
 40
47.5
  1
razmjera:
  7
20
 11
8775.0
 21
535.0
 31
0.0
100
AcDbText
  0
TEXT
  5
D2
330
17
100
AcDbEntity
  8
Tekst
 62
7
100
AcDbText
 10
8775.0
 20
435.0
 30
0.0
 40
85.0
  1
1:25
  7
20
 11
8775.0
 21
435.0
 31
0.0
100
AcDbText
  0
TEXT
  5
D3
330
17
100
AcDbEntity
  8
Okvir
 62
8
100
AcDbText
 10
5825.0
 20
355.0
 30
0.0
 40
47.5
  1
Projektant:
  7
20
 11
5825.0
 21
355.0
 31
0.0
100
AcDbText
  0
TEXT
  5
D4
330
17
100
AcDbEntity
  8
Tekst
 62
7
100
AcDbText
 10
5825.0
 20
275.0
 30
0.0
 40
57.49999999999999
  1
Rusmir Skopljak, dipl. ing. el.
  7
20
 11
5825.0
 21
275.0
 31
0.0
100
AcDbText
  0
TEXT
  5
D5
330
17
100
AcDbEntity
  8
Okvir
 62
8
100
AcDbText
 10
7375.0
 20
355.0
 30
0.0
 40
47.5
  1
ovjerio:
  7
20
 11
7375.0
 21
355.0
 31
0.0
100
AcDbText
  0
TEXT
  5
D6
330
17
100
AcDbEntity
  8
Tekst
 62
7
100
AcDbText
 10
7375.0
 20
275.0
 30
0.0
 40
57.49999999999999
  1
Rusmir Skopljak, dipl. ing. el.
  7
20
 11
7375.0
 21
275.0
 31
0.0
100
AcDbText
  0
TEXT
  5
D7
330
17
100
AcDbEntity
  8
Okvir
 62
8
100
AcDbText
 10
8775.0
 20
355.0
 30
0.0
 40
47.5
  1
godina / broj crteža:
  7
20
 11
8775.0
 21
355.0
 31
0.0
100
AcDbText
  0
TEXT
  5
D8
330
17
100
AcDbEntity
  8
Tekst
 62
7
100
AcDbText
 10
8775.0
 20
275.0
 30
0.0
 40
70.0
  1
2026.    M-01
  7
20
 11
8775.0
 21
275.0
 31
0.0
100
AcDbText
  0
LWPOLYLINE
  5
D9
330
17
100
AcDbEntity
  8
Objekat
 62
6
370
50
100
AcDbPolyline
 90
4
 70
1
 10
1900.0
 20
4300.0
 10
4905.0
 20
4300.0
 10
4905.0
 20
6600.0
 10
1900.0
 20
6600.0
  0
LWPOLYLINE
  5
DA
330
17
100
AcDbEntity
  8
Objekat
 62
6
100
AcDbPolyline
 90
4
 70
1
 10
1960.0
 20
4360.0
 10
4845.0
 20
4360.0
 10
4845.0
 20
6540.0
 10
1960.0
 20
6540.0
  0
HATCH
  5
DB
330
17
100
AcDbEntity
  8
Objekat
 62
8
100
AcDbHatch
 10
0.0
 20
0.0
 30
0.0
210
0.0
220
0.0
230
1.0
  2
SOLID
 70
1
 71
0
 91
1
 92
3
 72
0
 73
1
 93
4
 10
1900.0
 20
4300.0
 10
4905.0
 20
4300.0
 10
4905.0
 20
4360.0
 10
1900.0
 20
4360.0
 97
0
 75
0
 76
1
 98
0
  0
HATCH
  5
DC
330
17
100
AcDbEntity
  8
Objekat
 62
8
100
AcDbHatch
 10
0.0
 20
0.0
 30
0.0
210
0.0
220
0.0
230
1.0
  2
SOLID
 70
1
 71
0
 91
1
 92
3
 72
0
 73
1
 93
4
 10
1900.0
 20
6540.0
 10
4905.0
 20
6540.0
 10
4905.0
 20
6600.0
 10
1900.0
 20
6600.0
 97
0
 75
0
 76
1
 98
0
  0
HATCH
  5
DD
330
17
100
AcDbEntity
  8
Objekat
 62
8
100
AcDbHatch
 10
0.0
 20
0.0
 30
0.0
210
0.0
220
0.0
230
1.0
  2
SOLID
 70
1
 71
0
 91
1
 92
3
 72
0
 73
1
 93
4
 10
1900.0
 20
4360.0
 10
1960.0
 20
4360.0
 10
1960.0
 20
6540.0
 10
1900.0
 20
6540.0
 97
0
 75
0
 76
1
 98
0
  0
HATCH
  5
DE
330
17
100
AcDbEntity
  8
Objekat
 62
8
100
AcDbHatch
 10
0.0
 20
0.0
 30
0.0
210
0.0
220
0.0
230
1.0
  2
SOLID
 70
1
 71
0
 91
1
 92
3
 72
0
 73
1
 93
4
 10
4845.0
 20
4360.0
 10
4905.0
 20
4360.0
 10
4905.0
 20
6540.0
 10
4845.0
 20
6540.0
 97
0
 75
0
 76
1
 98
0
  0
TEXT
  5
DF
330
17
100
AcDbEntity
  8
Tekst
 62
7
100
AcDbText
 10
1900.0
 20
7120.0
 30
0.0
 40
65.0
  1
OSNOVA  —  kontejner je PRAZAN
  7
20
 11
1900.0
 21
7120.0
 31
0.0
100
AcDbText
  0
LWPOLYLINE
  5
E0
330
17
100
AcDbEntity
  8
Konstrukcija
 62
5
370
35
100
AcDbPolyline
 90
4
 70
1
 10
2290.0
 20
5530.0
 10
3960.0
 20
5530.0
 10
3960.0
 20
6270.0
 10
2290.0
 20
6270.0
  0
LWPOLYLINE
  5
E1
330
17
100
AcDbEntity
  8
Agregat
 62
30
370
50
100
AcDbPolyline
 90
4
 70
1
 10
2350.0
 20
5590.0
 10
3900.0
 20
5590.0
 10
3900.0
 20
6210.0
 10
2350.0
 20
6210.0
  0
TEXT
  5
E2
330
17
100
AcDbEntity
  8
Tekst
 62
7
100
AcDbText
 10
3125.0
 20
5900.0
 30
0.0
 40
47.5
  1
DEA 22 kVA / 17,6 kW, skid
  7
20
 72
1
 11
3125.0
 21
5900.0
 31
0.0
100
AcDbText
 73
2
  0
LWPOLYLINE
  5
E3
330
17
100
AcDbEntity
  8
Agregat
 62
4
370
35
100
AcDbPolyline
 90
4
 70
1
 10
2350.0
 20
5590.0
 10
2530.0
 20
5590.0
 10
2530.0
 20
6210.0
 10
2350.0
 20
6210.0
  0
TEXT
  5
E4
330
17
100
AcDbEntity
  8
Tekst
 62
8
100
AcDbText
 10
2440.0
 20
5360.0
 30
0.0
 40
35.0
  1
RADIJATOR
  7
20
 72
1
 11
2440.0
 21
5360.0
 31
0.0
100
AcDbText
  0
LWPOLYLINE
  5
E5
330
17
100
AcDbEntity
  8
Ventilacija
 62
4
370
35
100
AcDbPolyline
 90
4
 70
1
 10
1960.0
 20
5600.0
 10
2350.0
 20
5600.0
 10
2350.0
 20
6200.0
 10
1960.0
 20
6200.0
  0
HATCH
  5
E6
330
17
100
AcDbEntity
  8
Ventilacija
 62
4
100
AcDbHatch
 10
0.0
 20
0.0
 30
0.0
210
0.0
220
0.0
230
1.0
  2
SOLID
 70
1
 71
0
 91
1
 92
3
 72
0
 73
1
 93
4
 10
1900.0
 20
5600.0
 10
1960.0
 20
5600.0
 10
1960.0
 20
6200.0
 10
1900.0
 20
6200.0
 97
0
 75
0
 76
1
 98
0
  0
HATCH
  5
E7
330
17
100
AcDbEntity
  8
Ventilacija
 62
4
100
AcDbHatch
 10
0.0
 20
0.0
 30
0.0
210
0.0
220
0.0
230
1.0
  2
SOLID
 70
1
 71
0
 91
1
 92
3
 72
0
 73
1
 93
4
 10
4050.0
 20
6540.0
 10
4550.0
 20
6540.0
 10
4550.0
 20
6600.0
 10
4050.0
 20
6600.0
 97
0
 75
0
 76
1
 98
0
  0
LWPOLYLINE
  5
E8
330
17
100
AcDbEntity
  8
Novi1
 62
30
370
50
100
AcDbPolyline
 90
4
 70
1
 10
2250.0
 20
6340.0
 10
3050.0
 20
6340.0
 10
3050.0
 20
6540.0
 10
2250.0
 20
6540.0
  0
TEXT
  5
E9
330
17
100
AcDbEntity
  8
Tekst
 62
7
100
AcDbText
 10
2650.0
 20
6385.0
 30
0.0
 40
40.0
  1
GRO
  7
20
 72
1
 11
2650.0
 21
6385.0
 31
0.0
100
AcDbText
  0
CIRCLE
  5
EA
330
17
100
AcDbEntity
  8
Ventilacija
 62
1
100
AcDbCircle
 10
2050.0
 20
5000.0
 30
0.0
 40
60.0
  0
LWPOLYLINE
  5
EB
330
17
100
AcDbEntity
  8
Konstrukcija
 62
5
370
35
100
AcDbPolyline
 90
4
 70
1
 10
2990.0
 20
4340.0
 10
4710.0
 20
4340.0
 10
4710.0
 20
5520.0
 10
2990.0
 20
5520.0
  0
LWPOLYLINE
  5
EC
330
17
100
AcDbEntity
  8
Agregat
 62
1
370
35
100
AcDbPolyline
 90
4
 70
1
 10
3050.0
 20
4400.0
 10
4650.0
 20
4400.0
 10
4650.0
 20
5460.0
 10
3050.0
 20
5460.0
  0
LWPOLYLINE
  5
ED
330
17
100
AcDbEntity
  8
Agregat
 62
30
370
35
100
AcDbPolyline
 90
4
 70
1
 10
3325.0
 20
4630.0
 10
4375.0
 20
4630.0
 10
4375.0
 20
5230.0
 10
3325.0
 20
5230.0
  0
TEXT
  5
EE
330
17
100
AcDbEntity
  8
Tekst
 62
7
100
AcDbText
 10
3850.0
 20
4930.0
 30
0.0
 40
42.5
  1
spremnik 500 l
  7
20
 72
1
 11
3850.0
 21
4930.0
 31
0.0
100
AcDbText
 73
2
  0
CIRCLE
  5
EF
330
17
100
AcDbEntity
  8
Ventilacija
 62
1
100
AcDbCircle
 10
4700.0
 20
4330.0
 30
0.0
 40
40.0
  0
HATCH
  5
F0
330
17
100
AcDbEntity
  8
Objekat
 62
0
100
AcDbHatch
 10
0.0
 20
0.0
 30
0.0
210
0.0
220
0.0
230
1.0
  2
SOLID
 70
1
 71
0
 91
1
 92
3
 72
0
 73
1
 93
4
 10
4845.0
 20
5000.0
 10
4905.0
 20
5000.0
 10
4905.0
 20
5900.0
 10
4845.0
 20
5900.0
 97
0
 75
0
 76
1
 98
0
  0
LINE
  5
F1
330
17
100
AcDbEntity
  8
Objekat
 62
8
100
AcDbLine
 10
4905.0
 20
5000.0
 30
0.0
 11
5805.0
 21
5000.0
 31
0.0
  0
ARC
  5
F2
330
17
100
AcDbEntity
  8
Objekat
 62
8
100
AcDbCircle
 10
4905.0
 20
5000.0
 30
0.0
 40
900.0
100
AcDbArc
 50
0.0
 51
90.0
  0
HATCH
  5
F3
330
17
100
AcDbEntity
  8
Ventilacija
 62
4
100
AcDbHatch
 10
0.0
 20
0.0
 30
0.0
210
0.0
220
0.0
230
1.0
  2
SOLID
 70
1
 71
0
 91
1
 92
3
 72
0
 73
1
 93
4
 10
4845.0
 20
6050.0
 10
4905.0
 20
6050.0
 10
4905.0
 20
6365.0
 10
4845.0
 20
6365.0
 97
0
 75
0
 76
1
 98
0
  0
LWPOLYLINE
  5
F4
330
17
100
AcDbEntity
  8
Ventilacija
 62
4
370
35
100
AcDbPolyline
 90
2
 70
0
 10
4300.0
 20
6950.0
 10
4300.0
 20
6050.0
  0
SOLID
  5
F5
330
17
100
AcDbEntity
  8
Ventilacija
 62
4
100
AcDbTrace
 10
4365.241672489531
 20
6196.0942304499695
 30
0.0
 11
4300.0
 21
6050.0
 31
0.0
 12
4234.758327510469
 22
6196.0942304499695
 32
0.0
 13
4234.758327510469
 23
6196.0942304499695
 33
0.0
  0
LWPOLYLINE
  5
F6
330
17
100
AcDbEntity
  8
Ventilacija
 62
4
370
35
100
AcDbPolyline
 90
2
 70
0
 10
4200.0
 20
5900.0
 10
4050.0
 20
5900.0
  0
SOLID
  5
F7
330
17
100
AcDbEntity
  8
Ventilacija
 62
4
100
AcDbTrace
 10
4196.0942304499695
 20
5834.758327510469
 30
0.0
 11
4050.0
 21
5900.0
 31
0.0
 12
4196.0942304499695
 22
5965.241672489531
 32
0.0
 13
4196.0942304499695
 23
5965.241672489531
 33
0.0
  0
LWPOLYLINE
  5
F8
330
17
100
AcDbEntity
  8
Ventilacija
 62
4
370
35
100
AcDbPolyline
 90
2
 70
0
 10
2110.0
 20
5900.0
 10
1400.0
 20
5900.0
  0
SOLID
  5
F9
330
17
100
AcDbEntity
  8
Ventilacija
 62
4
100
AcDbTrace
 10
1546.0942304499692
 20
5834.758327510469
 30
0.0
 11
1400.0
 21
5900.0
 31
0.0
 12
1546.0942304499692
 22
5965.241672489531
 32
0.0
 13
1546.0942304499692
 23
5965.241672489531
 33
0.0
  0
DIMENSION
  5
FA
330
17
100
AcDbEntity
  8
Kote
100
AcDbDimension
280
0
  2
*D1
  3
Standard
 10
1900.0
 20
3500.0
 30
0.0
 11
3402.5
 21
3500.0
 31
0.0
 70
32
 71
5
  1
<>
100
AcDbAlignedDimension
 13
1900.0
 23
4300.0
 33
0.0
 14
4905.0
 24
4300.0
 34
0.0
 50
0.0
100
AcDbRotatedDimension
  0
DIMENSION
  5
10A
330
17
100
AcDbEntity
  8
Kote
100
AcDbDimension
280
0
  2
*D2
  3
Standard
 10
1100.0
 20
4300.0
 30
0.0
 11
1100.0
 21
5450.0
 31
0.0
 70
32
 71
5
  1
<>
100
AcDbAlignedDimension
 13
1900.0
 23
4300.0
 33
0.0
 14
1900.0
 24
6600.0
 34
0.0
 50
90.0
100
AcDbRotatedDimension
  0
DIMENSION
  5
11A
330
17
100
AcDbEntity
  8
Kote
100
AcDbDimension
280
0
  2
*D3
  3
Standard
 10
4050.0
 20
6950.0
 30
0.0
 11
4300.0
 21
6950.0
 31
0.0
 70
32
 71
5
  1
<>
100
AcDbAlignedDimension
 13
4050.0
 23
6600.0
 33
0.0
 14
4550.0
 24
6600.0
 34
0.0
 50
0.0
100
AcDbRotatedDimension
  0
LWPOLYLINE
  5
12A
330
17
100
AcDbEntity
  8
Izvod
 62
8
100
AcDbPolyline
 90
3
 70
0
 10
4300.0
 20
6570.0
 10
5200.0
 20
7070.0
 10
5250.0
 20
7070.0
  0
CIRCLE
  5
12B
330
17
100
AcDbEntity
  8
Izvod
 62
8
100
AcDbCircle
 10
4300.0
 20
6570.0
 30
0.0
 40
10.0
  0
TEXT
  5
12C
330
17
100
AcDbEntity
  8
Izvod
 62
7
100
AcDbText
 10
5265.0
 20
7050.75
 30
0.0
 40
55.00000000000001
  1
usis 500 × 700 (SJEVER, +0,30)
  7
20
 11
5265.0
 21
7050.75
 31
0.0
100
AcDbText
  0
LWPOLYLINE
  5
12D
330
17
100
AcDbEntity
  8
Izvod
 62
8
100
AcDbPolyline
 90
3
 70
0
 10
1930.0
 20
5900.0
 10
1430.0
 20
7400.0
 10
1380.0
 20
7400.0
  0
CIRCLE
  5
12E
330
17
100
AcDbEntity
  8
Izvod
 62
8
100
AcDbCircle
 10
1930.0
 20
5900.0
 30
0.0
 40
10.0
  0
TEXT
  5
12F
330
17
100
AcDbEntity
  8
Izvod
 62
7
100
AcDbText
 10
1365.0
 20
7380.75
 30
0.0
 40
55.00000000000001
  1
kanal + žaluzina 600 × 600 (ZAPAD)
  7
20
 72
2
 11
1365.0
 21
7380.75
 31
0.0
100
AcDbText
  0
LWPOLYLINE
  5
130
330
17
100
AcDbEntity
  8
Izvod
 62
8
100
AcDbPolyline
 90
3
 70
0
 10
2050.0
 20
5000.0
 10
1550.0
 20
4550.0
 10
1500.0
 20
4550.0
  0
CIRCLE
  5
131
330
17
100
AcDbEntity
  8
Izvod
 62
8
100
AcDbCircle
 10
2050.0
 20
5000.0
 30
0.0
 40
10.0
  0
TEXT
  5
132
330
17
100
AcDbEntity
  8
Izvod
 62
7
100
AcDbText
 10
1485.0
 20
4530.75
 30
0.0
 40
55.00000000000001
  1
izduv DN 65 (ZAPAD)
  7
20
 72
2
 11
1485.0
 21
4530.75
 31
0.0
100
AcDbText
  0
LWPOLYLINE
  5
133
330
17
100
AcDbEntity
  8
Izvod
 62
8
100
AcDbPolyline
 90
3
 70
0
 10
4650.0
 20
4930.0
 10
5350.0
 20
4680.0
 10
5400.0
 20
4680.0
  0
CIRCLE
  5
134
330
17
100
AcDbEntity
  8
Izvod
 62
8
100
AcDbCircle
 10
4650.0
 20
4930.0
 30
0.0
 40
10.0
  0
TEXT
  5
135
330
17
100
AcDbEntity
  8
Izvod
 62
7
100
AcDbText
 10
5415.0
 20
4660.75
 30
0.0
 40
55.00000000000001
  1
tankvana ≥110 %
  7
20
 11
5415.0
 21
4660.75
 31
0.0
100
AcDbText
  0
LWPOLYLINE
  5
136
330
17
100
AcDbEntity
  8
Izvod
 62
8
100
AcDbPolyline
 90
3
 70
0
 10
4700.0
 20
4300.0
 10
5200.0
 20
3900.0
 10
5250.0
 20
3900.0
  0
CIRCLE
  5
137
330
17
100
AcDbEntity
  8
Izvod
 62
8
100
AcDbCircle
 10
4700.0
 20
4300.0
 30
0.0
 40
10.0
  0
TEXT
  5
138
330
17
100
AcDbEntity
  8
Izvod
 62
7
100
AcDbText
 10
5265.0
 20
3880.75
 30
0.0
 40
55.00000000000001
  1
oduška (JUG)
  7
20
 11
5265.0
 21
3880.75
 31
0.0
100
AcDbText
  0
LWPOLYLINE
  5
139
330
17
100
AcDbEntity
  8
Izvod
 62
8
100
AcDbPolyline
 90
3
 70
0
 10
4875.0
 20
6200.0
 10
5475.0
 20
6550.0
 10
5525.0
 20
6550.0
  0
CIRCLE
  5
13A
330
17
100
AcDbEntity
  8
Izvod
 62
8
100
AcDbCircle
 10
4875.0
 20
6200.0
 30
0.0
 40
10.0
  0
TEXT
  5
13B
330
17
100
AcDbEntity
  8
Izvod
 62
7
100
AcDbText
 10
5540.0
 20
6530.75
 30
0.0
 40
55.00000000000001
  1
ventilator Ø315 (ISTOK)
  7
20
 11
5540.0
 21
6530.75
 31
0.0
100
AcDbText
  0
LWPOLYLINE
  5
13C
330
17
100
AcDbEntity
  8
Izvod
 62
8
100
AcDbPolyline
 90
3
 70
0
 10
2230.0
 20
5470.0
 10
1730.0
 20
5070.0
 10
1680.0
 20
5070.0
  0
CIRCLE
  5
13D
330
17
100
AcDbEntity
  8
Izvod
 62
8
100
AcDbCircle
 10
2230.0
 20
5470.0
 30
0.0
 40
10.0
  0
TEXT
  5
13E
330
17
100
AcDbEntity
  8
Izvod
 62
7
100
AcDbText
 10
1665.0
 20
5050.75
 30
0.0
 40
55.00000000000001
  1
roštilj za raznošenje opterećenja
  7
20
 72
2
 11
1665.0
 21
5050.75
 31
0.0
100
AcDbText
  0
TEXT
  5
13F
330
17
100
AcDbEntity
  8
Orijentacija
 62
1
100
AcDbText
 10
3402.5
 20
6730.0
 30
0.0
 40
50.0
  1
S J E V E R
  7
20
 72
1
 11
3402.5
 21
6730.0
 31
0.0
100
AcDbText
  0
TEXT
  5
140
330
17
100
AcDbEntity
  8
Orijentacija
 62
1
100
AcDbText
 10
3402.5
 20
4000.0
 30
0.0
 40
50.0
  1
J U G
  7
20
 72
1
 11
3402.5
 21
4000.0
 31
0.0
100
AcDbText
  0
TEXT
  5
141
330
17
100
AcDbEntity
  8
Orijentacija
 62
1
100
AcDbText
 10
1770.0
 20
5450.0
 30
0.0
 40
50.0
  1
Z A P A D
  7
20
 72
2
 11
1770.0
 21
5450.0
 31
0.0
100
AcDbText
  0
TEXT
  5
142
330
17
100
AcDbEntity
  8
Orijentacija
 62
1
100
AcDbText
 10
5035.0
 20
6200.0
 30
0.0
 40
50.0
  1
I S T O K
  7
20
 11
5035.0
 21
6200.0
 31
0.0
100
AcDbText
  0
LWPOLYLINE
  5
143
330
17
100
AcDbEntity
  8
Objekat
 62
6
370
50
100
AcDbPolyline
 90
4
 70
1
 10
6600.0
 20
4000.0
 10
9605.0
 20
4000.0
 10
9605.0
 20
6630.0
 10
6600.0
 20
6630.0
  0
TEXT
  5
144
330
17
100
AcDbEntity
  8
Tekst
 62
7
100
AcDbText
 10
6600.0
 20
7150.0
 30
0.0
 40
65.0
  1
PRESJEK 1–1  (pogled prema SJEVERU — ZAPAD lijevo)
  7
20
 11
6600.0
 21
7150.0
 31
0.0
100
AcDbText
  0
LINE
  5
145
330
17
100
AcDbEntity
  8
Objekat
 62
8
370
50
100
AcDbLine
 10
6100.0
 20
4000.0
 30
0.0
 11
10105.0
 21
4000.0
 31
0.0
  0
LWPOLYLINE
  5
146
330
17
100
AcDbEntity
  8
Agregat
 62
30
370
50
100
AcDbPolyline
 90
4
 70
1
 10
7050.0
 20
4000.0
 10
8600.0
 20
4000.0
 10
8600.0
 20
5020.0
 10
7050.0
 20
5020.0
  0
HATCH
  5
147
330
17
100
AcDbEntity
  8
Agregat
 62
7
100
AcDbHatch
 10
0.0
 20
0.0
 30
0.0
210
0.0
220
0.0
230
1.0
  2
ANSI31
 70
0
 71
0
 91
1
 92
3
 72
0
 73
1
 93
4
 10
7050.0
 20
4000.0
 10
8600.0
 20
4000.0
 10
8600.0
 20
5020.0
 10
7050.0
 20
5020.0
 97
0
 75
1
 76
1
 52
0.0
 41
7.5
 77
0
 78
1
 53
45.0
 43
0.0
 44
0.0
 45
-16.8379802273
 46
16.8379802273
 79
0
 98
0
  0
LWPOLYLINE
  5
148
330
17
100
AcDbEntity
  8
Ventilacija
 62
4
370
35
100
AcDbPolyline
 90
4
 70
1
 10
6660.0
 20
4380.0
 10
7050.0
 20
4380.0
 10
7050.0
 20
5020.0
 10
6660.0
 20
5020.0
  0
HATCH
  5
149
330
17
100
AcDbEntity
  8
Ventilacija
 62
4
100
AcDbHatch
 10
0.0
 20
0.0
 30
0.0
210
0.0
220
0.0
230
1.0
  2
SOLID
 70
1
 71
0
 91
1
 92
3
 72
0
 73
1
 93
4
 10
6600.0
 20
4400.0
 10
6660.0
 20
4400.0
 10
6660.0
 20
5000.0
 10
6600.0
 20
5000.0
 97
0
 75
0
 76
1
 98
0
  0
LWPOLYLINE
  5
14A
330
17
100
AcDbEntity
  8
Ventilacija
 62
4
370
35
100
AcDbPolyline
 90
2
 70
0
 10
6950.0
 20
4700.0
 10
6100.0
 20
4700.0
  0
SOLID
  5
14B
330
17
100
AcDbEntity
  8
Ventilacija
 62
4
100
AcDbTrace
 10
6246.0942304499695
 20
4634.758327510469
 30
0.0
 11
6100.0
 21
4700.0
 31
0.0
 12
6246.0942304499695
 22
4765.241672489531
 32
0.0
 13
6246.0942304499695
 23
4765.241672489531
 33
0.0
  0
LWPOLYLINE
  5
14C
330
17
100
AcDbEntity
  8
Ventilacija
 62
1
370
70
100
AcDbPolyline
 90
4
 70
0
 10
7500.0
 20
5020.0
 10
7500.0
 20
5600.0
 10
6860.0
 20
5600.0
 10
6860.0
 20
7010.0
  0
LWPOLYLINE
  5
14D
330
17
100
AcDbEntity
  8
Ventilacija
 62
1
370
35
100
AcDbPolyline
 90
4
 70
1
 10
7300.0
 20
5650.0
 10
7700.0
 20
5650.0
 10
7700.0
 20
5910.0
 10
7300.0
 20
5910.0
  0
TEXT
  5
14E
330
17
100
AcDbEntity
  8
Tekst
 62
8
100
AcDbText
 10
7780.0
 20
5730.0
 30
0.0
 40
37.5
  1
prigušivač
  7
20
 11
7780.0
 21
5730.0
 31
0.0
100
AcDbText
  0
TEXT
  5
14F
330
17
100
AcDbEntity
  8
Tekst
 62
8
100
AcDbText
 10
7000.0
 20
6830.0
 30
0.0
 40
37.5
  1
izduv iznad krova
  7
20
 11
7000.0
 21
6830.0
 31
0.0
100
AcDbText
  0
LWPOLYLINE
  5
150
330
17
100
AcDbEntity
  8
Sakriveno
 62
8
100
AcDbPolyline
 90
4
 70
1
 10
8750.0
 20
4300.0
 10
9250.0
 20
4300.0
 10
9250.0
 20
5000.0
 10
8750.0
 20
5000.0
  0
TEXT
  5
151
330
17
100
AcDbEntity
  8
Tekst
 62
8
100
AcDbText
 10
8550.0
 20
5120.0
 30
0.0
 40
37.5
  1
usis (SJEVERNI zid)
  7
20
 11
8550.0
 21
5120.0
 31
0.0
100
AcDbText
  0
LWPOLYLINE
  5
152
330
17
100
AcDbEntity
  8
Ventilacija
 62
4
370
35
100
AcDbPolyline
 90
2
 70
0
 10
9000.0
 20
4650.0
 10
8600.0
 20
4650.0
  0
SOLID
  5
153
330
17
100
AcDbEntity
  8
Ventilacija
 62
4
100
AcDbTrace
 10
8746.09423044997
 20
4584.758327510469
 30
0.0
 11
8600.0
 21
4650.0
 31
0.0
 12
8746.09423044997
 22
4715.241672489531
 32
0.0
 13
8746.09423044997
 23
4715.241672489531
 33
0.0
  0
LWPOLYLINE
  5
154
330
17
100
AcDbEntity
  8
Sakriveno
 62
8
100
AcDbPolyline
 90
4
 70
1
 10
8025.0
 20
4000.0
 10
9075.0
 20
4000.0
 10
9075.0
 20
5310.0
 10
8025.0
 20
5310.0
  0
TEXT
  5
155
330
17
100
AcDbEntity
  8
Tekst
 62
8
100
AcDbText
 10
8025.0
 20
5420.0
 30
0.0
 40
37.5
  1
spremnik ispred presjeka
  7
20
 11
8025.0
 21
5420.0
 31
0.0
100
AcDbText
  0
HATCH
  5
156
330
17
100
AcDbEntity
  8
Ventilacija
 62
4
100
AcDbHatch
 10
0.0
 20
0.0
 30
0.0
210
0.0
220
0.0
230
1.0
  2
SOLID
 70
1
 71
0
 91
1
 92
3
 72
0
 73
1
 93
4
 10
9545.0
 20
5750.0
 10
9605.0
 20
5750.0
 10
9605.0
 20
6065.0
 10
9545.0
 20
6065.0
 97
0
 75
0
 76
1
 98
0
  0
TEXT
  5
157
330
17
100
AcDbEntity
  8
Tekst
 62
8
100
AcDbText
 10
8905.0
 20
6130.0
 30
0.0
 40
37.5
  1
ventilator
  7
20
 11
8905.0
 21
6130.0
 31
0.0
100
AcDbText
  0
DIMENSION
  5
158
330
17
100
AcDbEntity
  8
Kote
100
AcDbDimension
280
0
  2
*D4
  3
Standard
 10
5900.0
 20
4000.0
 30
0.0
 11
5900.0
 21
5315.0
 31
0.0
 70
32
 71
5
  1
<>
100
AcDbAlignedDimension
 13
6600.0
 23
4000.0
 33
0.0
 14
6600.0
 24
6630.0
 34
0.0
 50
90.0
100
AcDbRotatedDimension
  0
TEXT
  5
168
330
17
100
AcDbEntity
  8
Tekst
 62
7
100
AcDbText
 10
700.0
 20
3150.0
 30
0.0
 40
65.0
  1
NAPOMENE:
  7
20
 11
700.0
 21
3150.0
 31
0.0
100
AcDbText
  0
TEXT
  5
169
330
17
100
AcDbEntity
  8
Tekst
 62
7
100
AcDbText
 10
700.0
 20
3090.0
 30
0.0
 40
52.5
  1
1  FG Wilson P22-6 (Skid), TL 2019-08-14: hladnjak 1980 m³/h, sagorijevanje 90 m³/h,
  7
20
 11
700.0
 21
3090.0
 31
0.0
100
AcDbText
  0
TEXT
  5
16A
330
17
100
AcDbEntity
  8
Tekst
 62
7
100
AcDbText
 10
700.0
 20
3013.875
 30
0.0
 40
52.5
  1
    toplota u prostor 7,1 kW, maks. vanjski otpor 125 Pa.
  7
20
 11
700.0
 21
3013.875
 31
0.0
100
AcDbText
  0
TEXT
  5
16B
330
17
100
AcDbEntity
  8
Tekst
 62
7
100
AcDbText
 10
700.0
 20
2937.75
 30
0.0
 40
52.5
  1
2  Žaluzine zadovoljavaju: usis 500 × 700 (Δp≈16 Pa) + izlaz 600 × 600 (≈15 Pa) + kanal < 125 Pa.
  7
20
 11
700.0
 21
2937.75
 31
0.0
100
AcDbText
  0
TEXT
  5
16C
330
17
100
AcDbEntity
  8
Tekst
 62
7
100
AcDbText
 10
700.0
 20
2861.625
 30
0.0
 40
52.5
  1
3  Ventilator 1200 m³/h je DOPUNSKA ventilacija (min. 120 m³/h); protok hlađenja daje ventilator hladnjaka.
  7
20
 11
700.0
 21
2861.625
 31
0.0
100
AcDbText
  0
TEXT
  5
16D
330
17
100
AcDbEntity
  8
Tekst
 62
7
100
AcDbText
 10
700.0
 20
2785.5
 30
0.0
 40
52.5
  1
4  Izduv DN 65 usvojen (NO 50 zadovoljava protutlak, ali radi pri 33 m/s).
  7
20
 11
700.0
 21
2785.5
 31
0.0
100
AcDbText
  0
TEXT
  5
16E
330
17
100
AcDbEntity
  8
Tekst
 62
7
100
AcDbText
 10
700.0
 20
2709.375
 30
0.0
 40
52.5
  1
5  Pod je dimenzionisan na 10,00 kN/m² ravnomjerno raspodijeljeno (projekat lokacije, 4.4.2.3).
  7
20
 11
700.0
 21
2709.375
 31
0.0
100
AcDbText
  0
TEXT
  5
16F
330
17
100
AcDbEntity
  8
Tekst
 62
7
100
AcDbText
 10
700.0
 20
2633.25
 30
0.0
 40
52.5
  1
    Agregat 3,93 i pun spremnik 9,2 kN/m² su KONCENTRISANI — roštilj za raznošenje je OBAVEZAN.
  7
20
 11
700.0
 21
2633.25
 31
0.0
100
AcDbText
  0
TEXT
  5
170
330
17
100
AcDbEntity
  8
Tekst
 62
7
100
AcDbText
 10
700.0
 20
2557.125
 30
0.0
 40
52.5
  1
6  RASPORED: usis SJEVER (+0,30) — zasjenjena strana, najhladniji zrak; kanal/izlaz i izduv
  7
20
 11
700.0
 21
2557.125
 31
0.0
100
AcDbText
  0
TEXT
  5
171
330
17
100
AcDbEntity
  8
Tekst
 62
7
100
AcDbText
 10
700.0
 20
2481.0
 30
0.0
 40
52.5
  1
    ZAPAD, oduška JUG, ventilator ISTOK; ≥3 m između usisa, izduva i oduške. Izlaz toplog
  7
20
 11
700.0
 21
2481.0
 31
0.0
100
AcDbText
  0
TEXT
  5
172
330
17
100
AcDbEntity
  8
Tekst
 62
7
100
AcDbText
 10
700.0
 20
2404.875
 30
0.0
 40
52.5
  1
    zraka i izduv NISU na sjevernoj strani, pa se ormari ICC330-H1/MTS9302 ne griju.
  7
20
 11
700.0
 21
2404.875
 31
0.0
100
AcDbText
  0
TEXT
  5
173
330
17
100
AcDbEntity
  8
Tekst
 62
7
100
AcDbText
 10
700.0
 20
2328.75
 30
0.0
 40
52.5
  1
7  GRO na SJEVERNOM zidu, uz vanjske ormare koje napaja (najkraća trasa).
  7
20
 11
700.0
 21
2328.75
 31
0.0
100
AcDbText
  0
TEXT
  5
174
330
17
100
AcDbEntity
  8
Tekst
 62
7
100
AcDbText
 10
700.0
 20
2252.625
 30
0.0
 40
52.5
  1
8  UNOS: skid 620 mm kroz vrata 900 mm. Kontejner je PRAZAN.
  7
20
 11
700.0
 21
2252.625
 31
0.0
100
AcDbText
  0
ENDSEC
  0
SECTION
  2
OBJECTS
  0
DICTIONARY
  5
A
330
0
100
AcDbDictionary
281
1
  3
ACAD_COLOR
350
B
  3
ACAD_GROUP
350
C
  3
ACAD_LAYOUT
350
D
  3
ACAD_MATERIAL
350
E
  3
ACAD_MLEADERSTYLE
350
F
  3
ACAD_MLINESTYLE
350
10
  3
ACAD_PLOTSETTINGS
350
11
  3
ACAD_PLOTSTYLENAME
350
12
  3
ACAD_SCALELIST
350
14
  3
ACAD_TABLESTYLE
350
15
  3
ACAD_VISUALSTYLE
350
16
  3
EZDXF_META
350
2D
  0
DICTIONARY
  5
B
330
A
100
AcDbDictionary
281
1
  0
DICTIONARY
  5
C
330
A
100
AcDbDictionary
281
1
  0
DICTIONARY
  5
D
330
A
100
AcDbDictionary
281
1
  3
Model
350
1A
  3
Layout1
350
1E
  0
DICTIONARY
  5
E
330
A
100
AcDbDictionary
281
1
  3
ByBlock
350
1F
  3
ByLayer
350
20
  3
Global
350
21
  0
DICTIONARY
  5
F
330
A
100
AcDbDictionary
281
1
  3
Standard
350
2C
  0
DICTIONARY
  5
10
330
A
100
AcDbDictionary
281
1
  3
Standard
350
22
  0
DICTIONARY
  5
11
330
A
100
AcDbDictionary
281
1
  0
ACDBDICTIONARYWDFLT
  5
12
330
A
100
AcDbDictionary
281
1
  3
Normal
350
13
100
AcDbDictionaryWithDefault
340
13
  0
ACDBPLACEHOLDER
  5
13
330
12
  0
DICTIONARY
  5
14
330
A
100
AcDbDictionary
281
1
  0
DICTIONARY
  5
15
330
A
100
AcDbDictionary
281
1
  0
DICTIONARY
  5
16
330
A
100
AcDbDictionary
281
1
  3
2dWireframe
350
5A
  3
Basic
350
5B
  3
Brighten
350
5C
  3
ColorChange
350
5D
  3
Conceptual
350
5E
  3
Dim
350
5F
  3
EdgeColorOff
350
60
  3
Facepattern
350
61
  3
Flat
350
62
  3
FlatWithEdges
350
63
  3
Gouraud
350
64
  3
GouraudWithEdges
350
65
  3
Hidden
350
66
  3
JitterOff
350
67
  3
Linepattern
350
68
  3
Modeling
350
69
  3
OverhangOff
350
6A
  3
Realistic
350
6B
  3
Shaded
350
6C
  3
Shaded with edges
350
6D
  3
Shades of Gray
350
6E
  3
Sketchy
350
6F
  3
Thicken
350
70
  3
Wireframe
350
71
  3
X-Ray
350
72
  0
LAYOUT
  5
1A
330
D
100
AcDbPlotSettings
  1

  4
A3
  6

 40
7.5
 41
20.0
 42
7.5
 43
20.0
 44
420.0
 45
297.0
 46
0.0
 47
0.0
 48
0.0
 49
0.0
140
0.0
141
0.0
142
1.0
143
1.0
 70
1024
 72
1
 73
0
 74
5
  7

 75
16
 76
0
 77
2
 78
300
147
1.0
148
0.0
149
0.0
100
AcDbLayout
  1
Model
 70
1
 71
0
 10
0.0
 20
0.0
 11
420.0
 21
297.0
 12
0.0
 22
0.0
 32
0.0
 14
1e+20
 24
1e+20
 34
1e+20
 15
-1e+20
 25
-1e+20
 35
-1e+20
146
0.0
 13
0.0
 23
0.0
 33
0.0
 16
1.0
 26
0.0
 36
0.0
 17
0.0
 27
1.0
 37
0.0
 76
1
330
17
  0
LAYOUT
  5
1E
330
D
100
AcDbPlotSettings
  1

  4
A3
  6

 40
7.5
 41
20.0
 42
7.5
 43
20.0
 44
420.0
 45
297.0
 46
0.0
 47
0.0
 48
0.0
 49
0.0
140
0.0
141
0.0
142
1.0
143
1.0
 70
0
 72
1
 73
0
 74
5
  7

 75
16
 76
0
 77
2
 78
300
147
1.0
148
0.0
149
0.0
100
AcDbLayout
  1
Layout1
 70
1
 71
1
 10
0.0
 20
0.0
 11
420.0
 21
297.0
 12
0.0
 22
0.0
 32
0.0
 14
1e+20
 24
1e+20
 34
1e+20
 15
-1e+20
 25
-1e+20
 35
-1e+20
146
0.0
 13
0.0
 23
0.0
 33
0.0
 16
1.0
 26
0.0
 36
0.0
 17
0.0
 27
1.0
 37
0.0
 76
1
330
1B
  0
MATERIAL
  5
1F
102
{ACAD_REACTORS
330
E
102
}
330
E
100
AcDbMaterial
  1
ByBlock
  2

 70
0
 40
1.0
 71
1
 41
1.0
 91
-1023410177
 42
1.0
 72
1
  3

 73
1
 74
1
 75
1
 44
0.5
 73
0
 45
1.0
 46
1.0
 77
1
  4

 78
1
 79
1
170
1
 48
1.0
171
1
  6

172
1
173
1
174
1
140
1.0
141
1.0
175
1
  7

176
1
177
1
178
1
143
1.0
179
1
  8

270
1
271
1
272
1
145
1.0
146
1.0
273
1
  9

274
1
275
1
276
1
 42
1.0
 72
1
  3

 73
1
 74
1
 75
1
 94
63
  0
MATERIAL
  5
20
102
{ACAD_REACTORS
330
E
102
}
330
E
100
AcDbMaterial
  1
ByLayer
  2

 70
0
 40
1.0
 71
1
 41
1.0
 91
-1023410177
 42
1.0
 72
1
  3

 73
1
 74
1
 75
1
 44
0.5
 73
0
 45
1.0
 46
1.0
 77
1
  4

 78
1
 79
1
170
1
 48
1.0
171
1
  6

172
1
173
1
174
1
140
1.0
141
1.0
175
1
  7

176
1
177
1
178
1
143
1.0
179
1
  8

270
1
271
1
272
1
145
1.0
146
1.0
273
1
  9

274
1
275
1
276
1
 42
1.0
 72
1
  3

 73
1
 74
1
 75
1
 94
63
  0
MATERIAL
  5
21
102
{ACAD_REACTORS
330
E
102
}
330
E
100
AcDbMaterial
  1
Global
  2

 70
0
 40
1.0
 71
1
 41
1.0
 91
-1023410177
 42
1.0
 72
1
  3

 73
1
 74
1
 75
1
 44
0.5
 73
0
 45
1.0
 46
1.0
 77
1
  4

 78
1
 79
1
170
1
 48
1.0
171
1
  6

172
1
173
1
174
1
140
1.0
141
1.0
175
1
  7

176
1
177
1
178
1
143
1.0
179
1
  8

270
1
271
1
272
1
145
1.0
146
1.0
273
1
  9

274
1
275
1
276
1
 42
1.0
 72
1
  3

 73
1
 74
1
 75
1
 94
63
  0
MLINESTYLE
  5
22
102
{ACAD_REACTORS
330
10
102
}
330
10
100
AcDbMlineStyle
  2
Standard
 70
0
  3

 62
256
 51
90.0
 52
90.0
 71
2
 49
0.5
 62
256
  6
BYLAYER
 49
-0.5
 62
256
  6
BYLAYER
  0
MLEADERSTYLE
  5
2C
102
{ACAD_REACTORS
330
F
102
}
330
F
100
AcDbMLeaderStyle
179
2
170
2
171
1
172
0
 90
2
 40
0.0
 41
0.0
173
1
 91
-1056964608
 92
-2
290
1
 42
2.0
291
1
 43
8.0
  3
Standard
 44
4.0
300

342
29
174
1
175
1
176
0
178
1
 93
-1056964608
 45
4.0
292
0
297
0
 46
4.0
 94
-1056964608
 47
1.0
 49
1.0
140
1.0
294
1
141
0.0
177
0
142
1.0
295
0
296
0
143
3.75
271
0
272
9
273
9
  0
DICTIONARY
  5
2D
330
A
100
AcDbDictionary
280
1
281
1
  3
CREATED_BY_EZDXF
350
2E
  3
WRITTEN_BY_EZDXF
350
177
  0
DICTIONARYVAR
  5
2E
330
2D
100
DictionaryVariables
280
0
  1
1.4.4 @ 2026-08-11T15:06:27.048151+00:00
  0
VISUALSTYLE
  5
5A
102
{ACAD_REACTORS
330
16
102
}
330
16
100
AcDbVisualStyle
  2
2dWireframe
 70
4
 90
0
 40
0.6
 62
7
290
0
291
0
  0
VISUALSTYLE
  5
5B
102
{ACAD_REACTORS
330
16
102
}
330
16
100
AcDbVisualStyle
  2
Basic
 70
7
 90
1
 40
0.6
 62
7
290
0
291
1
  0
VISUALSTYLE
  5
5C
102
{ACAD_REACTORS
330
16
102
}
330
16
100
AcDbVisualStyle
  2
Brighten
 70
12
 90
2
 40
0.6
 62
7
290
0
291
1
  0
VISUALSTYLE
  5
5D
102
{ACAD_REACTORS
330
16
102
}
330
16
100
AcDbVisualStyle
  2
ColorChange
 70
16
 90
2
 40
0.6
 62
8
290
0
291
1
  0
VISUALSTYLE
  5
5E
102
{ACAD_REACTORS
330
16
102
}
330
16
100
AcDbVisualStyle
  2
Conceptual
 70
9
 90
3
 40
0.6
 62
7
290
0
291
0
  0
VISUALSTYLE
  5
5F
102
{ACAD_REACTORS
330
16
102
}
330
16
100
AcDbVisualStyle
  2
Dim
 70
11
 90
2
 40
0.6
 62
7
290
0
291
1
  0
VISUALSTYLE
  5
60
102
{ACAD_REACTORS
330
16
102
}
330
16
100
AcDbVisualStyle
  2
EdgeColorOff
 70
22
 90
2
 40
0.6
 62
7
290
0
291
1
  0
VISUALSTYLE
  5
61
102
{ACAD_REACTORS
330
16
102
}
330
16
100
AcDbVisualStyle
  2
Facepattern
 70
15
 90
2
 40
0.6
 62
7
290
0
291
1
  0
VISUALSTYLE
  5
62
102
{ACAD_REACTORS
330
16
102
}
330
16
100
AcDbVisualStyle
  2
Flat
 70
0
 90
2
 40
0.6
 62
7
290
0
291
1
  0
VISUALSTYLE
  5
63
102
{ACAD_REACTORS
330
16
102
}
330
16
100
AcDbVisualStyle
  2
FlatWithEdges
 70
1
 90
2
 40
0.6
 62
7
290
0
291
1
  0
VISUALSTYLE
  5
64
102
{ACAD_REACTORS
330
16
102
}
330
16
100
AcDbVisualStyle
  2
Gouraud
 70
2
 90
2
 40
0.6
 62
7
290
0
291
1
  0
VISUALSTYLE
  5
65
102
{ACAD_REACTORS
330
16
102
}
330
16
100
AcDbVisualStyle
  2
GouraudWithEdges
 70
3
 90
2
 40
0.6
 62
7
290
0
291
1
  0
VISUALSTYLE
  5
66
102
{ACAD_REACTORS
330
16
102
}
330
16
100
AcDbVisualStyle
  2
Hidden
 70
6
 90
1
 40
0.6
 62
7
290
0
291
0
  0
VISUALSTYLE
  5
67
102
{ACAD_REACTORS
330
16
102
}
330
16
100
AcDbVisualStyle
  2
JitterOff
 70
20
 90
2
 40
0.6
 62
7
290
0
291
1
  0
VISUALSTYLE
  5
68
102
{ACAD_REACTORS
330
16
102
}
330
16
100
AcDbVisualStyle
  2
Linepattern
 70
14
 90
2
 40
0.6
 62
7
290
0
291
1
  0
VISUALSTYLE
  5
69
102
{ACAD_REACTORS
330
16
102
}
330
16
100
AcDbVisualStyle
  2
Modeling
 70
10
 90
2
 40
0.6
 62
7
290
0
291
0
  0
VISUALSTYLE
  5
6A
102
{ACAD_REACTORS
330
16
102
}
330
16
100
AcDbVisualStyle
  2
OverhangOff
 70
21
 90
2
 40
0.6
 62
7
290
0
291
1
  0
VISUALSTYLE
  5
6B
102
{ACAD_REACTORS
330
16
102
}
330
16
100
AcDbVisualStyle
  2
Realistic
 70
8
 90
2
 40
0.6
 62
7
290
0
291
0
  0
VISUALSTYLE
  5
6C
102
{ACAD_REACTORS
330
16
102
}
330
16
100
AcDbVisualStyle
  2
Shaded
 70
27
 90
2
 40
0.6
 62
7
290
0
291
0
  0
VISUALSTYLE
  5
6D
102
{ACAD_REACTORS
330
16
102
}
330
16
100
AcDbVisualStyle
  2
Shaded with edges
 70
26
 90
2
 40
0.6
 62
7
290
0
291
0
  0
VISUALSTYLE
  5
6E
102
{ACAD_REACTORS
330
16
102
}
330
16
100
AcDbVisualStyle
  2
Shades of Gray
 70
23
 90
2
 40
0.6
 62
7
290
0
291
0
  0
VISUALSTYLE
  5
6F
102
{ACAD_REACTORS
330
16
102
}
330
16
100
AcDbVisualStyle
  2
Sketchy
 70
24
 90
1
 40
0.6
 62
7
290
0
291
0
  0
VISUALSTYLE
  5
70
102
{ACAD_REACTORS
330
16
102
}
330
16
100
AcDbVisualStyle
  2
Thicken
 70
13
 90
2
 40
0.6
 62
7
290
0
291
1
  0
VISUALSTYLE
  5
71
102
{ACAD_REACTORS
330
16
102
}
330
16
100
AcDbVisualStyle
  2
Wireframe
 70
5
 90
0
 40
0.6
 62
7
290
0
291
0
  0
VISUALSTYLE
  5
72
102
{ACAD_REACTORS
330
16
102
}
330
16
100
AcDbVisualStyle
  2
X-Ray
 70
25
 90
2
 40
0.5
 62
7
290
0
291
0
  0
DICTIONARYVAR
  5
177
330
2D
100
DictionaryVariables
280
0
  1
1.4.4 @ 2026-08-11T15:06:27.079800+00:00
  0
ENDSEC
  0
EOF
