  0
SECTION
  2
HEADER
  9
$ACADVER
  1
AC1024
  9
$ACADMAINTVER
 70
6
  9
$DWGCODEPAGE
  3
ANSI_1252
  9
$LASTSAVEDBY
  1
ezdxf
  9
$INSBASE
 10
0.0
 20
0.0
 30
0.0
  9
$EXTMIN
 10
1e+20
 20
1e+20
 30
1e+20
  9
$EXTMAX
 10
-1e+20
 20
-1e+20
 30
-1e+20
  9
$LIMMIN
 10
0.0
 20
0.0
  9
$LIMMAX
 10
420.0
 20
297.0
  9
$ORTHOMODE
 70
0
  9
$REGENMODE
 70
1
  9
$FILLMODE
 70
1
  9
$QTEXTMODE
 70
0
  9
$MIRRTEXT
 70
1
  9
$LTSCALE
 40
1.0
  9
$ATTMODE
 70
1
  9
$TEXTSIZE
 40
2.5
  9
$TRACEWID
 40
1.0
  9
$TEXTSTYLE
  7
OpenSans
  9
$CLAYER
  8
0
  9
$CELTYPE
  6
ByLayer
  9
$CECOLOR
 62
256
  9
$CELTSCALE
 40
1.0
  9
$DISPSILH
 70
0
  9
$DIMSCALE
 40
1.0
  9
$DIMASZ
 40
0.175
  9
$DIMEXO
 40
0.125
  9
$DIMDLI
 40
3.75
  9
$DIMRND
 40
0.0
  9
$DIMDLE
 40
0.0
  9
$DIMEXE
 40
0.375
  9
$DIMTP
 40
0.0
  9
$DIMTM
 40
0.0
  9
$DIMTXT
 40
0.25
  9
$DIMCEN
 40
2.5
  9
$DIMTSZ
 40
0.0
  9
$DIMTOL
 70
0
  9
$DIMLIM
 70
0
  9
$DIMTIH
 70
0
  9
$DIMTOH
 70
0
  9
$DIMSE1
 70
0
  9
$DIMSE2
 70
0
  9
$DIMTAD
 70
1
  9
$DIMZIN
 70
12
  9
$DIMBLK
  1
ARCHTICK
  9
$DIMASO
 70
1
  9
$DIMSHO
 70
1
  9
$DIMPOST
  1

  9
$DIMAPOST
  1

  9
$DIMALT
 70
0
  9
$DIMALTD
 70
3
  9
$DIMALTF
 40
0.03937007874
  9
$DIMLFAC
 40
100.0
  9
$DIMTOFL
 70
1
  9
$DIMTVP
 40
0.0
  9
$DIMTIX
 70
0
  9
$DIMSOXD
 70
0
  9
$DIMSAH
 70
0
  9
$DIMBLK1
  1

  9
$DIMBLK2
  1

  9
$DIMSTYLE
  2
EZDXF
  9
$DIMCLRD
 70
0
  9
$DIMCLRE
 70
0
  9
$DIMCLRT
 70
0
  9
$DIMTFAC
 40
0.5
  9
$DIMGAP
 40
0.1
  9
$DIMJUST
 70
0
  9
$DIMSD1
 70
0
  9
$DIMSD2
 70
0
  9
$DIMTOLJ
 70
0
  9
$DIMTZIN
 70
8
  9
$DIMALTZ
 70
0
  9
$DIMALTTZ
 70
0
  9
$DIMUPT
 70
1
  9
$DIMDEC
 70
2
  9
$DIMTDEC
 70
2
  9
$DIMALTU
 70
2
  9
$DIMALTTD
 70
3
  9
$DIMTXSTY
  7
OpenSansCondensed-Light
  9
$DIMAUNIT
 70
0
  9
$DIMADEC
 70
2
  9
$DIMALTRND
 40
0.0
  9
$DIMAZIN
 70
3
  9
$DIMDSEP
 70
46
  9
$DIMATFIT
 70
3
  9
$DIMFRAC
 70
0
  9
$DIMLDRBLK
  1

  9
$DIMLUNIT
 70
2
  9
$DIMLWD
 70
-2
  9
$DIMLWE
 70
-2
  9
$DIMTMOVE
 70
2
  9
$DIMFXL
 40
1.0
  9
$DIMFXLON
 70
0
  9
$DIMJOGANG
 40
0.785398163397
  9
$DIMTFILL
 70
0
  9
$DIMTFILLCLR
 70
0
  9
$DIMARCSYM
 70
0
  9
$DIMLTYPE
  6

  9
$DIMLTEX1
  6

  9
$DIMLTEX2
  6

  9
$DIMTXTDIRECTION
 70
0
  9
$LUNITS
 70
2
  9
$LUPREC
 70
4
  9
$SKETCHINC
 40
1.0
  9
$FILLETRAD
 40
10.0
  9
$AUNITS
 70
0
  9
$AUPREC
 70
2
  9
$MENU
  1
.
  9
$ELEVATION
 40
0.0
  9
$PELEVATION
 40
0.0
  9
$THICKNESS
 40
0.0
  9
$LIMCHECK
 70
0
  9
$CHAMFERA
 40
0.0
  9
$CHAMFERB
 40
0.0
  9
$CHAMFERC
 40
0.0
  9
$CHAMFERD
 40
0.0
  9
$SKPOLY
 70
0
  9
$TDCREATE
 40
2461264.7128125
  9
$TDUCREATE
 40
2458532.153996898
  9
$TDUPDATE
 40
2461264.7128125
  9
$TDUUPDATE
 40
2458532.1544311
  9
$TDINDWG
 40
0.0
  9
$TDUSRTIMER
 40
0.0
  9
$USRTIMER
 70
1
  9
$ANGBASE
 50
0.0
  9
$ANGDIR
 70
0
  9
$PDMODE
 70
0
  9
$PDSIZE
 40
0.0
  9
$PLINEWID
 40
0.0
  9
$SPLFRAME
 70
0
  9
$SPLINETYPE
 70
6
  9
$SPLINESEGS
 70
8
  9
$HANDSEED
  5
13C
  9
$SURFTAB1
 70
6
  9
$SURFTAB2
 70
6
  9
$SURFTYPE
 70
6
  9
$SURFU
 70
6
  9
$SURFV
 70
6
  9
$UCSBASE
  2

  9
$UCSNAME
  2

  9
$UCSORG
 10
0.0
 20
0.0
 30
0.0
  9
$UCSXDIR
 10
1.0
 20
0.0
 30
0.0
  9
$UCSYDIR
 10
0.0
 20
1.0
 30
0.0
  9
$UCSORTHOREF
  2

  9
$UCSORTHOVIEW
 70
0
  9
$UCSORGTOP
 10
0.0
 20
0.0
 30
0.0
  9
$UCSORGBOTTOM
 10
0.0
 20
0.0
 30
0.0
  9
$UCSORGLEFT
 10
0.0
 20
0.0
 30
0.0
  9
$UCSORGRIGHT
 10
0.0
 20
0.0
 30
0.0
  9
$UCSORGFRONT
 10
0.0
 20
0.0
 30
0.0
  9
$UCSORGBACK
 10
0.0
 20
0.0
 30
0.0
  9
$PUCSBASE
  2

  9
$PUCSNAME
  2

  9
$PUCSORG
 10
0.0
 20
0.0
 30
0.0
  9
$PUCSXDIR
 10
1.0
 20
0.0
 30
0.0
  9
$PUCSYDIR
 10
0.0
 20
1.0
 30
0.0
  9
$PUCSORTHOREF
  2

  9
$PUCSORTHOVIEW
 70
0
  9
$PUCSORGTOP
 10
0.0
 20
0.0
 30
0.0
  9
$PUCSORGBOTTOM
 10
0.0
 20
0.0
 30
0.0
  9
$PUCSORGLEFT
 10
0.0
 20
0.0
 30
0.0
  9
$PUCSORGRIGHT
 10
0.0
 20
0.0
 30
0.0
  9
$PUCSORGFRONT
 10
0.0
 20
0.0
 30
0.0
  9
$PUCSORGBACK
 10
0.0
 20
0.0
 30
0.0
  9
$USERI1
 70
0
  9
$USERI2
 70
0
  9
$USERI3
 70
0
  9
$USERI4
 70
0
  9
$USERI5
 70
0
  9
$USERR1
 40
0.0
  9
$USERR2
 40
0.0
  9
$USERR3
 40
0.0
  9
$USERR4
 40
0.0
  9
$USERR5
 40
0.0
  9
$WORLDVIEW
 70
1
  9
$SHADEDGE
 70
3
  9
$SHADEDIF
 70
70
  9
$TILEMODE
 70
1
  9
$MAXACTVP
 70
64
  9
$PINSBASE
 10
0.0
 20
0.0
 30
0.0
  9
$PLIMCHECK
 70
0
  9
$PEXTMIN
 10
1e+20
 20
1e+20
 30
1e+20
  9
$PEXTMAX
 10
-1e+20
 20
-1e+20
 30
-1e+20
  9
$PLIMMIN
 10
0.0
 20
0.0
  9
$PLIMMAX
 10
420.0
 20
297.0
  9
$UNITMODE
 70
0
  9
$VISRETAIN
 70
1
  9
$PLINEGEN
 70
0
  9
$PSLTSCALE
 70
1
  9
$TREEDEPTH
 70
3020
  9
$CMLSTYLE
  2
Standard
  9
$CMLJUST
 70
0
  9
$CMLSCALE
 40
20.0
  9
$PROXYGRAPHICS
 70
1
  9
$MEASUREMENT
 70
1
  9
$CELWEIGHT
370
-1
  9
$ENDCAPS
280
0
  9
$JOINSTYLE
280
0
  9
$LWDISPLAY
290
0
  9
$INSUNITS
 70
4
  9
$HYPERLINKBASE
  1

  9
$STYLESHEET
  1

  9
$XEDIT
290
1
  9
$CEPSNTYPE
380
0
  9
$PSTYLEMODE
290
1
  9
$FINGERPRINTGUID
  2
{AE02723F-02A6-4BFD-B025-E0CC5455B5C6}
  9
$VERSIONGUID
  2
{D39A0206-E2BC-4C78-A518-1AF6612ED9B8}
  9
$EXTNAMES
290
1
  9
$PSVPSCALE
 40
0.0
  9
$OLESTARTUP
290
0
  9
$SORTENTS
280
127
  9
$INDEXCTL
280
0
  9
$HIDETEXT
280
1
  9
$XCLIPFRAME
280
1
  9
$HALOGAP
280
0
  9
$OBSCOLOR
 70
257
  9
$OBSLTYPE
280
0
  9
$INTERSECTIONDISPLAY
280
0
  9
$INTERSECTIONCOLOR
 70
257
  9
$DIMASSOC
280
2
  9
$PROJECTNAME
  1

  9
$CAMERADISPLAY
290
0
  9
$LENSLENGTH
 40
50.0
  9
$CAMERAHEIGHT
 40
0.0
  9
$STEPSPERSEC
 40
24.0
  9
$STEPSIZE
 40
100.0
  9
$3DDWFPREC
 40
2.0
  9
$PSOLWIDTH
 40
0.005
  9
$PSOLHEIGHT
 40
0.08
  9
$LOFTANG1
 40
1.570796326795
  9
$LOFTANG2
 40
1.570796326795
  9
$LOFTMAG1
 40
0.0
  9
$LOFTMAG2
 40
0.0
  9
$LOFTPARAM
 70
7
  9
$LOFTNORMALS
280
1
  9
$LATITUDE
 40
37.795
  9
$LONGITUDE
 40
-122.394
  9
$NORTHDIRECTION
 40
0.0
  9
$TIMEZONE
 70
-8000
  9
$LIGHTGLYPHDISPLAY
280
1
  9
$TILEMODELIGHTSYNCH
280
1
  9
$CMATERIAL
347
20
  9
$SOLIDHIST
280
0
  9
$SHOWHIST
280
1
  9
$DWFFRAME
280
2
  9
$DGNFRAME
280
2
  9
$REALWORLDSCALE
290
1
  9
$INTERFERECOLOR
 62
256
  9
$CSHADOW
280
0
  9
$SHADOWPLANELOCATION
 40
0.0
  0
ENDSEC
  0
SECTION
  2
CLASSES
  0
CLASS
  1
ACDBDICTIONARYWDFLT
  2
AcDbDictionaryWithDefault
  3
ObjectDBX Classes
 90
0
 91
0
280
0
281
0
  0
CLASS
  1
SUN
  2
AcDbSun
  3
SCENEOE
 90
1153
 91
0
280
0
281
0
  0
CLASS
  1
VISUALSTYLE
  2
AcDbVisualStyle
  3
ObjectDBX Classes
 90
4095
 91
0
280
0
281
0
  0
CLASS
  1
MATERIAL
  2
AcDbMaterial
  3
ObjectDBX Classes
 90
1153
 91
0
280
0
281
0
  0
CLASS
  1
SCALE
  2
AcDbScale
  3
ObjectDBX Classes
 90
1153
 91
0
280
0
281
0
  0
CLASS
  1
TABLESTYLE
  2
AcDbTableStyle
  3
ObjectDBX Classes
 90
4095
 91
0
280
0
281
0
  0
CLASS
  1
MLEADERSTYLE
  2
AcDbMLeaderStyle
  3
ACDB_MLEADERSTYLE_CLASS
 90
4095
 91
0
280
0
281
0
  0
CLASS
  1
DICTIONARYVAR
  2
AcDbDictionaryVar
  3
ObjectDBX Classes
 90
0
 91
0
280
0
281
0
  0
CLASS
  1
CELLSTYLEMAP
  2
AcDbCellStyleMap
  3
ObjectDBX Classes
 90
1152
 91
0
280
0
281
0
  0
CLASS
  1
MENTALRAYRENDERSETTINGS
  2
AcDbMentalRayRenderSettings
  3
SCENEOE
 90
1024
 91
0
280
0
281
0
  0
CLASS
  1
ACDBDETAILVIEWSTYLE
  2
AcDbDetailViewStyle
  3
ObjectDBX Classes
 90
1025
 91
0
280
0
281
0
  0
CLASS
  1
ACDBSECTIONVIEWSTYLE
  2
AcDbSectionViewStyle
  3
ObjectDBX Classes
 90
1025
 91
0
280
0
281
0
  0
CLASS
  1
RASTERVARIABLES
  2
AcDbRasterVariables
  3
ISM
 90
0
 91
0
280
0
281
0
  0
CLASS
  1
ACDBPLACEHOLDER
  2
AcDbPlaceHolder
  3
ObjectDBX Classes
 90
0
 91
0
280
0
281
0
  0
CLASS
  1
LAYOUT
  2
AcDbLayout
  3
ObjectDBX Classes
 90
0
 91
0
280
0
281
0
  0
ENDSEC
  0
SECTION
  2
TABLES
  0
TABLE
  2
VPORT
  5
8
330
0
100
AcDbSymbolTable
 70
1
  0
VPORT
  5
23
330
8
100
AcDbSymbolTableRecord
100
AcDbViewportTableRecord
  2
*Active
 70
0
 10
0.0
 20
0.0
 11
1.0
 21
1.0
 12
0.0
 22
0.0
 13
0.0
 23
0.0
 14
0.5
 24
0.5
 15
0.5
 25
0.5
 16
0.0
 26
0.0
 36
1.0
 17
0.0
 27
0.0
 37
0.0
 40
1000.0
 41
1.34
 42
50.0
 43
0.0
 44
0.0
 50
0.0
 51
0.0
 71
0
 72
1000
 73
1
 74
3
 75
0
 76
0
 77
0
 78
0
281
0
 65
0
146
0.0
  0
ENDTAB
  0
TABLE
  2
LTYPE
  5
2
330
0
100
AcDbSymbolTable
 70
21
  0
LTYPE
  5
24
330
2
100
AcDbSymbolTableRecord
100
AcDbLinetypeTableRecord
  2
ByBlock
 70
0
  3

 72
65
 73
0
 40
0.0
  0
LTYPE
  5
25
330
2
100
AcDbSymbolTableRecord
100
AcDbLinetypeTableRecord
  2
ByLayer
 70
0
  3

 72
65
 73
0
 40
0.0
  0
LTYPE
  5
26
330
2
100
AcDbSymbolTableRecord
100
AcDbLinetypeTableRecord
  2
Continuous
 70
0
  3

 72
65
 73
0
 40
0.0
  0
LTYPE
  5
2F
330
2
100
AcDbSymbolTableRecord
100
AcDbLinetypeTableRecord
  2
CENTER
 70
0
  3
Center ____ _ ____ _ ____ _ ____ _ ____ _ ____
 72
65
 73
4
 40
5.08
 49
3.175
 74
0
 49
-0.635
 74
0
 49
0.635
 74
0
 49
-0.635
 74
0
  0
LTYPE
  5
30
330
2
100
AcDbSymbolTableRecord
100
AcDbLinetypeTableRecord
  2
CENTERX2
 70
0
  3
Center (2x) ________  __  ________  __  ________
 72
65
 73
4
 40
8.89
 49
6.35
 74
0
 49
-0.635
 74
0
 49
1.27
 74
0
 49
-0.635
 74
0
  0
LTYPE
  5
31
330
2
100
AcDbSymbolTableRecord
100
AcDbLinetypeTableRecord
  2
CENTER2
 70
0
  3
Center (.5x) ____ _ ____ _ ____ _ ____ _ ____
 72
65
 73
4
 40
2.54
 49
1.587
 74
0
 49
-0.318
 74
0
 49
0.318
 74
0
 49
-0.318
 74
0
  0
LTYPE
  5
32
330
2
100
AcDbSymbolTableRecord
100
AcDbLinetypeTableRecord
  2
DASHED
 70
0
  3
Dashed __ __ __ __ __ __ __ __ __ __ __ __ __ _
 72
65
 73
2
 40
1.524
 49
1.27
 74
0
 49
-0.254
 74
0
  0
LTYPE
  5
33
330
2
100
AcDbSymbolTableRecord
100
AcDbLinetypeTableRecord
  2
DASHEDX2
 70
0
  3
Dashed (2x) ____  ____  ____  ____  ____  ____
 72
65
 73
2
 40
3.048
 49
2.54
 74
0
 49
-0.508
 74
0
  0
LTYPE
  5
34
330
2
100
AcDbSymbolTableRecord
100
AcDbLinetypeTableRecord
  2
DASHED2
 70
0
  3
Dashed (.5x) _ _ _ _ _ _ _ _ _ _ _ _ _ _
 72
65
 73
2
 40
0.762
 49
0.635
 74
0
 49
-0.127
 74
0
  0
LTYPE
  5
35
330
2
100
AcDbSymbolTableRecord
100
AcDbLinetypeTableRecord
  2
PHANTOM
 70
0
  3
Phantom ______  __  __  ______  __  __  ______
 72
65
 73
6
 40
6.35
 49
3.175
 74
0
 49
-0.635
 74
0
 49
0.635
 74
0
 49
-0.635
 74
0
 49
0.635
 74
0
 49
-0.635
 74
0
  0
LTYPE
  5
36
330
2
100
AcDbSymbolTableRecord
100
AcDbLinetypeTableRecord
  2
PHANTOMX2
 70
0
  3
Phantom (2x)____________    ____    ____    ____________
 72
65
 73
6
 40
10.795
 49
6.35
 74
0
 49
-0.635
 74
0
 49
1.27
 74
0
 49
-0.635
 74
0
 49
1.27
 74
0
 49
-0.635
 74
0
  0
LTYPE
  5
37
330
2
100
AcDbSymbolTableRecord
100
AcDbLinetypeTableRecord
  2
PHANTOM2
 70
0
  3
Phantom (.5x) ___ _ _ ___ _ _ ___ _ _ ___ _ _ ___
 72
65
 73
6
 40
3.175
 49
1.587
 74
0
 49
-0.318
 74
0
 49
0.318
 74
0
 49
-0.318
 74
0
 49
0.318
 74
0
 49
-0.318
 74
0
  0
LTYPE
  5
38
330
2
100
AcDbSymbolTableRecord
100
AcDbLinetypeTableRecord
  2
DASHDOT
 70
0
  3
Dash dot __ . __ . __ . __ . __ . __ . __ . __
 72
65
 73
4
 40
3.556
 49
2.54
 74
0
 49
-0.508
 74
0
 49
0.0
 74
0
 49
-0.508
 74
0
  0
LTYPE
  5
39
330
2
100
AcDbSymbolTableRecord
100
AcDbLinetypeTableRecord
  2
DASHDOTX2
 70
0
  3
Dash dot (2x) ____  .  ____  .  ____  .  ____
 72
65
 73
4
 40
6.096
 49
5.08
 74
0
 49
-0.508
 74
0
 49
0.0
 74
0
 49
-0.508
 74
0
  0
LTYPE
  5
3A
330
2
100
AcDbSymbolTableRecord
100
AcDbLinetypeTableRecord
  2
DASHDOT2
 70
0
  3
Dash dot (.5x) _ . _ . _ . _ . _ . _ . _ . _
 72
65
 73
4
 40
1.778
 49
1.27
 74
0
 49
-0.254
 74
0
 49
0.0
 74
0
 49
-0.254
 74
0
  0
LTYPE
  5
3B
330
2
100
AcDbSymbolTableRecord
100
AcDbLinetypeTableRecord
  2
DOT
 70
0
  3
Dot .  .  .  .  .  .  .  .  .  .  .  .  .  .  .  .
 72
65
 73
2
 40
0.508
 49
0.0
 74
0
 49
-0.508
 74
0
  0
LTYPE
  5
3C
330
2
100
AcDbSymbolTableRecord
100
AcDbLinetypeTableRecord
  2
DOTX2
 70
0
  3
Dot (2x) .    .    .    .    .    .    .    . 
 72
65
 73
2
 40
1.016
 49
0.0
 74
0
 49
-1.016
 74
0
  0
LTYPE
  5
3D
330
2
100
AcDbSymbolTableRecord
100
AcDbLinetypeTableRecord
  2
DOT2
 70
0
  3
Dot (.5) . . . . . . . . . . . . . . . . . . . 
 72
65
 73
2
 40
0.254
 49
0.0
 74
0
 49
-0.254
 74
0
  0
LTYPE
  5
3E
330
2
100
AcDbSymbolTableRecord
100
AcDbLinetypeTableRecord
  2
DIVIDE
 70
0
  3
Divide __ . . __ . . __ . . __ . . __ . . __
 72
65
 73
6
 40
4.064
 49
2.54
 74
0
 49
-0.508
 74
0
 49
0.0
 74
0
 49
-0.508
 74
0
 49
0.0
 74
0
 49
-0.508
 74
0
  0
LTYPE
  5
3F
330
2
100
AcDbSymbolTableRecord
100
AcDbLinetypeTableRecord
  2
DIVIDEX2
 70
0
  3
Divide (2x) ____  . .  ____  . .  ____  . .  ____
 72
65
 73
6
 40
6.604
 49
5.08
 74
0
 49
-0.508
 74
0
 49
0.0
 74
0
 49
-0.508
 74
0
 49
0.0
 74
0
 49
-0.508
 74
0
  0
LTYPE
  5
40
330
2
100
AcDbSymbolTableRecord
100
AcDbLinetypeTableRecord
  2
DIVIDE2
 70
0
  3
Divide(.5x) _ . _ . _ . _ . _ . _ . _ . _
 72
65
 73
6
 40
2.032
 49
1.27
 74
0
 49
-0.254
 74
0
 49
0.0
 74
0
 49
-0.254
 74
0
 49
0.0
 74
0
 49
-0.254
 74
0
  0
ENDTAB
  0
TABLE
  2
LAYER
  5
1
330
0
100
AcDbSymbolTable
 70
26
  0
LAYER
  5
27
330
1
100
AcDbSymbolTableRecord
100
AcDbLayerTableRecord
  2
0
 70
0
 62
7
  6
Continuous
370
-3
390
13
347
21
  0
LAYER
  5
28
330
1
100
AcDbSymbolTableRecord
100
AcDbLayerTableRecord
  2
Defpoints
 70
0
 62
7
  6
Continuous
290
0
370
-3
390
13
347
21
  0
LAYER
  5
8D
330
1
100
AcDbSymbolTableRecord
100
AcDbLayerTableRecord
  2
Okvir
 70
0
 62
3
  6
Continuous
370
-3
390
13
347
21
  0
LAYER
  5
8E
330
1
100
AcDbSymbolTableRecord
100
AcDbLayerTableRecord
  2
Tekst
 70
0
 62
253
  6
Continuous
370
-3
390
13
347
21
  0
LAYER
  5
8F
330
1
100
AcDbSymbolTableRecord
100
AcDbLayerTableRecord
  2
Kote
 70
0
 62
7
  6
Continuous
370
-3
390
13
347
21
  0
LAYER
  5
90
330
1
100
AcDbSymbolTableRecord
100
AcDbLayerTableRecord
  2
Kote blok
 70
0
 62
7
  6
Continuous
370
-3
390
13
347
21
  0
LAYER
  5
91
330
1
100
AcDbSymbolTableRecord
100
AcDbLayerTableRecord
  2
Objekat
 70
0
 62
6
  6
Continuous
370
-3
390
13
347
21
  0
LAYER
  5
92
330
1
100
AcDbSymbolTableRecord
100
AcDbLayerTableRecord
  2
Konstrukcija
 70
0
 62
5
  6
Continuous
370
-3
390
13
347
21
  0
LAYER
  5
93
330
1
100
AcDbSymbolTableRecord
100
AcDbLayerTableRecord
  2
Panel
 70
0
 62
110
  6
Continuous
370
-3
390
13
347
21
  0
LAYER
  5
94
330
1
100
AcDbSymbolTableRecord
100
AcDbLayerTableRecord
  2
Kabal
 70
0
 62
7
  6
Continuous
370
-3
390
13
347
21
  0
LAYER
  5
95
330
1
100
AcDbSymbolTableRecord
100
AcDbLayerTableRecord
  2
Osovina
 70
0
 62
6
  6
CENTER
370
-3
390
13
347
21
  0
LAYER
  5
96
330
1
100
AcDbSymbolTableRecord
100
AcDbLayerTableRecord
  2
Orijentacija
 70
0
 62
1
  6
Continuous
370
-3
390
13
347
21
  0
LAYER
  5
97
330
1
100
AcDbSymbolTableRecord
100
AcDbLayerTableRecord
  2
DEBELA
 70
0
 62
7
  6
Continuous
370
-3
390
13
347
21
  0
LAYER
  5
98
330
1
100
AcDbSymbolTableRecord
100
AcDbLayerTableRecord
  2
pozicije
 70
0
 62
7
  6
Continuous
370
-3
390
13
347
21
  0
LAYER
  5
99
330
1
100
AcDbSymbolTableRecord
100
AcDbLayerTableRecord
  2
Novi1
 70
0
 62
30
  6
Continuous
370
-3
390
13
347
21
  0
LAYER
  5
9A
330
1
100
AcDbSymbolTableRecord
100
AcDbLayerTableRecord
  2
plavi
 70
0
 62
5
  6
Continuous
370
-3
390
13
347
21
  0
LAYER
  5
9B
330
1
100
AcDbSymbolTableRecord
100
AcDbLayerTableRecord
  2
Temelj
 70
0
 62
32
  6
Continuous
370
-3
390
13
347
21
  0
LAYER
  5
9C
330
1
100
AcDbSymbolTableRecord
100
AcDbLayerTableRecord
  2
Uzemljenje
 70
0
 62
2
  6
DASHED
370
-3
390
13
347
21
  0
LAYER
  5
9D
330
1
100
AcDbSymbolTableRecord
100
AcDbLayerTableRecord
  2
Ograda
 70
0
 62
8
  6
Continuous
370
-3
390
13
347
21
  0
LAYER
  5
9E
330
1
100
AcDbSymbolTableRecord
100
AcDbLayerTableRecord
  2
Agregat
 70
0
 62
30
  6
Continuous
370
-3
390
13
347
21
  0
LAYER
  5
9F
330
1
100
AcDbSymbolTableRecord
100
AcDbLayerTableRecord
  2
Ventilacija
 70
0
 62
4
  6
Continuous
370
-3
390
13
347
21
  0
LAYER
  5
A0
330
1
100
AcDbSymbolTableRecord
100
AcDbLayerTableRecord
  2
Sema
 70
0
 62
7
  6
Continuous
370
-3
390
13
347
21
  0
LAYER
  5
A1
330
1
100
AcDbSymbolTableRecord
100
AcDbLayerTableRecord
  2
Legenda
 70
0
 62
7
  6
Continuous
370
-3
390
13
347
21
  0
LAYER
  5
A2
330
1
100
AcDbSymbolTableRecord
100
AcDbLayerTableRecord
  2
Izvod
 70
0
 62
253
  6
Continuous
370
-3
390
13
347
21
  0
LAYER
  5
A3
330
1
100
AcDbSymbolTableRecord
100
AcDbLayerTableRecord
  2
Kota_tekst
 70
0
 62
7
  6
Continuous
370
-3
390
13
347
21
  0
LAYER
  5
A4
330
1
100
AcDbSymbolTableRecord
100
AcDbLayerTableRecord
  2
Sakriveno
 70
0
 62
15
  6
Continuous
370
-3
390
13
347
21
  0
ENDTAB
  0
TABLE
  2
STYLE
  5
5
330
0
100
AcDbSymbolTable
 70
29
  0
STYLE
  5
29
330
5
100
AcDbSymbolTableRecord
100
AcDbTextStyleTableRecord
  2
Standard
 70
0
 40
0.0
 41
1.0
 50
0.0
 71
0
 42
2.5
  3
times.ttf
  4

  0
STYLE
  5
41
330
5
100
AcDbSymbolTableRecord
100
AcDbTextStyleTableRecord
  2
OpenSans-Light
 70
0
 40
0.0
 41
1.0
 50
0.0
 71
0
 42
2.5
  3
OpenSans-Light.ttf
  4

  0
STYLE
  5
42
330
5
100
AcDbSymbolTableRecord
100
AcDbTextStyleTableRecord
  2
OpenSans-Light-Italic
 70
0
 40
0.0
 41
1.0
 50
0.0
 71
0
 42
2.5
  3
OpenSans-LightItalic.ttf
  4

  0
STYLE
  5
43
330
5
100
AcDbSymbolTableRecord
100
AcDbTextStyleTableRecord
  2
OpenSans
 70
0
 40
0.0
 41
1.0
 50
0.0
 71
0
 42
2.5
  3
OpenSans-Regular.ttf
  4

  0
STYLE
  5
44
330
5
100
AcDbSymbolTableRecord
100
AcDbTextStyleTableRecord
  2
OpenSans-Italic
 70
0
 40
0.0
 41
1.0
 50
0.0
 71
0
 42
2.5
  3
OpenSans-Italic.ttf
  4

  0
STYLE
  5
45
330
5
100
AcDbSymbolTableRecord
100
AcDbTextStyleTableRecord
  2
OpenSans-SemiBold
 70
0
 40
0.0
 41
1.0
 50
0.0
 71
0
 42
2.5
  3
OpenSans-SemiBold.ttf
  4

  0
STYLE
  5
46
330
5
100
AcDbSymbolTableRecord
100
AcDbTextStyleTableRecord
  2
OpenSans-SemiBoldItalic
 70
0
 40
0.0
 41
1.0
 50
0.0
 71
0
 42
2.5
  3
OpenSans-SemiBoldItalic.ttf
  4

  0
STYLE
  5
47
330
5
100
AcDbSymbolTableRecord
100
AcDbTextStyleTableRecord
  2
OpenSans-Bold
 70
0
 40
0.0
 41
1.0
 50
0.0
 71
0
 42
2.5
  3
OpenSans-Bold.ttf
  4

  0
STYLE
  5
48
330
5
100
AcDbSymbolTableRecord
100
AcDbTextStyleTableRecord
  2
OpenSans-BoldItalic
 70
0
 40
0.0
 41
1.0
 50
0.0
 71
0
 42
2.5
  3
OpenSans-BoldItalic.ttf
  4

  0
STYLE
  5
49
330
5
100
AcDbSymbolTableRecord
100
AcDbTextStyleTableRecord
  2
OpenSans-ExtraBold
 70
0
 40
0.0
 41
1.0
 50
0.0
 71
0
 42
2.5
  3
OpenSans-ExtraBold.ttf
  4

  0
STYLE
  5
4A
330
5
100
AcDbSymbolTableRecord
100
AcDbTextStyleTableRecord
  2
OpenSans-ExtraBoldItalic
 70
0
 40
0.0
 41
1.0
 50
0.0
 71
0
 42
2.5
  3
OpenSans-ExtraBoldItalic.ttf
  4

  0
STYLE
  5
4B
330
5
100
AcDbSymbolTableRecord
100
AcDbTextStyleTableRecord
  2
OpenSansCondensed-Bold
 70
0
 40
0.0
 41
1.0
 50
0.0
 71
0
 42
2.5
  3
OpenSansCondensed-Bold.ttf
  4

  0
STYLE
  5
4C
330
5
100
AcDbSymbolTableRecord
100
AcDbTextStyleTableRecord
  2
OpenSansCondensed-Light
 70
0
 40
0.0
 41
1.0
 50
0.0
 71
0
 42
2.5
  3
OpenSansCondensed-Light.ttf
  4

  0
STYLE
  5
4D
330
5
100
AcDbSymbolTableRecord
100
AcDbTextStyleTableRecord
  2
OpenSansCondensed-Italic
 70
0
 40
0.0
 41
1.0
 50
0.0
 71
0
 42
2.5
  3
OpenSansCondensed-LightItalic.ttf
  4

  0
STYLE
  5
4E
330
5
100
AcDbSymbolTableRecord
100
AcDbTextStyleTableRecord
  2
LiberationSans
 70
0
 40
0.0
 41
1.0
 50
0.0
 71
0
 42
2.5
  3
LiberationSans-Regular.ttf
  4

  0
STYLE
  5
4F
330
5
100
AcDbSymbolTableRecord
100
AcDbTextStyleTableRecord
  2
LiberationSans-Bold
 70
0
 40
0.0
 41
1.0
 50
0.0
 71
0
 42
2.5
  3
LiberationSans-Bold.ttf
  4

  0
STYLE
  5
50
330
5
100
AcDbSymbolTableRecord
100
AcDbTextStyleTableRecord
  2
LiberationSans-BoldItalic
 70
0
 40
0.0
 41
1.0
 50
0.0
 71
0
 42
2.5
  3
LiberationSans-BoldItalic.ttf
  4

  0
STYLE
  5
51
330
5
100
AcDbSymbolTableRecord
100
AcDbTextStyleTableRecord
  2
LiberationSans-Italic
 70
0
 40
0.0
 41
1.0
 50
0.0
 71
0
 42
2.5
  3
LiberationSans-Italic.ttf
  4

  0
STYLE
  5
52
330
5
100
AcDbSymbolTableRecord
100
AcDbTextStyleTableRecord
  2
LiberationSerif
 70
0
 40
0.0
 41
1.0
 50
0.0
 71
0
 42
2.5
  3
LiberationSerif-Regular.ttf
  4

  0
STYLE
  5
53
330
5
100
AcDbSymbolTableRecord
100
AcDbTextStyleTableRecord
  2
LiberationSerif-Bold
 70
0
 40
0.0
 41
1.0
 50
0.0
 71
0
 42
2.5
  3
LiberationSerif-Bold.ttf
  4

  0
STYLE
  5
54
330
5
100
AcDbSymbolTableRecord
100
AcDbTextStyleTableRecord
  2
LiberationSerif-BoldItalic
 70
0
 40
0.0
 41
1.0
 50
0.0
 71
0
 42
2.5
  3
LiberationSerif-BoldItalic.ttf
  4

  0
STYLE
  5
55
330
5
100
AcDbSymbolTableRecord
100
AcDbTextStyleTableRecord
  2
LiberationSerif-Italic
 70
0
 40
0.0
 41
1.0
 50
0.0
 71
0
 42
2.5
  3
LiberationSerif-Italic.ttf
  4

  0
STYLE
  5
56
330
5
100
AcDbSymbolTableRecord
100
AcDbTextStyleTableRecord
  2
LiberationMono
 70
0
 40
0.0
 41
1.0
 50
0.0
 71
0
 42
2.5
  3
LiberationMono-Regular.ttf
  4

  0
STYLE
  5
57
330
5
100
AcDbSymbolTableRecord
100
AcDbTextStyleTableRecord
  2
LiberationMono-Bold
 70
0
 40
0.0
 41
1.0
 50
0.0
 71
0
 42
2.5
  3
LiberationMono-Bold.ttf
  4

  0
STYLE
  5
58
330
5
100
AcDbSymbolTableRecord
100
AcDbTextStyleTableRecord
  2
LiberationMono-BoldItalic
 70
0
 40
0.0
 41
1.0
 50
0.0
 71
0
 42
2.5
  3
LiberationMono-BoldItalic.ttf
  4

  0
STYLE
  5
59
330
5
100
AcDbSymbolTableRecord
100
AcDbTextStyleTableRecord
  2
LiberationMono-Italic
 70
0
 40
0.0
 41
1.0
 50
0.0
 71
0
 42
2.5
  3
LiberationMono-Italic.ttf
  4

  0
STYLE
  5
8A
330
5
100
AcDbSymbolTableRecord
100
AcDbTextStyleTableRecord
  2
20
 70
0
 40
0.0
 41
1.0
 50
0.0
 71
0
 42
2.5
  3
arial.ttf
  4

  0
STYLE
  5
8B
330
5
100
AcDbSymbolTableRecord
100
AcDbTextStyleTableRecord
  2
50
 70
0
 40
0.0
 41
1.0
 50
0.0
 71
0
 42
2.5
  3
ARIALN.TTF
  4

  0
STYLE
  5
8C
330
5
100
AcDbSymbolTableRecord
100
AcDbTextStyleTableRecord
  2
RomanS
 70
0
 40
0.0
 41
1.0
 50
0.0
 71
0
 42
2.5
  3
arial.ttf
  4

  0
ENDTAB
  0
TABLE
  2
VIEW
  5
7
330
0
100
AcDbSymbolTable
 70
0
  0
ENDTAB
  0
TABLE
  2
UCS
  5
6
330
0
100
AcDbSymbolTable
 70
0
  0
ENDTAB
  0
TABLE
  2
APPID
  5
3
330
0
100
AcDbSymbolTable
 70
3
  0
APPID
  5
2A
330
3
100
AcDbSymbolTableRecord
100
AcDbRegAppTableRecord
  2
ACAD
 70
0
  0
APPID
  5
139
330
3
100
AcDbSymbolTableRecord
100
AcDbRegAppTableRecord
  2
HATCHBACKGROUNDCOLOR
 70
0
  0
APPID
  5
13A
330
3
100
AcDbSymbolTableRecord
100
AcDbRegAppTableRecord
  2
EZDXF
 70
0
  0
ENDTAB
  0
TABLE
  2
DIMSTYLE
  5
4
330
0
100
AcDbSymbolTable
 70
17
100
AcDbDimStyleTable
  0
DIMSTYLE
105
2B
330
4
100
AcDbSymbolTableRecord
100
AcDbDimStyleTableRecord
  2
Standard
 70
0
 40
1.0
 41
2.5
 42
0.625
 43
3.75
 44
1.25
 45
0.0
 46
0.0
 47
0.0
 48
0.0
 49
2.5
140
2.5
141
2.5
142
0.0
143
0.03937007874
144
1.0
145
0.0
146
1.0
147
0.625
148
0.0
 69
0
 70
0
 71
0
 72
0
 73
0
 74
0
 75
0
 76
0
 77
1
 78
8
 79
3
170
0
171
3
172
1
173
0
174
0
175
0
176
0
177
0
178
0
179
2
271
2
272
2
273
2
274
3
275
0
276
0
277
2
278
44
279
0
280
0
281
0
282
0
283
0
284
8
285
0
286
0
288
0
289
3
290
0
371
-2
372
-2
  0
DIMSTYLE
105
73
330
4
100
AcDbSymbolTableRecord
100
AcDbDimStyleTableRecord
  2
EZDXF
 70
0
 40
1.0
 41
0.175
 42
0.125
 43
3.75
 44
0.375
 45
0.0
 46
0.0
 47
0.0
 48
0.0
 49
2.5
140
0.25
141
2.5
142
0.0
143
0.03937007874
144
100.0
145
0.0
146
0.5
147
0.1
148
0.0
 69
0
 70
0
 71
0
 72
0
 73
0
 74
0
 75
0
 76
0
 77
1
 78
12
 79
3
170
0
171
3
172
1
173
0
174
0
175
0
176
0
177
0
178
0
179
2
271
2
272
2
273
2
274
3
275
0
276
0
277
2
278
46
279
2
280
0
281
0
282
0
283
0
284
8
285
0
286
0
288
1
289
3
290
0
340
4C
342
74
371
-2
372
-2
  0
DIMSTYLE
105
7C
330
4
100
AcDbSymbolTableRecord
100
AcDbDimStyleTableRecord
  2
EZ_M_100_H25_CM
 70
0
 40
1.0
 41
0.25
 42
0.125
 43
3.75
 44
0.375
 45
0.0
 46
0.0
 47
0.0
 48
0.0
 49
2.5
140
0.25
141
2.5
142
0.125
143
0.03937007874
144
100.0
145
0.0
146
0.5
147
0.1
148
0.0
 69
0
 70
0
 71
0
 72
0
 73
0
 74
0
 75
0
 76
0
 77
1
 78
12
 79
3
170
0
171
3
172
1
173
0
174
0
175
0
176
0
177
0
178
0
179
2
271
2
272
2
273
2
274
3
275
0
276
0
277
2
278
46
279
2
280
0
281
0
282
0
283
0
284
8
285
0
286
0
288
1
289
3
290
0
340
4C
371
-2
372
-2
  0
DIMSTYLE
105
7D
330
4
100
AcDbSymbolTableRecord
100
AcDbDimStyleTableRecord
  2
EZ_M_50_H25_CM
 70
0
 40
1.0
 41
0.125
 42
0.0625
 43
3.75
 44
0.1875
 45
0.0
 46
0.0
 47
0.0
 48
0.0
 49
2.5
140
0.125
141
2.5
142
0.0625
143
0.03937007874
144
100.0
145
0.0
146
0.5
147
0.05
148
0.0
 69
0
 70
0
 71
0
 72
0
 73
0
 74
0
 75
0
 76
0
 77
1
 78
12
 79
3
170
0
171
3
172
1
173
0
174
0
175
0
176
0
177
0
178
0
179
2
271
2
272
2
273
2
274
3
275
0
276
0
277
2
278
46
279
2
280
0
281
0
282
0
283
0
284
8
285
0
286
0
288
1
289
3
290
0
340
4C
371
-2
372
-2
  0
DIMSTYLE
105
7E
330
4
100
AcDbSymbolTableRecord
100
AcDbDimStyleTableRecord
  2
EZ_M_25_H25_CM
 70
0
 40
1.0
 41
0.0625
 42
0.03125
 43
3.75
 44
0.09375
 45
0.0
 46
0.0
 47
0.0
 48
0.0
 49
2.5
140
0.0625
141
2.5
142
0.03125
143
0.03937007874
144
100.0
145
0.0
146
0.5
147
0.025
148
0.0
 69
0
 70
0
 71
0
 72
0
 73
0
 74
0
 75
0
 76
0
 77
1
 78
12
 79
3
170
0
171
3
172
1
173
0
174
0
175
0
176
0
177
0
178
0
179
2
271
2
272
2
273
2
274
3
275
0
276
0
277
2
278
46
279
2
280
0
281
0
282
0
283
0
284
8
285
0
286
0
288
1
289
3
290
0
340
4C
371
-2
372
-2
  0
DIMSTYLE
105
7F
330
4
100
AcDbSymbolTableRecord
100
AcDbDimStyleTableRecord
  2
EZ_M_20_H25_CM
 70
0
 40
1.0
 41
0.05
 42
0.025
 43
3.75
 44
0.07500000000000001
 45
0.0
 46
0.0
 47
0.0
 48
0.0
 49
2.5
140
0.05
141
2.5
142
0.025
143
0.03937007874
144
100.0
145
0.0
146
0.5
147
0.020000000000000004
148
0.0
 69
0
 70
0
 71
0
 72
0
 73
0
 74
0
 75
0
 76
0
 77
1
 78
12
 79
3
170
0
171
3
172
1
173
0
174
0
175
0
176
0
177
0
178
0
179
2
271
2
272
2
273
2
274
3
275
0
276
0
277
2
278
46
279
2
280
0
281
0
282
0
283
0
284
8
285
0
286
0
288
1
289
3
290
0
340
4C
371
-2
372
-2
  0
DIMSTYLE
105
80
330
4
100
AcDbSymbolTableRecord
100
AcDbDimStyleTableRecord
  2
EZ_M_10_H25_CM
 70
0
 40
1.0
 41
0.025
 42
0.0125
 43
3.75
 44
0.037500000000000006
 45
0.0
 46
0.0
 47
0.0
 48
0.0
 49
2.5
140
0.025
141
2.5
142
0.0125
143
0.03937007874
144
100.0
145
0.0
146
0.5
147
0.010000000000000002
148
0.0
 69
0
 70
0
 71
0
 72
0
 73
0
 74
0
 75
0
 76
0
 77
1
 78
12
 79
3
170
0
171
3
172
1
173
0
174
0
175
0
176
0
177
0
178
0
179
2
271
2
272
2
273
2
274
3
275
0
276
0
277
2
278
46
279
2
280
0
281
0
282
0
283
0
284
8
285
0
286
0
288
1
289
3
290
0
340
4C
371
-2
372
-2
  0
DIMSTYLE
105
81
330
4
100
AcDbSymbolTableRecord
100
AcDbDimStyleTableRecord
  2
EZ_M_5_H25_CM
 70
0
 40
1.0
 41
0.0125
 42
0.00625
 43
3.75
 44
0.018750000000000003
 45
0.0
 46
0.0
 47
0.0
 48
0.0
 49
2.5
140
0.0125
141
2.5
142
0.00625
143
0.03937007874
144
100.0
145
0.0
146
0.5
147
0.005000000000000001
148
0.0
 69
0
 70
0
 71
0
 72
0
 73
0
 74
0
 75
0
 76
0
 77
1
 78
12
 79
3
170
0
171
3
172
1
173
0
174
0
175
0
176
0
177
0
178
0
179
2
271
2
272
2
273
2
274
3
275
0
276
0
277
2
278
46
279
2
280
0
281
0
282
0
283
0
284
8
285
0
286
0
288
1
289
3
290
0
340
4C
371
-2
372
-2
  0
DIMSTYLE
105
82
330
4
100
AcDbSymbolTableRecord
100
AcDbDimStyleTableRecord
  2
EZ_M_1_H25_CM
 70
0
 40
1.0
 41
0.0025
 42
0.00125
 43
3.75
 44
0.00375
 45
0.0
 46
0.0
 47
0.0
 48
0.0
 49
2.5
140
0.0025
141
2.5
142
0.00125
143
0.03937007874
144
100.0
145
0.0
146
0.5
147
0.001
148
0.0
 69
0
 70
0
 71
0
 72
0
 73
0
 74
0
 75
0
 76
0
 77
1
 78
12
 79
3
170
0
171
3
172
1
173
0
174
0
175
0
176
0
177
0
178
0
179
2
271
2
272
2
273
2
274
3
275
0
276
0
277
2
278
46
279
2
280
0
281
0
282
0
283
0
284
8
285
0
286
0
288
1
289
3
290
0
340
4C
371
-2
372
-2
  0
DIMSTYLE
105
83
330
4
100
AcDbSymbolTableRecord
100
AcDbDimStyleTableRecord
  2
EZ_RADIUS
 70
0
 40
1.0
 41
0.25
 42
0.125
 43
3.75
 44
0.375
 45
0.0
 46
0.0
 47
0.0
 48
0.0
 49
2.5
140
0.25
141
0.0
142
0.0
143
0.03937007874
144
100.0
145
0.0
146
0.5
147
0.1
148
0.0
 69
0
 70
0
 71
0
 72
0
 73
0
 74
0
 75
0
 76
0
 77
1
 78
12
 79
3
170
0
171
3
172
0
173
0
174
0
175
0
176
0
177
0
178
0
179
2
271
2
272
2
273
2
274
3
275
0
276
0
277
2
278
46
279
1
280
0
281
0
282
0
283
0
284
8
285
0
286
0
288
1
289
3
290
0
340
4C
342
84
371
-2
372
-2
  0
DIMSTYLE
105
88
330
4
100
AcDbSymbolTableRecord
100
AcDbDimStyleTableRecord
  2
EZ_RADIUS_INSIDE
 70
0
 40
1.0
 41
0.25
 42
0.125
 43
3.75
 44
0.375
 45
0.0
 46
0.0
 47
0.0
 48
0.0
 49
2.5
140
0.25
141
0.0
142
0.0
143
0.03937007874
144
100.0
145
0.0
146
0.5
147
0.1
148
0.0
 69
0
 70
0
 71
0
 72
0
 73
0
 74
0
 75
0
 76
0
 77
0
 78
12
 79
3
170
0
171
3
172
0
173
0
174
1
175
0
176
0
177
0
178
0
179
2
271
2
272
2
273
2
274
3
275
0
276
0
277
2
278
46
279
0
280
0
281
0
282
0
283
0
284
8
285
0
286
0
288
1
289
0
290
0
340
4C
342
84
371
-2
372
-2
  0
DIMSTYLE
105
89
330
4
100
AcDbSymbolTableRecord
100
AcDbDimStyleTableRecord
  2
EZ_CURVED
 70
0
 40
1.0
 41
0.25
 42
0.125
 43
3.75
 44
0.375
 45
0.0
 46
0.0
 47
0.0
 48
0.0
 49
2.5
140
0.25
141
2.5
142
0.0
143
0.03937007874
144
100.0
145
0.0
146
0.5
147
0.1
148
0.0
 69
0
 70
0
 71
0
 72
0
 73
0
 74
0
 75
0
 76
0
 77
1
 78
12
 79
2
 90
2
170
0
171
3
172
1
173
0
174
0
175
0
176
0
177
0
178
0
179
2
271
2
272
2
273
2
274
3
275
0
276
0
277
2
278
46
279
2
280
0
281
0
282
0
283
0
284
8
285
0
286
0
288
1
289
3
290
0
340
4C
371
-2
372
-2
  0
DIMSTYLE
105
A5
330
4
100
AcDbSymbolTableRecord
100
AcDbDimStyleTableRecord
  2
M 20
 70
0
 40
20.0
 41
1.0
 42
0.0
 43
3.75
 44
2.0
 45
0.0
 46
0.0
 47
0.0
 48
0.0
 49
2.5
140
2.5
141
2.5
142
0.0
143
0.03937007874
144
1.0
145
0.0
146
1.0
147
0.625
148
0.0
 69
0
 70
0
 71
0
 72
0
 73
0
 74
0
 75
0
 76
0
 77
1
 78
8
 79
3
170
0
171
3
172
1
173
0
174
0
175
0
176
0
177
0
178
0
179
2
271
0
272
2
273
2
274
3
275
0
276
0
277
2
278
44
279
0
280
0
281
0
282
0
283
0
284
8
285
0
286
0
288
0
289
3
290
0
340
29
342
74
371
-2
372
-2
  0
DIMSTYLE
105
A6
330
4
100
AcDbSymbolTableRecord
100
AcDbDimStyleTableRecord
  2
M 30
 70
0
 40
30.0
 41
1.0
 42
0.0
 43
3.75
 44
2.0
 45
0.0
 46
0.0
 47
0.0
 48
0.0
 49
2.5
140
2.5
141
2.5
142
0.0
143
0.03937007874
144
1.0
145
0.0
146
1.0
147
0.625
148
0.0
 69
0
 70
0
 71
0
 72
0
 73
0
 74
0
 75
0
 76
0
 77
1
 78
8
 79
3
170
0
171
3
172
1
173
0
174
0
175
0
176
0
177
0
178
0
179
2
271
0
272
2
273
2
274
3
275
0
276
0
277
2
278
44
279
0
280
0
281
0
282
0
283
0
284
8
285
0
286
0
288
0
289
3
290
0
340
29
342
74
371
-2
372
-2
  0
DIMSTYLE
105
A7
330
4
100
AcDbSymbolTableRecord
100
AcDbDimStyleTableRecord
  2
M 50
 70
0
 40
50.0
 41
1.0
 42
0.0
 43
3.75
 44
2.0
 45
0.0
 46
0.0
 47
0.0
 48
0.0
 49
2.5
140
2.5
141
2.5
142
0.0
143
0.03937007874
144
1.0
145
0.0
146
1.0
147
0.625
148
0.0
 69
0
 70
0
 71
0
 72
0
 73
0
 74
0
 75
0
 76
0
 77
1
 78
8
 79
3
170
0
171
3
172
1
173
0
174
0
175
0
176
0
177
0
178
0
179
2
271
0
272
2
273
2
274
3
275
0
276
0
277
2
278
44
279
0
280
0
281
0
282
0
283
0
284
8
285
0
286
0
288
0
289
3
290
0
340
29
342
74
371
-2
372
-2
  0
DIMSTYLE
105
A8
330
4
100
AcDbSymbolTableRecord
100
AcDbDimStyleTableRecord
  2
M 100
 70
0
 40
100.0
 41
1.0
 42
0.0
 43
3.75
 44
2.0
 45
0.0
 46
0.0
 47
0.0
 48
0.0
 49
2.5
140
2.5
141
2.5
142
0.0
143
0.03937007874
144
1.0
145
0.0
146
1.0
147
0.625
148
0.0
 69
0
 70
0
 71
0
 72
0
 73
0
 74
0
 75
0
 76
0
 77
1
 78
8
 79
3
170
0
171
3
172
1
173
0
174
0
175
0
176
0
177
0
178
0
179
2
271
0
272
2
273
2
274
3
275
0
276
0
277
2
278
44
279
0
280
0
281
0
282
0
283
0
284
8
285
0
286
0
288
0
289
3
290
0
340
29
342
74
371
-2
372
-2
  0
DIMSTYLE
105
A9
330
4
100
AcDbSymbolTableRecord
100
AcDbDimStyleTableRecord
  2
M 200
 70
0
 40
200.0
 41
1.0
 42
0.0
 43
3.75
 44
2.0
 45
0.0
 46
0.0
 47
0.0
 48
0.0
 49
2.5
140
2.5
141
2.5
142
0.0
143
0.03937007874
144
1.0
145
0.0
146
1.0
147
0.625
148
0.0
 69
0
 70
0
 71
0
 72
0
 73
0
 74
0
 75
0
 76
0
 77
1
 78
8
 79
3
170
0
171
3
172
1
173
0
174
0
175
0
176
0
177
0
178
0
179
2
271
0
272
2
273
2
274
3
275
0
276
0
277
2
278
44
279
0
280
0
281
0
282
0
283
0
284
8
285
0
286
0
288
0
289
3
290
0
340
29
342
74
371
-2
372
-2
  0
ENDTAB
  0
TABLE
  2
BLOCK_RECORD
  5
9
330
0
100
AcDbSymbolTable
 70
7
  0
BLOCK_RECORD
  5
17
330
9
100
AcDbSymbolTableRecord
100
AcDbBlockTableRecord
  2
*Model_Space
340
1A
 70
0
280
1
281
0
  0
BLOCK_RECORD
  5
1B
330
9
100
AcDbSymbolTableRecord
100
AcDbBlockTableRecord
  2
*Paper_Space
340
1E
 70
0
280
1
281
0
  0
BLOCK_RECORD
  5
74
330
9
100
AcDbSymbolTableRecord
100
AcDbBlockTableRecord
  2
_ARCHTICK
340
0
 70
0
280
1
281
0
  0
BLOCK_RECORD
  5
78
330
9
100
AcDbSymbolTableRecord
100
AcDbBlockTableRecord
  2
_CLOSEDFILLED
340
0
 70
0
280
1
281
0
  0
BLOCK_RECORD
  5
84
330
9
100
AcDbSymbolTableRecord
100
AcDbBlockTableRecord
  2
_CLOSEDBLANK
340
0
 70
0
280
1
281
0
  0
BLOCK_RECORD
  5
10E
330
9
100
AcDbSymbolTableRecord
100
AcDbBlockTableRecord
  2
*D1
340
0
 70
0
280
1
281
0
  0
BLOCK_RECORD
  5
11E
330
9
100
AcDbSymbolTableRecord
100
AcDbBlockTableRecord
  2
*D2
340
0
 70
0
280
1
281
0
  0
ENDTAB
  0
ENDSEC
  0
SECTION
  2
BLOCKS
  0
BLOCK
  5
18
330
17
100
AcDbEntity
  8
0
100
AcDbBlockBegin
  2
*Model_Space
 70
0
 10
0.0
 20
0.0
 30
0.0
  3
*Model_Space
  1

  0
ENDBLK
  5
19
330
17
100
AcDbEntity
  8
0
100
AcDbBlockEnd
  0
BLOCK
  5
1C
330
1B
100
AcDbEntity
  8
0
100
AcDbBlockBegin
  2
*Paper_Space
 70
0
 10
0.0
 20
0.0
 30
0.0
  3
*Paper_Space
  1

  0
ENDBLK
  5
1D
330
1B
100
AcDbEntity
  8
0
100
AcDbBlockEnd
  0
BLOCK
  5
75
330
74
100
AcDbEntity
  8
0
100
AcDbBlockBegin
  2
_ARCHTICK
 70
0
 10
0.0
 20
0.0
 30
0.0
  3
_ARCHTICK
  1

  0
LWPOLYLINE
  5
77
330
74
100
AcDbEntity
  8
0
  6
BYBLOCK
 62
0
100
AcDbPolyline
 90
2
 70
0
 43
0.15
 10
-0.5
 20
-0.5
 10
0.5
 20
0.5
  0
ENDBLK
  5
76
330
74
100
AcDbEntity
  8
0
100
AcDbBlockEnd
  0
BLOCK
  5
79
330
78
100
AcDbEntity
  8
0
100
AcDbBlockBegin
  2
_CLOSEDFILLED
 70
0
 10
0.0
 20
0.0
 30
0.0
  3
_CLOSEDFILLED
  1

  0
SOLID
  5
7B
330
78
100
AcDbEntity
  8
0
  6
BYBLOCK
 62
0
100
AcDbTrace
 10
-1.0
 20
0.16439898372402537
 30
0.0
 11
0.0
 21
0.0
 31
0.0
 12
-1.0
 22
-0.16439898372402537
 32
0.0
 13
-1.0
 23
-0.16439898372402537
 33
0.0
  0
ENDBLK
  5
7A
330
78
100
AcDbEntity
  8
0
100
AcDbBlockEnd
  0
BLOCK
  5
85
330
84
100
AcDbEntity
  8
0
100
AcDbBlockBegin
  2
_CLOSEDBLANK
 70
0
 10
0.0
 20
0.0
 30
0.0
  3
_CLOSEDBLANK
  1

  0
LWPOLYLINE
  5
87
330
84
100
AcDbEntity
  8
0
  6
BYBLOCK
 62
0
100
AcDbPolyline
 90
3
 70
1
 10
-1.0
 20
0.16439898372402537
 10
0.0
 20
0.0
 10
-1.0
 20
-0.16439898372402537
  0
ENDBLK
  5
86
330
84
100
AcDbEntity
  8
0
100
AcDbBlockEnd
  0
BLOCK
  5
10F
330
10E
100
AcDbEntity
  8
0
100
AcDbBlockBegin
  2
*D1
 70
1
 10
0.0
 20
0.0
 30
0.0
  3
*D1
  1

  0
LINE
  5
111
330
10E
100
AcDbEntity
  8
0
100
AcDbLine
 10
2700.0
 20
1700.0
 30
0.0
 11
2700.0
 21
340.0
 31
0.0
  0
LINE
  5
112
330
10E
100
AcDbEntity
  8
0
100
AcDbLine
 10
5936.0
 20
1700.0
 30
0.0
 11
5936.0
 21
340.0
 31
0.0
  0
INSERT
  5
113
330
10E
100
AcDbEntity
  8
Kote
100
AcDbBlockReference
  2
_ARCHTICK
 10
2700.0
 20
400.0
 30
0.0
 41
30.0
 42
30.0
 50
180.0
  0
INSERT
  5
115
330
10E
100
AcDbEntity
  8
Kote
100
AcDbBlockReference
  2
_ARCHTICK
 10
5936.0
 20
400.0
 30
0.0
 41
30.0
 42
30.0
  0
LINE
  5
117
330
10E
100
AcDbEntity
  8
0
100
AcDbLine
 10
2700.0
 20
400.0
 30
0.0
 11
4168.0
 21
400.0
 31
0.0
  0
LINE
  5
118
330
10E
100
AcDbEntity
  8
0
100
AcDbLine
 10
4468.0
 20
400.0
 30
0.0
 11
5936.0
 21
400.0
 31
0.0
  0
MTEXT
  5
119
330
10E
100
AcDbEntity
  8
Kote
100
AcDbMText
 10
4318.0
 20
400.0
 30
0.0
 40
75.0
 71
5
  1
3236
  0
POINT
  5
11A
330
10E
100
AcDbEntity
  8
Defpoints
100
AcDbPoint
 10
2700.0
 20
400.0
 30
0.0
  0
POINT
  5
11B
330
10E
100
AcDbEntity
  8
Defpoints
100
AcDbPoint
 10
2700.0
 20
1700.0
 30
0.0
  0
POINT
  5
11C
330
10E
100
AcDbEntity
  8
Defpoints
100
AcDbPoint
 10
5936.0
 20
1700.0
 30
0.0
  0
ENDBLK
  5
110
330
10E
100
AcDbEntity
  8
0
100
AcDbBlockEnd
  0
BLOCK
  5
11F
330
11E
100
AcDbEntity
  8
0
100
AcDbBlockBegin
  2
*D2
 70
1
 10
0.0
 20
0.0
 30
0.0
  3
*D2
  1

  0
LINE
  5
121
330
11E
100
AcDbEntity
  8
0
100
AcDbLine
 10
1100.0
 20
2600.0
 30
0.0
 11
240.0
 21
2600.0
 31
0.0
  0
LINE
  5
122
330
11E
100
AcDbEntity
  8
0
100
AcDbLine
 10
1100.0
 20
7336.0
 30
0.0
 11
240.0
 21
7336.0
 31
0.0
  0
INSERT
  5
123
330
11E
100
AcDbEntity
  8
Kote
100
AcDbBlockReference
  2
_ARCHTICK
 10
300.0
 20
2600.0
 30
0.0
 41
30.0
 42
30.0
 50
270.0
  0
INSERT
  5
125
330
11E
100
AcDbEntity
  8
Kote
100
AcDbBlockReference
  2
_ARCHTICK
 10
300.0
 20
7336.0
 30
0.0
 41
30.0
 42
30.0
 50
90.0
  0
LINE
  5
127
330
11E
100
AcDbEntity
  8
0
100
AcDbLine
 10
300.0
 20
2600.0
 30
0.0
 11
300.0
 21
4818.0
 31
0.0
  0
LINE
  5
128
330
11E
100
AcDbEntity
  8
0
100
AcDbLine
 10
300.0
 20
5118.0
 30
0.0
 11
300.0
 21
7336.0
 31
0.0
  0
MTEXT
  5
129
330
11E
100
AcDbEntity
  8
Kote
100
AcDbMText
 10
300.0
 20
4968.0
 30
0.0
 40
75.0
 71
5
  1
4736
 50
90.0
  0
POINT
  5
12A
330
11E
100
AcDbEntity
  8
Defpoints
100
AcDbPoint
 10
300.0
 20
2600.0
 30
0.0
  0
POINT
  5
12B
330
11E
100
AcDbEntity
  8
Defpoints
100
AcDbPoint
 10
1100.0
 20
2600.0
 30
0.0
  0
POINT
  5
12C
330
11E
100
AcDbEntity
  8
Defpoints
100
AcDbPoint
 10
1100.0
 20
7336.0
 30
0.0
  0
ENDBLK
  5
120
330
11E
100
AcDbEntity
  8
0
100
AcDbBlockEnd
  0
ENDSEC
  0
SECTION
  2
ENTITIES
  0
LWPOLYLINE
  5
AA
330
17
100
AcDbEntity
  8
Okvir
 62
8
100
AcDbPolyline
 90
4
 70
1
 10
0.0
 20
0.0
 10
12600.0
 20
0.0
 10
12600.0
 20
8910.0
 10
0.0
 20
8910.0
  0
LWPOLYLINE
  5
AB
330
17
100
AcDbEntity
  8
Okvir
370
50
100
AcDbPolyline
 90
4
 70
1
 10
600.0
 20
300.0
 10
12300.0
 20
300.0
 10
12300.0
 20
8610.0
 10
600.0
 20
8610.0
  0
LWPOLYLINE
  5
AC
330
17
100
AcDbEntity
  8
Okvir
370
50
100
AcDbPolyline
 90
4
 70
1
 10
6900.0
 20
300.0
 10
12300.0
 20
300.0
 10
12300.0
 20
1740.0
 10
6900.0
 20
1740.0
  0
LINE
  5
AD
330
17
100
AcDbEntity
  8
Okvir
100
AcDbLine
 10
6900.0
 20
480.0
 30
0.0
 11
12300.0
 21
480.0
 31
0.0
  0
LINE
  5
AE
330
17
100
AcDbEntity
  8
Okvir
100
AcDbLine
 10
6900.0
 20
720.0
 30
0.0
 11
12300.0
 21
720.0
 31
0.0
  0
LINE
  5
AF
330
17
100
AcDbEntity
  8
Okvir
100
AcDbLine
 10
6900.0
 20
960.0
 30
0.0
 11
12300.0
 21
960.0
 31
0.0
  0
LINE
  5
B0
330
17
100
AcDbEntity
  8
Okvir
100
AcDbLine
 10
6900.0
 20
1200.0
 30
0.0
 11
12300.0
 21
1200.0
 31
0.0
  0
LINE
  5
B1
330
17
100
AcDbEntity
  8
Okvir
100
AcDbLine
 10
6900.0
 20
1440.0
 30
0.0
 11
12300.0
 21
1440.0
 31
0.0
  0
LINE
  5
B2
330
17
100
AcDbEntity
  8
Okvir
100
AcDbLine
 10
10440.0
 20
480.0
 30
0.0
 11
10440.0
 21
960.0
 31
0.0
  0
LINE
  5
B3
330
17
100
AcDbEntity
  8
Okvir
100
AcDbLine
 10
8760.0
 20
300.0
 30
0.0
 11
8760.0
 21
480.0
 31
0.0
  0
LINE
  5
B4
330
17
100
AcDbEntity
  8
Okvir
100
AcDbLine
 10
10440.0
 20
300.0
 30
0.0
 11
10440.0
 21
480.0
 31
0.0
  0
HATCH
  5
B5
330
17
100
AcDbEntity
  8
Okvir
 62
30
100
AcDbHatch
 10
0.0
 20
0.0
 30
0.0
210
0.0
220
0.0
230
1.0
  2
SOLID
 70
1
 71
0
 91
1
 92
3
 72
0
 73
1
 93
53
 10
7034.004202974628
 20
1452.0000180159996
 10
7785.995275535531
 20
1452.0000180159996
 10
7789.916950159282
 20
1452.2891015826342
 10
7793.682583964982
 20
1453.130816986168
 10
7797.256919407608
 20
1454.4868612820367
 10
7800.604698942143
 20
1456.3189315256818
 10
7803.690665023567
 20
1458.5887247725432
 10
7806.479560106864
 20
1461.2579380780621
 10
7808.936126647012
 20
1464.2882684976764
 10
7811.025107098993
 20
1467.6414130868259
 10
7812.71124391779
 20
1471.2790689009514
 10
7813.959279558382
 20
1475.1629329954926
 10
7814.733956475751
 20
1479.2547024258884
 10
7815.0000171248785
 20
1483.5160742475794
 10
7815.0000171248785
 20
1814.4137196029126
 10
7814.73395647575
 20
1818.6750914246031
 10
7813.959279558382
 20
1822.7668608549993
 10
7812.71124391779
 20
1826.65072494954
 10
7811.025107098993
 20
1830.2883807636663
 10
7808.936126647011
 20
1833.6415253528144
 10
7806.479560106864
 20
1836.671855772429
 10
7803.690665023568
 20
1839.3410690779483
 10
7800.604698942143
 20
1841.6108623248097
 10
7797.256919407608
 20
1843.4429325684553
 10
7793.682583964982
 20
1844.7989768643247
 10
7789.916950159283
 20
1845.6406922678568
 10
7785.995275535531
 20
1845.929775834492
 10
7034.004202974628
 20
1845.929775834492
 10
7030.082318657694
 20
1845.640662268398
 10
7026.316569702561
 20
1844.7988677753858
 10
7022.742199109053
 20
1843.4427116633542
 10
7019.3944498770015
 20
1841.6105132402054
 10
7016.30856500623
 20
1839.3405918138403
 10
7013.519787496569
 20
1836.6712666921596
 10
7011.063360347843
 20
1833.640857183066
 10
7008.9745265598785
 20
1830.2876825944563
 10
7007.288529132504
 20
1826.650062234237
 10
7006.040611065546
 20
1822.7663154103054
 10
7005.266015358831
 20
1818.6747614305634
 10
7004.999985012188
 20
1814.4137196029126
 10
7004.999985012188
 20
1483.5160742475794
 10
7005.265985359373
 20
1479.255032419928
 10
7006.040501976608
 20
1475.1634784401865
 10
7007.288308227403
 20
1471.2797316162553
 10
7008.974177475275
 20
1467.6421112560342
 10
7011.062883083735
 20
1464.288936667425
 10
7013.5191984163
 20
1461.2585271583314
 10
7016.307896836481
 20
1458.5892020366516
 10
7019.393751707793
 20
1456.3192806102857
 10
7022.74153639375
 20
1454.4870821871382
 10
7026.316024257866
 20
1453.1309260751066
 10
7030.081988663655
 20
1452.2891315820932
 10
7034.004202974628
 20
1452.0000180159996
 97
0
 75
0
 76
1
 98
0
  0
LWPOLYLINE
  5
B6
330
17
100
AcDbEntity
  8
Okvir
 62
30
100
AcDbPolyline
 90
53
 70
1
 10
7034.004202974628
 20
1452.0000180159996
 10
7785.995275535531
 20
1452.0000180159996
 10
7789.916950159282
 20
1452.2891015826342
 10
7793.682583964982
 20
1453.130816986168
 10
7797.256919407608
 20
1454.4868612820367
 10
7800.604698942143
 20
1456.3189315256818
 10
7803.690665023567
 20
1458.5887247725432
 10
7806.479560106864
 20
1461.2579380780621
 10
7808.936126647012
 20
1464.2882684976764
 10
7811.025107098993
 20
1467.6414130868259
 10
7812.71124391779
 20
1471.2790689009514
 10
7813.959279558382
 20
1475.1629329954926
 10
7814.733956475751
 20
1479.2547024258884
 10
7815.0000171248785
 20
1483.5160742475794
 10
7815.0000171248785
 20
1814.4137196029126
 10
7814.73395647575
 20
1818.6750914246031
 10
7813.959279558382
 20
1822.7668608549993
 10
7812.71124391779
 20
1826.65072494954
 10
7811.025107098993
 20
1830.2883807636663
 10
7808.936126647011
 20
1833.6415253528144
 10
7806.479560106864
 20
1836.671855772429
 10
7803.690665023568
 20
1839.3410690779483
 10
7800.604698942143
 20
1841.6108623248097
 10
7797.256919407608
 20
1843.4429325684553
 10
7793.682583964982
 20
1844.7989768643247
 10
7789.916950159283
 20
1845.6406922678568
 10
7785.995275535531
 20
1845.929775834492
 10
7034.004202974628
 20
1845.929775834492
 10
7030.082318657694
 20
1845.640662268398
 10
7026.316569702561
 20
1844.7988677753858
 10
7022.742199109053
 20
1843.4427116633542
 10
7019.3944498770015
 20
1841.6105132402054
 10
7016.30856500623
 20
1839.3405918138403
 10
7013.519787496569
 20
1836.6712666921596
 10
7011.063360347843
 20
1833.640857183066
 10
7008.9745265598785
 20
1830.2876825944563
 10
7007.288529132504
 20
1826.650062234237
 10
7006.040611065546
 20
1822.7663154103054
 10
7005.266015358831
 20
1818.6747614305634
 10
7004.999985012188
 20
1814.4137196029126
 10
7004.999985012188
 20
1483.5160742475794
 10
7005.265985359373
 20
1479.255032419928
 10
7006.040501976608
 20
1475.1634784401865
 10
7007.288308227403
 20
1471.2797316162553
 10
7008.974177475275
 20
1467.6421112560342
 10
7011.062883083735
 20
1464.288936667425
 10
7013.5191984163
 20
1461.2585271583314
 10
7016.307896836481
 20
1458.5892020366516
 10
7019.393751707793
 20
1456.3192806102857
 10
7022.74153639375
 20
1454.4870821871382
 10
7026.316024257866
 20
1453.1309260751066
 10
7030.081988663655
 20
1452.2891315820932
 10
7034.004202974628
 20
1452.0000180159996
  0
HATCH
  5
B7
330
17
100
AcDbEntity
  8
Okvir
 62
7
100
AcDbHatch
 10
0.0
 20
0.0
 30
0.0
210
0.0
220
0.0
230
1.0
  2
SOLID
 70
1
 71
0
 91
1
 92
3
 72
0
 73
1
 93
49
 10
7495.9960333174295
 20
1749.7604582380964
 10
7501.954467518161
 20
1749.3433609229576
 10
7507.400249159918
 20
1748.1293943640014
 10
7512.298927955823
 20
1746.1745466409152
 10
7516.616053619008
 20
1743.5348058333866
 10
7520.3171758626
 20
1740.2661600211027
 10
7523.36784439973
 20
1736.4245972837552
 10
7525.733608943522
 20
1732.066105701028
 10
7527.380019207107
 20
1727.2466733526105
 10
7528.272624903612
 20
1722.0222883181912
 10
7528.376975746167
 20
1716.448938677458
 10
7527.6586214478975
 20
1710.5826125100984
 10
7526.083111721934
 20
1704.479297895801
 10
7523.684722918895
 20
1698.382684069569
 10
7520.5713470294995
 20
1692.5337221340426
 10
7516.816208185762
 20
1686.986256571262
 10
7512.492530519703
 20
1681.794131863269
 10
7507.673538163339
 20
1677.0111924921014
 10
7502.432455248688
 20
1672.6912829398034
 10
7496.842505907768
 20
1668.8882476884146
 10
7490.976914272596
 20
1665.6559312199743
 10
7484.908904475191
 20
1663.0481780165237
 10
7478.71170064757
 20
1661.1188325601042
 10
7472.458526921751
 20
1659.9217393327556
 10
7466.222607429751
 20
1659.5107428165197
 10
7460.258585451154
 20
1659.9217393327551
 10
7454.797427117426
 20
1661.1188325601042
 10
7449.876840838411
 20
1663.0481780165233
 10
7445.534535023953
 20
1665.6559312199743
 10
7441.808218083896
 20
1668.8882476884137
 10
7438.735598428083
 20
1672.6912829398038
 10
7436.354384466358
 20
1677.0111924921018
 10
7434.702284608566
 20
1681.7941318632681
 10
7433.817007264549
 20
1686.986256571262
 10
7433.736260844152
 20
1692.5337221340426
 10
7434.497753757218
 20
1698.3826840695695
 10
7436.13919441359
 20
1704.479297895801
 10
7438.536771110084
 20
1710.582612510098
 10
7441.649523980431
 20
1716.448938677458
 10
7445.404199802228
 20
1722.0222883181912
 10
7449.727545353073
 20
1727.2466733526114
 10
7454.5463074105655
 20
1732.0661057010266
 10
7459.7872327523055
 20
1736.4245972837552
 10
7465.37706815589
 20
1740.266160021104
 10
7471.242560398917
 20
1743.5348058333857
 10
7477.310456258986
 20
1746.1745466409147
 10
7483.507502513695
 20
1748.1293943640014
 10
7489.760445940644
 20
1749.3433609229576
 10
7495.9960333174295
 20
1749.7604582380964
 97
0
 75
0
 76
1
 98
0
  0
LWPOLYLINE
  5
B8
330
17
100
AcDbEntity
  8
Okvir
 62
7
100
AcDbPolyline
 90
49
 70
1
 10
7495.9960333174295
 20
1749.7604582380964
 10
7501.954467518161
 20
1749.3433609229576
 10
7507.400249159918
 20
1748.1293943640014
 10
7512.298927955823
 20
1746.1745466409152
 10
7516.616053619008
 20
1743.5348058333866
 10
7520.3171758626
 20
1740.2661600211027
 10
7523.36784439973
 20
1736.4245972837552
 10
7525.733608943522
 20
1732.066105701028
 10
7527.380019207107
 20
1727.2466733526105
 10
7528.272624903612
 20
1722.0222883181912
 10
7528.376975746167
 20
1716.448938677458
 10
7527.6586214478975
 20
1710.5826125100984
 10
7526.083111721934
 20
1704.479297895801
 10
7523.684722918895
 20
1698.382684069569
 10
7520.5713470294995
 20
1692.5337221340426
 10
7516.816208185762
 20
1686.986256571262
 10
7512.492530519703
 20
1681.794131863269
 10
7507.673538163339
 20
1677.0111924921014
 10
7502.432455248688
 20
1672.6912829398034
 10
7496.842505907768
 20
1668.8882476884146
 10
7490.976914272596
 20
1665.6559312199743
 10
7484.908904475191
 20
1663.0481780165237
 10
7478.71170064757
 20
1661.1188325601042
 10
7472.458526921751
 20
1659.9217393327556
 10
7466.222607429751
 20
1659.5107428165197
 10
7460.258585451154
 20
1659.9217393327551
 10
7454.797427117426
 20
1661.1188325601042
 10
7449.876840838411
 20
1663.0481780165233
 10
7445.534535023953
 20
1665.6559312199743
 10
7441.808218083896
 20
1668.8882476884137
 10
7438.735598428083
 20
1672.6912829398038
 10
7436.354384466358
 20
1677.0111924921018
 10
7434.702284608566
 20
1681.7941318632681
 10
7433.817007264549
 20
1686.986256571262
 10
7433.736260844152
 20
1692.5337221340426
 10
7434.497753757218
 20
1698.3826840695695
 10
7436.13919441359
 20
1704.479297895801
 10
7438.536771110084
 20
1710.582612510098
 10
7441.649523980431
 20
1716.448938677458
 10
7445.404199802228
 20
1722.0222883181912
 10
7449.727545353073
 20
1727.2466733526114
 10
7454.5463074105655
 20
1732.0661057010266
 10
7459.7872327523055
 20
1736.4245972837552
 10
7465.37706815589
 20
1740.266160021104
 10
7471.242560398917
 20
1743.5348058333857
 10
7477.310456258986
 20
1746.1745466409147
 10
7483.507502513695
 20
1748.1293943640014
 10
7489.760445940644
 20
1749.3433609229576
 10
7495.9960333174295
 20
1749.7604582380964
  0
HATCH
  5
B9
330
17
100
AcDbEntity
  8
Okvir
 62
7
100
AcDbHatch
 10
0.0
 20
0.0
 30
0.0
210
0.0
220
0.0
230
1.0
  2
SOLID
 70
1
 71
0
 91
1
 92
3
 72
0
 73
1
 93
49
 10
7607.03059515451
 20
1749.7604582380964
 10
7613.059915650696
 20
1749.3433609229576
 10
7618.564847436241
 20
1748.1293943640014
 10
7623.511989296231
 20
1746.1745466409152
 10
7627.867940015759
 20
1743.5348058333866
 10
7631.599298379912
 20
1740.2661600211027
 10
7634.672663173782
 20
1736.4245972837552
 10
7637.054633182458
 20
1732.066105701028
 10
7638.711807191028
 20
1727.2466733526105
 10
7639.6107839845845
 20
1722.0222883181912
 10
7639.718162348215
 20
1716.448938677458
 10
7639.00054106701
 20
1710.5826125100984
 10
7637.424518926059
 20
1704.479297895801
 10
7635.026851928165
 20
1698.382684069569
 10
7631.914077846081
 20
1692.5337221340426
 10
7628.159431720717
 20
1686.986256571262
 10
7623.836148592987
 20
1681.794131863269
 10
7619.0174635038
 20
1677.0111924921014
 10
7613.7766114940705
 20
1672.6912829398034
 10
7608.186827604708
 20
1668.8882476884146
 10
7602.3213468766235
 20
1665.6559312199743
 10
7596.253404350731
 20
1663.0481780165237
 10
7590.056235067941
 20
1661.1188325601042
 10
7583.803074069164
 20
1659.9217393327556
 10
7577.567156395313
 20
1659.5107428165197
 10
7571.602623819877
 20
1659.9217393327551
 10
7566.139985815905
 20
1661.1188325601042
 10
7561.215850813106
 20
1663.0481780165233
 10
7556.866827241192
 20
1665.6559312199743
 10
7553.129523529873
 20
1668.8882476884137
 10
7550.040548108862
 20
1672.6912829398038
 10
7547.636509407868
 20
1677.0111924921018
 10
7545.954015856603
 20
1681.7941318632681
 10
7545.029675884777
 20
1686.986256571262
 10
7544.900097922102
 20
1692.5337221340426
 10
7545.601890398287
 20
1698.3826840695695
 10
7547.171661743045
 20
1704.479297895801
 10
7549.634808467376
 20
1710.582612510098
 10
7552.790399048864
 20
1716.448938677458
 10
7556.568432933631
 20
1722.0222883181912
 10
7560.8989095678
 20
1727.2466733526114
 10
7565.711828397496
 20
1732.0661057010266
 10
7570.937188868844
 20
1736.4245972837552
 10
7576.504990427964
 20
1740.266160021104
 10
7582.345232520983
 20
1743.5348058333857
 10
7588.387914594023
 20
1746.1745466409147
 10
7594.563036093208
 20
1748.1293943640014
 10
7600.800596464663
 20
1749.3433609229576
 10
7607.03059515451
 20
1749.7604582380964
 97
0
 75
0
 76
1
 98
0
  0
LWPOLYLINE
  5
BA
330
17
100
AcDbEntity
  8
Okvir
 62
7
100
AcDbPolyline
 90
49
 70
1
 10
7607.03059515451
 20
1749.7604582380964
 10
7613.059915650696
 20
1749.3433609229576
 10
7618.564847436241
 20
1748.1293943640014
 10
7623.511989296231
 20
1746.1745466409152
 10
7627.867940015759
 20
1743.5348058333866
 10
7631.599298379912
 20
1740.2661600211027
 10
7634.672663173782
 20
1736.4245972837552
 10
7637.054633182458
 20
1732.066105701028
 10
7638.711807191028
 20
1727.2466733526105
 10
7639.6107839845845
 20
1722.0222883181912
 10
7639.718162348215
 20
1716.448938677458
 10
7639.00054106701
 20
1710.5826125100984
 10
7637.424518926059
 20
1704.479297895801
 10
7635.026851928165
 20
1698.382684069569
 10
7631.914077846081
 20
1692.5337221340426
 10
7628.159431720717
 20
1686.986256571262
 10
7623.836148592987
 20
1681.794131863269
 10
7619.0174635038
 20
1677.0111924921014
 10
7613.7766114940705
 20
1672.6912829398034
 10
7608.186827604708
 20
1668.8882476884146
 10
7602.3213468766235
 20
1665.6559312199743
 10
7596.253404350731
 20
1663.0481780165237
 10
7590.056235067941
 20
1661.1188325601042
 10
7583.803074069164
 20
1659.9217393327556
 10
7577.567156395313
 20
1659.5107428165197
 10
7571.602623819877
 20
1659.9217393327551
 10
7566.139985815905
 20
1661.1188325601042
 10
7561.215850813106
 20
1663.0481780165233
 10
7556.866827241192
 20
1665.6559312199743
 10
7553.129523529873
 20
1668.8882476884137
 10
7550.040548108862
 20
1672.6912829398038
 10
7547.636509407868
 20
1677.0111924921018
 10
7545.954015856603
 20
1681.7941318632681
 10
7545.029675884777
 20
1686.986256571262
 10
7544.900097922102
 20
1692.5337221340426
 10
7545.601890398287
 20
1698.3826840695695
 10
7547.171661743045
 20
1704.479297895801
 10
7549.634808467376
 20
1710.582612510098
 10
7552.790399048864
 20
1716.448938677458
 10
7556.568432933631
 20
1722.0222883181912
 10
7560.8989095678
 20
1727.2466733526114
 10
7565.711828397496
 20
1732.0661057010266
 10
7570.937188868844
 20
1736.4245972837552
 10
7576.504990427964
 20
1740.266160021104
 10
7582.345232520983
 20
1743.5348058333857
 10
7588.387914594023
 20
1746.1745466409147
 10
7594.563036093208
 20
1748.1293943640014
 10
7600.800596464663
 20
1749.3433609229576
 10
7607.03059515451
 20
1749.7604582380964
  0
HATCH
  5
BB
330
17
100
AcDbEntity
  8
Okvir
 62
7
100
AcDbHatch
 10
0.0
 20
0.0
 30
0.0
210
0.0
220
0.0
230
1.0
  2
SOLID
 70
1
 71
0
 91
1
 92
3
 72
0
 73
1
 93
49
 10
7716.8225903431285
 20
1749.7604582380964
 10
7722.780913333748
 20
1749.3433609229576
 10
7728.226614673924
 20
1748.1293943640014
 10
7733.125231349739
 20
1746.1745466409152
 10
7737.442300347281
 20
1743.5348058333866
 10
7741.143358652635
 20
1740.2661600211027
 10
7744.193943251885
 20
1736.4245972837552
 10
7746.559591131118
 20
1732.066105701028
 10
7748.205839276419
 20
1727.2466733526105
 10
7749.098224673873
 20
1722.0222883181912
 10
7749.202284309566
 20
1716.448938677458
 10
7748.483555169582
 20
1710.5826125100984
 10
7746.907574240008
 20
1704.479297895801
 10
7744.509686640038
 20
1698.382684069569
 10
7741.396764681837
 20
1692.5337221340426
 10
7737.642028861124
 20
1686.986256571262
 10
7733.318699673619
 20
1681.794131863269
 10
7728.499997615042
 20
1677.0111924921014
 10
7723.259143181113
 20
1672.6912829398034
 10
7717.669356867552
 20
1668.8882476884146
 10
7711.803859170078
 20
1665.6559312199743
 10
7705.735870584411
 20
1663.0481780165237
 10
7699.538611606271
 20
1661.1188325601042
 10
7693.285302731378
 20
1659.9217393327556
 10
7687.04916445545
 20
1659.5107428165197
 10
7681.085352170035
 20
1659.9217393327551
 10
7675.624308985743
 20
1661.1188325601042
 10
7670.703757857608
 20
1663.0481780165233
 10
7666.3614217406675
 20
1665.6559312199743
 10
7662.635023589955
 20
1668.8882476884137
 10
7659.562286360509
 20
1672.6912829398038
 10
7657.180933007362
 20
1677.0111924921018
 10
7655.528686485552
 20
1681.7941318632681
 10
7654.643269750113
 20
1686.986256571262
 10
7654.562405756082
 20
1692.5337221340426
 10
7655.323817458493
 20
1698.3826840695695
 10
7656.965227812383
 20
1704.479297895801
 10
7659.362924809735
 20
1710.582612510098
 10
7662.475777981301
 20
1716.448938677458
 10
7666.230535922825
 20
1722.0222883181912
 10
7670.553947230059
 20
1727.2466733526114
 10
7675.372760498748
 20
1732.0661057010266
 10
7680.613724324641
 20
1736.4245972837552
 10
7686.203587303485
 20
1740.266160021104
 10
7692.069098031026
 20
1743.5348058333857
 10
7698.137005103014
 20
1746.1745466409147
 10
7704.334057115196
 20
1748.1293943640014
 10
7710.587002663318
 20
1749.3433609229576
 10
7716.8225903431285
 20
1749.7604582380964
 97
0
 75
0
 76
1
 98
0
  0
LWPOLYLINE
  5
BC
330
17
100
AcDbEntity
  8
Okvir
 62
7
100
AcDbPolyline
 90
49
 70
1
 10
7716.8225903431285
 20
1749.7604582380964
 10
7722.780913333748
 20
1749.3433609229576
 10
7728.226614673924
 20
1748.1293943640014
 10
7733.125231349739
 20
1746.1745466409152
 10
7737.442300347281
 20
1743.5348058333866
 10
7741.143358652635
 20
1740.2661600211027
 10
7744.193943251885
 20
1736.4245972837552
 10
7746.559591131118
 20
1732.066105701028
 10
7748.205839276419
 20
1727.2466733526105
 10
7749.098224673873
 20
1722.0222883181912
 10
7749.202284309566
 20
1716.448938677458
 10
7748.483555169582
 20
1710.5826125100984
 10
7746.907574240008
 20
1704.479297895801
 10
7744.509686640038
 20
1698.382684069569
 10
7741.396764681837
 20
1692.5337221340426
 10
7737.642028861124
 20
1686.986256571262
 10
7733.318699673619
 20
1681.794131863269
 10
7728.499997615042
 20
1677.0111924921014
 10
7723.259143181113
 20
1672.6912829398034
 10
7717.669356867552
 20
1668.8882476884146
 10
7711.803859170078
 20
1665.6559312199743
 10
7705.735870584411
 20
1663.0481780165237
 10
7699.538611606271
 20
1661.1188325601042
 10
7693.285302731378
 20
1659.9217393327556
 10
7687.04916445545
 20
1659.5107428165197
 10
7681.085352170035
 20
1659.9217393327551
 10
7675.624308985743
 20
1661.1188325601042
 10
7670.703757857608
 20
1663.0481780165233
 10
7666.3614217406675
 20
1665.6559312199743
 10
7662.635023589955
 20
1668.8882476884137
 10
7659.562286360509
 20
1672.6912829398038
 10
7657.180933007362
 20
1677.0111924921018
 10
7655.528686485552
 20
1681.7941318632681
 10
7654.643269750113
 20
1686.986256571262
 10
7654.562405756082
 20
1692.5337221340426
 10
7655.323817458493
 20
1698.3826840695695
 10
7656.965227812383
 20
1704.479297895801
 10
7659.362924809735
 20
1710.582612510098
 10
7662.475777981301
 20
1716.448938677458
 10
7666.230535922825
 20
1722.0222883181912
 10
7670.553947230059
 20
1727.2466733526114
 10
7675.372760498748
 20
1732.0661057010266
 10
7680.613724324641
 20
1736.4245972837552
 10
7686.203587303485
 20
1740.266160021104
 10
7692.069098031026
 20
1743.5348058333857
 10
7698.137005103014
 20
1746.1745466409147
 10
7704.334057115196
 20
1748.1293943640014
 10
7710.587002663318
 20
1749.3433609229576
 10
7716.8225903431285
 20
1749.7604582380964
  0
HATCH
  5
BD
330
17
100
AcDbEntity
  8
Okvir
 62
7
100
AcDbHatch
 10
0.0
 20
0.0
 30
0.0
210
0.0
220
0.0
230
1.0
  2
SOLID
 70
1
 71
0
 91
1
 92
3
 72
0
 73
1
 93
49
 10
7570.433787051876
 20
1638.1085402785827
 10
7576.3979387251
 20
1637.6975840646487
 10
7581.860223099096
 20
1636.5005984111153
 10
7586.7840371986
 20
1634.571407800384
 10
7591.132778048348
 20
1631.9638367148566
 10
7594.869842673075
 20
1628.731709636934
 10
7597.958628097519
 20
1624.9288510490217
 10
7600.362531346414
 20
1620.6090854335177
 10
7602.0449494444965
 20
1615.8262372728245
 10
7602.969279416503
 20
1610.6341310493453
 10
7603.098918287169
 20
1605.0865912454815
 10
7602.397263081231
 20
1599.2374423436352
 10
7600.827710823425
 20
1593.1405088262075
 10
7598.429712922418
 20
1587.0431834976744
 10
7595.316717026158
 20
1581.1936482391698
 10
7591.56193635777
 20
1575.6457329875418
 10
7587.238584140378
 20
1570.4532676796396
 10
7582.419873597106
 20
1565.6700822523098
 10
7577.179017951077
 20
1561.3500066424058
 10
7571.589230425417
 20
1557.5468707867724
 10
7565.7237242432475
 20
1554.3145046222598
 10
7559.655712627693
 20
1551.7067380857172
 10
7553.458408801878
 20
1549.777401113993
 10
7547.2050259889265
 20
1548.580323643936
 10
7540.968777411961
 20
1548.1693356123947
 10
7535.004604830023
 20
1548.5803236439356
 10
7529.542261366186
 20
1549.777401113993
 10
7524.618355450158
 20
1551.7067380857177
 10
7520.269495511652
 20
1554.3145046222598
 10
7516.532289980378
 20
1557.5468707867715
 10
7513.443347286049
 20
1561.3500066424058
 10
7511.039275858374
 20
1565.6700822523112
 10
7509.356684127063
 20
1570.4532676796387
 10
7508.43218052183
 20
1575.6457329875418
 10
7508.302373472382
 20
1581.1936482391698
 10
7509.003871408433
 20
1587.0431834976748
 10
7510.573282759693
 20
1593.1405088262075
 10
7512.971311569234
 20
1599.2374423436347
 10
7516.084392918496
 20
1605.086591245482
 10
7519.83930267546
 20
1610.634131049346
 10
7524.162816708113
 20
1615.8262372728245
 10
7528.981710884431
 20
1620.609085433516
 10
7534.2227610724
 20
1624.9288510490207
 10
7539.812743140002
 20
1628.731709636935
 10
7545.678432955218
 20
1631.9638367148566
 10
7551.746606386032
 20
1634.571407800384
 10
7557.944039300424
 20
1636.5005984111153
 10
7564.197507566378
 20
1637.6975840646487
 10
7570.433787051876
 20
1638.1085402785827
 97
0
 75
0
 76
1
 98
0
  0
LWPOLYLINE
  5
BE
330
17
100
AcDbEntity
  8
Okvir
 62
7
100
AcDbPolyline
 90
49
 70
1
 10
7570.433787051876
 20
1638.1085402785827
 10
7576.3979387251
 20
1637.6975840646487
 10
7581.860223099096
 20
1636.5005984111153
 10
7586.7840371986
 20
1634.571407800384
 10
7591.132778048348
 20
1631.9638367148566
 10
7594.869842673075
 20
1628.731709636934
 10
7597.958628097519
 20
1624.9288510490217
 10
7600.362531346414
 20
1620.6090854335177
 10
7602.0449494444965
 20
1615.8262372728245
 10
7602.969279416503
 20
1610.6341310493453
 10
7603.098918287169
 20
1605.0865912454815
 10
7602.397263081231
 20
1599.2374423436352
 10
7600.827710823425
 20
1593.1405088262075
 10
7598.429712922418
 20
1587.0431834976744
 10
7595.316717026158
 20
1581.1936482391698
 10
7591.56193635777
 20
1575.6457329875418
 10
7587.238584140378
 20
1570.4532676796396
 10
7582.419873597106
 20
1565.6700822523098
 10
7577.179017951077
 20
1561.3500066424058
 10
7571.589230425417
 20
1557.5468707867724
 10
7565.7237242432475
 20
1554.3145046222598
 10
7559.655712627693
 20
1551.7067380857172
 10
7553.458408801878
 20
1549.777401113993
 10
7547.2050259889265
 20
1548.580323643936
 10
7540.968777411961
 20
1548.1693356123947
 10
7535.004604830023
 20
1548.5803236439356
 10
7529.542261366186
 20
1549.777401113993
 10
7524.618355450158
 20
1551.7067380857177
 10
7520.269495511652
 20
1554.3145046222598
 10
7516.532289980378
 20
1557.5468707867715
 10
7513.443347286049
 20
1561.3500066424058
 10
7511.039275858374
 20
1565.6700822523112
 10
7509.356684127063
 20
1570.4532676796387
 10
7508.43218052183
 20
1575.6457329875418
 10
7508.302373472382
 20
1581.1936482391698
 10
7509.003871408433
 20
1587.0431834976748
 10
7510.573282759693
 20
1593.1405088262075
 10
7512.971311569234
 20
1599.2374423436347
 10
7516.084392918496
 20
1605.086591245482
 10
7519.83930267546
 20
1610.634131049346
 10
7524.162816708113
 20
1615.8262372728245
 10
7528.981710884431
 20
1620.609085433516
 10
7534.2227610724
 20
1624.9288510490207
 10
7539.812743140002
 20
1628.731709636935
 10
7545.678432955218
 20
1631.9638367148566
 10
7551.746606386032
 20
1634.571407800384
 10
7557.944039300424
 20
1636.5005984111153
 10
7564.197507566378
 20
1637.6975840646487
 10
7570.433787051876
 20
1638.1085402785827
  0
HATCH
  5
BF
330
17
100
AcDbEntity
  8
Okvir
 62
7
100
AcDbHatch
 10
0.0
 20
0.0
 30
0.0
210
0.0
220
0.0
230
1.0
  2
SOLID
 70
1
 71
0
 91
1
 92
3
 72
0
 73
1
 93
138
 10
7221.515521718976
 20
1621.6718916923314
 10
7216.830992388571
 20
1611.2998720554572
 10
7211.204178258935
 20
1601.4738880109812
 10
7204.713692455658
 20
1592.261772879195
 10
7197.438148104338
 20
1583.731359980392
 10
7189.456158330568
 20
1575.9504826348616
 10
7180.846336259941
 20
1568.9869741628993
 10
7171.687295018053
 20
1562.9086678847973
 10
7162.057647730498
 20
1557.7833971208447
 10
7152.036007522869
 20
1553.6789951913365
 10
7141.700987520761
 20
1550.6632954165639
 10
7131.131200849769
 20
1548.8041311168195
 10
7120.405260635487
 20
1548.1693356123947
 10
7114.984082488752
 20
1548.3175386932198
 10
7109.882645839779
 20
1548.760730991594
 10
7105.097723474125
 20
1549.4967870913558
 10
7100.626088177352
 20
1550.5235815763497
 10
7096.46451273502
 20
1551.838989030418
 10
7092.609769932692
 20
1553.440884037403
 10
7089.058632555925
 20
1555.3271411811475
 10
7085.807873390282
 20
1557.495635045493
 10
7082.854265221324
 20
1559.9442402142834
 10
7080.194580834609
 20
1562.67083127136
 10
7077.825593015699
 20
1565.6732828005643
 10
7075.744074550156
 20
1568.9494693857418
 10
7073.66245426827
 20
1573.5503647721434
 10
7072.193610191538
 20
1578.2095809233751
 10
7071.291224974694
 20
1582.9335559049728
 10
7070.908981272476
 20
1587.7287277824769
 10
7071.000561739619
 20
1592.601534621422
 10
7071.519649030862
 20
1597.5584144873503
 10
7072.4199258009385
 20
1602.6058054457965
 10
7073.655074704586
 20
1607.7501455622996
 10
7075.17877839654
 20
1612.9978729023976
 10
7076.944719531537
 20
1618.3554255316287
 10
7078.906580764314
 20
1623.8292415155302
 10
7081.018044749606
 20
1629.4257589196395
 10
7081.018224140305
 20
1629.4320378971415
 10
7081.019479875201
 20
1629.4501584789505
 10
7081.022888298488
 20
1629.4790461390178
 10
7081.029525754365
 20
1629.5176263512985
 10
7081.040468587025
 20
1629.5648245897414
 10
7081.056793140666
 20
1629.6195663283045
 10
7081.079575759484
 20
1629.6807770409378
 10
7081.109892787675
 20
1629.7473822015938
 10
7081.148820569435
 20
1629.8183072842264
 10
7081.197435448959
 20
1629.8924777627883
 10
7081.256813770445
 20
1629.9688191112323
 10
7081.328031878088
 20
1630.046256803511
 10
7083.808452532853
 20
1636.5606991437955
 10
7116.995925849087
 20
1719.9870323504174
 10
7120.716818644688
 20
1730.222891113209
 10
7121.356668906301
 20
1731.5864149709569
 10
7122.03744933775
 20
1732.8887144799546
 10
7122.761319900024
 20
1734.1329932187036
 10
7123.530440554111
 20
1735.3224547657092
 10
7124.346971260998
 20
1736.4603026994712
 10
7125.213071981674
 20
1737.549740598495
 10
7126.130902677127
 20
1738.593972041281
 10
7127.102623308345
 20
1739.5962006063319
 10
7128.130393836316
 20
1740.559629872153
 10
7129.216374222029
 20
1741.4874634172431
 10
7130.362724426472
 20
1742.3829048201073
 10
7131.571604410632
 20
1743.2491576592479
 10
7132.592383852751
 20
1743.9207579534723
 10
7133.636801049757
 20
1744.5396337454295
 10
7134.702705131409
 20
1745.1047032364736
 10
7135.787945227463
 20
1745.6148846279627
 10
7136.890370467674
 20
1746.0690961212515
 10
7138.007829981801
 20
1746.4662559177018
 10
7139.138172899598
 20
1746.8052822186671
 10
7140.279248350826
 20
1747.0850932255041
 10
7141.428905465238
 20
1747.3046071395715
 10
7142.584993372592
 20
1747.462742162225
 10
7143.745361202645
 20
1747.558416494822
 10
7144.907858085153
 20
1747.5905483387196
 10
7146.050930166985
 20
1747.5582377101719
 10
7147.152035734062
 20
1747.461311885028
 10
7148.2079348449015
 20
1747.2997799540296
 10
7149.2153875580225
 20
1747.0736510079241
 10
7150.171153931941
 20
1746.7829341374545
 10
7151.0719940251765
 20
1746.4276384333675
 10
7151.914667896246
 20
1746.0077729864079
 10
7152.695935603668
 20
1745.5233468873191
 10
7153.412557205958
 20
1744.9743692268466
 10
7154.061292761637
 20
1744.360849095736
 10
7154.63890232922
 20
1743.6827955847318
 10
7155.1421459672265
 20
1742.9402177845786
 10
7155.639956673055
 20
1742.144942451366
 10
7156.048367175393
 20
1741.3086787675502
 10
7156.368455636582
 20
1740.4292958625263
 10
7156.601300218971
 20
1739.5046628656905
 10
7156.747979084902
 20
1738.532648906436
 10
7156.809570396721
 20
1737.5111231141618
 10
7156.787152316774
 20
1736.4379546182604
 10
7156.681803007405
 20
1735.3110125481287
 10
7156.494600630959
 20
1734.1281660331624
 10
7156.226623349782
 20
1732.8872842027572
 10
7155.878949326219
 20
1731.5862361863071
 10
7155.452656722615
 20
1730.222891113209
 10
7151.421253171626
 20
1720.2970194788998
 10
7151.421253171626
 20
1720.2968400882003
 10
7151.421253171626
 20
1720.2955843533052
 10
7151.421253171626
 20
1720.2921759300177
 10
7151.421253171626
 20
1720.2855384741422
 10
7151.421253171626
 20
1720.2745956414801
 10
7151.421253171626
 20
1720.2582710878391
 10
7151.421253171626
 20
1720.235488469022
 10
7151.421253171626
 20
1720.2051714408312
 10
7151.421253171626
 20
1720.1662436590716
 10
7151.421253171626
 20
1720.117628779546
 10
7151.421253171626
 20
1720.0582504580607
 10
7151.421253171626
 20
1719.9870323504174
 10
7137.153990857845
 20
1684.6327908962444
 10
7140.500811924842
 20
1686.2080845655034
 10
7143.87242708948
 20
1687.674716560978
 10
7147.267754553113
 20
1689.0272887983451
 10
7150.685712517099
 20
1690.2604031932842
 10
7154.125219182795
 20
1691.3686616614714
 10
7157.58519275156
 20
1692.3466661185896
 10
7161.064551424747
 20
1693.1890184803149
 10
7164.562213403716
 20
1693.8903206623254
 10
7168.077096889823
 20
1694.4451745803015
 10
7171.608120084425
 20
1694.8481821499192
 10
7175.154201188878
 20
1695.0939452868593
 10
7178.71425840454
 20
1695.1770659067997
 10
7188.665758363845
 20
1694.518569315297
 10
7197.564111889867
 20
1692.5969137199897
 10
7205.377005020783
 20
1689.4928503896674
 10
7212.0721237947755
 20
1685.2871305931285
 10
7217.6171542500215
 20
1680.0605055991646
 10
7221.979782424703
 20
1673.8937266765752
 10
7225.127694356999
 20
1666.8675450941503
 10
7227.0285760850875
 20
1659.0627121206858
 10
7227.65011364715
 20
1650.559979024977
 10
7226.959993081366
 20
1641.44009707582
 10
7224.925900425915
 20
1631.7838175420056
 10
7221.515521718976
 20
1621.6718916923314
 97
0
 75
0
 76
1
 98
0
  0
LWPOLYLINE
  5
C0
330
17
100
AcDbEntity
  8
Okvir
 62
7
100
AcDbPolyline
 90
138
 70
1
 10
7221.515521718976
 20
1621.6718916923314
 10
7216.830992388571
 20
1611.2998720554572
 10
7211.204178258935
 20
1601.4738880109812
 10
7204.713692455658
 20
1592.261772879195
 10
7197.438148104338
 20
1583.731359980392
 10
7189.456158330568
 20
1575.9504826348616
 10
7180.846336259941
 20
1568.9869741628993
 10
7171.687295018053
 20
1562.9086678847973
 10
7162.057647730498
 20
1557.7833971208447
 10
7152.036007522869
 20
1553.6789951913365
 10
7141.700987520761
 20
1550.6632954165639
 10
7131.131200849769
 20
1548.8041311168195
 10
7120.405260635487
 20
1548.1693356123947
 10
7114.984082488752
 20
1548.3175386932198
 10
7109.882645839779
 20
1548.760730991594
 10
7105.097723474125
 20
1549.4967870913558
 10
7100.626088177352
 20
1550.5235815763497
 10
7096.46451273502
 20
1551.838989030418
 10
7092.609769932692
 20
1553.440884037403
 10
7089.058632555925
 20
1555.3271411811475
 10
7085.807873390282
 20
1557.495635045493
 10
7082.854265221324
 20
1559.9442402142834
 10
7080.194580834609
 20
1562.67083127136
 10
7077.825593015699
 20
1565.6732828005643
 10
7075.744074550156
 20
1568.9494693857418
 10
7073.66245426827
 20
1573.5503647721434
 10
7072.193610191538
 20
1578.2095809233751
 10
7071.291224974694
 20
1582.9335559049728
 10
7070.908981272476
 20
1587.7287277824769
 10
7071.000561739619
 20
1592.601534621422
 10
7071.519649030862
 20
1597.5584144873503
 10
7072.4199258009385
 20
1602.6058054457965
 10
7073.655074704586
 20
1607.7501455622996
 10
7075.17877839654
 20
1612.9978729023976
 10
7076.944719531537
 20
1618.3554255316287
 10
7078.906580764314
 20
1623.8292415155302
 10
7081.018044749606
 20
1629.4257589196395
 10
7081.018224140305
 20
1629.4320378971415
 10
7081.019479875201
 20
1629.4501584789505
 10
7081.022888298488
 20
1629.4790461390178
 10
7081.029525754365
 20
1629.5176263512985
 10
7081.040468587025
 20
1629.5648245897414
 10
7081.056793140666
 20
1629.6195663283045
 10
7081.079575759484
 20
1629.6807770409378
 10
7081.109892787675
 20
1629.7473822015938
 10
7081.148820569435
 20
1629.8183072842264
 10
7081.197435448959
 20
1629.8924777627883
 10
7081.256813770445
 20
1629.9688191112323
 10
7081.328031878088
 20
1630.046256803511
 10
7083.808452532853
 20
1636.5606991437955
 10
7116.995925849087
 20
1719.9870323504174
 10
7120.716818644688
 20
1730.222891113209
 10
7121.356668906301
 20
1731.5864149709569
 10
7122.03744933775
 20
1732.8887144799546
 10
7122.761319900024
 20
1734.1329932187036
 10
7123.530440554111
 20
1735.3224547657092
 10
7124.346971260998
 20
1736.4603026994712
 10
7125.213071981674
 20
1737.549740598495
 10
7126.130902677127
 20
1738.593972041281
 10
7127.102623308345
 20
1739.5962006063319
 10
7128.130393836316
 20
1740.559629872153
 10
7129.216374222029
 20
1741.4874634172431
 10
7130.362724426472
 20
1742.3829048201073
 10
7131.571604410632
 20
1743.2491576592479
 10
7132.592383852751
 20
1743.9207579534723
 10
7133.636801049757
 20
1744.5396337454295
 10
7134.702705131409
 20
1745.1047032364736
 10
7135.787945227463
 20
1745.6148846279627
 10
7136.890370467674
 20
1746.0690961212515
 10
7138.007829981801
 20
1746.4662559177018
 10
7139.138172899598
 20
1746.8052822186671
 10
7140.279248350826
 20
1747.0850932255041
 10
7141.428905465238
 20
1747.3046071395715
 10
7142.584993372592
 20
1747.462742162225
 10
7143.745361202645
 20
1747.558416494822
 10
7144.907858085153
 20
1747.5905483387196
 10
7146.050930166985
 20
1747.5582377101719
 10
7147.152035734062
 20
1747.461311885028
 10
7148.2079348449015
 20
1747.2997799540296
 10
7149.2153875580225
 20
1747.0736510079241
 10
7150.171153931941
 20
1746.7829341374545
 10
7151.0719940251765
 20
1746.4276384333675
 10
7151.914667896246
 20
1746.0077729864079
 10
7152.695935603668
 20
1745.5233468873191
 10
7153.412557205958
 20
1744.9743692268466
 10
7154.061292761637
 20
1744.360849095736
 10
7154.63890232922
 20
1743.6827955847318
 10
7155.1421459672265
 20
1742.9402177845786
 10
7155.639956673055
 20
1742.144942451366
 10
7156.048367175393
 20
1741.3086787675502
 10
7156.368455636582
 20
1740.4292958625263
 10
7156.601300218971
 20
1739.5046628656905
 10
7156.747979084902
 20
1738.532648906436
 10
7156.809570396721
 20
1737.5111231141618
 10
7156.787152316774
 20
1736.4379546182604
 10
7156.681803007405
 20
1735.3110125481287
 10
7156.494600630959
 20
1734.1281660331624
 10
7156.226623349782
 20
1732.8872842027572
 10
7155.878949326219
 20
1731.5862361863071
 10
7155.452656722615
 20
1730.222891113209
 10
7151.421253171626
 20
1720.2970194788998
 10
7151.421253171626
 20
1720.2968400882003
 10
7151.421253171626
 20
1720.2955843533052
 10
7151.421253171626
 20
1720.2921759300177
 10
7151.421253171626
 20
1720.2855384741422
 10
7151.421253171626
 20
1720.2745956414801
 10
7151.421253171626
 20
1720.2582710878391
 10
7151.421253171626
 20
1720.235488469022
 10
7151.421253171626
 20
1720.2051714408312
 10
7151.421253171626
 20
1720.1662436590716
 10
7151.421253171626
 20
1720.117628779546
 10
7151.421253171626
 20
1720.0582504580607
 10
7151.421253171626
 20
1719.9870323504174
 10
7137.153990857845
 20
1684.6327908962444
 10
7140.500811924842
 20
1686.2080845655034
 10
7143.87242708948
 20
1687.674716560978
 10
7147.267754553113
 20
1689.0272887983451
 10
7150.685712517099
 20
1690.2604031932842
 10
7154.125219182795
 20
1691.3686616614714
 10
7157.58519275156
 20
1692.3466661185896
 10
7161.064551424747
 20
1693.1890184803149
 10
7164.562213403716
 20
1693.8903206623254
 10
7168.077096889823
 20
1694.4451745803015
 10
7171.608120084425
 20
1694.8481821499192
 10
7175.154201188878
 20
1695.0939452868593
 10
7178.71425840454
 20
1695.1770659067997
 10
7188.665758363845
 20
1694.518569315297
 10
7197.564111889867
 20
1692.5969137199897
 10
7205.377005020783
 20
1689.4928503896674
 10
7212.0721237947755
 20
1685.2871305931285
 10
7217.6171542500215
 20
1680.0605055991646
 10
7221.979782424703
 20
1673.8937266765752
 10
7225.127694356999
 20
1666.8675450941503
 10
7227.0285760850875
 20
1659.0627121206858
 10
7227.65011364715
 20
1650.559979024977
 10
7226.959993081366
 20
1641.44009707582
 10
7224.925900425915
 20
1631.7838175420056
 10
7221.515521718976
 20
1621.6718916923314
  0
HATCH
  5
C1
330
17
100
AcDbEntity
  8
Okvir
 62
7
100
AcDbHatch
 10
0.0
 20
0.0
 30
0.0
210
0.0
220
0.0
230
1.0
  2
SOLID
 70
1
 71
0
 91
1
 92
3
 72
0
 73
1
 93
49
 10
7187.088623515719
 20
1621.6718916923314
 10
7188.97691577422
 20
1627.1322082230813
 10
7190.152328181033
 20
1632.32098420368
 10
7190.625633268861
 20
1637.1994748793618
 10
7190.407603570411
 20
1641.7289354953678
 10
7189.509011618389
 20
1645.8706212969316
 10
7187.940629945502
 20
1649.5857875292959
 10
7185.7132310844545
 20
1652.8356894376952
 10
7182.837587567954
 20
1655.5815822673674
 10
7179.324471928705
 20
1657.7847212635502
 10
7175.184656699415
 20
1659.4063616714827
 10
7170.42891441279
 20
1660.4077587364006
 10
7165.068017601536
 20
1660.7501677035425
 10
7159.440465303413
 20
1660.3958489515069
 10
7153.904398625662
 20
1659.3630533627809
 10
7148.499660485029
 20
1657.697021938429
 10
7143.266093798262
 20
1655.4429956795207
 10
7138.243541482105
 20
1652.646215587123
 10
7133.471846453305
 20
1649.3519226623055
 10
7128.990851628608
 20
1645.6053579061327
 10
7124.84039992476
 20
1641.4517623196743
 10
7121.060334258509
 20
1636.9363769039971
 10
7117.6904975465995
 20
1632.1044426601695
 10
7114.770732705777
 20
1627.0012005892588
 10
7112.34088265279
 20
1621.6718916923314
 10
7110.197875297819
 20
1615.2288044269128
 10
7108.997185468765
 20
1609.3867317608967
 10
7108.67310526149
 20
1604.1391938113165
 10
7109.159926771859
 20
1599.4797106952115
 10
7110.391942095739
 20
1595.4018025296123
 10
7112.303443328995
 20
1591.8989894315596
 10
7114.828722567492
 20
1588.9647915180858
 10
7117.902071907096
 20
1586.5927289062267
 10
7121.45778344367
 20
1584.7763217130175
 10
7125.430149273083
 20
1583.5090900554965
 10
7129.753461491197
 20
1582.784554050695
 10
7134.362012193879
 20
1582.5962338156519
 10
7139.119049911652
 20
1582.8794323370635
 10
7144.039873762134
 20
1583.724722524516
 10
7149.055539536004
 20
1585.1256463128302
 10
7154.097103023945
 20
1587.075745636831
 10
7159.0956200166365
 20
1589.56856243134
 10
7163.982146304761
 20
1592.5976386311838
 10
7168.687737678999
 20
1596.1565161711828
 10
7173.14344993003
 20
1600.2387369861606
 10
7177.280338848537
 20
1604.8378430109412
 10
7181.0294602252
 20
1609.9473761803479
 10
7184.3218698507
 20
1615.560878429204
 10
7187.088623515719
 20
1621.6718916923314
 97
0
 75
0
 76
1
 98
0
  0
LWPOLYLINE
  5
C2
330
17
100
AcDbEntity
  8
Okvir
 62
7
100
AcDbPolyline
 90
49
 70
1
 10
7187.088623515719
 20
1621.6718916923314
 10
7188.97691577422
 20
1627.1322082230813
 10
7190.152328181033
 20
1632.32098420368
 10
7190.625633268861
 20
1637.1994748793618
 10
7190.407603570411
 20
1641.7289354953678
 10
7189.509011618389
 20
1645.8706212969316
 10
7187.940629945502
 20
1649.5857875292959
 10
7185.7132310844545
 20
1652.8356894376952
 10
7182.837587567954
 20
1655.5815822673674
 10
7179.324471928705
 20
1657.7847212635502
 10
7175.184656699415
 20
1659.4063616714827
 10
7170.42891441279
 20
1660.4077587364006
 10
7165.068017601536
 20
1660.7501677035425
 10
7159.440465303413
 20
1660.3958489515069
 10
7153.904398625662
 20
1659.3630533627809
 10
7148.499660485029
 20
1657.697021938429
 10
7143.266093798262
 20
1655.4429956795207
 10
7138.243541482105
 20
1652.646215587123
 10
7133.471846453305
 20
1649.3519226623055
 10
7128.990851628608
 20
1645.6053579061327
 10
7124.84039992476
 20
1641.4517623196743
 10
7121.060334258509
 20
1636.9363769039971
 10
7117.6904975465995
 20
1632.1044426601695
 10
7114.770732705777
 20
1627.0012005892588
 10
7112.34088265279
 20
1621.6718916923314
 10
7110.197875297819
 20
1615.2288044269128
 10
7108.997185468765
 20
1609.3867317608967
 10
7108.67310526149
 20
1604.1391938113165
 10
7109.159926771859
 20
1599.4797106952115
 10
7110.391942095739
 20
1595.4018025296123
 10
7112.303443328995
 20
1591.8989894315596
 10
7114.828722567492
 20
1588.9647915180858
 10
7117.902071907096
 20
1586.5927289062267
 10
7121.45778344367
 20
1584.7763217130175
 10
7125.430149273083
 20
1583.5090900554965
 10
7129.753461491197
 20
1582.784554050695
 10
7134.362012193879
 20
1582.5962338156519
 10
7139.119049911652
 20
1582.8794323370635
 10
7144.039873762134
 20
1583.724722524516
 10
7149.055539536004
 20
1585.1256463128302
 10
7154.097103023945
 20
1587.075745636831
 10
7159.0956200166365
 20
1589.56856243134
 10
7163.982146304761
 20
1592.5976386311838
 10
7168.687737678999
 20
1596.1565161711828
 10
7173.14344993003
 20
1600.2387369861606
 10
7177.280338848537
 20
1604.8378430109412
 10
7181.0294602252
 20
1609.9473761803479
 10
7184.3218698507
 20
1615.560878429204
 10
7187.088623515719
 20
1621.6718916923314
  0
HATCH
  5
C3
330
17
100
AcDbEntity
  8
Okvir
 62
7
100
AcDbHatch
 10
0.0
 20
0.0
 30
0.0
210
0.0
220
0.0
230
1.0
  2
SOLID
 70
1
 71
0
 91
1
 92
3
 72
0
 73
1
 93
201
 10
7344.335354334352
 20
1695.1770659067997
 10
7340.846694010984
 20
1695.0939452868583
 10
7337.361242720564
 20
1694.8481821499197
 10
7333.882231313832
 20
1694.4451745803005
 10
7330.4128906415235
 20
1693.8903206623258
 10
7326.956451554376
 20
1693.1890184803137
 10
7323.516144903128
 20
1692.3466661185896
 10
7320.095201538517
 20
1691.3686616614723
 10
7316.696852311279
 20
1690.2604031932829
 10
7313.324328072152
 20
1689.0272887983447
 10
7309.980859671874
 20
1687.6747165609775
 10
7306.66967796118
 20
1686.208084565504
 10
7303.39401379081
 20
1684.6327908962444
 10
7307.116477467129
 20
1694.5581389036472
 10
7322.312653912544
 20
1732.3943718933044
 10
7322.81010553395
 20
1733.692818138564
 10
7323.216002445323
 20
1734.9514941930365
 10
7323.529268302465
 20
1736.1693128036318
 10
7323.748826761183
 20
1737.3451867172596
 10
7323.873601477278
 20
1738.47802868083
 10
7323.902516106556
 20
1739.5667514412546
 10
7323.834494304819
 20
1740.6102677454426
 10
7323.668459727873
 20
1741.6074903403028
 10
7323.40333603152
 20
1742.557331972746
 10
7323.038046871565
 20
1743.4587053896826
 10
7322.571515903811
 20
1744.3105233380215
 10
7322.002666784062
 20
1745.1116985646736
 10
7321.49944405477
 20
1745.8542454562933
 10
7320.921893577029
 20
1746.5322135142967
 10
7320.273249837874
 20
1747.1456045568293
 10
7319.556747324341
 20
1747.6944204020433
 10
7318.775620523465
 20
1748.1786628680836
 10
7317.9331039222825
 20
1748.5983337731038
 10
7317.032432007828
 20
1748.9534349352507
 10
7316.076839267136
 20
1749.2439681726717
 10
7315.069560187243
 20
1749.469935303519
 10
7314.013829255184
 20
1749.6313381459388
 10
7312.912880957994
 20
1749.7281785180817
 10
7311.769949782708
 20
1749.7604582380964
 10
7310.612901589668
 20
1749.7283579087803
 10
7309.467765908744
 20
1749.6327732715338
 10
7308.333451850548
 20
1749.474778852401
 10
7307.208868525694
 20
1749.2554491774308
 10
7306.092925044791
 20
1748.9758587726685
 10
7304.984530518454
 20
1748.637082164164
 10
7303.882594057293
 20
1748.2401938779624
 10
7302.786024771921
 20
1747.7862684401114
 10
7301.69373177295
 20
1747.276380376658
 10
7300.604624170992
 20
1746.7116042136495
 10
7299.517611076658
 20
1746.093014477133
 10
7298.431601600561
 20
1745.4216856931557
 10
7297.222931309584
 20
1744.5492923588597
 10
7296.077918050692
 20
1743.6380960890353
 10
7294.9954636618995
 20
1742.6881077925732
 10
7293.974469981226
 20
1741.699338378371
 10
7293.013838846686
 20
1740.6717987553195
 10
7292.112472096297
 20
1739.6054998323157
 10
7291.269271568073
 20
1738.5004525182496
 10
7290.483139100031
 20
1737.3566677220174
 10
7289.752976530187
 20
1736.1741563525138
 10
7289.077685696558
 20
1734.952929318631
 10
7288.456168437158
 20
1733.692997529263
 10
7287.8873265900065
 20
1732.3943718933044
 10
7221.826032474364
 20
1565.2254348287045
 10
7221.334390748024
 20
1563.9266291959962
 10
7220.94402901061
 20
1562.6678810216158
 10
7220.6527891192845
 20
1561.450215741583
 10
7220.458512931208
 20
1560.2746587919278
 10
7220.35904230354
 20
1559.1422356086703
 10
7220.352219093444
 20
1558.0539716278395
 10
7220.435885158078
 20
1557.010892285457
 10
7220.607882354605
 20
1556.0140230175484
 10
7220.866052540184
 20
1555.0643892601393
 10
7221.2082375719765
 20
1554.1630164492524
 10
7221.632279307144
 20
1553.3109300209135
 10
7222.136019602846
 20
1552.5091554111477
 10
7222.704682968374
 20
1551.8375860254546
 10
7223.3249508563995
 20
1551.2187956865014
 10
7223.996850539156
 20
1550.6538552840352
 10
7224.72040928888
 20
1550.143835707806
 10
7225.495654377804
 20
1549.689807847561
 10
7226.322613078167
 20
1549.2928425930534
 10
7227.201312662199
 20
1548.9540108340304
 10
7228.131780402136
 20
1548.6743834602387
 10
7229.114043570215
 20
1548.455031361431
 10
7230.148129438668
 20
1548.2970254273546
 10
7231.234065279731
 20
1548.2014365477603
 10
7232.371878365638
 20
1548.1693356123947
 10
7233.46943520893
 20
1548.201436547759
 10
7234.5885389357845
 20
1548.2970254273555
 10
7235.724882351267
 20
1548.4550313614307
 10
7236.874158260443
 20
1548.6743834602387
 10
7238.03205946838
 20
1548.954010834029
 10
7239.194278780144
 20
1549.2928425930534
 10
7240.356509000801
 20
1549.689807847562
 10
7241.51444293542
 20
1550.1438357078055
 10
7242.663773389066
 20
1550.6538552840352
 10
7243.800193166805
 20
1551.2187956865014
 10
7244.9193950737035
 20
1551.837586025455
 10
7246.017071914829
 20
1552.5091554111477
 10
7247.154433796764
 20
1553.310930020913
 10
7248.240047522433
 20
1554.163016449252
 10
7249.273916728133
 20
1555.0643892601383
 10
7250.256045050162
 20
1556.0140230175484
 10
7251.186436124817
 20
1557.0108922854565
 10
7252.065093588399
 20
1558.05397162784
 10
7252.892021077203
 20
1559.1422356086712
 10
7253.667222227528
 20
1560.2746587919273
 10
7254.390700675672
 20
1561.4502157415839
 10
7255.062460057932
 20
1562.667881021615
 10
7255.682504010609
 20
1563.926629195997
 10
7256.250836169997
 20
1565.2254348287045
 10
7280.44344649118
 20
1626.6337802556739
 10
7283.061016790048
 20
1631.409627633719
 10
7286.082365250677
 20
1635.945342985241
 10
7289.471968878296
 20
1640.207539640518
 10
7293.194304678137
 20
1644.1628309298353
 10
7297.213849655429
 20
1647.777830183471
 10
7301.495080815403
 20
1651.01915073171
 10
7306.002475163288
 20
1653.8534059048322
 10
7310.700509704315
 20
1656.2472090331185
 10
7315.553661443714
 20
1658.1671734468512
 10
7320.526407386715
 20
1659.5799124763114
 10
7325.583224538547
 20
1660.4520394517813
 10
7330.688589904443
 20
1660.7501677035425
 10
7336.114934321503
 20
1660.4077587364002
 10
7340.914620965948
 20
1659.4063616714827
 10
7345.081162682218
 20
1657.7847212635502
 10
7348.6080723147525
 20
1655.5815822673665
 10
7351.488862707991
 20
1652.8356894376939
 10
7353.7170467063725
 20
1649.5857875292959
 10
7355.286137154338
 20
1645.8706212969325
 10
7356.189646896325
 20
1641.7289354953668
 10
7356.421088776775
 20
1637.1994748793618
 10
7355.973975640127
 20
1632.3209842036795
 10
7354.84182033082
 20
1627.1322082230818
 10
7353.018135693295
 20
1621.6718916923314
 10
7353.018135693295
 20
1621.6718916923314
 10
7331.307516907595
 20
1565.5354219571866
 10
7330.816315173307
 20
1564.165579728709
 10
7330.426240703433
 20
1562.8487238159541
 10
7330.135157172919
 20
1561.5858923819872
 10
7329.940928256717
 20
1560.3781235898794
 10
7329.841417629772
 20
1559.226455602694
 10
7329.834488967034
 20
1558.131926583503
 10
7329.918005943452
 20
1557.095574695372
 10
7330.089832233974
 20
1556.118438101367
 10
7330.347831513549
 20
1555.2015549645578
 10
7330.689867457126
 20
1554.3459634480105
 10
7331.113803739652
 20
1553.5527017147926
 10
7331.617504036077
 20
1552.8228079279731
 10
7332.186337398534
 20
1552.0791783286343
 10
7332.806835282405
 20
1551.400307559665
 10
7333.478997687689
 20
1550.7861774395712
 10
7334.202824614388
 20
1550.236769786865
 10
7334.9783160625
 20
1549.7520664200565
 10
7335.805472032026
 20
1549.3320491576565
 10
7336.684292522965
 20
1548.9766998181753
 10
7337.614777535318
 20
1548.6860002201213
 10
7338.596927069086
 20
1548.4599321820058
 10
7339.630741124266
 20
1548.29847752234
 10
7340.71621970086
 20
1548.2016180596331
 10
7341.853362798869
 20
1548.1693356123947
 10
7343.016338763633
 20
1548.2016180596327
 10
7344.179318364696
 20
1548.2984775223404
 10
7345.342305238354
 20
1548.4599321820058
 10
7346.505303020907
 20
1548.6860002201215
 10
7347.668315348651
 20
1548.9766998181744
 10
7348.831345857885
 20
1549.3320491576565
 10
7349.994398184907
 20
1549.752066420057
 10
7351.157475966014
 20
1550.236769786865
 10
7352.320582837506
 20
1550.7861774395712
 10
7353.483722435679
 20
1551.4003075596645
 10
7354.646898396831
 20
1552.0791783286352
 10
7355.81011435726
 20
1552.8228079279731
 10
7356.947087155315
 20
1553.5527017147926
 10
7358.031329996652
 20
1554.3459634480105
 10
7359.061755628184
 20
1555.2015549645569
 10
7360.03727679682
 20
1556.118438101367
 10
7360.956806249469
 20
1557.0955746953703
 10
7361.819256733043
 20
1558.1319265835025
 10
7362.623540994451
 20
1559.2264556026944
 10
7363.368571780604
 20
1560.3781235898784
 10
7364.0532618384095
 20
1561.585892381988
 10
7364.676523914779
 20
1562.8487238159537
 10
7365.237270756623
 20
1564.165579728709
 10
7365.734415110852
 20
1565.5354219571866
 10
7387.446604777271
 20
1621.6718916923314
 10
7387.446604777271
 20
1621.6718916923314
 10
7390.791575271632
 20
1631.7838175420056
 10
7392.781824779556
 20
1641.44009707582
 10
7393.445356431633
 20
1650.5599790249776
 10
7392.810173358451
 20
1659.0627121206871
 10
7390.904278690599
 20
1666.8675450941494
 10
7387.755675558667
 20
1673.8937266765747
 10
7383.392367093243
 20
1680.0605055991664
 10
7377.842356424915
 20
1685.2871305931285
 10
7371.133646684273
 20
1689.4928503896683
 10
7363.294241001907
 20
1692.5969137199893
 10
7354.352142508403
 20
1694.5185693152976
 10
7344.335354334352
 20
1695.1770659067997
 97
0
 75
0
 76
1
 98
0
  0
LWPOLYLINE
  5
C4
330
17
100
AcDbEntity
  8
Okvir
 62
7
100
AcDbPolyline
 90
201
 70
1
 10
7344.335354334352
 20
1695.1770659067997
 10
7340.846694010984
 20
1695.0939452868583
 10
7337.361242720564
 20
1694.8481821499197
 10
7333.882231313832
 20
1694.4451745803005
 10
7330.4128906415235
 20
1693.8903206623258
 10
7326.956451554376
 20
1693.1890184803137
 10
7323.516144903128
 20
1692.3466661185896
 10
7320.095201538517
 20
1691.3686616614723
 10
7316.696852311279
 20
1690.2604031932829
 10
7313.324328072152
 20
1689.0272887983447
 10
7309.980859671874
 20
1687.6747165609775
 10
7306.66967796118
 20
1686.208084565504
 10
7303.39401379081
 20
1684.6327908962444
 10
7307.116477467129
 20
1694.5581389036472
 10
7322.312653912544
 20
1732.3943718933044
 10
7322.81010553395
 20
1733.692818138564
 10
7323.216002445323
 20
1734.9514941930365
 10
7323.529268302465
 20
1736.1693128036318
 10
7323.748826761183
 20
1737.3451867172596
 10
7323.873601477278
 20
1738.47802868083
 10
7323.902516106556
 20
1739.5667514412546
 10
7323.834494304819
 20
1740.6102677454426
 10
7323.668459727873
 20
1741.6074903403028
 10
7323.40333603152
 20
1742.557331972746
 10
7323.038046871565
 20
1743.4587053896826
 10
7322.571515903811
 20
1744.3105233380215
 10
7322.002666784062
 20
1745.1116985646736
 10
7321.49944405477
 20
1745.8542454562933
 10
7320.921893577029
 20
1746.5322135142967
 10
7320.273249837874
 20
1747.1456045568293
 10
7319.556747324341
 20
1747.6944204020433
 10
7318.775620523465
 20
1748.1786628680836
 10
7317.9331039222825
 20
1748.5983337731038
 10
7317.032432007828
 20
1748.9534349352507
 10
7316.076839267136
 20
1749.2439681726717
 10
7315.069560187243
 20
1749.469935303519
 10
7314.013829255184
 20
1749.6313381459388
 10
7312.912880957994
 20
1749.7281785180817
 10
7311.769949782708
 20
1749.7604582380964
 10
7310.612901589668
 20
1749.7283579087803
 10
7309.467765908744
 20
1749.6327732715338
 10
7308.333451850548
 20
1749.474778852401
 10
7307.208868525694
 20
1749.2554491774308
 10
7306.092925044791
 20
1748.9758587726685
 10
7304.984530518454
 20
1748.637082164164
 10
7303.882594057293
 20
1748.2401938779624
 10
7302.786024771921
 20
1747.7862684401114
 10
7301.69373177295
 20
1747.276380376658
 10
7300.604624170992
 20
1746.7116042136495
 10
7299.517611076658
 20
1746.093014477133
 10
7298.431601600561
 20
1745.4216856931557
 10
7297.222931309584
 20
1744.5492923588597
 10
7296.077918050692
 20
1743.6380960890353
 10
7294.9954636618995
 20
1742.6881077925732
 10
7293.974469981226
 20
1741.699338378371
 10
7293.013838846686
 20
1740.6717987553195
 10
7292.112472096297
 20
1739.6054998323157
 10
7291.269271568073
 20
1738.5004525182496
 10
7290.483139100031
 20
1737.3566677220174
 10
7289.752976530187
 20
1736.1741563525138
 10
7289.077685696558
 20
1734.952929318631
 10
7288.456168437158
 20
1733.692997529263
 10
7287.8873265900065
 20
1732.3943718933044
 10
7221.826032474364
 20
1565.2254348287045
 10
7221.334390748024
 20
1563.9266291959962
 10
7220.94402901061
 20
1562.6678810216158
 10
7220.6527891192845
 20
1561.450215741583
 10
7220.458512931208
 20
1560.2746587919278
 10
7220.35904230354
 20
1559.1422356086703
 10
7220.352219093444
 20
1558.0539716278395
 10
7220.435885158078
 20
1557.010892285457
 10
7220.607882354605
 20
1556.0140230175484
 10
7220.866052540184
 20
1555.0643892601393
 10
7221.2082375719765
 20
1554.1630164492524
 10
7221.632279307144
 20
1553.3109300209135
 10
7222.136019602846
 20
1552.5091554111477
 10
7222.704682968374
 20
1551.8375860254546
 10
7223.3249508563995
 20
1551.2187956865014
 10
7223.996850539156
 20
1550.6538552840352
 10
7224.72040928888
 20
1550.143835707806
 10
7225.495654377804
 20
1549.689807847561
 10
7226.322613078167
 20
1549.2928425930534
 10
7227.201312662199
 20
1548.9540108340304
 10
7228.131780402136
 20
1548.6743834602387
 10
7229.114043570215
 20
1548.455031361431
 10
7230.148129438668
 20
1548.2970254273546
 10
7231.234065279731
 20
1548.2014365477603
 10
7232.371878365638
 20
1548.1693356123947
 10
7233.46943520893
 20
1548.201436547759
 10
7234.5885389357845
 20
1548.2970254273555
 10
7235.724882351267
 20
1548.4550313614307
 10
7236.874158260443
 20
1548.6743834602387
 10
7238.03205946838
 20
1548.954010834029
 10
7239.194278780144
 20
1549.2928425930534
 10
7240.356509000801
 20
1549.689807847562
 10
7241.51444293542
 20
1550.1438357078055
 10
7242.663773389066
 20
1550.6538552840352
 10
7243.800193166805
 20
1551.2187956865014
 10
7244.9193950737035
 20
1551.837586025455
 10
7246.017071914829
 20
1552.5091554111477
 10
7247.154433796764
 20
1553.310930020913
 10
7248.240047522433
 20
1554.163016449252
 10
7249.273916728133
 20
1555.0643892601383
 10
7250.256045050162
 20
1556.0140230175484
 10
7251.186436124817
 20
1557.0108922854565
 10
7252.065093588399
 20
1558.05397162784
 10
7252.892021077203
 20
1559.1422356086712
 10
7253.667222227528
 20
1560.2746587919273
 10
7254.390700675672
 20
1561.4502157415839
 10
7255.062460057932
 20
1562.667881021615
 10
7255.682504010609
 20
1563.926629195997
 10
7256.250836169997
 20
1565.2254348287045
 10
7280.44344649118
 20
1626.6337802556739
 10
7283.061016790048
 20
1631.409627633719
 10
7286.082365250677
 20
1635.945342985241
 10
7289.471968878296
 20
1640.207539640518
 10
7293.194304678137
 20
1644.1628309298353
 10
7297.213849655429
 20
1647.777830183471
 10
7301.495080815403
 20
1651.01915073171
 10
7306.002475163288
 20
1653.8534059048322
 10
7310.700509704315
 20
1656.2472090331185
 10
7315.553661443714
 20
1658.1671734468512
 10
7320.526407386715
 20
1659.5799124763114
 10
7325.583224538547
 20
1660.4520394517813
 10
7330.688589904443
 20
1660.7501677035425
 10
7336.114934321503
 20
1660.4077587364002
 10
7340.914620965948
 20
1659.4063616714827
 10
7345.081162682218
 20
1657.7847212635502
 10
7348.6080723147525
 20
1655.5815822673665
 10
7351.488862707991
 20
1652.8356894376939
 10
7353.7170467063725
 20
1649.5857875292959
 10
7355.286137154338
 20
1645.8706212969325
 10
7356.189646896325
 20
1641.7289354953668
 10
7356.421088776775
 20
1637.1994748793618
 10
7355.973975640127
 20
1632.3209842036795
 10
7354.84182033082
 20
1627.1322082230818
 10
7353.018135693295
 20
1621.6718916923314
 10
7353.018135693295
 20
1621.6718916923314
 10
7331.307516907595
 20
1565.5354219571866
 10
7330.816315173307
 20
1564.165579728709
 10
7330.426240703433
 20
1562.8487238159541
 10
7330.135157172919
 20
1561.5858923819872
 10
7329.940928256717
 20
1560.3781235898794
 10
7329.841417629772
 20
1559.226455602694
 10
7329.834488967034
 20
1558.131926583503
 10
7329.918005943452
 20
1557.095574695372
 10
7330.089832233974
 20
1556.118438101367
 10
7330.347831513549
 20
1555.2015549645578
 10
7330.689867457126
 20
1554.3459634480105
 10
7331.113803739652
 20
1553.5527017147926
 10
7331.617504036077
 20
1552.8228079279731
 10
7332.186337398534
 20
1552.0791783286343
 10
7332.806835282405
 20
1551.400307559665
 10
7333.478997687689
 20
1550.7861774395712
 10
7334.202824614388
 20
1550.236769786865
 10
7334.9783160625
 20
1549.7520664200565
 10
7335.805472032026
 20
1549.3320491576565
 10
7336.684292522965
 20
1548.9766998181753
 10
7337.614777535318
 20
1548.6860002201213
 10
7338.596927069086
 20
1548.4599321820058
 10
7339.630741124266
 20
1548.29847752234
 10
7340.71621970086
 20
1548.2016180596331
 10
7341.853362798869
 20
1548.1693356123947
 10
7343.016338763633
 20
1548.2016180596327
 10
7344.179318364696
 20
1548.2984775223404
 10
7345.342305238354
 20
1548.4599321820058
 10
7346.505303020907
 20
1548.6860002201215
 10
7347.668315348651
 20
1548.9766998181744
 10
7348.831345857885
 20
1549.3320491576565
 10
7349.994398184907
 20
1549.752066420057
 10
7351.157475966014
 20
1550.236769786865
 10
7352.320582837506
 20
1550.7861774395712
 10
7353.483722435679
 20
1551.4003075596645
 10
7354.646898396831
 20
1552.0791783286352
 10
7355.81011435726
 20
1552.8228079279731
 10
7356.947087155315
 20
1553.5527017147926
 10
7358.031329996652
 20
1554.3459634480105
 10
7359.061755628184
 20
1555.2015549645569
 10
7360.03727679682
 20
1556.118438101367
 10
7360.956806249469
 20
1557.0955746953703
 10
7361.819256733043
 20
1558.1319265835025
 10
7362.623540994451
 20
1559.2264556026944
 10
7363.368571780604
 20
1560.3781235898784
 10
7364.0532618384095
 20
1561.585892381988
 10
7364.676523914779
 20
1562.8487238159537
 10
7365.237270756623
 20
1564.165579728709
 10
7365.734415110852
 20
1565.5354219571866
 10
7387.446604777271
 20
1621.6718916923314
 10
7387.446604777271
 20
1621.6718916923314
 10
7390.791575271632
 20
1631.7838175420056
 10
7392.781824779556
 20
1641.44009707582
 10
7393.445356431633
 20
1650.5599790249776
 10
7392.810173358451
 20
1659.0627121206871
 10
7390.904278690599
 20
1666.8675450941494
 10
7387.755675558667
 20
1673.8937266765747
 10
7383.392367093243
 20
1680.0605055991664
 10
7377.842356424915
 20
1685.2871305931285
 10
7371.133646684273
 20
1689.4928503896683
 10
7363.294241001907
 20
1692.5969137199893
 10
7354.352142508403
 20
1694.5185693152976
 10
7344.335354334352
 20
1695.1770659067997
  0
TEXT
  5
C5
330
17
100
AcDbEntity
  8
Tekst
 62
7
100
AcDbText
 10
7920.0
 20
1602.0
 30
0.0
 40
90.0
  1
BH TELECOM d.d. SARAJEVO
  7
20
 11
7920.0
 21
1602.0
 31
0.0
100
AcDbText
  0
TEXT
  5
C6
330
17
100
AcDbEntity
  8
Okvir
 62
8
100
AcDbText
 10
7920.0
 20
1488.0
 30
0.0
 40
66.0
  1
Izvršna direkcija za tehnologiju i razvoj servisa
  7
20
 11
7920.0
 21
1488.0
 31
0.0
100
AcDbText
  0
TEXT
  5
C7
330
17
100
AcDbEntity
  8
Okvir
 62
8
100
AcDbText
 10
6990.0
 20
1362.0
 30
0.0
 40
57.0
  1
Investitor:
  7
20
 11
6990.0
 21
1362.0
 31
0.0
100
AcDbText
  0
TEXT
  5
C8
330
17
100
AcDbEntity
  8
Tekst
 62
7
100
AcDbText
 10
6990.0
 20
1248.0
 30
0.0
 40
78.0
  1
BH Telecom d.d. Sarajevo, Franca Lehara 7, Sarajevo
  7
20
 11
6990.0
 21
1248.0
 31
0.0
100
AcDbText
  0
TEXT
  5
C9
330
17
100
AcDbEntity
  8
Okvir
 62
8
100
AcDbText
 10
6990.0
 20
1122.0
 30
0.0
 40
57.0
  1
Objekat:
  7
20
 11
6990.0
 21
1122.0
 31
0.0
100
AcDbText
  0
TEXT
  5
CA
330
17
100
AcDbEntity
  8
Tekst
 62
7
100
AcDbText
 10
6990.0
 20
1008.0
 30
0.0
 40
78.0
  1
BS SJEDNICA (Bileća) — autonomni hibridni sistem napajanja
  7
20
 11
6990.0
 21
1008.0
 31
0.0
100
AcDbText
  0
TEXT
  5
CB
330
17
100
AcDbEntity
  8
Okvir
 62
8
100
AcDbText
 10
6990.0
 20
882.0
 30
0.0
 40
57.0
  1
Faza:
  7
20
 11
6990.0
 21
882.0
 31
0.0
100
AcDbText
  0
TEXT
  5
CC
330
17
100
AcDbEntity
  8
Tekst
 62
7
100
AcDbText
 10
6990.0
 20
768.0
 30
0.0
 40
78.0
  1
Tenderska dokumentacija — Prilog III
  7
20
 11
6990.0
 21
768.0
 31
0.0
100
AcDbText
  0
TEXT
  5
CD
330
17
100
AcDbEntity
  8
Okvir
 62
8
100
AcDbText
 10
10530.0
 20
882.0
 30
0.0
 40
57.0
  1
šifra projekta:
  7
20
 11
10530.0
 21
882.0
 31
0.0
100
AcDbText
  0
TEXT
  5
CE
330
17
100
AcDbEntity
  8
Tekst
 62
7
100
AcDbText
 10
10530.0
 20
768.0
 30
0.0
 40
78.0
  1
BHT-SJEDNICA-2026
  7
20
 11
10530.0
 21
768.0
 31
0.0
100
AcDbText
  0
TEXT
  5
CF
330
17
100
AcDbEntity
  8
Okvir
 62
8
100
AcDbText
 10
6990.0
 20
642.0
 30
0.0
 40
57.0
  1
Naziv crteža:
  7
20
 11
6990.0
 21
642.0
 31
0.0
100
AcDbText
  0
TEXT
  5
D0
330
17
100
AcDbEntity
  8
Tekst
 62
7
100
AcDbText
 10
6990.0
 20
522.0
 30
0.0
 40
102.0
  1
Presjek A–A kroz nosač FN panela
  7
20
 11
6990.0
 21
522.0
 31
0.0
100
AcDbText
  0
TEXT
  5
D1
330
17
100
AcDbEntity
  8
Okvir
 62
8
100
AcDbText
 10
10530.0
 20
642.0
 30
0.0
 40
57.0
  1
razmjera:
  7
20
 11
10530.0
 21
642.0
 31
0.0
100
AcDbText
  0
TEXT
  5
D2
330
17
100
AcDbEntity
  8
Tekst
 62
7
100
AcDbText
 10
10530.0
 20
522.0
 30
0.0
 40
102.0
  1
1:30
  7
20
 11
10530.0
 21
522.0
 31
0.0
100
AcDbText
  0
TEXT
  5
D3
330
17
100
AcDbEntity
  8
Okvir
 62
8
100
AcDbText
 10
6990.0
 20
426.0
 30
0.0
 40
57.0
  1
Projektant:
  7
20
 11
6990.0
 21
426.0
 31
0.0
100
AcDbText
  0
TEXT
  5
D4
330
17
100
AcDbEntity
  8
Tekst
 62
7
100
AcDbText
 10
6990.0
 20
330.0
 30
0.0
 40
69.0
  1
Rusmir Skopljak, dipl. ing. el.
  7
20
 11
6990.0
 21
330.0
 31
0.0
100
AcDbText
  0
TEXT
  5
D5
330
17
100
AcDbEntity
  8
Okvir
 62
8
100
AcDbText
 10
8850.0
 20
426.0
 30
0.0
 40
57.0
  1
ovjerio:
  7
20
 11
8850.0
 21
426.0
 31
0.0
100
AcDbText
  0
TEXT
  5
D6
330
17
100
AcDbEntity
  8
Tekst
 62
7
100
AcDbText
 10
8850.0
 20
330.0
 30
0.0
 40
69.0
  1
Rusmir Skopljak, dipl. ing. el.
  7
20
 11
8850.0
 21
330.0
 31
0.0
100
AcDbText
  0
TEXT
  5
D7
330
17
100
AcDbEntity
  8
Okvir
 62
8
100
AcDbText
 10
10530.0
 20
426.0
 30
0.0
 40
57.0
  1
godina / broj crteža:
  7
20
 11
10530.0
 21
426.0
 31
0.0
100
AcDbText
  0
TEXT
  5
D8
330
17
100
AcDbEntity
  8
Tekst
 62
7
100
AcDbText
 10
10530.0
 20
330.0
 30
0.0
 40
84.0
  1
2026.    S-03
  7
20
 11
10530.0
 21
330.0
 31
0.0
100
AcDbText
  0
LINE
  5
D9
330
17
100
AcDbEntity
  8
Objekat
 62
8
370
50
100
AcDbLine
 10
800.0
 20
2600.0
 30
0.0
 11
12400.0
 21
2600.0
 31
0.0
  0
LINE
  5
DA
330
17
100
AcDbEntity
  8
Objekat
 62
8
100
AcDbLine
 10
1000.0
 20
2600.0
 30
0.0
 11
850.0
 21
2450.0
 31
0.0
  0
LINE
  5
DB
330
17
100
AcDbEntity
  8
Objekat
 62
8
100
AcDbLine
 10
1450.0
 20
2600.0
 30
0.0
 11
1300.0
 21
2450.0
 31
0.0
  0
LINE
  5
DC
330
17
100
AcDbEntity
  8
Objekat
 62
8
100
AcDbLine
 10
1900.0
 20
2600.0
 30
0.0
 11
1750.0
 21
2450.0
 31
0.0
  0
LINE
  5
DD
330
17
100
AcDbEntity
  8
Objekat
 62
8
100
AcDbLine
 10
2350.0
 20
2600.0
 30
0.0
 11
2200.0
 21
2450.0
 31
0.0
  0
LINE
  5
DE
330
17
100
AcDbEntity
  8
Objekat
 62
8
100
AcDbLine
 10
2800.0
 20
2600.0
 30
0.0
 11
2650.0
 21
2450.0
 31
0.0
  0
LINE
  5
DF
330
17
100
AcDbEntity
  8
Objekat
 62
8
100
AcDbLine
 10
3250.0
 20
2600.0
 30
0.0
 11
3100.0
 21
2450.0
 31
0.0
  0
LINE
  5
E0
330
17
100
AcDbEntity
  8
Objekat
 62
8
100
AcDbLine
 10
3700.0
 20
2600.0
 30
0.0
 11
3550.0
 21
2450.0
 31
0.0
  0
LINE
  5
E1
330
17
100
AcDbEntity
  8
Objekat
 62
8
100
AcDbLine
 10
4150.0
 20
2600.0
 30
0.0
 11
4000.0
 21
2450.0
 31
0.0
  0
LINE
  5
E2
330
17
100
AcDbEntity
  8
Objekat
 62
8
100
AcDbLine
 10
4600.0
 20
2600.0
 30
0.0
 11
4450.0
 21
2450.0
 31
0.0
  0
LINE
  5
E3
330
17
100
AcDbEntity
  8
Objekat
 62
8
100
AcDbLine
 10
5050.0
 20
2600.0
 30
0.0
 11
4900.0
 21
2450.0
 31
0.0
  0
LINE
  5
E4
330
17
100
AcDbEntity
  8
Objekat
 62
8
100
AcDbLine
 10
5500.0
 20
2600.0
 30
0.0
 11
5350.0
 21
2450.0
 31
0.0
  0
LINE
  5
E5
330
17
100
AcDbEntity
  8
Objekat
 62
8
100
AcDbLine
 10
5950.0
 20
2600.0
 30
0.0
 11
5800.0
 21
2450.0
 31
0.0
  0
LINE
  5
E6
330
17
100
AcDbEntity
  8
Objekat
 62
8
100
AcDbLine
 10
6400.0
 20
2600.0
 30
0.0
 11
6250.0
 21
2450.0
 31
0.0
  0
LINE
  5
E7
330
17
100
AcDbEntity
  8
Objekat
 62
8
100
AcDbLine
 10
6850.0
 20
2600.0
 30
0.0
 11
6700.0
 21
2450.0
 31
0.0
  0
LINE
  5
E8
330
17
100
AcDbEntity
  8
Objekat
 62
8
100
AcDbLine
 10
7300.0
 20
2600.0
 30
0.0
 11
7150.0
 21
2450.0
 31
0.0
  0
LINE
  5
E9
330
17
100
AcDbEntity
  8
Objekat
 62
8
100
AcDbLine
 10
7750.0
 20
2600.0
 30
0.0
 11
7600.0
 21
2450.0
 31
0.0
  0
LINE
  5
EA
330
17
100
AcDbEntity
  8
Objekat
 62
8
100
AcDbLine
 10
8200.0
 20
2600.0
 30
0.0
 11
8050.0
 21
2450.0
 31
0.0
  0
LINE
  5
EB
330
17
100
AcDbEntity
  8
Objekat
 62
8
100
AcDbLine
 10
8650.0
 20
2600.0
 30
0.0
 11
8500.0
 21
2450.0
 31
0.0
  0
LINE
  5
EC
330
17
100
AcDbEntity
  8
Objekat
 62
8
100
AcDbLine
 10
9100.0
 20
2600.0
 30
0.0
 11
8950.0
 21
2450.0
 31
0.0
  0
LINE
  5
ED
330
17
100
AcDbEntity
  8
Objekat
 62
8
100
AcDbLine
 10
9550.0
 20
2600.0
 30
0.0
 11
9400.0
 21
2450.0
 31
0.0
  0
LINE
  5
EE
330
17
100
AcDbEntity
  8
Objekat
 62
8
100
AcDbLine
 10
10000.0
 20
2600.0
 30
0.0
 11
9850.0
 21
2450.0
 31
0.0
  0
LINE
  5
EF
330
17
100
AcDbEntity
  8
Objekat
 62
8
100
AcDbLine
 10
10450.0
 20
2600.0
 30
0.0
 11
10300.0
 21
2450.0
 31
0.0
  0
LINE
  5
F0
330
17
100
AcDbEntity
  8
Objekat
 62
8
100
AcDbLine
 10
10900.0
 20
2600.0
 30
0.0
 11
10750.0
 21
2450.0
 31
0.0
  0
LINE
  5
F1
330
17
100
AcDbEntity
  8
Objekat
 62
8
100
AcDbLine
 10
11350.0
 20
2600.0
 30
0.0
 11
11200.0
 21
2450.0
 31
0.0
  0
LINE
  5
F2
330
17
100
AcDbEntity
  8
Objekat
 62
8
100
AcDbLine
 10
11800.0
 20
2600.0
 30
0.0
 11
11650.0
 21
2450.0
 31
0.0
  0
LINE
  5
F3
330
17
100
AcDbEntity
  8
Objekat
 62
8
100
AcDbLine
 10
12250.0
 20
2600.0
 30
0.0
 11
12100.0
 21
2450.0
 31
0.0
  0
LWPOLYLINE
  5
F4
330
17
100
AcDbEntity
  8
Panel
 62
5
370
70
100
AcDbPolyline
 90
2
 70
0
 10
2700.0
 20
4100.0
 10
5936.0
 20
7336.0
  0
LWPOLYLINE
  5
F5
330
17
100
AcDbEntity
  8
Panel
 62
8
100
AcDbPolyline
 90
2
 70
0
 10
2700.0
 20
4020.0
 10
5936.0
 20
7256.0
  0
LINE
  5
F6
330
17
100
AcDbEntity
  8
Konstrukcija
 62
5
100
AcDbLine
 10
2700.0
 20
4100.0
 30
0.0
 11
2700.0
 21
2600.0
 31
0.0
  0
LINE
  5
F7
330
17
100
AcDbEntity
  8
Konstrukcija
 62
5
100
AcDbLine
 10
5936.0
 20
7336.0
 30
0.0
 11
5936.0
 21
2600.0
 31
0.0
  0
LINE
  5
F8
330
17
100
AcDbEntity
  8
Konstrukcija
 62
8
100
AcDbLine
 10
2700.0
 20
4100.0
 30
0.0
 11
5936.0
 21
2600.0
 31
0.0
  0
LWPOLYLINE
  5
F9
330
17
100
AcDbEntity
  8
Temelj
 62
32
370
50
100
AcDbPolyline
 90
4
 70
1
 10
2475.0
 20
1700.0
 10
2925.0
 20
1700.0
 10
2925.0
 20
2600.0
 10
2475.0
 20
2600.0
  0
HATCH
  5
FA
330
17
100
AcDbEntity
  8
Temelj
 62
7
100
AcDbHatch
 10
0.0
 20
0.0
 30
0.0
210
0.0
220
0.0
230
1.0
  2
ANSI31
 70
0
 71
0
 91
1
 92
3
 72
0
 73
1
 93
4
 10
2475.0
 20
1700.0
 10
2925.0
 20
1700.0
 10
2925.0
 20
2600.0
 10
2475.0
 20
2600.0
 97
0
 75
1
 76
1
 52
0.0
 41
10.5
 77
0
 78
1
 53
45.0
 43
0.0
 44
0.0
 45
-23.5731723182
 46
23.5731723182
 79
0
 98
0
  0
LWPOLYLINE
  5
FB
330
17
100
AcDbEntity
  8
Temelj
 62
32
370
50
100
AcDbPolyline
 90
4
 70
1
 10
5711.0
 20
1700.0
 10
6161.0
 20
1700.0
 10
6161.0
 20
2600.0
 10
5711.0
 20
2600.0
  0
HATCH
  5
FC
330
17
100
AcDbEntity
  8
Temelj
 62
7
100
AcDbHatch
 10
0.0
 20
0.0
 30
0.0
210
0.0
220
0.0
230
1.0
  2
ANSI31
 70
0
 71
0
 91
1
 92
3
 72
0
 73
1
 93
4
 10
5711.0
 20
1700.0
 10
6161.0
 20
1700.0
 10
6161.0
 20
2600.0
 10
5711.0
 20
2600.0
 97
0
 75
1
 76
1
 52
0.0
 41
10.5
 77
0
 78
1
 53
45.0
 43
0.0
 44
0.0
 45
-23.5731723182
 46
23.5731723182
 79
0
 98
0
  0
LINE
  5
FD
330
17
100
AcDbEntity
  8
Ograda
 62
8
370
50
100
AcDbLine
 10
6736.0
 20
2600.0
 30
0.0
 11
6736.0
 21
4500.0
 31
0.0
  0
LWPOLYLINE
  5
FE
330
17
100
AcDbEntity
  8
Objekat
 62
254
370
35
100
AcDbPolyline
 90
4
 70
1
 10
6786.0
 20
2300.0
 10
12186.0
 20
2300.0
 10
12186.0
 20
2600.0
 10
6786.0
 20
2600.0
  0
HATCH
  5
FF
330
17
100
AcDbEntity
  8
Objekat
 62
7
100
AcDbHatch
 10
0.0
 20
0.0
 30
0.0
210
0.0
220
0.0
230
1.0
  2
ANSI31
 70
0
 71
0
 91
1
 92
3
 72
0
 73
1
 93
4
 10
6786.0
 20
2300.0
 10
12186.0
 20
2300.0
 10
12186.0
 20
2600.0
 10
6786.0
 20
2600.0
 97
0
 75
1
 76
1
 52
0.0
 41
15.0
 77
0
 78
1
 53
45.0
 43
0.0
 44
0.0
 45
-33.6759604545
 46
33.6759604545
 79
0
 98
0
  0
LWPOLYLINE
  5
100
330
17
100
AcDbEntity
  8
Objekat
 62
6
370
50
100
AcDbPolyline
 90
4
 70
1
 10
8336.0
 20
2600.0
 10
10636.0
 20
2600.0
 10
10636.0
 20
5490.0
 10
8336.0
 20
5230.0
  0
LWPOLYLINE
  5
101
330
17
100
AcDbEntity
  8
Objekat
 62
6
370
50
100
AcDbPolyline
 90
4
 70
1
 10
8216.0
 20
5190.0
 10
10756.0
 20
5450.0
 10
10756.0
 20
5550.0
 10
8216.0
 20
5290.0
  0
TEXT
  5
102
330
17
100
AcDbEntity
  8
Tekst
 62
7
100
AcDbText
 10
9486.0
 20
4035.0
 30
0.0
 40
60.0
  1
postojeći kontejner
  7
20
 72
1
 11
9486.0
 21
4035.0
 31
0.0
100
AcDbText
  0
TEXT
  5
103
330
17
100
AcDbEntity
  8
Tekst
 62
8
100
AcDbText
 10
9486.0
 20
3655.0
 30
0.0
 40
51.0
  1
2300 mm · krov u nagibu 10 %
  7
20
 72
1
 11
9486.0
 21
3655.0
 31
0.0
100
AcDbText
  0
TEXT
  5
104
330
17
100
AcDbEntity
  8
Kota_tekst
 62
8
100
AcDbText
 10
8216.0
 20
5360.0
 30
0.0
 40
51.0
  1
+2,63
  7
20
 72
1
 11
8216.0
 21
5360.0
 31
0.0
100
AcDbText
  0
TEXT
  5
105
330
17
100
AcDbEntity
  8
Kota_tekst
 62
8
100
AcDbText
 10
10756.0
 20
5620.0
 30
0.0
 40
51.0
  1
+2,89
  7
20
 72
1
 11
10756.0
 21
5620.0
 31
0.0
100
AcDbText
  0
TEXT
  5
106
330
17
100
AcDbEntity
  8
Tekst
 62
8
100
AcDbText
 10
9486.0
 20
1980.0
 30
0.0
 40
51.0
  1
postojeća AB ploča 5,40 × 5,40 m
  7
20
 72
1
 11
9486.0
 21
1980.0
 31
0.0
100
AcDbText
  0
LINE
  5
107
330
17
100
AcDbEntity
  8
Sakriveno
 62
8
100
AcDbLine
 10
1100.0
 20
4100.0
 30
0.0
 11
8016.0
 21
4100.0
 31
0.0
  0
TEXT
  5
108
330
17
100
AcDbEntity
  8
Kota_tekst
 62
7
100
AcDbText
 10
7956.0
 20
4050.0
 30
0.0
 40
60.0
  1
donja ivica panela  +1,50
  7
20
 72
2
 11
7956.0
 21
4050.0
 31
0.0
100
AcDbText
  0
LINE
  5
109
330
17
100
AcDbEntity
  8
Sakriveno
 62
8
100
AcDbLine
 10
1100.0
 20
4500.0
 30
0.0
 11
8016.0
 21
4500.0
 31
0.0
  0
TEXT
  5
10A
330
17
100
AcDbEntity
  8
Kota_tekst
 62
7
100
AcDbText
 10
7956.0
 20
4450.0
 30
0.0
 40
60.0
  1
kota ograde  +1,90
  7
20
 72
2
 11
7956.0
 21
4450.0
 31
0.0
100
AcDbText
  0
LINE
  5
10B
330
17
100
AcDbEntity
  8
Sakriveno
 62
8
100
AcDbLine
 10
1100.0
 20
7336.0
 30
0.0
 11
8016.0
 21
7336.0
 31
0.0
  0
TEXT
  5
10C
330
17
100
AcDbEntity
  8
Kota_tekst
 62
7
100
AcDbText
 10
7956.0
 20
7286.0
 30
0.0
 40
60.0
  1
gornja ivica panela  +4,74
  7
20
 72
2
 11
7956.0
 21
7286.0
 31
0.0
100
AcDbText
  0
DIMENSION
  5
10D
330
17
100
AcDbEntity
  8
Kote
100
AcDbDimension
280
0
  2
*D1
  3
M 30
 10
2700.0
 20
400.0
 30
0.0
 11
4318.0
 21
400.0
 31
0.0
 70
32
 71
5
  1
<>
100
AcDbAlignedDimension
 13
2700.0
 23
1700.0
 33
0.0
 14
5936.0
 24
1700.0
 34
0.0
 50
0.0
100
AcDbRotatedDimension
  0
DIMENSION
  5
11D
330
17
100
AcDbEntity
  8
Kote
100
AcDbDimension
280
0
  2
*D2
  3
M 30
 10
300.0
 20
2600.0
 30
0.0
 11
300.0
 21
4968.0
 31
0.0
 70
32
 71
5
  1
<>
100
AcDbAlignedDimension
 13
1100.0
 23
2600.0
 33
0.0
 14
1100.0
 24
7336.0
 34
0.0
 50
90.0
100
AcDbRotatedDimension
  0
TEXT
  5
12D
330
17
100
AcDbEntity
  8
Kote
 62
7
100
AcDbText
 10
3400.0
 20
4600.0
 30
0.0
 40
78.0
  1
45°
  7
20
 11
3400.0
 21
4600.0
 31
0.0
100
AcDbText
  0
TEXT
  5
12E
330
17
100
AcDbEntity
  8
Orijentacija
 62
1
100
AcDbText
 10
7236.0
 20
2120.0
 30
0.0
 40
72.0
  1
S J E V E R  →
  7
20
 11
7236.0
 21
2120.0
 31
0.0
100
AcDbText
  0
TEXT
  5
12F
330
17
100
AcDbEntity
  8
Orijentacija
 62
1
100
AcDbText
 10
1100.0
 20
2120.0
 30
0.0
 40
72.0
  1
←  J U G
  7
20
 11
1100.0
 21
2120.0
 31
0.0
100
AcDbText
  0
TEXT
  5
130
330
17
100
AcDbEntity
  8
Tekst
 62
8
100
AcDbText
 10
6886.0
 20
3500.0
 30
0.0
 40
60.0
  1
ograda h=1,90 m
  7
20
 11
6886.0
 21
3500.0
 31
0.0
100
AcDbText
  0
TEXT
  5
131
330
17
100
AcDbEntity
  8
Tekst
 62
7
100
AcDbText
 10
700.0
 20
1500.0
 30
0.0
 40
78.0
  1
OBJAŠNJENJA:
  7
20
 11
700.0
 21
1500.0
 31
0.0
100
AcDbText
  0
TEXT
  5
132
330
17
100
AcDbEntity
  8
Tekst
 62
7
100
AcDbText
 10
700.0
 20
1428.0
 30
0.0
 40
63.0
  1
1  Polje: 2 reda × 2 modula 585 Wp, portret — 2305 × 4576 mm po nagibu,
  7
20
 11
700.0
 21
1428.0
 31
0.0
100
AcDbText
  0
TEXT
  5
133
330
17
100
AcDbEntity
  8
Tekst
 62
7
100
AcDbText
 10
700.0
 20
1336.65
 30
0.0
 40
63.0
  1
    horizontalna projekcija 3236 mm pri 45°.
  7
20
 11
700.0
 21
1336.65
 31
0.0
100
AcDbText
  0
TEXT
  5
134
330
17
100
AcDbEntity
  8
Tekst
 62
7
100
AcDbText
 10
700.0
 20
1245.3000000000002
 30
0.0
 40
63.0
  1
2  Dvije temeljne trake po nosaču 450 × 3300 mm, dubina 900 mm, razmak 1600 mm;
  7
20
 11
700.0
 21
1245.3000000000002
 31
0.0
100
AcDbText
  0
TEXT
  5
135
330
17
100
AcDbEntity
  8
Tekst
 62
7
100
AcDbText
 10
700.0
 20
1153.9500000000003
 30
0.0
 40
63.0
  1
    beton C30/37 (XC4+XF3) na podlozi C12/15, armatura B500B.
  7
20
 11
700.0
 21
1153.9500000000003
 31
0.0
100
AcDbText
  0
TEXT
  5
136
330
17
100
AcDbEntity
  8
Tekst
 62
7
100
AcDbText
 10
700.0
 20
1062.6000000000004
 30
0.0
 40
63.0
  1
3  Donja ivica +1,50 m, gornja +4,74 m — 2,84 m iznad kote ograde h=1,90 m.
  7
20
 11
700.0
 21
1062.6000000000004
 31
0.0
100
AcDbText
  0
TEXT
  5
137
330
17
100
AcDbEntity
  8
Tekst
 62
7
100
AcDbText
 10
700.0
 20
971.2500000000003
 30
0.0
 40
63.0
  1
4  CUSTOM IZRADA prema qp ≥ 1,20 kN/m²: sail 10,55 m²/nosaču, ULS uzgon 18,1 kN,
  7
20
 11
700.0
 21
971.2500000000003
 31
0.0
100
AcDbText
  0
TEXT
  5
138
330
17
100
AcDbEntity
  8
Tekst
 62
7
100
AcDbText
 10
700.0
 20
879.9000000000003
 30
0.0
 40
63.0
  1
    moment prevrtanja 62,8 kNm (v. S-02).
  7
20
 11
700.0
 21
879.9000000000003
 31
0.0
100
AcDbText
  0
ENDSEC
  0
SECTION
  2
OBJECTS
  0
DICTIONARY
  5
A
330
0
100
AcDbDictionary
281
1
  3
ACAD_COLOR
350
B
  3
ACAD_GROUP
350
C
  3
ACAD_LAYOUT
350
D
  3
ACAD_MATERIAL
350
E
  3
ACAD_MLEADERSTYLE
350
F
  3
ACAD_MLINESTYLE
350
10
  3
ACAD_PLOTSETTINGS
350
11
  3
ACAD_PLOTSTYLENAME
350
12
  3
ACAD_SCALELIST
350
14
  3
ACAD_TABLESTYLE
350
15
  3
ACAD_VISUALSTYLE
350
16
  3
EZDXF_META
350
2D
  0
DICTIONARY
  5
B
330
A
100
AcDbDictionary
281
1
  0
DICTIONARY
  5
C
330
A
100
AcDbDictionary
281
1
  0
DICTIONARY
  5
D
330
A
100
AcDbDictionary
281
1
  3
Model
350
1A
  3
Layout1
350
1E
  0
DICTIONARY
  5
E
330
A
100
AcDbDictionary
281
1
  3
ByBlock
350
1F
  3
ByLayer
350
20
  3
Global
350
21
  0
DICTIONARY
  5
F
330
A
100
AcDbDictionary
281
1
  3
Standard
350
2C
  0
DICTIONARY
  5
10
330
A
100
AcDbDictionary
281
1
  3
Standard
350
22
  0
DICTIONARY
  5
11
330
A
100
AcDbDictionary
281
1
  0
ACDBDICTIONARYWDFLT
  5
12
330
A
100
AcDbDictionary
281
1
  3
Normal
350
13
100
AcDbDictionaryWithDefault
340
13
  0
ACDBPLACEHOLDER
  5
13
330
12
  0
DICTIONARY
  5
14
330
A
100
AcDbDictionary
281
1
  0
DICTIONARY
  5
15
330
A
100
AcDbDictionary
281
1
  0
DICTIONARY
  5
16
330
A
100
AcDbDictionary
281
1
  3
2dWireframe
350
5A
  3
Basic
350
5B
  3
Brighten
350
5C
  3
ColorChange
350
5D
  3
Conceptual
350
5E
  3
Dim
350
5F
  3
EdgeColorOff
350
60
  3
Facepattern
350
61
  3
Flat
350
62
  3
FlatWithEdges
350
63
  3
Gouraud
350
64
  3
GouraudWithEdges
350
65
  3
Hidden
350
66
  3
JitterOff
350
67
  3
Linepattern
350
68
  3
Modeling
350
69
  3
OverhangOff
350
6A
  3
Realistic
350
6B
  3
Shaded
350
6C
  3
Shaded with edges
350
6D
  3
Shades of Gray
350
6E
  3
Sketchy
350
6F
  3
Thicken
350
70
  3
Wireframe
350
71
  3
X-Ray
350
72
  0
LAYOUT
  5
1A
330
D
100
AcDbPlotSettings
  1

  4
A3
  6

 40
7.5
 41
20.0
 42
7.5
 43
20.0
 44
420.0
 45
297.0
 46
0.0
 47
0.0
 48
0.0
 49
0.0
140
0.0
141
0.0
142
1.0
143
1.0
 70
1024
 72
1
 73
0
 74
5
  7

 75
16
 76
0
 77
2
 78
300
147
1.0
148
0.0
149
0.0
100
AcDbLayout
  1
Model
 70
1
 71
0
 10
0.0
 20
0.0
 11
420.0
 21
297.0
 12
0.0
 22
0.0
 32
0.0
 14
1e+20
 24
1e+20
 34
1e+20
 15
-1e+20
 25
-1e+20
 35
-1e+20
146
0.0
 13
0.0
 23
0.0
 33
0.0
 16
1.0
 26
0.0
 36
0.0
 17
0.0
 27
1.0
 37
0.0
 76
1
330
17
  0
LAYOUT
  5
1E
330
D
100
AcDbPlotSettings
  1

  4
A3
  6

 40
7.5
 41
20.0
 42
7.5
 43
20.0
 44
420.0
 45
297.0
 46
0.0
 47
0.0
 48
0.0
 49
0.0
140
0.0
141
0.0
142
1.0
143
1.0
 70
0
 72
1
 73
0
 74
5
  7

 75
16
 76
0
 77
2
 78
300
147
1.0
148
0.0
149
0.0
100
AcDbLayout
  1
Layout1
 70
1
 71
1
 10
0.0
 20
0.0
 11
420.0
 21
297.0
 12
0.0
 22
0.0
 32
0.0
 14
1e+20
 24
1e+20
 34
1e+20
 15
-1e+20
 25
-1e+20
 35
-1e+20
146
0.0
 13
0.0
 23
0.0
 33
0.0
 16
1.0
 26
0.0
 36
0.0
 17
0.0
 27
1.0
 37
0.0
 76
1
330
1B
  0
MATERIAL
  5
1F
102
{ACAD_REACTORS
330
E
102
}
330
E
100
AcDbMaterial
  1
ByBlock
  2

 70
0
 40
1.0
 71
1
 41
1.0
 91
-1023410177
 42
1.0
 72
1
  3

 73
1
 74
1
 75
1
 44
0.5
 73
0
 45
1.0
 46
1.0
 77
1
  4

 78
1
 79
1
170
1
 48
1.0
171
1
  6

172
1
173
1
174
1
140
1.0
141
1.0
175
1
  7

176
1
177
1
178
1
143
1.0
179
1
  8

270
1
271
1
272
1
145
1.0
146
1.0
273
1
  9

274
1
275
1
276
1
 42
1.0
 72
1
  3

 73
1
 74
1
 75
1
 94
63
  0
MATERIAL
  5
20
102
{ACAD_REACTORS
330
E
102
}
330
E
100
AcDbMaterial
  1
ByLayer
  2

 70
0
 40
1.0
 71
1
 41
1.0
 91
-1023410177
 42
1.0
 72
1
  3

 73
1
 74
1
 75
1
 44
0.5
 73
0
 45
1.0
 46
1.0
 77
1
  4

 78
1
 79
1
170
1
 48
1.0
171
1
  6

172
1
173
1
174
1
140
1.0
141
1.0
175
1
  7

176
1
177
1
178
1
143
1.0
179
1
  8

270
1
271
1
272
1
145
1.0
146
1.0
273
1
  9

274
1
275
1
276
1
 42
1.0
 72
1
  3

 73
1
 74
1
 75
1
 94
63
  0
MATERIAL
  5
21
102
{ACAD_REACTORS
330
E
102
}
330
E
100
AcDbMaterial
  1
Global
  2

 70
0
 40
1.0
 71
1
 41
1.0
 91
-1023410177
 42
1.0
 72
1
  3

 73
1
 74
1
 75
1
 44
0.5
 73
0
 45
1.0
 46
1.0
 77
1
  4

 78
1
 79
1
170
1
 48
1.0
171
1
  6

172
1
173
1
174
1
140
1.0
141
1.0
175
1
  7

176
1
177
1
178
1
143
1.0
179
1
  8

270
1
271
1
272
1
145
1.0
146
1.0
273
1
  9

274
1
275
1
276
1
 42
1.0
 72
1
  3

 73
1
 74
1
 75
1
 94
63
  0
MLINESTYLE
  5
22
102
{ACAD_REACTORS
330
10
102
}
330
10
100
AcDbMlineStyle
  2
Standard
 70
0
  3

 62
256
 51
90.0
 52
90.0
 71
2
 49
0.5
 62
256
  6
BYLAYER
 49
-0.5
 62
256
  6
BYLAYER
  0
MLEADERSTYLE
  5
2C
102
{ACAD_REACTORS
330
F
102
}
330
F
100
AcDbMLeaderStyle
179
2
170
2
171
1
172
0
 90
2
 40
0.0
 41
0.0
173
1
 91
-1056964608
 92
-2
290
1
 42
2.0
291
1
 43
8.0
  3
Standard
 44
4.0
300

342
29
174
1
175
1
176
0
178
1
 93
-1056964608
 45
4.0
292
0
297
0
 46
4.0
 94
-1056964608
 47
1.0
 49
1.0
140
1.0
294
1
141
0.0
177
0
142
1.0
295
0
296
0
143
3.75
271
0
272
9
273
9
  0
DICTIONARY
  5
2D
330
A
100
AcDbDictionary
280
1
281
1
  3
CREATED_BY_EZDXF
350
2E
  3
WRITTEN_BY_EZDXF
350
13B
  0
DICTIONARYVAR
  5
2E
330
2D
100
DictionaryVariables
280
0
  1
1.4.4 @ 2026-08-11T15:06:27.000234+00:00
  0
VISUALSTYLE
  5
5A
102
{ACAD_REACTORS
330
16
102
}
330
16
100
AcDbVisualStyle
  2
2dWireframe
 70
4
 90
0
 40
0.6
 62
7
290
0
291
0
  0
VISUALSTYLE
  5
5B
102
{ACAD_REACTORS
330
16
102
}
330
16
100
AcDbVisualStyle
  2
Basic
 70
7
 90
1
 40
0.6
 62
7
290
0
291
1
  0
VISUALSTYLE
  5
5C
102
{ACAD_REACTORS
330
16
102
}
330
16
100
AcDbVisualStyle
  2
Brighten
 70
12
 90
2
 40
0.6
 62
7
290
0
291
1
  0
VISUALSTYLE
  5
5D
102
{ACAD_REACTORS
330
16
102
}
330
16
100
AcDbVisualStyle
  2
ColorChange
 70
16
 90
2
 40
0.6
 62
8
290
0
291
1
  0
VISUALSTYLE
  5
5E
102
{ACAD_REACTORS
330
16
102
}
330
16
100
AcDbVisualStyle
  2
Conceptual
 70
9
 90
3
 40
0.6
 62
7
290
0
291
0
  0
VISUALSTYLE
  5
5F
102
{ACAD_REACTORS
330
16
102
}
330
16
100
AcDbVisualStyle
  2
Dim
 70
11
 90
2
 40
0.6
 62
7
290
0
291
1
  0
VISUALSTYLE
  5
60
102
{ACAD_REACTORS
330
16
102
}
330
16
100
AcDbVisualStyle
  2
EdgeColorOff
 70
22
 90
2
 40
0.6
 62
7
290
0
291
1
  0
VISUALSTYLE
  5
61
102
{ACAD_REACTORS
330
16
102
}
330
16
100
AcDbVisualStyle
  2
Facepattern
 70
15
 90
2
 40
0.6
 62
7
290
0
291
1
  0
VISUALSTYLE
  5
62
102
{ACAD_REACTORS
330
16
102
}
330
16
100
AcDbVisualStyle
  2
Flat
 70
0
 90
2
 40
0.6
 62
7
290
0
291
1
  0
VISUALSTYLE
  5
63
102
{ACAD_REACTORS
330
16
102
}
330
16
100
AcDbVisualStyle
  2
FlatWithEdges
 70
1
 90
2
 40
0.6
 62
7
290
0
291
1
  0
VISUALSTYLE
  5
64
102
{ACAD_REACTORS
330
16
102
}
330
16
100
AcDbVisualStyle
  2
Gouraud
 70
2
 90
2
 40
0.6
 62
7
290
0
291
1
  0
VISUALSTYLE
  5
65
102
{ACAD_REACTORS
330
16
102
}
330
16
100
AcDbVisualStyle
  2
GouraudWithEdges
 70
3
 90
2
 40
0.6
 62
7
290
0
291
1
  0
VISUALSTYLE
  5
66
102
{ACAD_REACTORS
330
16
102
}
330
16
100
AcDbVisualStyle
  2
Hidden
 70
6
 90
1
 40
0.6
 62
7
290
0
291
0
  0
VISUALSTYLE
  5
67
102
{ACAD_REACTORS
330
16
102
}
330
16
100
AcDbVisualStyle
  2
JitterOff
 70
20
 90
2
 40
0.6
 62
7
290
0
291
1
  0
VISUALSTYLE
  5
68
102
{ACAD_REACTORS
330
16
102
}
330
16
100
AcDbVisualStyle
  2
Linepattern
 70
14
 90
2
 40
0.6
 62
7
290
0
291
1
  0
VISUALSTYLE
  5
69
102
{ACAD_REACTORS
330
16
102
}
330
16
100
AcDbVisualStyle
  2
Modeling
 70
10
 90
2
 40
0.6
 62
7
290
0
291
0
  0
VISUALSTYLE
  5
6A
102
{ACAD_REACTORS
330
16
102
}
330
16
100
AcDbVisualStyle
  2
OverhangOff
 70
21
 90
2
 40
0.6
 62
7
290
0
291
1
  0
VISUALSTYLE
  5
6B
102
{ACAD_REACTORS
330
16
102
}
330
16
100
AcDbVisualStyle
  2
Realistic
 70
8
 90
2
 40
0.6
 62
7
290
0
291
0
  0
VISUALSTYLE
  5
6C
102
{ACAD_REACTORS
330
16
102
}
330
16
100
AcDbVisualStyle
  2
Shaded
 70
27
 90
2
 40
0.6
 62
7
290
0
291
0
  0
VISUALSTYLE
  5
6D
102
{ACAD_REACTORS
330
16
102
}
330
16
100
AcDbVisualStyle
  2
Shaded with edges
 70
26
 90
2
 40
0.6
 62
7
290
0
291
0
  0
VISUALSTYLE
  5
6E
102
{ACAD_REACTORS
330
16
102
}
330
16
100
AcDbVisualStyle
  2
Shades of Gray
 70
23
 90
2
 40
0.6
 62
7
290
0
291
0
  0
VISUALSTYLE
  5
6F
102
{ACAD_REACTORS
330
16
102
}
330
16
100
AcDbVisualStyle
  2
Sketchy
 70
24
 90
1
 40
0.6
 62
7
290
0
291
0
  0
VISUALSTYLE
  5
70
102
{ACAD_REACTORS
330
16
102
}
330
16
100
AcDbVisualStyle
  2
Thicken
 70
13
 90
2
 40
0.6
 62
7
290
0
291
1
  0
VISUALSTYLE
  5
71
102
{ACAD_REACTORS
330
16
102
}
330
16
100
AcDbVisualStyle
  2
Wireframe
 70
5
 90
0
 40
0.6
 62
7
290
0
291
0
  0
VISUALSTYLE
  5
72
102
{ACAD_REACTORS
330
16
102
}
330
16
100
AcDbVisualStyle
  2
X-Ray
 70
25
 90
2
 40
0.5
 62
7
290
0
291
0
  0
DICTIONARYVAR
  5
13B
330
2D
100
DictionaryVariables
280
0
  1
1.4.4 @ 2026-08-11T15:06:27.032169+00:00
  0
ENDSEC
  0
EOF
