  0
SECTION
  2
HEADER
  9
$ACADVER
  1
AC1024
  9
$ACADMAINTVER
 70
6
  9
$DWGCODEPAGE
  3
ANSI_1252
  9
$LASTSAVEDBY
  1
ezdxf
  9
$INSBASE
 10
0.0
 20
0.0
 30
0.0
  9
$EXTMIN
 10
1e+20
 20
1e+20
 30
1e+20
  9
$EXTMAX
 10
-1e+20
 20
-1e+20
 30
-1e+20
  9
$LIMMIN
 10
0.0
 20
0.0
  9
$LIMMAX
 10
420.0
 20
297.0
  9
$ORTHOMODE
 70
0
  9
$REGENMODE
 70
1
  9
$FILLMODE
 70
1
  9
$QTEXTMODE
 70
0
  9
$MIRRTEXT
 70
1
  9
$LTSCALE
 40
1.0
  9
$ATTMODE
 70
1
  9
$TEXTSIZE
 40
2.5
  9
$TRACEWID
 40
1.0
  9
$TEXTSTYLE
  7
OpenSans
  9
$CLAYER
  8
0
  9
$CELTYPE
  6
ByLayer
  9
$CECOLOR
 62
256
  9
$CELTSCALE
 40
1.0
  9
$DISPSILH
 70
0
  9
$DIMSCALE
 40
1.0
  9
$DIMASZ
 40
0.175
  9
$DIMEXO
 40
0.125
  9
$DIMDLI
 40
3.75
  9
$DIMRND
 40
0.0
  9
$DIMDLE
 40
0.0
  9
$DIMEXE
 40
0.375
  9
$DIMTP
 40
0.0
  9
$DIMTM
 40
0.0
  9
$DIMTXT
 40
0.25
  9
$DIMCEN
 40
2.5
  9
$DIMTSZ
 40
0.0
  9
$DIMTOL
 70
0
  9
$DIMLIM
 70
0
  9
$DIMTIH
 70
0
  9
$DIMTOH
 70
0
  9
$DIMSE1
 70
0
  9
$DIMSE2
 70
0
  9
$DIMTAD
 70
1
  9
$DIMZIN
 70
12
  9
$DIMBLK
  1
ARCHTICK
  9
$DIMASO
 70
1
  9
$DIMSHO
 70
1
  9
$DIMPOST
  1

  9
$DIMAPOST
  1

  9
$DIMALT
 70
0
  9
$DIMALTD
 70
3
  9
$DIMALTF
 40
0.03937007874
  9
$DIMLFAC
 40
100.0
  9
$DIMTOFL
 70
1
  9
$DIMTVP
 40
0.0
  9
$DIMTIX
 70
0
  9
$DIMSOXD
 70
0
  9
$DIMSAH
 70
0
  9
$DIMBLK1
  1

  9
$DIMBLK2
  1

  9
$DIMSTYLE
  2
EZDXF
  9
$DIMCLRD
 70
0
  9
$DIMCLRE
 70
0
  9
$DIMCLRT
 70
0
  9
$DIMTFAC
 40
0.5
  9
$DIMGAP
 40
0.1
  9
$DIMJUST
 70
0
  9
$DIMSD1
 70
0
  9
$DIMSD2
 70
0
  9
$DIMTOLJ
 70
0
  9
$DIMTZIN
 70
8
  9
$DIMALTZ
 70
0
  9
$DIMALTTZ
 70
0
  9
$DIMUPT
 70
1
  9
$DIMDEC
 70
2
  9
$DIMTDEC
 70
2
  9
$DIMALTU
 70
2
  9
$DIMALTTD
 70
3
  9
$DIMTXSTY
  7
OpenSansCondensed-Light
  9
$DIMAUNIT
 70
0
  9
$DIMADEC
 70
2
  9
$DIMALTRND
 40
0.0
  9
$DIMAZIN
 70
3
  9
$DIMDSEP
 70
46
  9
$DIMATFIT
 70
3
  9
$DIMFRAC
 70
0
  9
$DIMLDRBLK
  1

  9
$DIMLUNIT
 70
2
  9
$DIMLWD
 70
-2
  9
$DIMLWE
 70
-2
  9
$DIMTMOVE
 70
2
  9
$DIMFXL
 40
1.0
  9
$DIMFXLON
 70
0
  9
$DIMJOGANG
 40
0.785398163397
  9
$DIMTFILL
 70
0
  9
$DIMTFILLCLR
 70
0
  9
$DIMARCSYM
 70
0
  9
$DIMLTYPE
  6

  9
$DIMLTEX1
  6

  9
$DIMLTEX2
  6

  9
$DIMTXTDIRECTION
 70
0
  9
$LUNITS
 70
2
  9
$LUPREC
 70
4
  9
$SKETCHINC
 40
1.0
  9
$FILLETRAD
 40
10.0
  9
$AUNITS
 70
0
  9
$AUPREC
 70
2
  9
$MENU
  1
.
  9
$ELEVATION
 40
0.0
  9
$PELEVATION
 40
0.0
  9
$THICKNESS
 40
0.0
  9
$LIMCHECK
 70
0
  9
$CHAMFERA
 40
0.0
  9
$CHAMFERB
 40
0.0
  9
$CHAMFERC
 40
0.0
  9
$CHAMFERD
 40
0.0
  9
$SKPOLY
 70
0
  9
$TDCREATE
 40
2461261.180324074
  9
$TDUCREATE
 40
2458532.153996898
  9
$TDUPDATE
 40
2461261.180324074
  9
$TDUUPDATE
 40
2458532.1544311
  9
$TDINDWG
 40
0.0
  9
$TDUSRTIMER
 40
0.0
  9
$USRTIMER
 70
1
  9
$ANGBASE
 50
0.0
  9
$ANGDIR
 70
0
  9
$PDMODE
 70
0
  9
$PDSIZE
 40
0.0
  9
$PLINEWID
 40
0.0
  9
$SPLFRAME
 70
0
  9
$SPLINETYPE
 70
6
  9
$SPLINESEGS
 70
8
  9
$HANDSEED
  5
137
  9
$SURFTAB1
 70
6
  9
$SURFTAB2
 70
6
  9
$SURFTYPE
 70
6
  9
$SURFU
 70
6
  9
$SURFV
 70
6
  9
$UCSBASE
  2

  9
$UCSNAME
  2

  9
$UCSORG
 10
0.0
 20
0.0
 30
0.0
  9
$UCSXDIR
 10
1.0
 20
0.0
 30
0.0
  9
$UCSYDIR
 10
0.0
 20
1.0
 30
0.0
  9
$UCSORTHOREF
  2

  9
$UCSORTHOVIEW
 70
0
  9
$UCSORGTOP
 10
0.0
 20
0.0
 30
0.0
  9
$UCSORGBOTTOM
 10
0.0
 20
0.0
 30
0.0
  9
$UCSORGLEFT
 10
0.0
 20
0.0
 30
0.0
  9
$UCSORGRIGHT
 10
0.0
 20
0.0
 30
0.0
  9
$UCSORGFRONT
 10
0.0
 20
0.0
 30
0.0
  9
$UCSORGBACK
 10
0.0
 20
0.0
 30
0.0
  9
$PUCSBASE
  2

  9
$PUCSNAME
  2

  9
$PUCSORG
 10
0.0
 20
0.0
 30
0.0
  9
$PUCSXDIR
 10
1.0
 20
0.0
 30
0.0
  9
$PUCSYDIR
 10
0.0
 20
1.0
 30
0.0
  9
$PUCSORTHOREF
  2

  9
$PUCSORTHOVIEW
 70
0
  9
$PUCSORGTOP
 10
0.0
 20
0.0
 30
0.0
  9
$PUCSORGBOTTOM
 10
0.0
 20
0.0
 30
0.0
  9
$PUCSORGLEFT
 10
0.0
 20
0.0
 30
0.0
  9
$PUCSORGRIGHT
 10
0.0
 20
0.0
 30
0.0
  9
$PUCSORGFRONT
 10
0.0
 20
0.0
 30
0.0
  9
$PUCSORGBACK
 10
0.0
 20
0.0
 30
0.0
  9
$USERI1
 70
0
  9
$USERI2
 70
0
  9
$USERI3
 70
0
  9
$USERI4
 70
0
  9
$USERI5
 70
0
  9
$USERR1
 40
0.0
  9
$USERR2
 40
0.0
  9
$USERR3
 40
0.0
  9
$USERR4
 40
0.0
  9
$USERR5
 40
0.0
  9
$WORLDVIEW
 70
1
  9
$SHADEDGE
 70
3
  9
$SHADEDIF
 70
70
  9
$TILEMODE
 70
1
  9
$MAXACTVP
 70
64
  9
$PINSBASE
 10
0.0
 20
0.0
 30
0.0
  9
$PLIMCHECK
 70
0
  9
$PEXTMIN
 10
1e+20
 20
1e+20
 30
1e+20
  9
$PEXTMAX
 10
-1e+20
 20
-1e+20
 30
-1e+20
  9
$PLIMMIN
 10
0.0
 20
0.0
  9
$PLIMMAX
 10
420.0
 20
297.0
  9
$UNITMODE
 70
0
  9
$VISRETAIN
 70
1
  9
$PLINEGEN
 70
0
  9
$PSLTSCALE
 70
1
  9
$TREEDEPTH
 70
3020
  9
$CMLSTYLE
  2
Standard
  9
$CMLJUST
 70
0
  9
$CMLSCALE
 40
20.0
  9
$PROXYGRAPHICS
 70
1
  9
$MEASUREMENT
 70
1
  9
$CELWEIGHT
370
-1
  9
$ENDCAPS
280
0
  9
$JOINSTYLE
280
0
  9
$LWDISPLAY
290
0
  9
$INSUNITS
 70
4
  9
$HYPERLINKBASE
  1

  9
$STYLESHEET
  1

  9
$XEDIT
290
1
  9
$CEPSNTYPE
380
0
  9
$PSTYLEMODE
290
1
  9
$FINGERPRINTGUID
  2
{8D3FBB75-DA0C-4C11-AFC1-D578A956491B}
  9
$VERSIONGUID
  2
{CA53B327-FB81-40FD-9040-DBFE096A14DD}
  9
$EXTNAMES
290
1
  9
$PSVPSCALE
 40
0.0
  9
$OLESTARTUP
290
0
  9
$SORTENTS
280
127
  9
$INDEXCTL
280
0
  9
$HIDETEXT
280
1
  9
$XCLIPFRAME
280
1
  9
$HALOGAP
280
0
  9
$OBSCOLOR
 70
257
  9
$OBSLTYPE
280
0
  9
$INTERSECTIONDISPLAY
280
0
  9
$INTERSECTIONCOLOR
 70
257
  9
$DIMASSOC
280
2
  9
$PROJECTNAME
  1

  9
$CAMERADISPLAY
290
0
  9
$LENSLENGTH
 40
50.0
  9
$CAMERAHEIGHT
 40
0.0
  9
$STEPSPERSEC
 40
24.0
  9
$STEPSIZE
 40
100.0
  9
$3DDWFPREC
 40
2.0
  9
$PSOLWIDTH
 40
0.005
  9
$PSOLHEIGHT
 40
0.08
  9
$LOFTANG1
 40
1.570796326795
  9
$LOFTANG2
 40
1.570796326795
  9
$LOFTMAG1
 40
0.0
  9
$LOFTMAG2
 40
0.0
  9
$LOFTPARAM
 70
7
  9
$LOFTNORMALS
280
1
  9
$LATITUDE
 40
37.795
  9
$LONGITUDE
 40
-122.394
  9
$NORTHDIRECTION
 40
0.0
  9
$TIMEZONE
 70
-8000
  9
$LIGHTGLYPHDISPLAY
280
1
  9
$TILEMODELIGHTSYNCH
280
1
  9
$CMATERIAL
347
20
  9
$SOLIDHIST
280
0
  9
$SHOWHIST
280
1
  9
$DWFFRAME
280
2
  9
$DGNFRAME
280
2
  9
$REALWORLDSCALE
290
1
  9
$INTERFERECOLOR
 62
256
  9
$CSHADOW
280
0
  9
$SHADOWPLANELOCATION
 40
0.0
  0
ENDSEC
  0
SECTION
  2
CLASSES
  0
CLASS
  1
ACDBDICTIONARYWDFLT
  2
AcDbDictionaryWithDefault
  3
ObjectDBX Classes
 90
0
 91
0
280
0
281
0
  0
CLASS
  1
SUN
  2
AcDbSun
  3
SCENEOE
 90
1153
 91
0
280
0
281
0
  0
CLASS
  1
VISUALSTYLE
  2
AcDbVisualStyle
  3
ObjectDBX Classes
 90
4095
 91
0
280
0
281
0
  0
CLASS
  1
MATERIAL
  2
AcDbMaterial
  3
ObjectDBX Classes
 90
1153
 91
0
280
0
281
0
  0
CLASS
  1
SCALE
  2
AcDbScale
  3
ObjectDBX Classes
 90
1153
 91
0
280
0
281
0
  0
CLASS
  1
TABLESTYLE
  2
AcDbTableStyle
  3
ObjectDBX Classes
 90
4095
 91
0
280
0
281
0
  0
CLASS
  1
MLEADERSTYLE
  2
AcDbMLeaderStyle
  3
ACDB_MLEADERSTYLE_CLASS
 90
4095
 91
0
280
0
281
0
  0
CLASS
  1
DICTIONARYVAR
  2
AcDbDictionaryVar
  3
ObjectDBX Classes
 90
0
 91
0
280
0
281
0
  0
CLASS
  1
CELLSTYLEMAP
  2
AcDbCellStyleMap
  3
ObjectDBX Classes
 90
1152
 91
0
280
0
281
0
  0
CLASS
  1
MENTALRAYRENDERSETTINGS
  2
AcDbMentalRayRenderSettings
  3
SCENEOE
 90
1024
 91
0
280
0
281
0
  0
CLASS
  1
ACDBDETAILVIEWSTYLE
  2
AcDbDetailViewStyle
  3
ObjectDBX Classes
 90
1025
 91
0
280
0
281
0
  0
CLASS
  1
ACDBSECTIONVIEWSTYLE
  2
AcDbSectionViewStyle
  3
ObjectDBX Classes
 90
1025
 91
0
280
0
281
0
  0
CLASS
  1
RASTERVARIABLES
  2
AcDbRasterVariables
  3
ISM
 90
0
 91
0
280
0
281
0
  0
CLASS
  1
ACDBPLACEHOLDER
  2
AcDbPlaceHolder
  3
ObjectDBX Classes
 90
0
 91
0
280
0
281
0
  0
CLASS
  1
LAYOUT
  2
AcDbLayout
  3
ObjectDBX Classes
 90
0
 91
0
280
0
281
0
  0
ENDSEC
  0
SECTION
  2
TABLES
  0
TABLE
  2
VPORT
  5
8
330
0
100
AcDbSymbolTable
 70
1
  0
VPORT
  5
23
330
8
100
AcDbSymbolTableRecord
100
AcDbViewportTableRecord
  2
*Active
 70
0
 10
0.0
 20
0.0
 11
1.0
 21
1.0
 12
0.0
 22
0.0
 13
0.0
 23
0.0
 14
0.5
 24
0.5
 15
0.5
 25
0.5
 16
0.0
 26
0.0
 36
1.0
 17
0.0
 27
0.0
 37
0.0
 40
1000.0
 41
1.34
 42
50.0
 43
0.0
 44
0.0
 50
0.0
 51
0.0
 71
0
 72
1000
 73
1
 74
3
 75
0
 76
0
 77
0
 78
0
281
0
 65
0
146
0.0
  0
ENDTAB
  0
TABLE
  2
LTYPE
  5
2
330
0
100
AcDbSymbolTable
 70
21
  0
LTYPE
  5
24
330
2
100
AcDbSymbolTableRecord
100
AcDbLinetypeTableRecord
  2
ByBlock
 70
0
  3

 72
65
 73
0
 40
0.0
  0
LTYPE
  5
25
330
2
100
AcDbSymbolTableRecord
100
AcDbLinetypeTableRecord
  2
ByLayer
 70
0
  3

 72
65
 73
0
 40
0.0
  0
LTYPE
  5
26
330
2
100
AcDbSymbolTableRecord
100
AcDbLinetypeTableRecord
  2
Continuous
 70
0
  3

 72
65
 73
0
 40
0.0
  0
LTYPE
  5
2F
330
2
100
AcDbSymbolTableRecord
100
AcDbLinetypeTableRecord
  2
CENTER
 70
0
  3
Center ____ _ ____ _ ____ _ ____ _ ____ _ ____
 72
65
 73
4
 40
5.08
 49
3.175
 74
0
 49
-0.635
 74
0
 49
0.635
 74
0
 49
-0.635
 74
0
  0
LTYPE
  5
30
330
2
100
AcDbSymbolTableRecord
100
AcDbLinetypeTableRecord
  2
CENTERX2
 70
0
  3
Center (2x) ________  __  ________  __  ________
 72
65
 73
4
 40
8.89
 49
6.35
 74
0
 49
-0.635
 74
0
 49
1.27
 74
0
 49
-0.635
 74
0
  0
LTYPE
  5
31
330
2
100
AcDbSymbolTableRecord
100
AcDbLinetypeTableRecord
  2
CENTER2
 70
0
  3
Center (.5x) ____ _ ____ _ ____ _ ____ _ ____
 72
65
 73
4
 40
2.54
 49
1.587
 74
0
 49
-0.318
 74
0
 49
0.318
 74
0
 49
-0.318
 74
0
  0
LTYPE
  5
32
330
2
100
AcDbSymbolTableRecord
100
AcDbLinetypeTableRecord
  2
DASHED
 70
0
  3
Dashed __ __ __ __ __ __ __ __ __ __ __ __ __ _
 72
65
 73
2
 40
1.524
 49
1.27
 74
0
 49
-0.254
 74
0
  0
LTYPE
  5
33
330
2
100
AcDbSymbolTableRecord
100
AcDbLinetypeTableRecord
  2
DASHEDX2
 70
0
  3
Dashed (2x) ____  ____  ____  ____  ____  ____
 72
65
 73
2
 40
3.048
 49
2.54
 74
0
 49
-0.508
 74
0
  0
LTYPE
  5
34
330
2
100
AcDbSymbolTableRecord
100
AcDbLinetypeTableRecord
  2
DASHED2
 70
0
  3
Dashed (.5x) _ _ _ _ _ _ _ _ _ _ _ _ _ _
 72
65
 73
2
 40
0.762
 49
0.635
 74
0
 49
-0.127
 74
0
  0
LTYPE
  5
35
330
2
100
AcDbSymbolTableRecord
100
AcDbLinetypeTableRecord
  2
PHANTOM
 70
0
  3
Phantom ______  __  __  ______  __  __  ______
 72
65
 73
6
 40
6.35
 49
3.175
 74
0
 49
-0.635
 74
0
 49
0.635
 74
0
 49
-0.635
 74
0
 49
0.635
 74
0
 49
-0.635
 74
0
  0
LTYPE
  5
36
330
2
100
AcDbSymbolTableRecord
100
AcDbLinetypeTableRecord
  2
PHANTOMX2
 70
0
  3
Phantom (2x)____________    ____    ____    ____________
 72
65
 73
6
 40
10.795
 49
6.35
 74
0
 49
-0.635
 74
0
 49
1.27
 74
0
 49
-0.635
 74
0
 49
1.27
 74
0
 49
-0.635
 74
0
  0
LTYPE
  5
37
330
2
100
AcDbSymbolTableRecord
100
AcDbLinetypeTableRecord
  2
PHANTOM2
 70
0
  3
Phantom (.5x) ___ _ _ ___ _ _ ___ _ _ ___ _ _ ___
 72
65
 73
6
 40
3.175
 49
1.587
 74
0
 49
-0.318
 74
0
 49
0.318
 74
0
 49
-0.318
 74
0
 49
0.318
 74
0
 49
-0.318
 74
0
  0
LTYPE
  5
38
330
2
100
AcDbSymbolTableRecord
100
AcDbLinetypeTableRecord
  2
DASHDOT
 70
0
  3
Dash dot __ . __ . __ . __ . __ . __ . __ . __
 72
65
 73
4
 40
3.556
 49
2.54
 74
0
 49
-0.508
 74
0
 49
0.0
 74
0
 49
-0.508
 74
0
  0
LTYPE
  5
39
330
2
100
AcDbSymbolTableRecord
100
AcDbLinetypeTableRecord
  2
DASHDOTX2
 70
0
  3
Dash dot (2x) ____  .  ____  .  ____  .  ____
 72
65
 73
4
 40
6.096
 49
5.08
 74
0
 49
-0.508
 74
0
 49
0.0
 74
0
 49
-0.508
 74
0
  0
LTYPE
  5
3A
330
2
100
AcDbSymbolTableRecord
100
AcDbLinetypeTableRecord
  2
DASHDOT2
 70
0
  3
Dash dot (.5x) _ . _ . _ . _ . _ . _ . _ . _
 72
65
 73
4
 40
1.778
 49
1.27
 74
0
 49
-0.254
 74
0
 49
0.0
 74
0
 49
-0.254
 74
0
  0
LTYPE
  5
3B
330
2
100
AcDbSymbolTableRecord
100
AcDbLinetypeTableRecord
  2
DOT
 70
0
  3
Dot .  .  .  .  .  .  .  .  .  .  .  .  .  .  .  .
 72
65
 73
2
 40
0.508
 49
0.0
 74
0
 49
-0.508
 74
0
  0
LTYPE
  5
3C
330
2
100
AcDbSymbolTableRecord
100
AcDbLinetypeTableRecord
  2
DOTX2
 70
0
  3
Dot (2x) .    .    .    .    .    .    .    . 
 72
65
 73
2
 40
1.016
 49
0.0
 74
0
 49
-1.016
 74
0
  0
LTYPE
  5
3D
330
2
100
AcDbSymbolTableRecord
100
AcDbLinetypeTableRecord
  2
DOT2
 70
0
  3
Dot (.5) . . . . . . . . . . . . . . . . . . . 
 72
65
 73
2
 40
0.254
 49
0.0
 74
0
 49
-0.254
 74
0
  0
LTYPE
  5
3E
330
2
100
AcDbSymbolTableRecord
100
AcDbLinetypeTableRecord
  2
DIVIDE
 70
0
  3
Divide __ . . __ . . __ . . __ . . __ . . __
 72
65
 73
6
 40
4.064
 49
2.54
 74
0
 49
-0.508
 74
0
 49
0.0
 74
0
 49
-0.508
 74
0
 49
0.0
 74
0
 49
-0.508
 74
0
  0
LTYPE
  5
3F
330
2
100
AcDbSymbolTableRecord
100
AcDbLinetypeTableRecord
  2
DIVIDEX2
 70
0
  3
Divide (2x) ____  . .  ____  . .  ____  . .  ____
 72
65
 73
6
 40
6.604
 49
5.08
 74
0
 49
-0.508
 74
0
 49
0.0
 74
0
 49
-0.508
 74
0
 49
0.0
 74
0
 49
-0.508
 74
0
  0
LTYPE
  5
40
330
2
100
AcDbSymbolTableRecord
100
AcDbLinetypeTableRecord
  2
DIVIDE2
 70
0
  3
Divide(.5x) _ . _ . _ . _ . _ . _ . _ . _
 72
65
 73
6
 40
2.032
 49
1.27
 74
0
 49
-0.254
 74
0
 49
0.0
 74
0
 49
-0.254
 74
0
 49
0.0
 74
0
 49
-0.254
 74
0
  0
ENDTAB
  0
TABLE
  2
LAYER
  5
1
330
0
100
AcDbSymbolTable
 70
25
  0
LAYER
  5
27
330
1
100
AcDbSymbolTableRecord
100
AcDbLayerTableRecord
  2
0
 70
0
 62
7
  6
Continuous
370
-3
390
13
347
21
  0
LAYER
  5
28
330
1
100
AcDbSymbolTableRecord
100
AcDbLayerTableRecord
  2
Defpoints
 70
0
 62
7
  6
Continuous
290
0
370
-3
390
13
347
21
  0
LAYER
  5
8D
330
1
100
AcDbSymbolTableRecord
100
AcDbLayerTableRecord
  2
Okvir
 70
0
 62
3
  6
Continuous
370
-3
390
13
347
21
  0
LAYER
  5
8E
330
1
100
AcDbSymbolTableRecord
100
AcDbLayerTableRecord
  2
Tekst
 70
0
 62
253
  6
Continuous
370
-3
390
13
347
21
  0
LAYER
  5
8F
330
1
100
AcDbSymbolTableRecord
100
AcDbLayerTableRecord
  2
Kote
 70
0
 62
7
  6
Continuous
370
-3
390
13
347
21
  0
LAYER
  5
90
330
1
100
AcDbSymbolTableRecord
100
AcDbLayerTableRecord
  2
Kote blok
 70
0
 62
7
  6
Continuous
370
-3
390
13
347
21
  0
LAYER
  5
91
330
1
100
AcDbSymbolTableRecord
100
AcDbLayerTableRecord
  2
Objekat
 70
0
 62
6
  6
Continuous
370
-3
390
13
347
21
  0
LAYER
  5
92
330
1
100
AcDbSymbolTableRecord
100
AcDbLayerTableRecord
  2
Konstrukcija
 70
0
 62
5
  6
Continuous
370
-3
390
13
347
21
  0
LAYER
  5
93
330
1
100
AcDbSymbolTableRecord
100
AcDbLayerTableRecord
  2
Panel
 70
0
 62
110
  6
Continuous
370
-3
390
13
347
21
  0
LAYER
  5
94
330
1
100
AcDbSymbolTableRecord
100
AcDbLayerTableRecord
  2
Kabal
 70
0
 62
7
  6
Continuous
370
-3
390
13
347
21
  0
LAYER
  5
95
330
1
100
AcDbSymbolTableRecord
100
AcDbLayerTableRecord
  2
Osovina
 70
0
 62
6
  6
CENTER
370
-3
390
13
347
21
  0
LAYER
  5
96
330
1
100
AcDbSymbolTableRecord
100
AcDbLayerTableRecord
  2
Orijentacija
 70
0
 62
1
  6
Continuous
370
-3
390
13
347
21
  0
LAYER
  5
97
330
1
100
AcDbSymbolTableRecord
100
AcDbLayerTableRecord
  2
DEBELA
 70
0
 62
7
  6
Continuous
370
-3
390
13
347
21
  0
LAYER
  5
98
330
1
100
AcDbSymbolTableRecord
100
AcDbLayerTableRecord
  2
pozicije
 70
0
 62
7
  6
Continuous
370
-3
390
13
347
21
  0
LAYER
  5
99
330
1
100
AcDbSymbolTableRecord
100
AcDbLayerTableRecord
  2
Novi1
 70
0
 62
30
  6
Continuous
370
-3
390
13
347
21
  0
LAYER
  5
9A
330
1
100
AcDbSymbolTableRecord
100
AcDbLayerTableRecord
  2
plavi
 70
0
 62
5
  6
Continuous
370
-3
390
13
347
21
  0
LAYER
  5
9B
330
1
100
AcDbSymbolTableRecord
100
AcDbLayerTableRecord
  2
Temelj
 70
0
 62
32
  6
Continuous
370
-3
390
13
347
21
  0
LAYER
  5
9C
330
1
100
AcDbSymbolTableRecord
100
AcDbLayerTableRecord
  2
Uzemljenje
 70
0
 62
2
  6
DASHED
370
-3
390
13
347
21
  0
LAYER
  5
9D
330
1
100
AcDbSymbolTableRecord
100
AcDbLayerTableRecord
  2
Ograda
 70
0
 62
8
  6
Continuous
370
-3
390
13
347
21
  0
LAYER
  5
9E
330
1
100
AcDbSymbolTableRecord
100
AcDbLayerTableRecord
  2
Agregat
 70
0
 62
30
  6
Continuous
370
-3
390
13
347
21
  0
LAYER
  5
9F
330
1
100
AcDbSymbolTableRecord
100
AcDbLayerTableRecord
  2
Ventilacija
 70
0
 62
4
  6
Continuous
370
-3
390
13
347
21
  0
LAYER
  5
A0
330
1
100
AcDbSymbolTableRecord
100
AcDbLayerTableRecord
  2
Sema
 70
0
 62
7
  6
Continuous
370
-3
390
13
347
21
  0
LAYER
  5
A1
330
1
100
AcDbSymbolTableRecord
100
AcDbLayerTableRecord
  2
Legenda
 70
0
 62
7
  6
Continuous
370
-3
390
13
347
21
  0
LAYER
  5
A2
330
1
100
AcDbSymbolTableRecord
100
AcDbLayerTableRecord
  2
Kota_tekst
 70
0
 62
7
  6
Continuous
370
-3
390
13
347
21
  0
LAYER
  5
A3
330
1
100
AcDbSymbolTableRecord
100
AcDbLayerTableRecord
  2
Sakriveno
 70
0
 62
15
  6
Continuous
370
-3
390
13
347
21
  0
ENDTAB
  0
TABLE
  2
STYLE
  5
5
330
0
100
AcDbSymbolTable
 70
29
  0
STYLE
  5
29
330
5
100
AcDbSymbolTableRecord
100
AcDbTextStyleTableRecord
  2
Standard
 70
0
 40
0.0
 41
1.0
 50
0.0
 71
0
 42
2.5
  3
times.ttf
  4

  0
STYLE
  5
41
330
5
100
AcDbSymbolTableRecord
100
AcDbTextStyleTableRecord
  2
OpenSans-Light
 70
0
 40
0.0
 41
1.0
 50
0.0
 71
0
 42
2.5
  3
OpenSans-Light.ttf
  4

  0
STYLE
  5
42
330
5
100
AcDbSymbolTableRecord
100
AcDbTextStyleTableRecord
  2
OpenSans-Light-Italic
 70
0
 40
0.0
 41
1.0
 50
0.0
 71
0
 42
2.5
  3
OpenSans-LightItalic.ttf
  4

  0
STYLE
  5
43
330
5
100
AcDbSymbolTableRecord
100
AcDbTextStyleTableRecord
  2
OpenSans
 70
0
 40
0.0
 41
1.0
 50
0.0
 71
0
 42
2.5
  3
OpenSans-Regular.ttf
  4

  0
STYLE
  5
44
330
5
100
AcDbSymbolTableRecord
100
AcDbTextStyleTableRecord
  2
OpenSans-Italic
 70
0
 40
0.0
 41
1.0
 50
0.0
 71
0
 42
2.5
  3
OpenSans-Italic.ttf
  4

  0
STYLE
  5
45
330
5
100
AcDbSymbolTableRecord
100
AcDbTextStyleTableRecord
  2
OpenSans-SemiBold
 70
0
 40
0.0
 41
1.0
 50
0.0
 71
0
 42
2.5
  3
OpenSans-SemiBold.ttf
  4

  0
STYLE
  5
46
330
5
100
AcDbSymbolTableRecord
100
AcDbTextStyleTableRecord
  2
OpenSans-SemiBoldItalic
 70
0
 40
0.0
 41
1.0
 50
0.0
 71
0
 42
2.5
  3
OpenSans-SemiBoldItalic.ttf
  4

  0
STYLE
  5
47
330
5
100
AcDbSymbolTableRecord
100
AcDbTextStyleTableRecord
  2
OpenSans-Bold
 70
0
 40
0.0
 41
1.0
 50
0.0
 71
0
 42
2.5
  3
OpenSans-Bold.ttf
  4

  0
STYLE
  5
48
330
5
100
AcDbSymbolTableRecord
100
AcDbTextStyleTableRecord
  2
OpenSans-BoldItalic
 70
0
 40
0.0
 41
1.0
 50
0.0
 71
0
 42
2.5
  3
OpenSans-BoldItalic.ttf
  4

  0
STYLE
  5
49
330
5
100
AcDbSymbolTableRecord
100
AcDbTextStyleTableRecord
  2
OpenSans-ExtraBold
 70
0
 40
0.0
 41
1.0
 50
0.0
 71
0
 42
2.5
  3
OpenSans-ExtraBold.ttf
  4

  0
STYLE
  5
4A
330
5
100
AcDbSymbolTableRecord
100
AcDbTextStyleTableRecord
  2
OpenSans-ExtraBoldItalic
 70
0
 40
0.0
 41
1.0
 50
0.0
 71
0
 42
2.5
  3
OpenSans-ExtraBoldItalic.ttf
  4

  0
STYLE
  5
4B
330
5
100
AcDbSymbolTableRecord
100
AcDbTextStyleTableRecord
  2
OpenSansCondensed-Bold
 70
0
 40
0.0
 41
1.0
 50
0.0
 71
0
 42
2.5
  3
OpenSansCondensed-Bold.ttf
  4

  0
STYLE
  5
4C
330
5
100
AcDbSymbolTableRecord
100
AcDbTextStyleTableRecord
  2
OpenSansCondensed-Light
 70
0
 40
0.0
 41
1.0
 50
0.0
 71
0
 42
2.5
  3
OpenSansCondensed-Light.ttf
  4

  0
STYLE
  5
4D
330
5
100
AcDbSymbolTableRecord
100
AcDbTextStyleTableRecord
  2
OpenSansCondensed-Italic
 70
0
 40
0.0
 41
1.0
 50
0.0
 71
0
 42
2.5
  3
OpenSansCondensed-LightItalic.ttf
  4

  0
STYLE
  5
4E
330
5
100
AcDbSymbolTableRecord
100
AcDbTextStyleTableRecord
  2
LiberationSans
 70
0
 40
0.0
 41
1.0
 50
0.0
 71
0
 42
2.5
  3
LiberationSans-Regular.ttf
  4

  0
STYLE
  5
4F
330
5
100
AcDbSymbolTableRecord
100
AcDbTextStyleTableRecord
  2
LiberationSans-Bold
 70
0
 40
0.0
 41
1.0
 50
0.0
 71
0
 42
2.5
  3
LiberationSans-Bold.ttf
  4

  0
STYLE
  5
50
330
5
100
AcDbSymbolTableRecord
100
AcDbTextStyleTableRecord
  2
LiberationSans-BoldItalic
 70
0
 40
0.0
 41
1.0
 50
0.0
 71
0
 42
2.5
  3
LiberationSans-BoldItalic.ttf
  4

  0
STYLE
  5
51
330
5
100
AcDbSymbolTableRecord
100
AcDbTextStyleTableRecord
  2
LiberationSans-Italic
 70
0
 40
0.0
 41
1.0
 50
0.0
 71
0
 42
2.5
  3
LiberationSans-Italic.ttf
  4

  0
STYLE
  5
52
330
5
100
AcDbSymbolTableRecord
100
AcDbTextStyleTableRecord
  2
LiberationSerif
 70
0
 40
0.0
 41
1.0
 50
0.0
 71
0
 42
2.5
  3
LiberationSerif-Regular.ttf
  4

  0
STYLE
  5
53
330
5
100
AcDbSymbolTableRecord
100
AcDbTextStyleTableRecord
  2
LiberationSerif-Bold
 70
0
 40
0.0
 41
1.0
 50
0.0
 71
0
 42
2.5
  3
LiberationSerif-Bold.ttf
  4

  0
STYLE
  5
54
330
5
100
AcDbSymbolTableRecord
100
AcDbTextStyleTableRecord
  2
LiberationSerif-BoldItalic
 70
0
 40
0.0
 41
1.0
 50
0.0
 71
0
 42
2.5
  3
LiberationSerif-BoldItalic.ttf
  4

  0
STYLE
  5
55
330
5
100
AcDbSymbolTableRecord
100
AcDbTextStyleTableRecord
  2
LiberationSerif-Italic
 70
0
 40
0.0
 41
1.0
 50
0.0
 71
0
 42
2.5
  3
LiberationSerif-Italic.ttf
  4

  0
STYLE
  5
56
330
5
100
AcDbSymbolTableRecord
100
AcDbTextStyleTableRecord
  2
LiberationMono
 70
0
 40
0.0
 41
1.0
 50
0.0
 71
0
 42
2.5
  3
LiberationMono-Regular.ttf
  4

  0
STYLE
  5
57
330
5
100
AcDbSymbolTableRecord
100
AcDbTextStyleTableRecord
  2
LiberationMono-Bold
 70
0
 40
0.0
 41
1.0
 50
0.0
 71
0
 42
2.5
  3
LiberationMono-Bold.ttf
  4

  0
STYLE
  5
58
330
5
100
AcDbSymbolTableRecord
100
AcDbTextStyleTableRecord
  2
LiberationMono-BoldItalic
 70
0
 40
0.0
 41
1.0
 50
0.0
 71
0
 42
2.5
  3
LiberationMono-BoldItalic.ttf
  4

  0
STYLE
  5
59
330
5
100
AcDbSymbolTableRecord
100
AcDbTextStyleTableRecord
  2
LiberationMono-Italic
 70
0
 40
0.0
 41
1.0
 50
0.0
 71
0
 42
2.5
  3
LiberationMono-Italic.ttf
  4

  0
STYLE
  5
8A
330
5
100
AcDbSymbolTableRecord
100
AcDbTextStyleTableRecord
  2
20
 70
0
 40
0.0
 41
1.0
 50
0.0
 71
0
 42
2.5
  3
arial.ttf
  4

  0
STYLE
  5
8B
330
5
100
AcDbSymbolTableRecord
100
AcDbTextStyleTableRecord
  2
50
 70
0
 40
0.0
 41
1.0
 50
0.0
 71
0
 42
2.5
  3
ARIALN.TTF
  4

  0
STYLE
  5
8C
330
5
100
AcDbSymbolTableRecord
100
AcDbTextStyleTableRecord
  2
RomanS
 70
0
 40
0.0
 41
1.0
 50
0.0
 71
0
 42
2.5
  3
arial.ttf
  4

  0
ENDTAB
  0
TABLE
  2
VIEW
  5
7
330
0
100
AcDbSymbolTable
 70
0
  0
ENDTAB
  0
TABLE
  2
UCS
  5
6
330
0
100
AcDbSymbolTable
 70
0
  0
ENDTAB
  0
TABLE
  2
APPID
  5
3
330
0
100
AcDbSymbolTable
 70
3
  0
APPID
  5
2A
330
3
100
AcDbSymbolTableRecord
100
AcDbRegAppTableRecord
  2
ACAD
 70
0
  0
APPID
  5
134
330
3
100
AcDbSymbolTableRecord
100
AcDbRegAppTableRecord
  2
HATCHBACKGROUNDCOLOR
 70
0
  0
APPID
  5
135
330
3
100
AcDbSymbolTableRecord
100
AcDbRegAppTableRecord
  2
EZDXF
 70
0
  0
ENDTAB
  0
TABLE
  2
DIMSTYLE
  5
4
330
0
100
AcDbSymbolTable
 70
17
100
AcDbDimStyleTable
  0
DIMSTYLE
105
2B
330
4
100
AcDbSymbolTableRecord
100
AcDbDimStyleTableRecord
  2
Standard
 70
0
 40
1.0
 41
2.5
 42
0.625
 43
3.75
 44
1.25
 45
0.0
 46
0.0
 47
0.0
 48
0.0
 49
2.5
140
2.5
141
2.5
142
0.0
143
0.03937007874
144
1.0
145
0.0
146
1.0
147
0.625
148
0.0
 69
0
 70
0
 71
0
 72
0
 73
0
 74
0
 75
0
 76
0
 77
1
 78
8
 79
3
170
0
171
3
172
1
173
0
174
0
175
0
176
0
177
0
178
0
179
2
271
2
272
2
273
2
274
3
275
0
276
0
277
2
278
44
279
0
280
0
281
0
282
0
283
0
284
8
285
0
286
0
288
0
289
3
290
0
371
-2
372
-2
  0
DIMSTYLE
105
73
330
4
100
AcDbSymbolTableRecord
100
AcDbDimStyleTableRecord
  2
EZDXF
 70
0
 40
1.0
 41
0.175
 42
0.125
 43
3.75
 44
0.375
 45
0.0
 46
0.0
 47
0.0
 48
0.0
 49
2.5
140
0.25
141
2.5
142
0.0
143
0.03937007874
144
100.0
145
0.0
146
0.5
147
0.1
148
0.0
 69
0
 70
0
 71
0
 72
0
 73
0
 74
0
 75
0
 76
0
 77
1
 78
12
 79
3
170
0
171
3
172
1
173
0
174
0
175
0
176
0
177
0
178
0
179
2
271
2
272
2
273
2
274
3
275
0
276
0
277
2
278
46
279
2
280
0
281
0
282
0
283
0
284
8
285
0
286
0
288
1
289
3
290
0
340
4C
342
74
371
-2
372
-2
  0
DIMSTYLE
105
7C
330
4
100
AcDbSymbolTableRecord
100
AcDbDimStyleTableRecord
  2
EZ_M_100_H25_CM
 70
0
 40
1.0
 41
0.25
 42
0.125
 43
3.75
 44
0.375
 45
0.0
 46
0.0
 47
0.0
 48
0.0
 49
2.5
140
0.25
141
2.5
142
0.125
143
0.03937007874
144
100.0
145
0.0
146
0.5
147
0.1
148
0.0
 69
0
 70
0
 71
0
 72
0
 73
0
 74
0
 75
0
 76
0
 77
1
 78
12
 79
3
170
0
171
3
172
1
173
0
174
0
175
0
176
0
177
0
178
0
179
2
271
2
272
2
273
2
274
3
275
0
276
0
277
2
278
46
279
2
280
0
281
0
282
0
283
0
284
8
285
0
286
0
288
1
289
3
290
0
340
4C
371
-2
372
-2
  0
DIMSTYLE
105
7D
330
4
100
AcDbSymbolTableRecord
100
AcDbDimStyleTableRecord
  2
EZ_M_50_H25_CM
 70
0
 40
1.0
 41
0.125
 42
0.0625
 43
3.75
 44
0.1875
 45
0.0
 46
0.0
 47
0.0
 48
0.0
 49
2.5
140
0.125
141
2.5
142
0.0625
143
0.03937007874
144
100.0
145
0.0
146
0.5
147
0.05
148
0.0
 69
0
 70
0
 71
0
 72
0
 73
0
 74
0
 75
0
 76
0
 77
1
 78
12
 79
3
170
0
171
3
172
1
173
0
174
0
175
0
176
0
177
0
178
0
179
2
271
2
272
2
273
2
274
3
275
0
276
0
277
2
278
46
279
2
280
0
281
0
282
0
283
0
284
8
285
0
286
0
288
1
289
3
290
0
340
4C
371
-2
372
-2
  0
DIMSTYLE
105
7E
330
4
100
AcDbSymbolTableRecord
100
AcDbDimStyleTableRecord
  2
EZ_M_25_H25_CM
 70
0
 40
1.0
 41
0.0625
 42
0.03125
 43
3.75
 44
0.09375
 45
0.0
 46
0.0
 47
0.0
 48
0.0
 49
2.5
140
0.0625
141
2.5
142
0.03125
143
0.03937007874
144
100.0
145
0.0
146
0.5
147
0.025
148
0.0
 69
0
 70
0
 71
0
 72
0
 73
0
 74
0
 75
0
 76
0
 77
1
 78
12
 79
3
170
0
171
3
172
1
173
0
174
0
175
0
176
0
177
0
178
0
179
2
271
2
272
2
273
2
274
3
275
0
276
0
277
2
278
46
279
2
280
0
281
0
282
0
283
0
284
8
285
0
286
0
288
1
289
3
290
0
340
4C
371
-2
372
-2
  0
DIMSTYLE
105
7F
330
4
100
AcDbSymbolTableRecord
100
AcDbDimStyleTableRecord
  2
EZ_M_20_H25_CM
 70
0
 40
1.0
 41
0.05
 42
0.025
 43
3.75
 44
0.07500000000000001
 45
0.0
 46
0.0
 47
0.0
 48
0.0
 49
2.5
140
0.05
141
2.5
142
0.025
143
0.03937007874
144
100.0
145
0.0
146
0.5
147
0.020000000000000004
148
0.0
 69
0
 70
0
 71
0
 72
0
 73
0
 74
0
 75
0
 76
0
 77
1
 78
12
 79
3
170
0
171
3
172
1
173
0
174
0
175
0
176
0
177
0
178
0
179
2
271
2
272
2
273
2
274
3
275
0
276
0
277
2
278
46
279
2
280
0
281
0
282
0
283
0
284
8
285
0
286
0
288
1
289
3
290
0
340
4C
371
-2
372
-2
  0
DIMSTYLE
105
80
330
4
100
AcDbSymbolTableRecord
100
AcDbDimStyleTableRecord
  2
EZ_M_10_H25_CM
 70
0
 40
1.0
 41
0.025
 42
0.0125
 43
3.75
 44
0.037500000000000006
 45
0.0
 46
0.0
 47
0.0
 48
0.0
 49
2.5
140
0.025
141
2.5
142
0.0125
143
0.03937007874
144
100.0
145
0.0
146
0.5
147
0.010000000000000002
148
0.0
 69
0
 70
0
 71
0
 72
0
 73
0
 74
0
 75
0
 76
0
 77
1
 78
12
 79
3
170
0
171
3
172
1
173
0
174
0
175
0
176
0
177
0
178
0
179
2
271
2
272
2
273
2
274
3
275
0
276
0
277
2
278
46
279
2
280
0
281
0
282
0
283
0
284
8
285
0
286
0
288
1
289
3
290
0
340
4C
371
-2
372
-2
  0
DIMSTYLE
105
81
330
4
100
AcDbSymbolTableRecord
100
AcDbDimStyleTableRecord
  2
EZ_M_5_H25_CM
 70
0
 40
1.0
 41
0.0125
 42
0.00625
 43
3.75
 44
0.018750000000000003
 45
0.0
 46
0.0
 47
0.0
 48
0.0
 49
2.5
140
0.0125
141
2.5
142
0.00625
143
0.03937007874
144
100.0
145
0.0
146
0.5
147
0.005000000000000001
148
0.0
 69
0
 70
0
 71
0
 72
0
 73
0
 74
0
 75
0
 76
0
 77
1
 78
12
 79
3
170
0
171
3
172
1
173
0
174
0
175
0
176
0
177
0
178
0
179
2
271
2
272
2
273
2
274
3
275
0
276
0
277
2
278
46
279
2
280
0
281
0
282
0
283
0
284
8
285
0
286
0
288
1
289
3
290
0
340
4C
371
-2
372
-2
  0
DIMSTYLE
105
82
330
4
100
AcDbSymbolTableRecord
100
AcDbDimStyleTableRecord
  2
EZ_M_1_H25_CM
 70
0
 40
1.0
 41
0.0025
 42
0.00125
 43
3.75
 44
0.00375
 45
0.0
 46
0.0
 47
0.0
 48
0.0
 49
2.5
140
0.0025
141
2.5
142
0.00125
143
0.03937007874
144
100.0
145
0.0
146
0.5
147
0.001
148
0.0
 69
0
 70
0
 71
0
 72
0
 73
0
 74
0
 75
0
 76
0
 77
1
 78
12
 79
3
170
0
171
3
172
1
173
0
174
0
175
0
176
0
177
0
178
0
179
2
271
2
272
2
273
2
274
3
275
0
276
0
277
2
278
46
279
2
280
0
281
0
282
0
283
0
284
8
285
0
286
0
288
1
289
3
290
0
340
4C
371
-2
372
-2
  0
DIMSTYLE
105
83
330
4
100
AcDbSymbolTableRecord
100
AcDbDimStyleTableRecord
  2
EZ_RADIUS
 70
0
 40
1.0
 41
0.25
 42
0.125
 43
3.75
 44
0.375
 45
0.0
 46
0.0
 47
0.0
 48
0.0
 49
2.5
140
0.25
141
0.0
142
0.0
143
0.03937007874
144
100.0
145
0.0
146
0.5
147
0.1
148
0.0
 69
0
 70
0
 71
0
 72
0
 73
0
 74
0
 75
0
 76
0
 77
1
 78
12
 79
3
170
0
171
3
172
0
173
0
174
0
175
0
176
0
177
0
178
0
179
2
271
2
272
2
273
2
274
3
275
0
276
0
277
2
278
46
279
1
280
0
281
0
282
0
283
0
284
8
285
0
286
0
288
1
289
3
290
0
340
4C
342
84
371
-2
372
-2
  0
DIMSTYLE
105
88
330
4
100
AcDbSymbolTableRecord
100
AcDbDimStyleTableRecord
  2
EZ_RADIUS_INSIDE
 70
0
 40
1.0
 41
0.25
 42
0.125
 43
3.75
 44
0.375
 45
0.0
 46
0.0
 47
0.0
 48
0.0
 49
2.5
140
0.25
141
0.0
142
0.0
143
0.03937007874
144
100.0
145
0.0
146
0.5
147
0.1
148
0.0
 69
0
 70
0
 71
0
 72
0
 73
0
 74
0
 75
0
 76
0
 77
0
 78
12
 79
3
170
0
171
3
172
0
173
0
174
1
175
0
176
0
177
0
178
0
179
2
271
2
272
2
273
2
274
3
275
0
276
0
277
2
278
46
279
0
280
0
281
0
282
0
283
0
284
8
285
0
286
0
288
1
289
0
290
0
340
4C
342
84
371
-2
372
-2
  0
DIMSTYLE
105
89
330
4
100
AcDbSymbolTableRecord
100
AcDbDimStyleTableRecord
  2
EZ_CURVED
 70
0
 40
1.0
 41
0.25
 42
0.125
 43
3.75
 44
0.375
 45
0.0
 46
0.0
 47
0.0
 48
0.0
 49
2.5
140
0.25
141
2.5
142
0.0
143
0.03937007874
144
100.0
145
0.0
146
0.5
147
0.1
148
0.0
 69
0
 70
0
 71
0
 72
0
 73
0
 74
0
 75
0
 76
0
 77
1
 78
12
 79
2
 90
2
170
0
171
3
172
1
173
0
174
0
175
0
176
0
177
0
178
0
179
2
271
2
272
2
273
2
274
3
275
0
276
0
277
2
278
46
279
2
280
0
281
0
282
0
283
0
284
8
285
0
286
0
288
1
289
3
290
0
340
4C
371
-2
372
-2
  0
DIMSTYLE
105
A4
330
4
100
AcDbSymbolTableRecord
100
AcDbDimStyleTableRecord
  2
M 20
 70
0
 40
20.0
 41
1.0
 42
0.0
 43
3.75
 44
2.0
 45
0.0
 46
0.0
 47
0.0
 48
0.0
 49
2.5
140
2.5
141
2.5
142
0.0
143
0.03937007874
144
1.0
145
0.0
146
1.0
147
0.625
148
0.0
 69
0
 70
0
 71
0
 72
0
 73
0
 74
0
 75
0
 76
0
 77
1
 78
8
 79
3
170
0
171
3
172
1
173
0
174
0
175
0
176
0
177
0
178
0
179
2
271
0
272
2
273
2
274
3
275
0
276
0
277
2
278
44
279
0
280
0
281
0
282
0
283
0
284
8
285
0
286
0
288
0
289
3
290
0
340
29
342
74
371
-2
372
-2
  0
DIMSTYLE
105
A5
330
4
100
AcDbSymbolTableRecord
100
AcDbDimStyleTableRecord
  2
M 30
 70
0
 40
30.0
 41
1.0
 42
0.0
 43
3.75
 44
2.0
 45
0.0
 46
0.0
 47
0.0
 48
0.0
 49
2.5
140
2.5
141
2.5
142
0.0
143
0.03937007874
144
1.0
145
0.0
146
1.0
147
0.625
148
0.0
 69
0
 70
0
 71
0
 72
0
 73
0
 74
0
 75
0
 76
0
 77
1
 78
8
 79
3
170
0
171
3
172
1
173
0
174
0
175
0
176
0
177
0
178
0
179
2
271
0
272
2
273
2
274
3
275
0
276
0
277
2
278
44
279
0
280
0
281
0
282
0
283
0
284
8
285
0
286
0
288
0
289
3
290
0
340
29
342
74
371
-2
372
-2
  0
DIMSTYLE
105
A6
330
4
100
AcDbSymbolTableRecord
100
AcDbDimStyleTableRecord
  2
M 50
 70
0
 40
50.0
 41
1.0
 42
0.0
 43
3.75
 44
2.0
 45
0.0
 46
0.0
 47
0.0
 48
0.0
 49
2.5
140
2.5
141
2.5
142
0.0
143
0.03937007874
144
1.0
145
0.0
146
1.0
147
0.625
148
0.0
 69
0
 70
0
 71
0
 72
0
 73
0
 74
0
 75
0
 76
0
 77
1
 78
8
 79
3
170
0
171
3
172
1
173
0
174
0
175
0
176
0
177
0
178
0
179
2
271
0
272
2
273
2
274
3
275
0
276
0
277
2
278
44
279
0
280
0
281
0
282
0
283
0
284
8
285
0
286
0
288
0
289
3
290
0
340
29
342
74
371
-2
372
-2
  0
DIMSTYLE
105
A7
330
4
100
AcDbSymbolTableRecord
100
AcDbDimStyleTableRecord
  2
M 100
 70
0
 40
100.0
 41
1.0
 42
0.0
 43
3.75
 44
2.0
 45
0.0
 46
0.0
 47
0.0
 48
0.0
 49
2.5
140
2.5
141
2.5
142
0.0
143
0.03937007874
144
1.0
145
0.0
146
1.0
147
0.625
148
0.0
 69
0
 70
0
 71
0
 72
0
 73
0
 74
0
 75
0
 76
0
 77
1
 78
8
 79
3
170
0
171
3
172
1
173
0
174
0
175
0
176
0
177
0
178
0
179
2
271
0
272
2
273
2
274
3
275
0
276
0
277
2
278
44
279
0
280
0
281
0
282
0
283
0
284
8
285
0
286
0
288
0
289
3
290
0
340
29
342
74
371
-2
372
-2
  0
DIMSTYLE
105
A8
330
4
100
AcDbSymbolTableRecord
100
AcDbDimStyleTableRecord
  2
M 200
 70
0
 40
200.0
 41
1.0
 42
0.0
 43
3.75
 44
2.0
 45
0.0
 46
0.0
 47
0.0
 48
0.0
 49
2.5
140
2.5
141
2.5
142
0.0
143
0.03937007874
144
1.0
145
0.0
146
1.0
147
0.625
148
0.0
 69
0
 70
0
 71
0
 72
0
 73
0
 74
0
 75
0
 76
0
 77
1
 78
8
 79
3
170
0
171
3
172
1
173
0
174
0
175
0
176
0
177
0
178
0
179
2
271
0
272
2
273
2
274
3
275
0
276
0
277
2
278
44
279
0
280
0
281
0
282
0
283
0
284
8
285
0
286
0
288
0
289
3
290
0
340
29
342
74
371
-2
372
-2
  0
ENDTAB
  0
TABLE
  2
BLOCK_RECORD
  5
9
330
0
100
AcDbSymbolTable
 70
7
  0
BLOCK_RECORD
  5
17
330
9
100
AcDbSymbolTableRecord
100
AcDbBlockTableRecord
  2
*Model_Space
340
1A
 70
0
280
1
281
0
  0
BLOCK_RECORD
  5
1B
330
9
100
AcDbSymbolTableRecord
100
AcDbBlockTableRecord
  2
*Paper_Space
340
1E
 70
0
280
1
281
0
  0
BLOCK_RECORD
  5
74
330
9
100
AcDbSymbolTableRecord
100
AcDbBlockTableRecord
  2
_ARCHTICK
340
0
 70
0
280
1
281
0
  0
BLOCK_RECORD
  5
78
330
9
100
AcDbSymbolTableRecord
100
AcDbBlockTableRecord
  2
_CLOSEDFILLED
340
0
 70
0
280
1
281
0
  0
BLOCK_RECORD
  5
84
330
9
100
AcDbSymbolTableRecord
100
AcDbBlockTableRecord
  2
_CLOSEDBLANK
340
0
 70
0
280
1
281
0
  0
BLOCK_RECORD
  5
104
330
9
100
AcDbSymbolTableRecord
100
AcDbBlockTableRecord
  2
*D1
340
0
 70
0
280
1
281
0
  0
BLOCK_RECORD
  5
114
330
9
100
AcDbSymbolTableRecord
100
AcDbBlockTableRecord
  2
*D2
340
0
 70
0
280
1
281
0
  0
ENDTAB
  0
ENDSEC
  0
SECTION
  2
BLOCKS
  0
BLOCK
  5
18
330
17
100
AcDbEntity
  8
0
100
AcDbBlockBegin
  2
*Model_Space
 70
0
 10
0.0
 20
0.0
 30
0.0
  3
*Model_Space
  1

  0
ENDBLK
  5
19
330
17
100
AcDbEntity
  8
0
100
AcDbBlockEnd
  0
BLOCK
  5
1C
330
1B
100
AcDbEntity
  8
0
100
AcDbBlockBegin
  2
*Paper_Space
 70
0
 10
0.0
 20
0.0
 30
0.0
  3
*Paper_Space
  1

  0
ENDBLK
  5
1D
330
1B
100
AcDbEntity
  8
0
100
AcDbBlockEnd
  0
BLOCK
  5
75
330
74
100
AcDbEntity
  8
0
100
AcDbBlockBegin
  2
_ARCHTICK
 70
0
 10
0.0
 20
0.0
 30
0.0
  3
_ARCHTICK
  1

  0
LWPOLYLINE
  5
77
330
74
100
AcDbEntity
  8
0
  6
BYBLOCK
 62
0
100
AcDbPolyline
 90
2
 70
0
 43
0.15
 10
-0.5
 20
-0.5
 10
0.5
 20
0.5
  0
ENDBLK
  5
76
330
74
100
AcDbEntity
  8
0
100
AcDbBlockEnd
  0
BLOCK
  5
79
330
78
100
AcDbEntity
  8
0
100
AcDbBlockBegin
  2
_CLOSEDFILLED
 70
0
 10
0.0
 20
0.0
 30
0.0
  3
_CLOSEDFILLED
  1

  0
SOLID
  5
7B
330
78
100
AcDbEntity
  8
0
  6
BYBLOCK
 62
0
100
AcDbTrace
 10
-1.0
 20
0.16439898372402537
 30
0.0
 11
0.0
 21
0.0
 31
0.0
 12
-1.0
 22
-0.16439898372402537
 32
0.0
 13
-1.0
 23
-0.16439898372402537
 33
0.0
  0
ENDBLK
  5
7A
330
78
100
AcDbEntity
  8
0
100
AcDbBlockEnd
  0
BLOCK
  5
85
330
84
100
AcDbEntity
  8
0
100
AcDbBlockBegin
  2
_CLOSEDBLANK
 70
0
 10
0.0
 20
0.0
 30
0.0
  3
_CLOSEDBLANK
  1

  0
LWPOLYLINE
  5
87
330
84
100
AcDbEntity
  8
0
  6
BYBLOCK
 62
0
100
AcDbPolyline
 90
3
 70
1
 10
-1.0
 20
0.16439898372402537
 10
0.0
 20
0.0
 10
-1.0
 20
-0.16439898372402537
  0
ENDBLK
  5
86
330
84
100
AcDbEntity
  8
0
100
AcDbBlockEnd
  0
BLOCK
  5
105
330
104
100
AcDbEntity
  8
0
100
AcDbBlockBegin
  2
*D1
 70
1
 10
0.0
 20
0.0
 30
0.0
  3
*D1
  1

  0
LINE
  5
107
330
104
100
AcDbEntity
  8
0
100
AcDbLine
 10
3700.0
 20
4300.0
 30
0.0
 11
3700.0
 21
2940.0
 31
0.0
  0
LINE
  5
108
330
104
100
AcDbEntity
  8
0
100
AcDbLine
 10
6936.0
 20
4300.0
 30
0.0
 11
6936.0
 21
2940.0
 31
0.0
  0
INSERT
  5
109
330
104
100
AcDbEntity
  8
Kote
100
AcDbBlockReference
  2
_ARCHTICK
 10
3700.0
 20
3000.0
 30
0.0
 41
30.0
 42
30.0
 50
180.0
  0
INSERT
  5
10B
330
104
100
AcDbEntity
  8
Kote
100
AcDbBlockReference
  2
_ARCHTICK
 10
6936.0
 20
3000.0
 30
0.0
 41
30.0
 42
30.0
  0
LINE
  5
10D
330
104
100
AcDbEntity
  8
0
100
AcDbLine
 10
3700.0
 20
3000.0
 30
0.0
 11
5168.0
 21
3000.0
 31
0.0
  0
LINE
  5
10E
330
104
100
AcDbEntity
  8
0
100
AcDbLine
 10
5468.0
 20
3000.0
 30
0.0
 11
6936.0
 21
3000.0
 31
0.0
  0
MTEXT
  5
10F
330
104
100
AcDbEntity
  8
Kote
100
AcDbMText
 10
5318.0
 20
3000.0
 30
0.0
 40
75.0
 71
5
  1
3236
  0
POINT
  5
110
330
104
100
AcDbEntity
  8
Defpoints
100
AcDbPoint
 10
3700.0
 20
3000.0
 30
0.0
  0
POINT
  5
111
330
104
100
AcDbEntity
  8
Defpoints
100
AcDbPoint
 10
3700.0
 20
4300.0
 30
0.0
  0
POINT
  5
112
330
104
100
AcDbEntity
  8
Defpoints
100
AcDbPoint
 10
6936.0
 20
4300.0
 30
0.0
  0
ENDBLK
  5
106
330
104
100
AcDbEntity
  8
0
100
AcDbBlockEnd
  0
BLOCK
  5
115
330
114
100
AcDbEntity
  8
0
100
AcDbBlockBegin
  2
*D2
 70
1
 10
0.0
 20
0.0
 30
0.0
  3
*D2
  1

  0
LINE
  5
117
330
114
100
AcDbEntity
  8
0
100
AcDbLine
 10
2100.0
 20
5200.0
 30
0.0
 11
1240.0
 21
5200.0
 31
0.0
  0
LINE
  5
118
330
114
100
AcDbEntity
  8
0
100
AcDbLine
 10
2100.0
 20
9936.0
 30
0.0
 11
1240.0
 21
9936.0
 31
0.0
  0
INSERT
  5
119
330
114
100
AcDbEntity
  8
Kote
100
AcDbBlockReference
  2
_ARCHTICK
 10
1300.0
 20
5200.0
 30
0.0
 41
30.0
 42
30.0
 50
270.0
  0
INSERT
  5
11B
330
114
100
AcDbEntity
  8
Kote
100
AcDbBlockReference
  2
_ARCHTICK
 10
1300.0
 20
9936.0
 30
0.0
 41
30.0
 42
30.0
 50
90.0
  0
LINE
  5
11D
330
114
100
AcDbEntity
  8
0
100
AcDbLine
 10
1300.0
 20
5200.0
 30
0.0
 11
1300.0
 21
7418.0
 31
0.0
  0
LINE
  5
11E
330
114
100
AcDbEntity
  8
0
100
AcDbLine
 10
1300.0
 20
7718.0
 30
0.0
 11
1300.0
 21
9936.0
 31
0.0
  0
MTEXT
  5
11F
330
114
100
AcDbEntity
  8
Kote
100
AcDbMText
 10
1300.0
 20
7568.0
 30
0.0
 40
75.0
 71
5
  1
4736
 50
90.0
  0
POINT
  5
120
330
114
100
AcDbEntity
  8
Defpoints
100
AcDbPoint
 10
1300.0
 20
5200.0
 30
0.0
  0
POINT
  5
121
330
114
100
AcDbEntity
  8
Defpoints
100
AcDbPoint
 10
2100.0
 20
5200.0
 30
0.0
  0
POINT
  5
122
330
114
100
AcDbEntity
  8
Defpoints
100
AcDbPoint
 10
2100.0
 20
9936.0
 30
0.0
  0
ENDBLK
  5
116
330
114
100
AcDbEntity
  8
0
100
AcDbBlockEnd
  0
ENDSEC
  0
SECTION
  2
ENTITIES
  0
LWPOLYLINE
  5
A9
330
17
100
AcDbEntity
  8
Okvir
 62
8
100
AcDbPolyline
 90
4
 70
1
 10
0.0
 20
0.0
 10
12600.0
 20
0.0
 10
12600.0
 20
8910.0
 10
0.0
 20
8910.0
  0
LWPOLYLINE
  5
AA
330
17
100
AcDbEntity
  8
Okvir
370
50
100
AcDbPolyline
 90
4
 70
1
 10
600.0
 20
300.0
 10
12300.0
 20
300.0
 10
12300.0
 20
8610.0
 10
600.0
 20
8610.0
  0
LWPOLYLINE
  5
AB
330
17
100
AcDbEntity
  8
Okvir
370
50
100
AcDbPolyline
 90
4
 70
1
 10
6900.0
 20
300.0
 10
12300.0
 20
300.0
 10
12300.0
 20
1740.0
 10
6900.0
 20
1740.0
  0
LINE
  5
AC
330
17
100
AcDbEntity
  8
Okvir
100
AcDbLine
 10
6900.0
 20
480.0
 30
0.0
 11
12300.0
 21
480.0
 31
0.0
  0
LINE
  5
AD
330
17
100
AcDbEntity
  8
Okvir
100
AcDbLine
 10
6900.0
 20
720.0
 30
0.0
 11
12300.0
 21
720.0
 31
0.0
  0
LINE
  5
AE
330
17
100
AcDbEntity
  8
Okvir
100
AcDbLine
 10
6900.0
 20
960.0
 30
0.0
 11
12300.0
 21
960.0
 31
0.0
  0
LINE
  5
AF
330
17
100
AcDbEntity
  8
Okvir
100
AcDbLine
 10
6900.0
 20
1200.0
 30
0.0
 11
12300.0
 21
1200.0
 31
0.0
  0
LINE
  5
B0
330
17
100
AcDbEntity
  8
Okvir
100
AcDbLine
 10
6900.0
 20
1440.0
 30
0.0
 11
12300.0
 21
1440.0
 31
0.0
  0
LINE
  5
B1
330
17
100
AcDbEntity
  8
Okvir
100
AcDbLine
 10
10440.0
 20
480.0
 30
0.0
 11
10440.0
 21
960.0
 31
0.0
  0
LINE
  5
B2
330
17
100
AcDbEntity
  8
Okvir
100
AcDbLine
 10
8760.0
 20
300.0
 30
0.0
 11
8760.0
 21
480.0
 31
0.0
  0
LINE
  5
B3
330
17
100
AcDbEntity
  8
Okvir
100
AcDbLine
 10
10440.0
 20
300.0
 30
0.0
 11
10440.0
 21
480.0
 31
0.0
  0
HATCH
  5
B4
330
17
100
AcDbEntity
  8
Okvir
 62
30
100
AcDbHatch
 10
0.0
 20
0.0
 30
0.0
210
0.0
220
0.0
230
1.0
  2
SOLID
 70
1
 71
0
 91
1
 92
3
 72
0
 73
1
 93
53
 10
7042.558824535822
 20
1458.0000140124441
 10
7627.440769860968
 20
1458.0000140124441
 10
7630.4909612349975
 20
1458.2248567864933
 10
7633.419787528319
 20
1458.879524322575
 10
7636.199826205917
 20
1459.934225441584
 10
7638.803654732778
 20
1461.3591689644193
 10
7641.203850573886
 20
1463.124563711978
 10
7643.372991194227
 20
1465.2006185051594
 10
7645.283654058787
 20
1467.5575421648593
 10
7646.90841663255
 20
1470.1655435119756
 10
7648.219856380503
 20
1472.9948313674067
 10
7649.19055076763
 20
1476.0156145520498
 10
7649.793077258917
 20
1479.198101886802
 10
7650.00001331935
 20
1482.5125021925617
 10
7650.00001331935
 20
1739.8773374689322
 10
7649.793077258917
 20
1743.1917377746913
 10
7649.190550767631
 20
1746.374225109444
 10
7648.219856380503
 20
1749.3950082940867
 10
7646.908416632551
 20
1752.224296149518
 10
7645.283654058787
 20
1754.8322974966334
 10
7643.372991194227
 20
1757.1892211563336
 10
7641.203850573886
 20
1759.2652759495154
 10
7638.803654732777
 20
1761.0306706970741
 10
7636.199826205917
 20
1762.4556142199096
 10
7633.419787528319
 20
1763.510315338919
 10
7630.490961234998
 20
1764.1649828749996
 10
7627.440769860968
 20
1764.3898256490493
 10
7042.558824535822
 20
1764.3898256490493
 10
7039.508470067095
 20
1764.1649595420872
 10
7036.579554213103
 20
1763.510230491967
 10
7033.79948819593
 20
1762.455442404831
 10
7031.195683237668
 20
1761.0303991868263
 10
7028.795550560401
 20
1759.2649047440982
 10
7026.62650138622
 20
1757.1887629827909
 10
7024.715946937211
 20
1754.8317778090513
 10
7023.091298435461
 20
1752.2237531290216
 10
7021.779967103059
 20
1749.394492848851
 10
7020.809364162092
 20
1746.373800874682
 10
7020.206900834647
 20
1743.1914811126605
 10
7019.999988342813
 20
1739.8773374689322
 10
7019.999988342813
 20
1482.5125021925617
 10
7020.206877501735
 20
1479.1983585488329
 10
7020.809279315139
 20
1476.0160387868118
 10
7021.77979528798
 20
1472.995346812643
 10
7023.091026925214
 20
1470.1660865324711
 10
7024.715575731794
 20
1467.5580618524418
 10
7026.626043212677
 20
1465.2010766787023
 10
7028.795030872819
 20
1463.1249349173956
 10
7031.195140217173
 20
1461.3594404746666
 10
7033.798972750695
 20
1459.934397256663
 10
7036.5791299783405
 20
1458.8796091695274
 10
7039.508213405064
 20
1458.2248801194057
 10
7042.558824535822
 20
1458.0000140124441
 97
0
 75
0
 76
1
 98
0
  0
LWPOLYLINE
  5
B5
330
17
100
AcDbEntity
  8
Okvir
 62
30
100
AcDbPolyline
 90
53
 70
1
 10
7042.558824535822
 20
1458.0000140124441
 10
7627.440769860968
 20
1458.0000140124441
 10
7630.4909612349975
 20
1458.2248567864933
 10
7633.419787528319
 20
1458.879524322575
 10
7636.199826205917
 20
1459.934225441584
 10
7638.803654732778
 20
1461.3591689644193
 10
7641.203850573886
 20
1463.124563711978
 10
7643.372991194227
 20
1465.2006185051594
 10
7645.283654058787
 20
1467.5575421648593
 10
7646.90841663255
 20
1470.1655435119756
 10
7648.219856380503
 20
1472.9948313674067
 10
7649.19055076763
 20
1476.0156145520498
 10
7649.793077258917
 20
1479.198101886802
 10
7650.00001331935
 20
1482.5125021925617
 10
7650.00001331935
 20
1739.8773374689322
 10
7649.793077258917
 20
1743.1917377746913
 10
7649.190550767631
 20
1746.374225109444
 10
7648.219856380503
 20
1749.3950082940867
 10
7646.908416632551
 20
1752.224296149518
 10
7645.283654058787
 20
1754.8322974966334
 10
7643.372991194227
 20
1757.1892211563336
 10
7641.203850573886
 20
1759.2652759495154
 10
7638.803654732777
 20
1761.0306706970741
 10
7636.199826205917
 20
1762.4556142199096
 10
7633.419787528319
 20
1763.510315338919
 10
7630.490961234998
 20
1764.1649828749996
 10
7627.440769860968
 20
1764.3898256490493
 10
7042.558824535822
 20
1764.3898256490493
 10
7039.508470067095
 20
1764.1649595420872
 10
7036.579554213103
 20
1763.510230491967
 10
7033.79948819593
 20
1762.455442404831
 10
7031.195683237668
 20
1761.0303991868263
 10
7028.795550560401
 20
1759.2649047440982
 10
7026.62650138622
 20
1757.1887629827909
 10
7024.715946937211
 20
1754.8317778090513
 10
7023.091298435461
 20
1752.2237531290216
 10
7021.779967103059
 20
1749.394492848851
 10
7020.809364162092
 20
1746.373800874682
 10
7020.206900834647
 20
1743.1914811126605
 10
7019.999988342813
 20
1739.8773374689322
 10
7019.999988342813
 20
1482.5125021925617
 10
7020.206877501735
 20
1479.1983585488329
 10
7020.809279315139
 20
1476.0160387868118
 10
7021.77979528798
 20
1472.995346812643
 10
7023.091026925214
 20
1470.1660865324711
 10
7024.715575731794
 20
1467.5580618524418
 10
7026.626043212677
 20
1465.2010766787023
 10
7028.795030872819
 20
1463.1249349173956
 10
7031.195140217173
 20
1461.3594404746666
 10
7033.798972750695
 20
1459.934397256663
 10
7036.5791299783405
 20
1458.8796091695274
 10
7039.508213405064
 20
1458.2248801194057
 10
7042.558824535822
 20
1458.0000140124441
  0
HATCH
  5
B6
330
17
100
AcDbEntity
  8
Okvir
 62
7
100
AcDbHatch
 10
0.0
 20
0.0
 30
0.0
210
0.0
220
0.0
230
1.0
  2
SOLID
 70
1
 71
0
 91
1
 92
3
 72
0
 73
1
 93
49
 10
7401.885803691334
 20
1689.5914675185193
 10
7406.520141403014
 20
1689.2670584956336
 10
7410.755749346603
 20
1688.3228622831123
 10
7414.565832854529
 20
1686.8024251651564
 10
7417.923597259229
 20
1684.7492934259674
 10
7420.802247893133
 20
1682.2070133497464
 10
7423.174990088679
 20
1679.2191312206985
 10
7425.015029178295
 20
1675.8291933230219
 10
7426.295570494416
 20
1672.0807459409193
 10
7426.989819369476
 20
1668.017335358593
 10
7427.0709811359075
 20
1663.6825078602453
 10
7426.512261126142
 20
1659.1198097300767
 10
7425.286864672616
 20
1654.3727872522895
 10
7423.421451159141
 20
1649.6309764985535
 10
7420.9999365785
 20
1645.081783882033
 10
7418.079273033371
 20
1640.7670884443148
 10
7414.716412626436
 20
1636.728769226987
 10
7410.9683074603745
 20
1633.0087052716344
 10
7406.891909637869
 20
1629.6487756198471
 10
7402.5441712615975
 20
1626.6908593132114
 10
7397.982044434242
 20
1624.1768353933132
 10
7393.262481258482
 20
1622.1485829017406
 10
7388.442433836999
 20
1620.6479808800811
 10
7383.578854272473
 20
1619.7169083699212
 10
7378.728694667584
 20
1619.3972444128487
 10
7374.090010906453
 20
1619.7169083699207
 10
7369.842443313553
 20
1620.6479808800811
 10
7366.015320652097
 20
1622.1485829017402
 10
7362.637971685297
 20
1624.1768353933132
 10
7359.739725176363
 20
1626.6908593132107
 10
7357.3499098885095
 20
1629.6487756198474
 10
7355.497854584945
 20
1633.0087052716349
 10
7354.212888028885
 20
1636.7287692269865
 10
7353.524338983538
 20
1640.7670884443148
 10
7353.461536212118
 20
1645.081783882033
 10
7354.053808477836
 20
1649.630976498554
 10
7355.330484543903
 20
1654.3727872522895
 10
7357.195266418955
 20
1659.1198097300762
 10
7359.616296429224
 20
1663.6825078602453
 10
7362.536599846177
 20
1668.017335358593
 10
7365.899201941279
 20
1672.08074594092
 10
7369.647127985995
 20
1675.8291933230207
 10
7373.723403251794
 20
1679.2191312206985
 10
7378.071053010137
 20
1682.2070133497475
 10
7382.633102532491
 20
1684.7492934259667
 10
7387.3525770903225
 20
1686.802425165156
 10
7392.172501955096
 20
1688.3228622831123
 10
7397.035902398278
 20
1689.2670584956336
 10
7401.885803691334
 20
1689.5914675185193
 97
0
 75
0
 76
1
 98
0
  0
LWPOLYLINE
  5
B7
330
17
100
AcDbEntity
  8
Okvir
 62
7
100
AcDbPolyline
 90
49
 70
1
 10
7401.885803691334
 20
1689.5914675185193
 10
7406.520141403014
 20
1689.2670584956336
 10
7410.755749346603
 20
1688.3228622831123
 10
7414.565832854529
 20
1686.8024251651564
 10
7417.923597259229
 20
1684.7492934259674
 10
7420.802247893133
 20
1682.2070133497464
 10
7423.174990088679
 20
1679.2191312206985
 10
7425.015029178295
 20
1675.8291933230219
 10
7426.295570494416
 20
1672.0807459409193
 10
7426.989819369476
 20
1668.017335358593
 10
7427.0709811359075
 20
1663.6825078602453
 10
7426.512261126142
 20
1659.1198097300767
 10
7425.286864672616
 20
1654.3727872522895
 10
7423.421451159141
 20
1649.6309764985535
 10
7420.9999365785
 20
1645.081783882033
 10
7418.079273033371
 20
1640.7670884443148
 10
7414.716412626436
 20
1636.728769226987
 10
7410.9683074603745
 20
1633.0087052716344
 10
7406.891909637869
 20
1629.6487756198471
 10
7402.5441712615975
 20
1626.6908593132114
 10
7397.982044434242
 20
1624.1768353933132
 10
7393.262481258482
 20
1622.1485829017406
 10
7388.442433836999
 20
1620.6479808800811
 10
7383.578854272473
 20
1619.7169083699212
 10
7378.728694667584
 20
1619.3972444128487
 10
7374.090010906453
 20
1619.7169083699207
 10
7369.842443313553
 20
1620.6479808800811
 10
7366.015320652097
 20
1622.1485829017402
 10
7362.637971685297
 20
1624.1768353933132
 10
7359.739725176363
 20
1626.6908593132107
 10
7357.3499098885095
 20
1629.6487756198474
 10
7355.497854584945
 20
1633.0087052716349
 10
7354.212888028885
 20
1636.7287692269865
 10
7353.524338983538
 20
1640.7670884443148
 10
7353.461536212118
 20
1645.081783882033
 10
7354.053808477836
 20
1649.630976498554
 10
7355.330484543903
 20
1654.3727872522895
 10
7357.195266418955
 20
1659.1198097300762
 10
7359.616296429224
 20
1663.6825078602453
 10
7362.536599846177
 20
1668.017335358593
 10
7365.899201941279
 20
1672.08074594092
 10
7369.647127985995
 20
1675.8291933230207
 10
7373.723403251794
 20
1679.2191312206985
 10
7378.071053010137
 20
1682.2070133497475
 10
7382.633102532491
 20
1684.7492934259667
 10
7387.3525770903225
 20
1686.802425165156
 10
7392.172501955096
 20
1688.3228622831123
 10
7397.035902398278
 20
1689.2670584956336
 10
7401.885803691334
 20
1689.5914675185193
  0
HATCH
  5
B8
330
17
100
AcDbEntity
  8
Okvir
 62
7
100
AcDbHatch
 10
0.0
 20
0.0
 30
0.0
210
0.0
220
0.0
230
1.0
  2
SOLID
 70
1
 71
0
 91
1
 92
3
 72
0
 73
1
 93
49
 10
7488.2460184535075
 20
1689.5914675185193
 10
7492.9354899505415
 20
1689.2670584956336
 10
7497.21710356152
 20
1688.3228622831123
 10
7501.064880563736
 20
1686.8024251651564
 10
7504.452842234479
 20
1684.7492934259674
 10
7507.355009851042
 20
1682.2070133497464
 10
7509.74540469072
 20
1679.2191312206985
 10
7511.598048030801
 20
1675.8291933230219
 10
7512.886961148578
 20
1672.0807459409193
 10
7513.586165321343
 20
1668.017335358593
 10
7513.669681826389
 20
1663.6825078602453
 10
7513.111531941008
 20
1659.1198097300767
 10
7511.88573694249
 20
1654.3727872522895
 10
7510.020884833018
 20
1649.6309764985535
 10
7507.59983832473
 20
1645.081783882033
 10
7504.679558005003
 20
1640.7670884443148
 10
7501.3170044612125
 20
1636.728769226987
 10
7497.569138280734
 20
1633.0087052716344
 10
7493.492920050943
 20
1629.6487756198471
 10
7489.145310359218
 20
1626.6908593132114
 10
7484.58326979293
 20
1624.1768353933132
 10
7479.8637589394575
 20
1622.1485829017406
 10
7475.043738386176
 20
1620.6479808800811
 10
7470.180168720461
 20
1619.7169083699212
 10
7465.330010529688
 20
1619.3972444128487
 10
7460.6909296376825
 20
1619.7169083699207
 10
7456.442211190149
 20
1620.6479808800811
 10
7452.612328410193
 20
1622.1485829017402
 10
7449.229754520928
 20
1624.1768353933132
 10
7446.322962745457
 20
1626.6908593132107
 10
7443.920426306892
 20
1629.6487756198474
 10
7442.050618428342
 20
1633.0087052716349
 10
7440.742012332913
 20
1636.7287692269865
 10
7440.023081243716
 20
1640.7670884443148
 10
7439.922298383857
 20
1645.081783882033
 10
7440.468136976446
 20
1649.630976498554
 10
7441.689070244591
 20
1654.3727872522895
 10
7443.604851030182
 20
1659.1198097300762
 10
7446.059199260228
 20
1663.6825078602453
 10
7448.997670059491
 20
1668.017335358593
 10
7452.365818552734
 20
1672.08074594092
 10
7456.109199864719
 20
1675.8291933230207
 10
7460.173369120212
 20
1679.2191312206985
 10
7464.503881443972
 20
1682.2070133497475
 10
7469.046291960764
 20
1684.7492934259667
 10
7473.746155795351
 20
1686.802425165156
 10
7478.549028072495
 20
1688.3228622831123
 10
7483.40046391696
 20
1689.2670584956336
 10
7488.2460184535075
 20
1689.5914675185193
 97
0
 75
0
 76
1
 98
0
  0
LWPOLYLINE
  5
B9
330
17
100
AcDbEntity
  8
Okvir
 62
7
100
AcDbPolyline
 90
49
 70
1
 10
7488.2460184535075
 20
1689.5914675185193
 10
7492.9354899505415
 20
1689.2670584956336
 10
7497.21710356152
 20
1688.3228622831123
 10
7501.064880563736
 20
1686.8024251651564
 10
7504.452842234479
 20
1684.7492934259674
 10
7507.355009851042
 20
1682.2070133497464
 10
7509.74540469072
 20
1679.2191312206985
 10
7511.598048030801
 20
1675.8291933230219
 10
7512.886961148578
 20
1672.0807459409193
 10
7513.586165321343
 20
1668.017335358593
 10
7513.669681826389
 20
1663.6825078602453
 10
7513.111531941008
 20
1659.1198097300767
 10
7511.88573694249
 20
1654.3727872522895
 10
7510.020884833018
 20
1649.6309764985535
 10
7507.59983832473
 20
1645.081783882033
 10
7504.679558005003
 20
1640.7670884443148
 10
7501.3170044612125
 20
1636.728769226987
 10
7497.569138280734
 20
1633.0087052716344
 10
7493.492920050943
 20
1629.6487756198471
 10
7489.145310359218
 20
1626.6908593132114
 10
7484.58326979293
 20
1624.1768353933132
 10
7479.8637589394575
 20
1622.1485829017406
 10
7475.043738386176
 20
1620.6479808800811
 10
7470.180168720461
 20
1619.7169083699212
 10
7465.330010529688
 20
1619.3972444128487
 10
7460.6909296376825
 20
1619.7169083699207
 10
7456.442211190149
 20
1620.6479808800811
 10
7452.612328410193
 20
1622.1485829017402
 10
7449.229754520928
 20
1624.1768353933132
 10
7446.322962745457
 20
1626.6908593132107
 10
7443.920426306892
 20
1629.6487756198474
 10
7442.050618428342
 20
1633.0087052716349
 10
7440.742012332913
 20
1636.7287692269865
 10
7440.023081243716
 20
1640.7670884443148
 10
7439.922298383857
 20
1645.081783882033
 10
7440.468136976446
 20
1649.630976498554
 10
7441.689070244591
 20
1654.3727872522895
 10
7443.604851030182
 20
1659.1198097300762
 10
7446.059199260228
 20
1663.6825078602453
 10
7448.997670059491
 20
1668.017335358593
 10
7452.365818552734
 20
1672.08074594092
 10
7456.109199864719
 20
1675.8291933230207
 10
7460.173369120212
 20
1679.2191312206985
 10
7464.503881443972
 20
1682.2070133497475
 10
7469.046291960764
 20
1684.7492934259667
 10
7473.746155795351
 20
1686.802425165156
 10
7478.549028072495
 20
1688.3228622831123
 10
7483.40046391696
 20
1689.2670584956336
 10
7488.2460184535075
 20
1689.5914675185193
  0
HATCH
  5
BA
330
17
100
AcDbEntity
  8
Okvir
 62
7
100
AcDbHatch
 10
0.0
 20
0.0
 30
0.0
210
0.0
220
0.0
230
1.0
  2
SOLID
 70
1
 71
0
 91
1
 92
3
 72
0
 73
1
 93
49
 10
7573.6397924891
 20
1689.5914675185193
 10
7578.274043704027
 20
1689.2670584956336
 10
7582.5095891908295
 20
1688.3228622831123
 10
7586.319624383131
 20
1686.8024251651564
 10
7589.677344714552
 20
1684.7492934259674
 10
7592.555945618716
 20
1682.2070133497464
 10
7594.928622529244
 20
1679.2191312206985
 10
7596.768570879759
 20
1675.8291933230219
 10
7598.048986103881
 20
1672.0807459409193
 10
7598.743063635235
 20
1668.017335358593
 10
7598.82399890744
 20
1663.6825078602453
 10
7598.2649873541195
 20
1659.1198097300767
 10
7597.039224408895
 20
1654.3727872522895
 10
7595.17420072003
 20
1649.6309764985535
 10
7592.753039196985
 20
1645.081783882033
 10
7589.832689114208
 20
1640.7670884443148
 10
7586.470099746149
 20
1636.728769226987
 10
7582.7222203672545
 20
1633.0087052716344
 10
7578.646000251977
 20
1629.6487756198471
 10
7574.2983886747625
 20
1626.6908593132114
 10
7569.736334910061
 20
1624.1768353933132
 10
7565.016788232319
 20
1622.1485829017406
 10
7560.196697915988
 20
1620.6479808800811
 10
7555.333013235516
 20
1619.7169083699212
 10
7550.48268346535
 20
1619.3972444128487
 10
7545.844162798916
 20
1619.7169083699207
 10
7541.596684766689
 20
1620.6479808800811
 10
7537.769589444806
 20
1622.1485829017402
 10
7534.392216909408
 20
1624.1768353933132
 10
7531.4939072366315
 20
1626.6908593132107
 10
7529.104000502618
 20
1629.6487756198474
 10
7527.251836783504
 20
1633.0087052716349
 10
7525.966756155429
 20
1636.7287692269865
 10
7525.278098694533
 20
1640.7670884443148
 10
7525.215204476953
 20
1645.081783882033
 10
7525.807413578828
 20
1649.630976498554
 10
7527.084066076298
 20
1654.3727872522895
 10
7528.948941518683
 20
1659.1198097300762
 10
7531.370049541011
 20
1663.6825078602453
 10
7534.290416828864
 20
1668.017335358593
 10
7537.653070067824
 20
1672.08074594092
 10
7541.401035943471
 20
1675.8291933230207
 10
7545.477341141388
 20
1679.2191312206985
 10
7549.825012347154
 20
1682.2070133497475
 10
7554.387076246354
 20
1684.7492934259667
 10
7559.106559524566
 20
1686.802425165156
 10
7563.926488867374
 20
1688.3228622831123
 10
7568.789890960358
 20
1689.2670584956336
 10
7573.639792489101
 20
1689.5914675185193
 97
0
 75
0
 76
1
 98
0
  0
LWPOLYLINE
  5
BB
330
17
100
AcDbEntity
  8
Okvir
 62
7
100
AcDbPolyline
 90
49
 70
1
 10
7573.6397924891
 20
1689.5914675185193
 10
7578.274043704027
 20
1689.2670584956336
 10
7582.5095891908295
 20
1688.3228622831123
 10
7586.319624383131
 20
1686.8024251651564
 10
7589.677344714552
 20
1684.7492934259674
 10
7592.555945618716
 20
1682.2070133497464
 10
7594.928622529244
 20
1679.2191312206985
 10
7596.768570879759
 20
1675.8291933230219
 10
7598.048986103881
 20
1672.0807459409193
 10
7598.743063635235
 20
1668.017335358593
 10
7598.82399890744
 20
1663.6825078602453
 10
7598.2649873541195
 20
1659.1198097300767
 10
7597.039224408895
 20
1654.3727872522895
 10
7595.17420072003
 20
1649.6309764985535
 10
7592.753039196985
 20
1645.081783882033
 10
7589.832689114208
 20
1640.7670884443148
 10
7586.470099746149
 20
1636.728769226987
 10
7582.7222203672545
 20
1633.0087052716344
 10
7578.646000251977
 20
1629.6487756198471
 10
7574.2983886747625
 20
1626.6908593132114
 10
7569.736334910061
 20
1624.1768353933132
 10
7565.016788232319
 20
1622.1485829017406
 10
7560.196697915988
 20
1620.6479808800811
 10
7555.333013235516
 20
1619.7169083699212
 10
7550.48268346535
 20
1619.3972444128487
 10
7545.844162798916
 20
1619.7169083699207
 10
7541.596684766689
 20
1620.6479808800811
 10
7537.769589444806
 20
1622.1485829017402
 10
7534.392216909408
 20
1624.1768353933132
 10
7531.4939072366315
 20
1626.6908593132107
 10
7529.104000502618
 20
1629.6487756198474
 10
7527.251836783504
 20
1633.0087052716349
 10
7525.966756155429
 20
1636.7287692269865
 10
7525.278098694533
 20
1640.7670884443148
 10
7525.215204476953
 20
1645.081783882033
 10
7525.807413578828
 20
1649.630976498554
 10
7527.084066076298
 20
1654.3727872522895
 10
7528.948941518683
 20
1659.1198097300762
 10
7531.370049541011
 20
1663.6825078602453
 10
7534.290416828864
 20
1668.017335358593
 10
7537.653070067824
 20
1672.08074594092
 10
7541.401035943471
 20
1675.8291933230207
 10
7545.477341141388
 20
1679.2191312206985
 10
7549.825012347154
 20
1682.2070133497475
 10
7554.387076246354
 20
1684.7492934259667
 10
7559.106559524566
 20
1686.802425165156
 10
7563.926488867374
 20
1688.3228622831123
 10
7568.789890960358
 20
1689.2670584956336
 10
7573.639792489101
 20
1689.5914675185193
  0
HATCH
  5
BC
330
17
100
AcDbEntity
  8
Okvir
 62
7
100
AcDbHatch
 10
0.0
 20
0.0
 30
0.0
210
0.0
220
0.0
230
1.0
  2
SOLID
 70
1
 71
0
 91
1
 92
3
 72
0
 73
1
 93
49
 10
7459.781834373681
 20
1602.7510868833422
 10
7464.420619008411
 20
1602.4314542725047
 10
7468.6690624104085
 20
1601.5004654308675
 10
7472.498695598912
 20
1599.999983844743
 10
7475.881049593159
 20
1597.971873000444
 10
7478.787655412391
 20
1595.457996384282
 10
7481.190044075848
 20
1592.5002174825725
 10
7483.059746602766
 20
1589.1403997816249
 10
7484.368294012386
 20
1585.4204067677524
 10
7485.087217323947
 20
1581.3821019272684
 10
7485.188047556687
 20
1577.0673487464858
 10
7484.642315729847
 20
1572.5180107117162
 10
7483.421552862665
 20
1567.7759513092724
 10
7481.556443384103
 20
1563.0335871648579
 10
7479.1352243536785
 20
1558.4839486304654
 10
7476.214839389377
 20
1554.1689034347548
 10
7472.852232109183
 20
1550.1303193063864
 10
7469.104346131082
 20
1546.4100639740186
 10
7465.02812507306
 20
1543.0500051663155
 10
7460.680512553102
 20
1540.092010611934
 10
7456.118452189192
 20
1537.5779480395354
 10
7451.398887599317
 20
1535.54968517778
 10
7446.578762401461
 20
1534.049089755328
 10
7441.71502021361
 20
1533.1180295008392
 10
7436.864604653748
 20
1532.7983721429737
 10
7432.225803756684
 20
1533.1180295008387
 10
7427.977314395922
 20
1534.049089755328
 10
7424.147609794567
 20
1535.5496851777805
 10
7420.76516317573
 20
1537.5779480395354
 10
7417.858447762516
 20
1540.0920106119333
 10
7415.455936778038
 20
1543.0500051663155
 10
7413.586103445402
 20
1546.4100639740197
 10
7412.277420987716
 20
1550.1303193063857
 10
7411.5583626280895
 20
1554.1689034347548
 10
7411.4574015896305
 20
1558.4839486304654
 10
7412.0030110954485
 20
1563.0335871648583
 10
7413.22366436865
 20
1567.7759513092724
 10
7415.0887978871815
 20
1572.518010711716
 10
7417.510083381052
 20
1577.067348746486
 10
7420.430568747581
 20
1581.382101927269
 10
7423.793301884088
 20
1585.4204067677524
 10
7427.541330687891
 20
1589.1403997816235
 10
7431.617703056311
 20
1592.5002174825718
 10
7435.965466886668
 20
1595.4579963842828
 10
7440.527670076281
 20
1597.971873000444
 10
7445.247360522469
 20
1599.999983844743
 10
7450.067586122552
 20
1601.5004654308675
 10
7454.93139477385
 20
1602.4314542725047
 10
7459.781834373681
 20
1602.7510868833422
 97
0
 75
0
 76
1
 98
0
  0
LWPOLYLINE
  5
BD
330
17
100
AcDbEntity
  8
Okvir
 62
7
100
AcDbPolyline
 90
49
 70
1
 10
7459.781834373681
 20
1602.7510868833422
 10
7464.420619008411
 20
1602.4314542725047
 10
7468.6690624104085
 20
1601.5004654308675
 10
7472.498695598912
 20
1599.999983844743
 10
7475.881049593159
 20
1597.971873000444
 10
7478.787655412391
 20
1595.457996384282
 10
7481.190044075848
 20
1592.5002174825725
 10
7483.059746602766
 20
1589.1403997816249
 10
7484.368294012386
 20
1585.4204067677524
 10
7485.087217323947
 20
1581.3821019272684
 10
7485.188047556687
 20
1577.0673487464858
 10
7484.642315729847
 20
1572.5180107117162
 10
7483.421552862665
 20
1567.7759513092724
 10
7481.556443384103
 20
1563.0335871648579
 10
7479.1352243536785
 20
1558.4839486304654
 10
7476.214839389377
 20
1554.1689034347548
 10
7472.852232109183
 20
1550.1303193063864
 10
7469.104346131082
 20
1546.4100639740186
 10
7465.02812507306
 20
1543.0500051663155
 10
7460.680512553102
 20
1540.092010611934
 10
7456.118452189192
 20
1537.5779480395354
 10
7451.398887599317
 20
1535.54968517778
 10
7446.578762401461
 20
1534.049089755328
 10
7441.71502021361
 20
1533.1180295008392
 10
7436.864604653748
 20
1532.7983721429737
 10
7432.225803756684
 20
1533.1180295008387
 10
7427.977314395922
 20
1534.049089755328
 10
7424.147609794567
 20
1535.5496851777805
 10
7420.76516317573
 20
1537.5779480395354
 10
7417.858447762516
 20
1540.0920106119333
 10
7415.455936778038
 20
1543.0500051663155
 10
7413.586103445402
 20
1546.4100639740197
 10
7412.277420987716
 20
1550.1303193063857
 10
7411.5583626280895
 20
1554.1689034347548
 10
7411.4574015896305
 20
1558.4839486304654
 10
7412.0030110954485
 20
1563.0335871648583
 10
7413.22366436865
 20
1567.7759513092724
 10
7415.0887978871815
 20
1572.518010711716
 10
7417.510083381052
 20
1577.067348746486
 10
7420.430568747581
 20
1581.382101927269
 10
7423.793301884088
 20
1585.4204067677524
 10
7427.541330687891
 20
1589.1403997816235
 10
7431.617703056311
 20
1592.5002174825718
 10
7435.965466886668
 20
1595.4579963842828
 10
7440.527670076281
 20
1597.971873000444
 10
7445.247360522469
 20
1599.999983844743
 10
7450.067586122552
 20
1601.5004654308675
 10
7454.93139477385
 20
1602.4314542725047
 10
7459.781834373681
 20
1602.7510868833422
  0
HATCH
  5
BE
330
17
100
AcDbEntity
  8
Okvir
 62
7
100
AcDbHatch
 10
0.0
 20
0.0
 30
0.0
210
0.0
220
0.0
230
1.0
  2
SOLID
 70
1
 71
0
 91
1
 92
3
 72
0
 73
1
 93
138
 10
7188.400961336981
 20
1589.9670268718135
 10
7184.757438524444
 20
1581.8999004875777
 10
7180.381027534727
 20
1574.2574684529854
 10
7175.332871909956
 20
1567.0924900171517
 10
7169.674115192263
 20
1560.4577244291936
 10
7163.465900923775
 20
1554.4059309382255
 10
7156.769372646621
 20
1548.9898687933662
 10
7149.64567390293
 20
1544.2622972437312
 10
7142.155948234831
 20
1540.2759755384347
 10
7134.361339184454
 20
1537.083662926595
 10
7126.322990293926
 20
1534.7381186573275
 10
7118.102045105376
 20
1533.2921019797484
 10
7109.759647160934
 20
1532.7983721429737
 10
7105.54317526903
 20
1532.9136412058376
 10
7101.5753912087175
 20
1533.2583463267954
 10
7097.853784924319
 20
1533.830834404388
 10
7094.3758463601625
 20
1534.629452337161
 10
7091.139065460572
 20
1535.6525470236584
 10
7088.140932169871
 20
1536.8984653624248
 10
7085.378936432387
 20
1538.3655542520037
 10
7082.850568192442
 20
1540.052160590939
 10
7080.553317394362
 20
1541.9566312777758
 10
7078.484673982473
 20
1544.0773132110576
 10
7076.6421279011
 20
1546.412553289328
 10
7075.023169094567
 20
1548.9606984111324
 10
7073.4041310975435
 20
1552.539172600556
 10
7072.261696815641
 20
1556.1630073848473
 10
7071.559841646984
 20
1559.8372101483121
 10
7071.262540989704
 20
1563.5667882752598
 10
7071.333770241927
 20
1567.3567491499948
 10
7071.737504801782
 20
1571.212100156828
 10
7072.437720067397
 20
1575.1378486800638
 10
7073.3983914369
 20
1579.1390021040108
 10
7074.58349430842
 20
1583.2205678129758
 10
7075.9570040800845
 20
1587.3875531912668
 10
7077.482896150022
 20
1591.6449656231903
 10
7079.12514591636
 20
1595.997812493053
 10
7079.12528544246
 20
1596.002696142221
 10
7079.126262125156
 20
1596.0167899280725
 10
7079.128913121047
 20
1596.039258108125
 10
7079.134075586729
 20
1596.0692649398989
 10
7079.142586678797
 20
1596.10597468091
 10
7079.155283553851
 20
1596.1485515886811
 10
7079.173003368488
 20
1596.1961599207293
 10
7079.196583279303
 20
1596.247963934573
 10
7079.226860442894
 20
1596.3031278877315
 10
7079.264672015857
 20
1596.3608160377244
 10
7079.31085515479
 20
1596.4201926420694
 10
7079.366247016291
 20
1596.4804219582861
 10
7081.295463081108
 20
1601.5472104451744
 10
7107.107942327068
 20
1666.4343584947692
 10
7110.001970056979
 20
1674.3955819769403
 10
7110.499631371567
 20
1675.4561005329665
 10
7111.029127262695
 20
1676.469000151076
 10
7111.592137700019
 20
1677.4367725034363
 10
7112.190342653197
 20
1678.3619092622182
 10
7112.825422091887
 20
1679.2469020995886
 10
7113.499055985746
 20
1680.0942426877184
 10
7114.212924304432
 20
1680.9064226987741
 10
7114.968707017601
 20
1681.6859338049248
 10
7115.768084094912
 20
1682.435267678341
 10
7116.612735506023
 20
1683.1569159911892
 10
7117.504341220589
 20
1683.8533704156391
 10
7118.4445812082695
 20
1684.5271226238597
 10
7119.238520774362
 20
1685.0494784082564
 10
7120.050845260923
 20
1685.5308262464453
 10
7120.879881768874
 20
1685.9703247394796
 10
7121.723957399137
 20
1686.3671324884153
 10
7122.5813992526355
 20
1686.7204080943068
 10
7123.450534430289
 20
1687.0293101582126
 10
7124.3296900330215
 20
1687.2929972811855
 10
7125.217193161753
 20
1687.510628064281
 10
7126.111370917407
 20
1687.6813611085556
 10
7127.010550400905
 20
1687.804355015064
 10
7127.9130587131685
 20
1687.8787683848616
 10
7128.817222955119
 20
1687.903759819004
 10
7129.7062790187665
 20
1687.8786293301337
 10
7130.562694459826
 20
1687.803242577244
 10
7131.383949323812
 20
1687.677606630912
 10
7132.16752365624
 20
1687.501728561719
 10
7132.910897502621
 20
1687.2756154402423
 10
7133.611550908471
 20
1686.9992743370638
 10
7134.266963919303
 20
1686.6727123227618
 10
7134.874616580631
 20
1686.2959364679148
 10
7135.431988937968
 20
1685.868953843103
 10
7135.936561036829
 20
1685.391771518906
 10
7136.3858129227265
 20
1684.8643965659026
 10
7136.777224641176
 20
1684.2868360546722
 10
7137.16441074571
 20
1683.6682885732846
 10
7137.482063358639
 20
1683.01786126365
 10
7137.731021050676
 20
1682.333896781965
 10
7137.912122392533
 20
1681.614737784426
 10
7138.026205954923
 20
1680.858726927228
 10
7138.074110308561
 20
1680.0642068665702
 10
7138.0566740241575
 20
1679.229520258647
 10
7137.974735672426
 20
1678.3530097596556
 10
7137.82913382408
 20
1677.433018025793
 10
7137.62070704983
 20
1676.4678877132555
 10
7137.350293920393
 20
1675.4559614782388
 10
7137.018733006478
 20
1674.3955819769403
 10
7133.883196911264
 20
1666.6754595946998
 10
7133.883196911264
 20
1666.6753200686003
 10
7133.883196911264
 20
1666.674343385904
 10
7133.883196911264
 20
1666.6716923900137
 10
7133.883196911264
 20
1666.6665299243327
 10
7133.883196911264
 20
1666.6580188322623
 10
7133.883196911264
 20
1666.6453219572081
 10
7133.883196911264
 20
1666.6276021425724
 10
7133.883196911264
 20
1666.6040222317577
 10
7133.883196911264
 20
1666.5737450681668
 10
7133.883196911264
 20
1666.5359334952027
 10
7133.883196911264
 20
1666.4897503562695
 10
7133.883196911264
 20
1666.4343584947692
 10
7122.78643733388
 20
1638.9366151415234
 10
7125.389520385988
 20
1640.1618435509472
 10
7128.011887736262
 20
1641.302557325205
 10
7130.6526979857545
 20
1642.3545579542686
 10
7133.311109735522
 20
1643.31364692811
 10
7135.986281586619
 20
1644.1756257367
 10
7138.677372140102
 20
1644.9362958700142
 10
7141.383539997026
 20
1645.5914588180228
 10
7144.103943758446
 20
1646.1369160706977
 10
7146.837742025417
 20
1646.5684691180122
 10
7149.584093398997
 20
1646.8819194499372
 10
7152.342156480238
 20
1647.073068556446
 10
7155.111089870197
 20
1647.137717927511
 10
7162.851145394102
 20
1646.625553911898
 10
7169.772087025452
 20
1645.1309328933253
 10
7175.848781682832
 20
1642.7166614141856
 10
7181.056096284826
 20
1639.4455460168776
 10
7185.368897750017
 20
1635.3803932437947
 10
7188.762052996992
 20
1630.584009637336
 10
7191.210428944332
 20
1625.1192017398946
 10
7192.688892510624
 20
1619.0487760938668
 10
7193.17231061445
 20
1612.435539241649
 10
7192.635550174396
 20
1605.3422977256378
 10
7191.053478109045
 20
1597.8318580882267
 10
7188.400961336981
 20
1589.9670268718135
 97
0
 75
0
 76
1
 98
0
  0
LWPOLYLINE
  5
BF
330
17
100
AcDbEntity
  8
Okvir
 62
7
100
AcDbPolyline
 90
138
 70
1
 10
7188.400961336981
 20
1589.9670268718135
 10
7184.757438524444
 20
1581.8999004875777
 10
7180.381027534727
 20
1574.2574684529854
 10
7175.332871909956
 20
1567.0924900171517
 10
7169.674115192263
 20
1560.4577244291936
 10
7163.465900923775
 20
1554.4059309382255
 10
7156.769372646621
 20
1548.9898687933662
 10
7149.64567390293
 20
1544.2622972437312
 10
7142.155948234831
 20
1540.2759755384347
 10
7134.361339184454
 20
1537.083662926595
 10
7126.322990293926
 20
1534.7381186573275
 10
7118.102045105376
 20
1533.2921019797484
 10
7109.759647160934
 20
1532.7983721429737
 10
7105.54317526903
 20
1532.9136412058376
 10
7101.5753912087175
 20
1533.2583463267954
 10
7097.853784924319
 20
1533.830834404388
 10
7094.3758463601625
 20
1534.629452337161
 10
7091.139065460572
 20
1535.6525470236584
 10
7088.140932169871
 20
1536.8984653624248
 10
7085.378936432387
 20
1538.3655542520037
 10
7082.850568192442
 20
1540.052160590939
 10
7080.553317394362
 20
1541.9566312777758
 10
7078.484673982473
 20
1544.0773132110576
 10
7076.6421279011
 20
1546.412553289328
 10
7075.023169094567
 20
1548.9606984111324
 10
7073.4041310975435
 20
1552.539172600556
 10
7072.261696815641
 20
1556.1630073848473
 10
7071.559841646984
 20
1559.8372101483121
 10
7071.262540989704
 20
1563.5667882752598
 10
7071.333770241927
 20
1567.3567491499948
 10
7071.737504801782
 20
1571.212100156828
 10
7072.437720067397
 20
1575.1378486800638
 10
7073.3983914369
 20
1579.1390021040108
 10
7074.58349430842
 20
1583.2205678129758
 10
7075.9570040800845
 20
1587.3875531912668
 10
7077.482896150022
 20
1591.6449656231903
 10
7079.12514591636
 20
1595.997812493053
 10
7079.12528544246
 20
1596.002696142221
 10
7079.126262125156
 20
1596.0167899280725
 10
7079.128913121047
 20
1596.039258108125
 10
7079.134075586729
 20
1596.0692649398989
 10
7079.142586678797
 20
1596.10597468091
 10
7079.155283553851
 20
1596.1485515886811
 10
7079.173003368488
 20
1596.1961599207293
 10
7079.196583279303
 20
1596.247963934573
 10
7079.226860442894
 20
1596.3031278877315
 10
7079.264672015857
 20
1596.3608160377244
 10
7079.31085515479
 20
1596.4201926420694
 10
7079.366247016291
 20
1596.4804219582861
 10
7081.295463081108
 20
1601.5472104451744
 10
7107.107942327068
 20
1666.4343584947692
 10
7110.001970056979
 20
1674.3955819769403
 10
7110.499631371567
 20
1675.4561005329665
 10
7111.029127262695
 20
1676.469000151076
 10
7111.592137700019
 20
1677.4367725034363
 10
7112.190342653197
 20
1678.3619092622182
 10
7112.825422091887
 20
1679.2469020995886
 10
7113.499055985746
 20
1680.0942426877184
 10
7114.212924304432
 20
1680.9064226987741
 10
7114.968707017601
 20
1681.6859338049248
 10
7115.768084094912
 20
1682.435267678341
 10
7116.612735506023
 20
1683.1569159911892
 10
7117.504341220589
 20
1683.8533704156391
 10
7118.4445812082695
 20
1684.5271226238597
 10
7119.238520774362
 20
1685.0494784082564
 10
7120.050845260923
 20
1685.5308262464453
 10
7120.879881768874
 20
1685.9703247394796
 10
7121.723957399137
 20
1686.3671324884153
 10
7122.5813992526355
 20
1686.7204080943068
 10
7123.450534430289
 20
1687.0293101582126
 10
7124.3296900330215
 20
1687.2929972811855
 10
7125.217193161753
 20
1687.510628064281
 10
7126.111370917407
 20
1687.6813611085556
 10
7127.010550400905
 20
1687.804355015064
 10
7127.9130587131685
 20
1687.8787683848616
 10
7128.817222955119
 20
1687.903759819004
 10
7129.7062790187665
 20
1687.8786293301337
 10
7130.562694459826
 20
1687.803242577244
 10
7131.383949323812
 20
1687.677606630912
 10
7132.16752365624
 20
1687.501728561719
 10
7132.910897502621
 20
1687.2756154402423
 10
7133.611550908471
 20
1686.9992743370638
 10
7134.266963919303
 20
1686.6727123227618
 10
7134.874616580631
 20
1686.2959364679148
 10
7135.431988937968
 20
1685.868953843103
 10
7135.936561036829
 20
1685.391771518906
 10
7136.3858129227265
 20
1684.8643965659026
 10
7136.777224641176
 20
1684.2868360546722
 10
7137.16441074571
 20
1683.6682885732846
 10
7137.482063358639
 20
1683.01786126365
 10
7137.731021050676
 20
1682.333896781965
 10
7137.912122392533
 20
1681.614737784426
 10
7138.026205954923
 20
1680.858726927228
 10
7138.074110308561
 20
1680.0642068665702
 10
7138.0566740241575
 20
1679.229520258647
 10
7137.974735672426
 20
1678.3530097596556
 10
7137.82913382408
 20
1677.433018025793
 10
7137.62070704983
 20
1676.4678877132555
 10
7137.350293920393
 20
1675.4559614782388
 10
7137.018733006478
 20
1674.3955819769403
 10
7133.883196911264
 20
1666.6754595946998
 10
7133.883196911264
 20
1666.6753200686003
 10
7133.883196911264
 20
1666.674343385904
 10
7133.883196911264
 20
1666.6716923900137
 10
7133.883196911264
 20
1666.6665299243327
 10
7133.883196911264
 20
1666.6580188322623
 10
7133.883196911264
 20
1666.6453219572081
 10
7133.883196911264
 20
1666.6276021425724
 10
7133.883196911264
 20
1666.6040222317577
 10
7133.883196911264
 20
1666.5737450681668
 10
7133.883196911264
 20
1666.5359334952027
 10
7133.883196911264
 20
1666.4897503562695
 10
7133.883196911264
 20
1666.4343584947692
 10
7122.78643733388
 20
1638.9366151415234
 10
7125.389520385988
 20
1640.1618435509472
 10
7128.011887736262
 20
1641.302557325205
 10
7130.6526979857545
 20
1642.3545579542686
 10
7133.311109735522
 20
1643.31364692811
 10
7135.986281586619
 20
1644.1756257367
 10
7138.677372140102
 20
1644.9362958700142
 10
7141.383539997026
 20
1645.5914588180228
 10
7144.103943758446
 20
1646.1369160706977
 10
7146.837742025417
 20
1646.5684691180122
 10
7149.584093398997
 20
1646.8819194499372
 10
7152.342156480238
 20
1647.073068556446
 10
7155.111089870197
 20
1647.137717927511
 10
7162.851145394102
 20
1646.625553911898
 10
7169.772087025452
 20
1645.1309328933253
 10
7175.848781682832
 20
1642.7166614141856
 10
7181.056096284826
 20
1639.4455460168776
 10
7185.368897750017
 20
1635.3803932437947
 10
7188.762052996992
 20
1630.584009637336
 10
7191.210428944332
 20
1625.1192017398946
 10
7192.688892510624
 20
1619.0487760938668
 10
7193.17231061445
 20
1612.435539241649
 10
7192.635550174396
 20
1605.3422977256378
 10
7191.053478109045
 20
1597.8318580882267
 10
7188.400961336981
 20
1589.9670268718135
  0
HATCH
  5
C0
330
17
100
AcDbEntity
  8
Okvir
 62
7
100
AcDbHatch
 10
0.0
 20
0.0
 30
0.0
210
0.0
220
0.0
230
1.0
  2
SOLID
 70
1
 71
0
 91
1
 92
3
 72
0
 73
1
 93
49
 10
7161.62448495667
 20
1589.9670268718135
 10
7163.093156713283
 20
1594.2139397290634
 10
7164.0073663630255
 20
1598.2496543806399
 10
7164.375492542447
 20
1602.0440360172815
 10
7164.205913888098
 20
1605.5669498297304
 10
7163.507009036525
 20
1608.7882610087247
 10
7162.287156624279
 20
1611.6778347450079
 10
7160.554735287909
 20
1614.2055362293186
 10
7158.318123663964
 20
1616.341230652397
 10
7155.585700388993
 20
1618.0547832049836
 10
7152.365844099545
 20
1619.3160590778198
 10
7148.6669334321705
 20
1620.0949234616448
 10
7144.497347023416
 20
1620.3612415471998
 10
7140.120361902655
 20
1620.0856602956164
 10
7135.814532264404
 20
1619.2823748377186
 10
7131.610847043912
 20
1617.9865726187782
 10
7127.540295176425
 20
1616.2334410840717
 10
7123.633865597192
 20
1614.0581676788734
 10
7119.922547241459
 20
1611.4959398484598
 10
7116.437329044473
 20
1608.5819450381032
 10
7113.209199941481
 20
1605.35137069308
 10
7110.269148867729
 20
1601.8394042586644
 10
7107.648164758466
 20
1598.081233180132
 10
7105.377236548938
 20
1594.112044902757
 10
7103.487353174392
 20
1589.9670268718135
 10
7101.820569676082
 20
1584.9557367764878
 10
7100.886699809039
 20
1580.4119024806976
 10
7100.634637425603
 20
1576.3304840754686
 10
7101.013276378112
 20
1572.706441651831
 10
7101.971510518908
 20
1569.5347353008096
 10
7103.458233700329
 20
1566.8103251134353
 10
7105.422339774716
 20
1564.5281711807334
 10
7107.812722594408
 20
1562.683233593732
 10
7110.578276011744
 20
1561.2704724434582
 10
7113.667893879065
 20
1560.2848478209416
 10
7117.030470048709
 20
1559.7213198172071
 10
7120.614898373017
 20
1559.5748485232848
 10
7124.314816597952
 20
1559.7951140399382
 10
7128.142124037216
 20
1560.4525619635124
 10
7132.043197416892
 20
1561.5421693544235
 10
7135.964413463069
 20
1563.0589132730906
 10
7139.8521489018285
 20
1564.9977707799312
 10
7143.652780459259
 20
1567.3537189353651
 10
7147.312684861444
 20
1570.121734799809
 10
7150.778238834468
 20
1573.2967954336805
 10
7153.995819104418
 20
1576.8738778973989
 10
7156.911802397378
 20
1580.8479592513818
 10
7159.472565439433
 20
1585.2140165560475
 10
7161.62448495667
 20
1589.9670268718135
 97
0
 75
0
 76
1
 98
0
  0
LWPOLYLINE
  5
C1
330
17
100
AcDbEntity
  8
Okvir
 62
7
100
AcDbPolyline
 90
49
 70
1
 10
7161.62448495667
 20
1589.9670268718135
 10
7163.093156713283
 20
1594.2139397290634
 10
7164.0073663630255
 20
1598.2496543806399
 10
7164.375492542447
 20
1602.0440360172815
 10
7164.205913888098
 20
1605.5669498297304
 10
7163.507009036525
 20
1608.7882610087247
 10
7162.287156624279
 20
1611.6778347450079
 10
7160.554735287909
 20
1614.2055362293186
 10
7158.318123663964
 20
1616.341230652397
 10
7155.585700388993
 20
1618.0547832049836
 10
7152.365844099545
 20
1619.3160590778198
 10
7148.6669334321705
 20
1620.0949234616448
 10
7144.497347023416
 20
1620.3612415471998
 10
7140.120361902655
 20
1620.0856602956164
 10
7135.814532264404
 20
1619.2823748377186
 10
7131.610847043912
 20
1617.9865726187782
 10
7127.540295176425
 20
1616.2334410840717
 10
7123.633865597192
 20
1614.0581676788734
 10
7119.922547241459
 20
1611.4959398484598
 10
7116.437329044473
 20
1608.5819450381032
 10
7113.209199941481
 20
1605.35137069308
 10
7110.269148867729
 20
1601.8394042586644
 10
7107.648164758466
 20
1598.081233180132
 10
7105.377236548938
 20
1594.112044902757
 10
7103.487353174392
 20
1589.9670268718135
 10
7101.820569676082
 20
1584.9557367764878
 10
7100.886699809039
 20
1580.4119024806976
 10
7100.634637425603
 20
1576.3304840754686
 10
7101.013276378112
 20
1572.706441651831
 10
7101.971510518908
 20
1569.5347353008096
 10
7103.458233700329
 20
1566.8103251134353
 10
7105.422339774716
 20
1564.5281711807334
 10
7107.812722594408
 20
1562.683233593732
 10
7110.578276011744
 20
1561.2704724434582
 10
7113.667893879065
 20
1560.2848478209416
 10
7117.030470048709
 20
1559.7213198172071
 10
7120.614898373017
 20
1559.5748485232848
 10
7124.314816597952
 20
1559.7951140399382
 10
7128.142124037216
 20
1560.4525619635124
 10
7132.043197416892
 20
1561.5421693544235
 10
7135.964413463069
 20
1563.0589132730906
 10
7139.8521489018285
 20
1564.9977707799312
 10
7143.652780459259
 20
1567.3537189353651
 10
7147.312684861444
 20
1570.121734799809
 10
7150.778238834468
 20
1573.2967954336805
 10
7153.995819104418
 20
1576.8738778973989
 10
7156.911802397378
 20
1580.8479592513818
 10
7159.472565439433
 20
1585.2140165560475
 10
7161.62448495667
 20
1589.9670268718135
  0
HATCH
  5
C2
330
17
100
AcDbEntity
  8
Okvir
 62
7
100
AcDbHatch
 10
0.0
 20
0.0
 30
0.0
210
0.0
220
0.0
230
1.0
  2
SOLID
 70
1
 71
0
 91
1
 92
3
 72
0
 73
1
 93
201
 10
7283.927497815607
 20
1647.137717927511
 10
7281.214095341876
 20
1647.0730685564454
 10
7278.503188782661
 20
1646.8819194499376
 10
7275.797291021869
 20
1646.5684691180115
 10
7273.098914943407
 20
1646.136916070698
 10
7270.410573431182
 20
1645.5914588180217
 10
7267.7347793691
 20
1644.9362958700142
 10
7265.074045641069
 20
1644.1756257367006
 10
7262.430885130995
 20
1643.313646928109
 10
7259.807810722785
 20
1642.354557954268
 10
7257.207335300346
 20
1641.3025573252048
 10
7254.631971747584
 20
1640.1618435509474
 10
7252.084232948408
 20
1638.9366151415234
 10
7254.979482474434
 20
1646.6563302583922
 10
7266.7987308208685
 20
1676.08451147257
 10
7267.185637637517
 20
1677.094414107772
 10
7267.501335235251
 20
1678.0733843723617
 10
7267.744986457473
 20
1679.020576625047
 10
7267.915754147587
 20
1679.9351452245353
 10
7268.012801148994
 20
1680.8162445295345
 10
7268.035290305099
 20
1681.6630288987535
 10
7267.982384459304
 20
1682.4746526908998
 10
7267.853246455012
 20
1683.25027026468
 10
7267.647039135626
 20
1683.9890359788023
 10
7267.362925344551
 20
1684.6901041919755
 10
7267.000067925186
 20
1685.3526292629058
 10
7266.557629720937
 20
1685.9757655503017
 10
7266.166234264821
 20
1686.5533020215614
 10
7265.717028337689
 20
1687.0806105111196
 10
7265.212527651679
 20
1687.5576924330896
 10
7264.655247918932
 20
1687.9845492015893
 10
7264.047704851584
 20
1688.3611822307316
 10
7263.392414161775
 20
1688.6875929346363
 10
7262.691891561643
 20
1688.9637827274173
 10
7261.948652763328
 20
1689.189753023189
 10
7261.1652134789665
 20
1689.3655052360705
 10
7260.344089420699
 20
1689.4910407801747
 10
7259.487796300662
 20
1689.566361069619
 10
7258.598849830995
 20
1689.5914675185193
 10
7257.698923458631
 20
1689.566500595718
 10
7256.808262373467
 20
1689.4921569889707
 10
7255.926018105982
 20
1689.3692724407563
 10
7255.051342186651
 20
1689.1986826935574
 10
7254.183386145949
 20
1688.9812234898534
 10
7253.321301514353
 20
1688.7177305721275
 10
7252.46423982234
 20
1688.4090396828597
 10
7251.611352600383
 20
1688.0559865645312
 10
7250.761791378961
 20
1687.6594069596229
 10
7249.914707688549
 20
1687.2201366106162
 10
7249.0692530596225
 20
1686.7390112599924
 10
7248.224579022659
 20
1686.2168666502323
 10
7247.284502129676
 20
1685.5383385013354
 10
7246.393936261648
 20
1684.8296302914719
 10
7245.552027292589
 20
1684.0907505053347
 10
7244.75792109651
 20
1683.321707627622
 10
7244.010763547422
 20
1682.5225101430262
 10
7243.309700519342
 20
1681.6931665362454
 10
7242.653877886279
 20
1680.833685291972
 10
7242.042441522246
 20
1679.9440748949025
 10
7241.4745373012565
 20
1679.024343829733
 10
7240.949311097323
 20
1678.0745005811575
 10
7240.465908784457
 20
1677.0945536338713
 10
7240.023476236672
 20
1676.08451147257
 10
7188.642469702283
 20
1546.0642270889923
 10
7188.260081692907
 20
1545.0540449302193
 10
7187.956467008253
 20
1544.0750185723678
 10
7187.729947092777
 20
1543.1279455767867
 10
7187.57884339094
 20
1542.2136235048326
 10
7187.5014773471985
 20
1541.3328499178547
 10
7187.496170406012
 20
1540.4864223772083
 10
7187.561244011838
 20
1539.6751384442443
 10
7187.695019609137
 20
1538.8997956803155
 10
7187.895818642365
 20
1538.161191646775
 10
7188.161962555982
 20
1537.460123904974
 10
7188.491772794445
 20
1536.797390016266
 10
7188.883570802214
 20
1536.1737875420038
 10
7189.325864530957
 20
1535.6514557975759
 10
7189.8082951105325
 20
1535.1701744228344
 10
7190.3308837526765
 20
1534.7307763320273
 10
7190.893651669129
 20
1534.3340944394047
 10
7191.496620071626
 20
1533.9809616592142
 10
7192.139810171907
 20
1533.6722109057082
 10
7192.8232431817105
 20
1533.4086750931347
 10
7193.546940312773
 20
1533.191187135741
 10
7194.310922776834
 20
1533.0205799477797
 10
7195.115211785631
 20
1532.897686443498
 10
7195.959828550902
 20
1532.823339537147
 10
7196.844794284385
 20
1532.7983721429737
 10
7197.698449606946
 20
1532.8233395371458
 10
7198.5688636167215
 20
1532.8976864434987
 10
7199.452686273207
 20
1533.0205799477794
 10
7200.3465675359
 20
1533.191187135741
 10
7201.247157364295
 20
1533.4086750931338
 10
7202.15110571789
 20
1533.6722109057082
 10
7203.055062556179
 20
1533.980961659215
 10
7203.95567783866
 20
1534.3340944394042
 10
7204.849601524829
 20
1534.7307763320273
 10
7205.733483574181
 20
1535.1701744228344
 10
7206.603973946214
 20
1535.651455797576
 10
7207.457722600423
 20
1536.1737875420038
 10
7208.342337397484
 20
1536.7973900162656
 10
7209.186703628559
 20
1537.4601239049737
 10
7209.990824121881
 20
1538.1611916467741
 10
7210.754701705681
 20
1538.8997956803155
 10
7211.478339208192
 20
1539.6751384442439
 10
7212.161739457643
 20
1540.4864223772088
 10
7212.804905282269
 20
1541.3328499178554
 10
7213.4078395103
 20
1542.2136235048324
 10
7213.970544969967
 20
1543.1279455767874
 10
7214.493024489503
 20
1544.075018572367
 10
7214.97528089714
 20
1545.05404493022
 10
7215.417317021108
 20
1546.0642270889923
 10
7234.233791715363
 20
1593.8262735321907
 10
7236.269679725593
 20
1597.5408214928927
 10
7238.619617417193
 20
1601.068600099632
 10
7241.25597579423
 20
1604.3836419426252
 10
7244.151125860773
 20
1607.4599796120942
 10
7247.277438620889
 20
1610.271645698255
 10
7250.607285078647
 20
1612.79267279133
 10
7254.113036238113
 20
1614.9970934815362
 10
7257.767063103356
 20
1616.8589403590922
 10
7261.541736678444
 20
1618.3522460142176
 10
7265.409427967445
 20
1619.451043037131
 10
7269.342507974426
 20
1620.1293640180522
 10
7273.313347703455
 20
1620.3612415471998
 10
7277.533837805613
 20
1620.0949234616446
 10
7281.26692741796
 20
1619.3160590778198
 10
7284.507570975058
 20
1618.0547832049836
 10
7287.250722911474
 20
1616.3412306523962
 10
7289.491337661771
 20
1614.2055362293174
 10
7291.224369660512
 20
1611.6778347450079
 10
7292.444773342262
 20
1608.7882610087254
 10
7293.147503141586
 20
1605.5669498297298
 10
7293.327513493047
 20
1602.0440360172815
 10
7292.97975883121
 20
1598.2496543806396
 10
7292.099193590638
 20
1594.2139397290637
 10
7290.680772205897
 20
1589.9670268718135
 10
7290.680772205897
 20
1589.9670268718135
 10
7273.794735372574
 20
1546.3053281889229
 10
7273.412689579239
 20
1545.2398953445513
 10
7273.109298324893
 20
1544.2156740790754
 10
7272.882900023382
 20
1543.2334718526567
 10
7272.731833088557
 20
1542.2940961254617
 10
7272.654435934267
 20
1541.398354357651
 10
7272.64904697436
 20
1540.5470540093913
 10
7272.714004622685
 20
1539.7410025408449
 10
7272.847647293091
 20
1538.9810074121744
 10
7273.048313399428
 20
1538.267876083545
 10
7273.314341355542
 20
1537.6024160151192
 10
7273.644069575285
 20
1536.985434667061
 10
7274.035836472504
 20
1536.4177394995347
 10
7274.478262421082
 20
1535.8393609222712
 10
7274.960871886315
 20
1535.3113503241839
 10
7275.483664868203
 20
1534.833693564111
 10
7276.046641366746
 20
1534.4063765008948
 10
7276.649801381945
 20
1534.0293849933773
 10
7277.293144913798
 20
1533.7027049003996
 10
7277.976671962307
 20
1533.426322080803
 10
7278.70038252747
 20
1533.2002223934276
 10
7279.464276609288
 20
1533.0243916971156
 10
7280.268354207763
 20
1532.8988158507088
 10
7281.1126153228915
 20
1532.823480713048
 10
7281.997059954676
 20
1532.7983721429737
 10
7282.901596816159
 20
1532.8234807130475
 10
7283.806136505875
 20
1532.898815850709
 10
7284.710681852053
 20
1533.0243916971156
 10
7285.615235682928
 20
1533.200222393428
 10
7286.519800826729
 20
1533.4263220808023
 10
7287.424380111688
 20
1533.7027049003996
 10
7288.328976366039
 20
1534.0293849933778
 10
7289.2335924180115
 20
1534.4063765008948
 10
7290.138231095838
 20
1534.833693564111
 10
7291.04289522775
 20
1535.3113503241834
 10
7291.94758764198
 20
1535.839360922272
 10
7292.852311166758
 20
1536.4177394995347
 10
7293.736623343022
 20
1536.985434667061
 10
7294.57992333073
 20
1537.6024160151192
 10
7295.381365488587
 20
1538.2678760835443
 10
7296.140104175304
 20
1538.9810074121744
 10
7296.855293749587
 20
1539.7410025408435
 10
7297.526088570145
 20
1540.5470540093909
 10
7298.151642995685
 20
1541.3983543576512
 10
7298.731111384914
 20
1542.294096125461
 10
7299.26364809654
 20
1543.2334718526574
 10
7299.748407489273
 20
1544.2156740790751
 10
7300.184543921818
 20
1545.2398953445513
 10
7300.571211752885
 20
1546.3053281889229
 10
7317.458470382322
 20
1589.9670268718135
 10
7317.458470382322
 20
1589.9670268718135
 10
7320.060114100158
 20
1597.8318580882267
 10
7321.608085939655
 20
1605.3422977256378
 10
7322.124166113493
 20
1612.4355392416494
 10
7321.630134834351
 20
1619.0487760938677
 10
7320.14777231491
 20
1625.119201739894
 10
7317.6988587678525
 20
1630.5840096373358
 10
7314.305174405856
 20
1635.380393243796
 10
7309.988499441601
 20
1639.4455460168776
 10
7304.770614087768
 20
1642.7166614141865
 10
7298.673298557038
 20
1645.130932893325
 10
7291.718333062091
 20
1646.6255539118981
 10
7283.927497815607
 20
1647.137717927511
 97
0
 75
0
 76
1
 98
0
  0
LWPOLYLINE
  5
C3
330
17
100
AcDbEntity
  8
Okvir
 62
7
100
AcDbPolyline
 90
201
 70
1
 10
7283.927497815607
 20
1647.137717927511
 10
7281.214095341876
 20
1647.0730685564454
 10
7278.503188782661
 20
1646.8819194499376
 10
7275.797291021869
 20
1646.5684691180115
 10
7273.098914943407
 20
1646.136916070698
 10
7270.410573431182
 20
1645.5914588180217
 10
7267.7347793691
 20
1644.9362958700142
 10
7265.074045641069
 20
1644.1756257367006
 10
7262.430885130995
 20
1643.313646928109
 10
7259.807810722785
 20
1642.354557954268
 10
7257.207335300346
 20
1641.3025573252048
 10
7254.631971747584
 20
1640.1618435509474
 10
7252.084232948408
 20
1638.9366151415234
 10
7254.979482474434
 20
1646.6563302583922
 10
7266.7987308208685
 20
1676.08451147257
 10
7267.185637637517
 20
1677.094414107772
 10
7267.501335235251
 20
1678.0733843723617
 10
7267.744986457473
 20
1679.020576625047
 10
7267.915754147587
 20
1679.9351452245353
 10
7268.012801148994
 20
1680.8162445295345
 10
7268.035290305099
 20
1681.6630288987535
 10
7267.982384459304
 20
1682.4746526908998
 10
7267.853246455012
 20
1683.25027026468
 10
7267.647039135626
 20
1683.9890359788023
 10
7267.362925344551
 20
1684.6901041919755
 10
7267.000067925186
 20
1685.3526292629058
 10
7266.557629720937
 20
1685.9757655503017
 10
7266.166234264821
 20
1686.5533020215614
 10
7265.717028337689
 20
1687.0806105111196
 10
7265.212527651679
 20
1687.5576924330896
 10
7264.655247918932
 20
1687.9845492015893
 10
7264.047704851584
 20
1688.3611822307316
 10
7263.392414161775
 20
1688.6875929346363
 10
7262.691891561643
 20
1688.9637827274173
 10
7261.948652763328
 20
1689.189753023189
 10
7261.1652134789665
 20
1689.3655052360705
 10
7260.344089420699
 20
1689.4910407801747
 10
7259.487796300662
 20
1689.566361069619
 10
7258.598849830995
 20
1689.5914675185193
 10
7257.698923458631
 20
1689.566500595718
 10
7256.808262373467
 20
1689.4921569889707
 10
7255.926018105982
 20
1689.3692724407563
 10
7255.051342186651
 20
1689.1986826935574
 10
7254.183386145949
 20
1688.9812234898534
 10
7253.321301514353
 20
1688.7177305721275
 10
7252.46423982234
 20
1688.4090396828597
 10
7251.611352600383
 20
1688.0559865645312
 10
7250.761791378961
 20
1687.6594069596229
 10
7249.914707688549
 20
1687.2201366106162
 10
7249.0692530596225
 20
1686.7390112599924
 10
7248.224579022659
 20
1686.2168666502323
 10
7247.284502129676
 20
1685.5383385013354
 10
7246.393936261648
 20
1684.8296302914719
 10
7245.552027292589
 20
1684.0907505053347
 10
7244.75792109651
 20
1683.321707627622
 10
7244.010763547422
 20
1682.5225101430262
 10
7243.309700519342
 20
1681.6931665362454
 10
7242.653877886279
 20
1680.833685291972
 10
7242.042441522246
 20
1679.9440748949025
 10
7241.4745373012565
 20
1679.024343829733
 10
7240.949311097323
 20
1678.0745005811575
 10
7240.465908784457
 20
1677.0945536338713
 10
7240.023476236672
 20
1676.08451147257
 10
7188.642469702283
 20
1546.0642270889923
 10
7188.260081692907
 20
1545.0540449302193
 10
7187.956467008253
 20
1544.0750185723678
 10
7187.729947092777
 20
1543.1279455767867
 10
7187.57884339094
 20
1542.2136235048326
 10
7187.5014773471985
 20
1541.3328499178547
 10
7187.496170406012
 20
1540.4864223772083
 10
7187.561244011838
 20
1539.6751384442443
 10
7187.695019609137
 20
1538.8997956803155
 10
7187.895818642365
 20
1538.161191646775
 10
7188.161962555982
 20
1537.460123904974
 10
7188.491772794445
 20
1536.797390016266
 10
7188.883570802214
 20
1536.1737875420038
 10
7189.325864530957
 20
1535.6514557975759
 10
7189.8082951105325
 20
1535.1701744228344
 10
7190.3308837526765
 20
1534.7307763320273
 10
7190.893651669129
 20
1534.3340944394047
 10
7191.496620071626
 20
1533.9809616592142
 10
7192.139810171907
 20
1533.6722109057082
 10
7192.8232431817105
 20
1533.4086750931347
 10
7193.546940312773
 20
1533.191187135741
 10
7194.310922776834
 20
1533.0205799477797
 10
7195.115211785631
 20
1532.897686443498
 10
7195.959828550902
 20
1532.823339537147
 10
7196.844794284385
 20
1532.7983721429737
 10
7197.698449606946
 20
1532.8233395371458
 10
7198.5688636167215
 20
1532.8976864434987
 10
7199.452686273207
 20
1533.0205799477794
 10
7200.3465675359
 20
1533.191187135741
 10
7201.247157364295
 20
1533.4086750931338
 10
7202.15110571789
 20
1533.6722109057082
 10
7203.055062556179
 20
1533.980961659215
 10
7203.95567783866
 20
1534.3340944394042
 10
7204.849601524829
 20
1534.7307763320273
 10
7205.733483574181
 20
1535.1701744228344
 10
7206.603973946214
 20
1535.651455797576
 10
7207.457722600423
 20
1536.1737875420038
 10
7208.342337397484
 20
1536.7973900162656
 10
7209.186703628559
 20
1537.4601239049737
 10
7209.990824121881
 20
1538.1611916467741
 10
7210.754701705681
 20
1538.8997956803155
 10
7211.478339208192
 20
1539.6751384442439
 10
7212.161739457643
 20
1540.4864223772088
 10
7212.804905282269
 20
1541.3328499178554
 10
7213.4078395103
 20
1542.2136235048324
 10
7213.970544969967
 20
1543.1279455767874
 10
7214.493024489503
 20
1544.075018572367
 10
7214.97528089714
 20
1545.05404493022
 10
7215.417317021108
 20
1546.0642270889923
 10
7234.233791715363
 20
1593.8262735321907
 10
7236.269679725593
 20
1597.5408214928927
 10
7238.619617417193
 20
1601.068600099632
 10
7241.25597579423
 20
1604.3836419426252
 10
7244.151125860773
 20
1607.4599796120942
 10
7247.277438620889
 20
1610.271645698255
 10
7250.607285078647
 20
1612.79267279133
 10
7254.113036238113
 20
1614.9970934815362
 10
7257.767063103356
 20
1616.8589403590922
 10
7261.541736678444
 20
1618.3522460142176
 10
7265.409427967445
 20
1619.451043037131
 10
7269.342507974426
 20
1620.1293640180522
 10
7273.313347703455
 20
1620.3612415471998
 10
7277.533837805613
 20
1620.0949234616446
 10
7281.26692741796
 20
1619.3160590778198
 10
7284.507570975058
 20
1618.0547832049836
 10
7287.250722911474
 20
1616.3412306523962
 10
7289.491337661771
 20
1614.2055362293174
 10
7291.224369660512
 20
1611.6778347450079
 10
7292.444773342262
 20
1608.7882610087254
 10
7293.147503141586
 20
1605.5669498297298
 10
7293.327513493047
 20
1602.0440360172815
 10
7292.97975883121
 20
1598.2496543806396
 10
7292.099193590638
 20
1594.2139397290637
 10
7290.680772205897
 20
1589.9670268718135
 10
7290.680772205897
 20
1589.9670268718135
 10
7273.794735372574
 20
1546.3053281889229
 10
7273.412689579239
 20
1545.2398953445513
 10
7273.109298324893
 20
1544.2156740790754
 10
7272.882900023382
 20
1543.2334718526567
 10
7272.731833088557
 20
1542.2940961254617
 10
7272.654435934267
 20
1541.398354357651
 10
7272.64904697436
 20
1540.5470540093913
 10
7272.714004622685
 20
1539.7410025408449
 10
7272.847647293091
 20
1538.9810074121744
 10
7273.048313399428
 20
1538.267876083545
 10
7273.314341355542
 20
1537.6024160151192
 10
7273.644069575285
 20
1536.985434667061
 10
7274.035836472504
 20
1536.4177394995347
 10
7274.478262421082
 20
1535.8393609222712
 10
7274.960871886315
 20
1535.3113503241839
 10
7275.483664868203
 20
1534.833693564111
 10
7276.046641366746
 20
1534.4063765008948
 10
7276.649801381945
 20
1534.0293849933773
 10
7277.293144913798
 20
1533.7027049003996
 10
7277.976671962307
 20
1533.426322080803
 10
7278.70038252747
 20
1533.2002223934276
 10
7279.464276609288
 20
1533.0243916971156
 10
7280.268354207763
 20
1532.8988158507088
 10
7281.1126153228915
 20
1532.823480713048
 10
7281.997059954676
 20
1532.7983721429737
 10
7282.901596816159
 20
1532.8234807130475
 10
7283.806136505875
 20
1532.898815850709
 10
7284.710681852053
 20
1533.0243916971156
 10
7285.615235682928
 20
1533.200222393428
 10
7286.519800826729
 20
1533.4263220808023
 10
7287.424380111688
 20
1533.7027049003996
 10
7288.328976366039
 20
1534.0293849933778
 10
7289.2335924180115
 20
1534.4063765008948
 10
7290.138231095838
 20
1534.833693564111
 10
7291.04289522775
 20
1535.3113503241834
 10
7291.94758764198
 20
1535.839360922272
 10
7292.852311166758
 20
1536.4177394995347
 10
7293.736623343022
 20
1536.985434667061
 10
7294.57992333073
 20
1537.6024160151192
 10
7295.381365488587
 20
1538.2678760835443
 10
7296.140104175304
 20
1538.9810074121744
 10
7296.855293749587
 20
1539.7410025408435
 10
7297.526088570145
 20
1540.5470540093909
 10
7298.151642995685
 20
1541.3983543576512
 10
7298.731111384914
 20
1542.294096125461
 10
7299.26364809654
 20
1543.2334718526574
 10
7299.748407489273
 20
1544.2156740790751
 10
7300.184543921818
 20
1545.2398953445513
 10
7300.571211752885
 20
1546.3053281889229
 10
7317.458470382322
 20
1589.9670268718135
 10
7317.458470382322
 20
1589.9670268718135
 10
7320.060114100158
 20
1597.8318580882267
 10
7321.608085939655
 20
1605.3422977256378
 10
7322.124166113493
 20
1612.4355392416494
 10
7321.630134834351
 20
1619.0487760938677
 10
7320.14777231491
 20
1625.119201739894
 10
7317.6988587678525
 20
1630.5840096373358
 10
7314.305174405856
 20
1635.380393243796
 10
7309.988499441601
 20
1639.4455460168776
 10
7304.770614087768
 20
1642.7166614141865
 10
7298.673298557038
 20
1645.130932893325
 10
7291.718333062091
 20
1646.6255539118981
 10
7283.927497815607
 20
1647.137717927511
  0
TEXT
  5
C4
330
17
100
AcDbEntity
  8
Tekst
 62
7
100
AcDbText
 10
7770.0
 20
1602.0
 30
0.0
 40
90.0
  1
BH TELECOM d.d. SARAJEVO
  7
20
 11
7770.0
 21
1602.0
 31
0.0
100
AcDbText
  0
TEXT
  5
C5
330
17
100
AcDbEntity
  8
Okvir
 62
8
100
AcDbText
 10
7770.0
 20
1488.0
 30
0.0
 40
66.0
  1
Izvršna direkcija za tehnologiju i razvoj servisa
  7
20
 11
7770.0
 21
1488.0
 31
0.0
100
AcDbText
  0
TEXT
  5
C6
330
17
100
AcDbEntity
  8
Okvir
 62
8
100
AcDbText
 10
6990.0
 20
1362.0
 30
0.0
 40
57.0
  1
Investitor:
  7
20
 11
6990.0
 21
1362.0
 31
0.0
100
AcDbText
  0
TEXT
  5
C7
330
17
100
AcDbEntity
  8
Tekst
 62
7
100
AcDbText
 10
6990.0
 20
1248.0
 30
0.0
 40
78.0
  1
BH Telecom d.d. Sarajevo, Franca Lehara 7, Sarajevo
  7
20
 11
6990.0
 21
1248.0
 31
0.0
100
AcDbText
  0
TEXT
  5
C8
330
17
100
AcDbEntity
  8
Okvir
 62
8
100
AcDbText
 10
6990.0
 20
1122.0
 30
0.0
 40
57.0
  1
Objekat:
  7
20
 11
6990.0
 21
1122.0
 31
0.0
100
AcDbText
  0
TEXT
  5
C9
330
17
100
AcDbEntity
  8
Tekst
 62
7
100
AcDbText
 10
6990.0
 20
1008.0
 30
0.0
 40
78.0
  1
BS SJEDNICA (Bileća) — autonomni hibridni sistem napajanja
  7
20
 11
6990.0
 21
1008.0
 31
0.0
100
AcDbText
  0
TEXT
  5
CA
330
17
100
AcDbEntity
  8
Okvir
 62
8
100
AcDbText
 10
6990.0
 20
882.0
 30
0.0
 40
57.0
  1
Faza:
  7
20
 11
6990.0
 21
882.0
 31
0.0
100
AcDbText
  0
TEXT
  5
CB
330
17
100
AcDbEntity
  8
Tekst
 62
7
100
AcDbText
 10
6990.0
 20
768.0
 30
0.0
 40
78.0
  1
Tenderska dokumentacija — Prilog III
  7
20
 11
6990.0
 21
768.0
 31
0.0
100
AcDbText
  0
TEXT
  5
CC
330
17
100
AcDbEntity
  8
Okvir
 62
8
100
AcDbText
 10
10530.0
 20
882.0
 30
0.0
 40
57.0
  1
šifra projekta:
  7
20
 11
10530.0
 21
882.0
 31
0.0
100
AcDbText
  0
TEXT
  5
CD
330
17
100
AcDbEntity
  8
Tekst
 62
7
100
AcDbText
 10
10530.0
 20
768.0
 30
0.0
 40
78.0
  1
BHT-SJEDNICA-2026
  7
20
 11
10530.0
 21
768.0
 31
0.0
100
AcDbText
  0
TEXT
  5
CE
330
17
100
AcDbEntity
  8
Okvir
 62
8
100
AcDbText
 10
6990.0
 20
642.0
 30
0.0
 40
57.0
  1
Naziv crteža:
  7
20
 11
6990.0
 21
642.0
 31
0.0
100
AcDbText
  0
TEXT
  5
CF
330
17
100
AcDbEntity
  8
Tekst
 62
7
100
AcDbText
 10
6990.0
 20
522.0
 30
0.0
 40
102.0
  1
Presjek A–A kroz nosač FN panela
  7
20
 11
6990.0
 21
522.0
 31
0.0
100
AcDbText
  0
TEXT
  5
D0
330
17
100
AcDbEntity
  8
Okvir
 62
8
100
AcDbText
 10
10530.0
 20
642.0
 30
0.0
 40
57.0
  1
razmjera:
  7
20
 11
10530.0
 21
642.0
 31
0.0
100
AcDbText
  0
TEXT
  5
D1
330
17
100
AcDbEntity
  8
Tekst
 62
7
100
AcDbText
 10
10530.0
 20
522.0
 30
0.0
 40
102.0
  1
1:30
  7
20
 11
10530.0
 21
522.0
 31
0.0
100
AcDbText
  0
TEXT
  5
D2
330
17
100
AcDbEntity
  8
Okvir
 62
8
100
AcDbText
 10
6990.0
 20
426.0
 30
0.0
 40
57.0
  1
Projektant:
  7
20
 11
6990.0
 21
426.0
 31
0.0
100
AcDbText
  0
TEXT
  5
D3
330
17
100
AcDbEntity
  8
Tekst
 62
7
100
AcDbText
 10
6990.0
 20
330.0
 30
0.0
 40
69.0
  1
Rusmir Skopljak, dipl. ing. el.
  7
20
 11
6990.0
 21
330.0
 31
0.0
100
AcDbText
  0
TEXT
  5
D4
330
17
100
AcDbEntity
  8
Okvir
 62
8
100
AcDbText
 10
8850.0
 20
426.0
 30
0.0
 40
57.0
  1
ovjerio:
  7
20
 11
8850.0
 21
426.0
 31
0.0
100
AcDbText
  0
TEXT
  5
D5
330
17
100
AcDbEntity
  8
Tekst
 62
7
100
AcDbText
 10
8850.0
 20
330.0
 30
0.0
 40
69.0
  1
Rusmir Skopljak, dipl. ing. el.
  7
20
 11
8850.0
 21
330.0
 31
0.0
100
AcDbText
  0
TEXT
  5
D6
330
17
100
AcDbEntity
  8
Okvir
 62
8
100
AcDbText
 10
10530.0
 20
426.0
 30
0.0
 40
57.0
  1
godina / broj crteža:
  7
20
 11
10530.0
 21
426.0
 31
0.0
100
AcDbText
  0
TEXT
  5
D7
330
17
100
AcDbEntity
  8
Tekst
 62
7
100
AcDbText
 10
10530.0
 20
330.0
 30
0.0
 40
84.0
  1
2026.    S-03
  7
20
 11
10530.0
 21
330.0
 31
0.0
100
AcDbText
  0
LINE
  5
D8
330
17
100
AcDbEntity
  8
Objekat
 62
8
370
50
100
AcDbLine
 10
1800.0
 20
5200.0
 30
0.0
 11
13700.0
 21
5200.0
 31
0.0
  0
LINE
  5
D9
330
17
100
AcDbEntity
  8
Objekat
 62
8
100
AcDbLine
 10
2000.0
 20
5200.0
 30
0.0
 11
1850.0
 21
5050.0
 31
0.0
  0
LINE
  5
DA
330
17
100
AcDbEntity
  8
Objekat
 62
8
100
AcDbLine
 10
2450.0
 20
5200.0
 30
0.0
 11
2300.0
 21
5050.0
 31
0.0
  0
LINE
  5
DB
330
17
100
AcDbEntity
  8
Objekat
 62
8
100
AcDbLine
 10
2900.0
 20
5200.0
 30
0.0
 11
2750.0
 21
5050.0
 31
0.0
  0
LINE
  5
DC
330
17
100
AcDbEntity
  8
Objekat
 62
8
100
AcDbLine
 10
3350.0
 20
5200.0
 30
0.0
 11
3200.0
 21
5050.0
 31
0.0
  0
LINE
  5
DD
330
17
100
AcDbEntity
  8
Objekat
 62
8
100
AcDbLine
 10
3800.0
 20
5200.0
 30
0.0
 11
3650.0
 21
5050.0
 31
0.0
  0
LINE
  5
DE
330
17
100
AcDbEntity
  8
Objekat
 62
8
100
AcDbLine
 10
4250.0
 20
5200.0
 30
0.0
 11
4100.0
 21
5050.0
 31
0.0
  0
LINE
  5
DF
330
17
100
AcDbEntity
  8
Objekat
 62
8
100
AcDbLine
 10
4700.0
 20
5200.0
 30
0.0
 11
4550.0
 21
5050.0
 31
0.0
  0
LINE
  5
E0
330
17
100
AcDbEntity
  8
Objekat
 62
8
100
AcDbLine
 10
5150.0
 20
5200.0
 30
0.0
 11
5000.0
 21
5050.0
 31
0.0
  0
LINE
  5
E1
330
17
100
AcDbEntity
  8
Objekat
 62
8
100
AcDbLine
 10
5600.0
 20
5200.0
 30
0.0
 11
5450.0
 21
5050.0
 31
0.0
  0
LINE
  5
E2
330
17
100
AcDbEntity
  8
Objekat
 62
8
100
AcDbLine
 10
6050.0
 20
5200.0
 30
0.0
 11
5900.0
 21
5050.0
 31
0.0
  0
LINE
  5
E3
330
17
100
AcDbEntity
  8
Objekat
 62
8
100
AcDbLine
 10
6500.0
 20
5200.0
 30
0.0
 11
6350.0
 21
5050.0
 31
0.0
  0
LINE
  5
E4
330
17
100
AcDbEntity
  8
Objekat
 62
8
100
AcDbLine
 10
6950.0
 20
5200.0
 30
0.0
 11
6800.0
 21
5050.0
 31
0.0
  0
LINE
  5
E5
330
17
100
AcDbEntity
  8
Objekat
 62
8
100
AcDbLine
 10
7400.0
 20
5200.0
 30
0.0
 11
7250.0
 21
5050.0
 31
0.0
  0
LINE
  5
E6
330
17
100
AcDbEntity
  8
Objekat
 62
8
100
AcDbLine
 10
7850.0
 20
5200.0
 30
0.0
 11
7700.0
 21
5050.0
 31
0.0
  0
LINE
  5
E7
330
17
100
AcDbEntity
  8
Objekat
 62
8
100
AcDbLine
 10
8300.0
 20
5200.0
 30
0.0
 11
8150.0
 21
5050.0
 31
0.0
  0
LINE
  5
E8
330
17
100
AcDbEntity
  8
Objekat
 62
8
100
AcDbLine
 10
8750.0
 20
5200.0
 30
0.0
 11
8600.0
 21
5050.0
 31
0.0
  0
LINE
  5
E9
330
17
100
AcDbEntity
  8
Objekat
 62
8
100
AcDbLine
 10
9200.0
 20
5200.0
 30
0.0
 11
9050.0
 21
5050.0
 31
0.0
  0
LINE
  5
EA
330
17
100
AcDbEntity
  8
Objekat
 62
8
100
AcDbLine
 10
9650.0
 20
5200.0
 30
0.0
 11
9500.0
 21
5050.0
 31
0.0
  0
LINE
  5
EB
330
17
100
AcDbEntity
  8
Objekat
 62
8
100
AcDbLine
 10
10100.0
 20
5200.0
 30
0.0
 11
9950.0
 21
5050.0
 31
0.0
  0
LINE
  5
EC
330
17
100
AcDbEntity
  8
Objekat
 62
8
100
AcDbLine
 10
10550.0
 20
5200.0
 30
0.0
 11
10400.0
 21
5050.0
 31
0.0
  0
LINE
  5
ED
330
17
100
AcDbEntity
  8
Objekat
 62
8
100
AcDbLine
 10
11000.0
 20
5200.0
 30
0.0
 11
10850.0
 21
5050.0
 31
0.0
  0
LINE
  5
EE
330
17
100
AcDbEntity
  8
Objekat
 62
8
100
AcDbLine
 10
11450.0
 20
5200.0
 30
0.0
 11
11300.0
 21
5050.0
 31
0.0
  0
LINE
  5
EF
330
17
100
AcDbEntity
  8
Objekat
 62
8
100
AcDbLine
 10
11900.0
 20
5200.0
 30
0.0
 11
11750.0
 21
5050.0
 31
0.0
  0
LINE
  5
F0
330
17
100
AcDbEntity
  8
Objekat
 62
8
100
AcDbLine
 10
12350.0
 20
5200.0
 30
0.0
 11
12200.0
 21
5050.0
 31
0.0
  0
LINE
  5
F1
330
17
100
AcDbEntity
  8
Objekat
 62
8
100
AcDbLine
 10
12800.0
 20
5200.0
 30
0.0
 11
12650.0
 21
5050.0
 31
0.0
  0
LINE
  5
F2
330
17
100
AcDbEntity
  8
Objekat
 62
8
100
AcDbLine
 10
13250.0
 20
5200.0
 30
0.0
 11
13100.0
 21
5050.0
 31
0.0
  0
LWPOLYLINE
  5
F3
330
17
100
AcDbEntity
  8
Panel
 62
5
370
70
100
AcDbPolyline
 90
2
 70
0
 10
3700.0
 20
6700.0
 10
6936.0
 20
9936.0
  0
LWPOLYLINE
  5
F4
330
17
100
AcDbEntity
  8
Panel
 62
8
100
AcDbPolyline
 90
2
 70
0
 10
3700.0
 20
6620.0
 10
6936.0
 20
9856.0
  0
LINE
  5
F5
330
17
100
AcDbEntity
  8
Konstrukcija
 62
5
100
AcDbLine
 10
3700.0
 20
6700.0
 30
0.0
 11
3700.0
 21
5200.0
 31
0.0
  0
LINE
  5
F6
330
17
100
AcDbEntity
  8
Konstrukcija
 62
5
100
AcDbLine
 10
6936.0
 20
9936.0
 30
0.0
 11
6936.0
 21
5200.0
 31
0.0
  0
LINE
  5
F7
330
17
100
AcDbEntity
  8
Konstrukcija
 62
8
100
AcDbLine
 10
3700.0
 20
6700.0
 30
0.0
 11
6936.0
 21
5200.0
 31
0.0
  0
LWPOLYLINE
  5
F8
330
17
100
AcDbEntity
  8
Temelj
 62
32
370
50
100
AcDbPolyline
 90
4
 70
1
 10
3475.0
 20
4300.0
 10
3925.0
 20
4300.0
 10
3925.0
 20
5200.0
 10
3475.0
 20
5200.0
  0
HATCH
  5
F9
330
17
100
AcDbEntity
  8
Temelj
 62
7
100
AcDbHatch
 10
0.0
 20
0.0
 30
0.0
210
0.0
220
0.0
230
1.0
  2
ANSI31
 70
0
 71
0
 91
1
 92
3
 72
0
 73
1
 93
4
 10
3475.0
 20
4300.0
 10
3925.0
 20
4300.0
 10
3925.0
 20
5200.0
 10
3475.0
 20
5200.0
 97
0
 75
1
 76
1
 52
0.0
 41
10.5
 77
0
 78
1
 53
45.0
 43
0.0
 44
0.0
 45
-23.5731723182
 46
23.5731723182
 79
0
 98
0
  0
LWPOLYLINE
  5
FA
330
17
100
AcDbEntity
  8
Temelj
 62
32
370
50
100
AcDbPolyline
 90
4
 70
1
 10
6711.0
 20
4300.0
 10
7161.0
 20
4300.0
 10
7161.0
 20
5200.0
 10
6711.0
 20
5200.0
  0
HATCH
  5
FB
330
17
100
AcDbEntity
  8
Temelj
 62
7
100
AcDbHatch
 10
0.0
 20
0.0
 30
0.0
210
0.0
220
0.0
230
1.0
  2
ANSI31
 70
0
 71
0
 91
1
 92
3
 72
0
 73
1
 93
4
 10
6711.0
 20
4300.0
 10
7161.0
 20
4300.0
 10
7161.0
 20
5200.0
 10
6711.0
 20
5200.0
 97
0
 75
1
 76
1
 52
0.0
 41
10.5
 77
0
 78
1
 53
45.0
 43
0.0
 44
0.0
 45
-23.5731723182
 46
23.5731723182
 79
0
 98
0
  0
LINE
  5
FC
330
17
100
AcDbEntity
  8
Ograda
 62
8
370
50
100
AcDbLine
 10
7736.0
 20
5200.0
 30
0.0
 11
7736.0
 21
7100.0
 31
0.0
  0
LINE
  5
FD
330
17
100
AcDbEntity
  8
Sakriveno
 62
8
100
AcDbLine
 10
2100.0
 20
6700.0
 30
0.0
 11
9636.0
 21
6700.0
 31
0.0
  0
TEXT
  5
FE
330
17
100
AcDbEntity
  8
Kota_tekst
 62
7
100
AcDbText
 10
9736.0
 20
6650.0
 30
0.0
 40
60.0
  1
donja ivica panela  +1,50
  7
20
 11
9736.0
 21
6650.0
 31
0.0
100
AcDbText
  0
LINE
  5
FF
330
17
100
AcDbEntity
  8
Sakriveno
 62
8
100
AcDbLine
 10
2100.0
 20
7100.0
 30
0.0
 11
9636.0
 21
7100.0
 31
0.0
  0
TEXT
  5
100
330
17
100
AcDbEntity
  8
Kota_tekst
 62
7
100
AcDbText
 10
9736.0
 20
7050.0
 30
0.0
 40
60.0
  1
kota ograde  +1,90
  7
20
 11
9736.0
 21
7050.0
 31
0.0
100
AcDbText
  0
LINE
  5
101
330
17
100
AcDbEntity
  8
Sakriveno
 62
8
100
AcDbLine
 10
2100.0
 20
9936.0
 30
0.0
 11
9636.0
 21
9936.0
 31
0.0
  0
TEXT
  5
102
330
17
100
AcDbEntity
  8
Kota_tekst
 62
7
100
AcDbText
 10
9736.0
 20
9886.0
 30
0.0
 40
60.0
  1
gornja ivica panela  +4,74
  7
20
 11
9736.0
 21
9886.0
 31
0.0
100
AcDbText
  0
DIMENSION
  5
103
330
17
100
AcDbEntity
  8
Kote
100
AcDbDimension
280
0
  2
*D1
  3
M 30
 10
3700.0
 20
3000.0
 30
0.0
 11
5318.0
 21
3000.0
 31
0.0
 70
32
 71
5
  1
<>
100
AcDbAlignedDimension
 13
3700.0
 23
4300.0
 33
0.0
 14
6936.0
 24
4300.0
 34
0.0
 50
0.0
100
AcDbRotatedDimension
  0
DIMENSION
  5
113
330
17
100
AcDbEntity
  8
Kote
100
AcDbDimension
280
0
  2
*D2
  3
M 30
 10
1300.0
 20
5200.0
 30
0.0
 11
1300.0
 21
7568.0
 31
0.0
 70
32
 71
5
  1
<>
100
AcDbAlignedDimension
 13
2100.0
 23
5200.0
 33
0.0
 14
2100.0
 24
9936.0
 34
0.0
 50
90.0
100
AcDbRotatedDimension
  0
TEXT
  5
123
330
17
100
AcDbEntity
  8
Kote
 62
7
100
AcDbText
 10
4400.0
 20
7200.0
 30
0.0
 40
78.0
  1
45°
  7
20
 11
4400.0
 21
7200.0
 31
0.0
100
AcDbText
  0
TEXT
  5
124
330
17
100
AcDbEntity
  8
Orijentacija
 62
1
100
AcDbText
 10
8036.0
 20
3200.0
 30
0.0
 40
72.0
  1
S J E V E R  →
  7
20
 11
8036.0
 21
3200.0
 31
0.0
100
AcDbText
  0
TEXT
  5
125
330
17
100
AcDbEntity
  8
Orijentacija
 62
1
100
AcDbText
 10
2100.0
 20
3200.0
 30
0.0
 40
72.0
  1
←  J U G
  7
20
 11
2100.0
 21
3200.0
 31
0.0
100
AcDbText
  0
TEXT
  5
126
330
17
100
AcDbEntity
  8
Tekst
 62
8
100
AcDbText
 10
7886.0
 20
6100.0
 30
0.0
 40
60.0
  1
ograda h=1,90 m
  7
20
 11
7886.0
 21
6100.0
 31
0.0
100
AcDbText
  0
TEXT
  5
127
330
17
100
AcDbEntity
  8
Tekst
 62
7
100
AcDbText
 10
1900.0
 20
12836.0
 30
0.0
 40
78.0
  1
OBJAŠNJENJA:
  7
20
 11
1900.0
 21
12836.0
 31
0.0
100
AcDbText
  0
TEXT
  5
128
330
17
100
AcDbEntity
  8
Tekst
 62
8
100
AcDbText
 10
1900.0
 20
12764.0
 30
0.0
 40
63.0
  1
1  Polje FN panela: 2 reda × 2 modula 585 Wp u portretu — širina polja 2305 mm,
  7
20
 11
1900.0
 21
12764.0
 31
0.0
100
AcDbText
  0
TEXT
  5
129
330
17
100
AcDbEntity
  8
Tekst
 62
8
100
AcDbText
 10
1900.0
 20
12672.65
 30
0.0
 40
63.0
  1
    dužina po nagibu 4576 mm (2 × 2278 mm), horizontalna projekcija 3236 mm pri 45°
  7
20
 11
1900.0
 21
12672.65
 31
0.0
100
AcDbText
  0
TEXT
  5
12A
330
17
100
AcDbEntity
  8
Tekst
 62
8
100
AcDbText
 10
1900.0
 20
12581.3
 30
0.0
 40
63.0
  1
    (nepromijenjeno — isti broj redova po nagibu kao ranija izvedba 2×3).
  7
20
 11
1900.0
 21
12581.3
 31
0.0
100
AcDbText
  0
TEXT
  5
12B
330
17
100
AcDbEntity
  8
Tekst
 62
8
100
AcDbText
 10
1900.0
 20
12489.949999999999
 30
0.0
 40
63.0
  1
    ISPRAVLJENO (istorija): raniji nacrt je projekciju izvodio iz uzdužne grede
  7
20
 11
1900.0
 21
12489.949999999999
 31
0.0
100
AcDbText
  0
TEXT
  5
12C
330
17
100
AcDbEntity
  8
Tekst
 62
8
100
AcDbText
 10
1900.0
 20
12398.599999999999
 30
0.0
 40
63.0
  1
    3656 mm (2590 mm), što nije dužina polja modula — vidjeti F.2 u proračunu.
  7
20
 11
1900.0
 21
12398.599999999999
 31
0.0
100
AcDbText
  0
TEXT
  5
12D
330
17
100
AcDbEntity
  8
Tekst
 62
8
100
AcDbText
 10
1900.0
 20
12307.249999999998
 30
0.0
 40
63.0
  1
2  Dvije temeljne trake po nosaču, 450 × 3300 mm, dubina 900 mm, razmak 1600 mm,
  7
20
 11
1900.0
 21
12307.249999999998
 31
0.0
100
AcDbText
  0
TEXT
  5
12E
330
17
100
AcDbEntity
  8
Tekst
 62
8
100
AcDbText
 10
1900.0
 20
12215.899999999998
 30
0.0
 40
63.0
  1
    beton C25 na podlozi C10; dubina i armatura prema ovjerenom proračunu.
  7
20
 11
1900.0
 21
12215.899999999998
 31
0.0
100
AcDbText
  0
TEXT
  5
12F
330
17
100
AcDbEntity
  8
Tekst
 62
8
100
AcDbText
 10
1900.0
 20
12124.549999999997
 30
0.0
 40
63.0
  1
3  Donja ivica podignuta na +1,50 m (bilo +0,50 m uz 2×6 izvedbu) — iskorišten
  7
20
 11
1900.0
 21
12124.549999999997
 31
0.0
100
AcDbText
  0
TEXT
  5
130
330
17
100
AcDbEntity
  8
Tekst
 62
8
100
AcDbText
 10
1900.0
 20
12033.199999999997
 30
0.0
 40
63.0
  1
    prostor dobijen manjim opterećenjem vjetra po nosaču (3×4 umjesto 2×6,
  7
20
 11
1900.0
 21
12033.199999999997
 31
0.0
100
AcDbText
  0
TEXT
  5
131
330
17
100
AcDbEntity
  8
Tekst
 62
8
100
AcDbText
 10
1900.0
 20
11941.849999999997
 30
0.0
 40
63.0
  1
    v. F.6). Gornja ivica +4,74 m, 2,84 m iznad kote ograde h=1,90 m.
  7
20
 11
1900.0
 21
11941.849999999997
 31
0.0
100
AcDbText
  0
TEXT
  5
132
330
17
100
AcDbEntity
  8
Tekst
 62
8
100
AcDbText
 10
1900.0
 20
11850.499999999996
 30
0.0
 40
63.0
  1
4  CUSTOM IZRADA prema qp ≥ 1,20 kN/m² (sail 10,55 m²/nosaču, ULS uzgon
  7
20
 11
1900.0
 21
11850.499999999996
 31
0.0
100
AcDbText
  0
TEXT
  5
133
330
17
100
AcDbEntity
  8
Tekst
 62
8
100
AcDbText
 10
1900.0
 20
11759.149999999996
 30
0.0
 40
63.0
  1
    18,1 kN, moment 62,8 kNm) — vidjeti napomenu na listu S-02 i proračun F.6.
  7
20
 11
1900.0
 21
11759.149999999996
 31
0.0
100
AcDbText
  0
ENDSEC
  0
SECTION
  2
OBJECTS
  0
DICTIONARY
  5
A
330
0
100
AcDbDictionary
281
1
  3
ACAD_COLOR
350
B
  3
ACAD_GROUP
350
C
  3
ACAD_LAYOUT
350
D
  3
ACAD_MATERIAL
350
E
  3
ACAD_MLEADERSTYLE
350
F
  3
ACAD_MLINESTYLE
350
10
  3
ACAD_PLOTSETTINGS
350
11
  3
ACAD_PLOTSTYLENAME
350
12
  3
ACAD_SCALELIST
350
14
  3
ACAD_TABLESTYLE
350
15
  3
ACAD_VISUALSTYLE
350
16
  3
EZDXF_META
350
2D
  0
DICTIONARY
  5
B
330
A
100
AcDbDictionary
281
1
  0
DICTIONARY
  5
C
330
A
100
AcDbDictionary
281
1
  0
DICTIONARY
  5
D
330
A
100
AcDbDictionary
281
1
  3
Model
350
1A
  3
Layout1
350
1E
  0
DICTIONARY
  5
E
330
A
100
AcDbDictionary
281
1
  3
ByBlock
350
1F
  3
ByLayer
350
20
  3
Global
350
21
  0
DICTIONARY
  5
F
330
A
100
AcDbDictionary
281
1
  3
Standard
350
2C
  0
DICTIONARY
  5
10
330
A
100
AcDbDictionary
281
1
  3
Standard
350
22
  0
DICTIONARY
  5
11
330
A
100
AcDbDictionary
281
1
  0
ACDBDICTIONARYWDFLT
  5
12
330
A
100
AcDbDictionary
281
1
  3
Normal
350
13
100
AcDbDictionaryWithDefault
340
13
  0
ACDBPLACEHOLDER
  5
13
330
12
  0
DICTIONARY
  5
14
330
A
100
AcDbDictionary
281
1
  0
DICTIONARY
  5
15
330
A
100
AcDbDictionary
281
1
  0
DICTIONARY
  5
16
330
A
100
AcDbDictionary
281
1
  3
2dWireframe
350
5A
  3
Basic
350
5B
  3
Brighten
350
5C
  3
ColorChange
350
5D
  3
Conceptual
350
5E
  3
Dim
350
5F
  3
EdgeColorOff
350
60
  3
Facepattern
350
61
  3
Flat
350
62
  3
FlatWithEdges
350
63
  3
Gouraud
350
64
  3
GouraudWithEdges
350
65
  3
Hidden
350
66
  3
JitterOff
350
67
  3
Linepattern
350
68
  3
Modeling
350
69
  3
OverhangOff
350
6A
  3
Realistic
350
6B
  3
Shaded
350
6C
  3
Shaded with edges
350
6D
  3
Shades of Gray
350
6E
  3
Sketchy
350
6F
  3
Thicken
350
70
  3
Wireframe
350
71
  3
X-Ray
350
72
  0
LAYOUT
  5
1A
330
D
100
AcDbPlotSettings
  1

  4
A3
  6

 40
7.5
 41
20.0
 42
7.5
 43
20.0
 44
420.0
 45
297.0
 46
0.0
 47
0.0
 48
0.0
 49
0.0
140
0.0
141
0.0
142
1.0
143
1.0
 70
1024
 72
1
 73
0
 74
5
  7

 75
16
 76
0
 77
2
 78
300
147
1.0
148
0.0
149
0.0
100
AcDbLayout
  1
Model
 70
1
 71
0
 10
0.0
 20
0.0
 11
420.0
 21
297.0
 12
0.0
 22
0.0
 32
0.0
 14
1e+20
 24
1e+20
 34
1e+20
 15
-1e+20
 25
-1e+20
 35
-1e+20
146
0.0
 13
0.0
 23
0.0
 33
0.0
 16
1.0
 26
0.0
 36
0.0
 17
0.0
 27
1.0
 37
0.0
 76
1
330
17
  0
LAYOUT
  5
1E
330
D
100
AcDbPlotSettings
  1

  4
A3
  6

 40
7.5
 41
20.0
 42
7.5
 43
20.0
 44
420.0
 45
297.0
 46
0.0
 47
0.0
 48
0.0
 49
0.0
140
0.0
141
0.0
142
1.0
143
1.0
 70
0
 72
1
 73
0
 74
5
  7

 75
16
 76
0
 77
2
 78
300
147
1.0
148
0.0
149
0.0
100
AcDbLayout
  1
Layout1
 70
1
 71
1
 10
0.0
 20
0.0
 11
420.0
 21
297.0
 12
0.0
 22
0.0
 32
0.0
 14
1e+20
 24
1e+20
 34
1e+20
 15
-1e+20
 25
-1e+20
 35
-1e+20
146
0.0
 13
0.0
 23
0.0
 33
0.0
 16
1.0
 26
0.0
 36
0.0
 17
0.0
 27
1.0
 37
0.0
 76
1
330
1B
  0
MATERIAL
  5
1F
102
{ACAD_REACTORS
330
E
102
}
330
E
100
AcDbMaterial
  1
ByBlock
  2

 70
0
 40
1.0
 71
1
 41
1.0
 91
-1023410177
 42
1.0
 72
1
  3

 73
1
 74
1
 75
1
 44
0.5
 73
0
 45
1.0
 46
1.0
 77
1
  4

 78
1
 79
1
170
1
 48
1.0
171
1
  6

172
1
173
1
174
1
140
1.0
141
1.0
175
1
  7

176
1
177
1
178
1
143
1.0
179
1
  8

270
1
271
1
272
1
145
1.0
146
1.0
273
1
  9

274
1
275
1
276
1
 42
1.0
 72
1
  3

 73
1
 74
1
 75
1
 94
63
  0
MATERIAL
  5
20
102
{ACAD_REACTORS
330
E
102
}
330
E
100
AcDbMaterial
  1
ByLayer
  2

 70
0
 40
1.0
 71
1
 41
1.0
 91
-1023410177
 42
1.0
 72
1
  3

 73
1
 74
1
 75
1
 44
0.5
 73
0
 45
1.0
 46
1.0
 77
1
  4

 78
1
 79
1
170
1
 48
1.0
171
1
  6

172
1
173
1
174
1
140
1.0
141
1.0
175
1
  7

176
1
177
1
178
1
143
1.0
179
1
  8

270
1
271
1
272
1
145
1.0
146
1.0
273
1
  9

274
1
275
1
276
1
 42
1.0
 72
1
  3

 73
1
 74
1
 75
1
 94
63
  0
MATERIAL
  5
21
102
{ACAD_REACTORS
330
E
102
}
330
E
100
AcDbMaterial
  1
Global
  2

 70
0
 40
1.0
 71
1
 41
1.0
 91
-1023410177
 42
1.0
 72
1
  3

 73
1
 74
1
 75
1
 44
0.5
 73
0
 45
1.0
 46
1.0
 77
1
  4

 78
1
 79
1
170
1
 48
1.0
171
1
  6

172
1
173
1
174
1
140
1.0
141
1.0
175
1
  7

176
1
177
1
178
1
143
1.0
179
1
  8

270
1
271
1
272
1
145
1.0
146
1.0
273
1
  9

274
1
275
1
276
1
 42
1.0
 72
1
  3

 73
1
 74
1
 75
1
 94
63
  0
MLINESTYLE
  5
22
102
{ACAD_REACTORS
330
10
102
}
330
10
100
AcDbMlineStyle
  2
Standard
 70
0
  3

 62
256
 51
90.0
 52
90.0
 71
2
 49
0.5
 62
256
  6
BYLAYER
 49
-0.5
 62
256
  6
BYLAYER
  0
MLEADERSTYLE
  5
2C
102
{ACAD_REACTORS
330
F
102
}
330
F
100
AcDbMLeaderStyle
179
2
170
2
171
1
172
0
 90
2
 40
0.0
 41
0.0
173
1
 91
-1056964608
 92
-2
290
1
 42
2.0
291
1
 43
8.0
  3
Standard
 44
4.0
300

342
29
174
1
175
1
176
0
178
1
 93
-1056964608
 45
4.0
292
0
297
0
 46
4.0
 94
-1056964608
 47
1.0
 49
1.0
140
1.0
294
1
141
0.0
177
0
142
1.0
295
0
296
0
143
3.75
271
0
272
9
273
9
  0
DICTIONARY
  5
2D
330
A
100
AcDbDictionary
280
1
281
1
  3
CREATED_BY_EZDXF
350
2E
  3
WRITTEN_BY_EZDXF
350
136
  0
DICTIONARYVAR
  5
2E
330
2D
100
DictionaryVariables
280
0
  1
1.4.4 @ 2026-08-08T02:19:40.827145+00:00
  0
VISUALSTYLE
  5
5A
102
{ACAD_REACTORS
330
16
102
}
330
16
100
AcDbVisualStyle
  2
2dWireframe
 70
4
 90
0
 40
0.6
 62
7
290
0
291
0
  0
VISUALSTYLE
  5
5B
102
{ACAD_REACTORS
330
16
102
}
330
16
100
AcDbVisualStyle
  2
Basic
 70
7
 90
1
 40
0.6
 62
7
290
0
291
1
  0
VISUALSTYLE
  5
5C
102
{ACAD_REACTORS
330
16
102
}
330
16
100
AcDbVisualStyle
  2
Brighten
 70
12
 90
2
 40
0.6
 62
7
290
0
291
1
  0
VISUALSTYLE
  5
5D
102
{ACAD_REACTORS
330
16
102
}
330
16
100
AcDbVisualStyle
  2
ColorChange
 70
16
 90
2
 40
0.6
 62
8
290
0
291
1
  0
VISUALSTYLE
  5
5E
102
{ACAD_REACTORS
330
16
102
}
330
16
100
AcDbVisualStyle
  2
Conceptual
 70
9
 90
3
 40
0.6
 62
7
290
0
291
0
  0
VISUALSTYLE
  5
5F
102
{ACAD_REACTORS
330
16
102
}
330
16
100
AcDbVisualStyle
  2
Dim
 70
11
 90
2
 40
0.6
 62
7
290
0
291
1
  0
VISUALSTYLE
  5
60
102
{ACAD_REACTORS
330
16
102
}
330
16
100
AcDbVisualStyle
  2
EdgeColorOff
 70
22
 90
2
 40
0.6
 62
7
290
0
291
1
  0
VISUALSTYLE
  5
61
102
{ACAD_REACTORS
330
16
102
}
330
16
100
AcDbVisualStyle
  2
Facepattern
 70
15
 90
2
 40
0.6
 62
7
290
0
291
1
  0
VISUALSTYLE
  5
62
102
{ACAD_REACTORS
330
16
102
}
330
16
100
AcDbVisualStyle
  2
Flat
 70
0
 90
2
 40
0.6
 62
7
290
0
291
1
  0
VISUALSTYLE
  5
63
102
{ACAD_REACTORS
330
16
102
}
330
16
100
AcDbVisualStyle
  2
FlatWithEdges
 70
1
 90
2
 40
0.6
 62
7
290
0
291
1
  0
VISUALSTYLE
  5
64
102
{ACAD_REACTORS
330
16
102
}
330
16
100
AcDbVisualStyle
  2
Gouraud
 70
2
 90
2
 40
0.6
 62
7
290
0
291
1
  0
VISUALSTYLE
  5
65
102
{ACAD_REACTORS
330
16
102
}
330
16
100
AcDbVisualStyle
  2
GouraudWithEdges
 70
3
 90
2
 40
0.6
 62
7
290
0
291
1
  0
VISUALSTYLE
  5
66
102
{ACAD_REACTORS
330
16
102
}
330
16
100
AcDbVisualStyle
  2
Hidden
 70
6
 90
1
 40
0.6
 62
7
290
0
291
0
  0
VISUALSTYLE
  5
67
102
{ACAD_REACTORS
330
16
102
}
330
16
100
AcDbVisualStyle
  2
JitterOff
 70
20
 90
2
 40
0.6
 62
7
290
0
291
1
  0
VISUALSTYLE
  5
68
102
{ACAD_REACTORS
330
16
102
}
330
16
100
AcDbVisualStyle
  2
Linepattern
 70
14
 90
2
 40
0.6
 62
7
290
0
291
1
  0
VISUALSTYLE
  5
69
102
{ACAD_REACTORS
330
16
102
}
330
16
100
AcDbVisualStyle
  2
Modeling
 70
10
 90
2
 40
0.6
 62
7
290
0
291
0
  0
VISUALSTYLE
  5
6A
102
{ACAD_REACTORS
330
16
102
}
330
16
100
AcDbVisualStyle
  2
OverhangOff
 70
21
 90
2
 40
0.6
 62
7
290
0
291
1
  0
VISUALSTYLE
  5
6B
102
{ACAD_REACTORS
330
16
102
}
330
16
100
AcDbVisualStyle
  2
Realistic
 70
8
 90
2
 40
0.6
 62
7
290
0
291
0
  0
VISUALSTYLE
  5
6C
102
{ACAD_REACTORS
330
16
102
}
330
16
100
AcDbVisualStyle
  2
Shaded
 70
27
 90
2
 40
0.6
 62
7
290
0
291
0
  0
VISUALSTYLE
  5
6D
102
{ACAD_REACTORS
330
16
102
}
330
16
100
AcDbVisualStyle
  2
Shaded with edges
 70
26
 90
2
 40
0.6
 62
7
290
0
291
0
  0
VISUALSTYLE
  5
6E
102
{ACAD_REACTORS
330
16
102
}
330
16
100
AcDbVisualStyle
  2
Shades of Gray
 70
23
 90
2
 40
0.6
 62
7
290
0
291
0
  0
VISUALSTYLE
  5
6F
102
{ACAD_REACTORS
330
16
102
}
330
16
100
AcDbVisualStyle
  2
Sketchy
 70
24
 90
1
 40
0.6
 62
7
290
0
291
0
  0
VISUALSTYLE
  5
70
102
{ACAD_REACTORS
330
16
102
}
330
16
100
AcDbVisualStyle
  2
Thicken
 70
13
 90
2
 40
0.6
 62
7
290
0
291
1
  0
VISUALSTYLE
  5
71
102
{ACAD_REACTORS
330
16
102
}
330
16
100
AcDbVisualStyle
  2
Wireframe
 70
5
 90
0
 40
0.6
 62
7
290
0
291
0
  0
VISUALSTYLE
  5
72
102
{ACAD_REACTORS
330
16
102
}
330
16
100
AcDbVisualStyle
  2
X-Ray
 70
25
 90
2
 40
0.5
 62
7
290
0
291
0
  0
DICTIONARYVAR
  5
136
330
2D
100
DictionaryVariables
280
0
  1
1.4.4 @ 2026-08-08T02:19:40.836673+00:00
  0
ENDSEC
  0
EOF
